<?xml version="1.0" encoding="utf-8" standalone="no"?>
<!DOCTYPE svg PUBLIC "-//W3C//DTD SVG 1.1//EN"
  "http://www.w3.org/Graphics/SVG/1.1/DTD/svg11.dtd">
<!-- Created with matplotlib (http://matplotlib.org/) -->
<svg height="147pt" version="1.1" viewBox="0 0 226 147" width="226pt" xmlns="http://www.w3.org/2000/svg" xmlns:xlink="http://www.w3.org/1999/xlink">
 <defs>
  <style type="text/css">
*{stroke-linecap:butt;stroke-linejoin:round;stroke-miterlimit:100000;}
  </style>
 </defs>
 <g id="figure_1">
  <g id="patch_1">
   <path d="M 0 147.401575 
L 226.771654 147.401575 
L 226.771654 0 
L 0 0 
z
" style="fill:#ffffff;"/>
  </g>
  <g id="axes_1">
   <g id="patch_2">
    <path d="M 28.8 115.001575 
L 116.985827 115.001575 
L 116.985827 21.2 
L 28.8 21.2 
z
" style="fill:#ffffff;"/>
   </g>
   <g id="PolyCollection_1">
    <defs>
     <path d="M 33.699213 -32.4 
L 33.699213 -32.4 
L 34.491005 -32.456992 
L 35.282796 -32.514234 
L 36.074588 -32.571751 
L 36.86638 -32.629602 
L 37.658172 -32.687455 
L 38.449964 -32.745646 
L 39.241756 -32.803882 
L 40.033548 -32.862622 
L 40.82534 -32.921489 
L 41.617132 -32.980548 
L 42.408924 -33.039704 
L 43.200716 -33.09906 
L 43.992508 -33.159168 
L 44.7843 -33.21914 
L 45.576092 -33.279105 
L 46.367884 -33.3402 
L 47.159675 -33.400943 
L 47.951467 -33.462673 
L 48.743259 -33.523907 
L 49.535051 -33.585404 
L 50.326843 -33.64771 
L 51.118635 -33.709449 
L 51.910427 -33.771606 
L 52.702219 -33.833541 
L 53.494011 -33.895932 
L 54.285803 -33.958695 
L 55.077595 -34.021673 
L 55.869387 -34.085592 
L 56.661179 -34.150005 
L 57.452971 -34.214692 
L 58.244763 -34.279652 
L 59.036555 -34.344884 
L 59.828346 -34.410385 
L 60.620138 -34.474914 
L 61.41193 -34.539352 
L 62.203722 -34.605043 
L 62.995514 -34.671727 
L 63.787306 -34.741904 
L 64.579098 -34.834938 
L 65.37089 -34.910368 
L 66.162682 -35.006101 
L 66.954474 -35.082265 
L 67.746266 -35.188815 
L 68.538058 -35.291301 
L 69.32985 -35.412245 
L 70.121642 -35.545334 
L 70.913434 -35.706253 
L 71.705225 -35.893603 
L 72.497017 -36.091822 
L 73.288809 -36.323479 
L 74.080601 -36.559048 
L 74.872393 -36.795347 
L 75.664185 -37.03809 
L 76.455977 -37.294432 
L 77.247769 -37.539578 
L 78.039561 -37.790306 
L 78.831353 -38.039549 
L 79.623145 -38.288598 
L 80.414937 -38.539351 
L 81.206729 -38.791556 
L 81.998521 -39.038038 
L 82.790313 -39.294448 
L 83.582105 -39.547179 
L 84.373896 -39.79893 
L 85.165688 -40.072628 
L 85.95748 -40.345352 
L 86.749272 -40.600002 
L 87.541064 -40.878557 
L 88.332856 -41.139861 
L 89.124648 -41.414014 
L 89.91644 -41.6893 
L 90.708232 -41.962764 
L 91.500024 -42.264589 
L 92.291816 -42.555955 
L 93.083608 -42.834196 
L 93.8754 -43.117635 
L 94.667192 -43.398612 
L 95.458984 -43.68391 
L 96.250775 -43.980596 
L 97.042567 -44.278419 
L 97.834359 -44.562421 
L 98.626151 -44.864554 
L 99.417943 -45.164585 
L 100.209735 -45.47116 
L 101.001527 -45.788739 
L 101.793319 -46.094731 
L 102.585111 -46.413984 
L 103.376903 -46.727358 
L 104.168695 -47.040563 
L 104.960487 -47.36358 
L 105.752279 -47.680526 
L 106.544071 -48.016027 
L 107.335863 -48.346187 
L 108.127654 -48.679572 
L 108.919446 -49.01626 
L 109.711238 -49.33715 
L 110.50303 -49.685704 
L 111.294822 -50.045045 
L 112.086614 -50.396363 
L 112.086614 -118.385954 
L 112.086614 -118.385954 
L 111.294822 -116.180758 
L 110.50303 -114.026047 
L 109.711238 -111.916281 
L 108.919446 -109.82917 
L 108.127654 -107.735158 
L 107.335863 -105.708355 
L 106.544071 -103.720631 
L 105.752279 -101.866609 
L 104.960487 -99.894664 
L 104.168695 -97.901533 
L 103.376903 -95.906237 
L 102.585111 -94.08819 
L 101.793319 -92.283329 
L 101.001527 -90.30854 
L 100.209735 -88.383425 
L 99.417943 -86.600096 
L 98.626151 -84.88229 
L 97.834359 -83.338259 
L 97.042567 -81.902253 
L 96.250775 -80.495944 
L 95.458984 -78.929499 
L 94.667192 -77.470001 
L 93.8754 -76.083605 
L 93.083608 -74.788075 
L 92.291816 -73.524755 
L 91.500024 -72.291696 
L 90.708232 -70.972772 
L 89.91644 -69.594871 
L 89.124648 -68.422309 
L 88.332856 -67.194708 
L 87.541064 -66.046633 
L 86.749272 -64.898504 
L 85.95748 -63.788211 
L 85.165688 -62.718803 
L 84.373896 -61.640604 
L 83.582105 -60.602014 
L 82.790313 -59.571084 
L 81.998521 -58.506196 
L 81.206729 -57.565273 
L 80.414937 -56.637849 
L 79.623145 -55.626725 
L 78.831353 -54.755621 
L 78.039561 -53.922816 
L 77.247769 -53.065243 
L 76.455977 -52.305326 
L 75.664185 -51.471296 
L 74.872393 -50.654448 
L 74.080601 -49.897084 
L 73.288809 -49.144583 
L 72.497017 -48.422066 
L 71.705225 -47.717371 
L 70.913434 -47.07142 
L 70.121642 -46.409912 
L 69.32985 -45.906164 
L 68.538058 -45.353584 
L 67.746266 -44.817248 
L 66.954474 -44.333248 
L 66.162682 -43.859225 
L 65.37089 -43.461525 
L 64.579098 -43.057449 
L 63.787306 -42.660464 
L 62.995514 -42.309988 
L 62.203722 -41.989131 
L 61.41193 -41.669199 
L 60.620138 -41.349523 
L 59.828346 -41.033093 
L 59.036555 -40.725581 
L 58.244763 -40.42199 
L 57.452971 -40.121318 
L 56.661179 -39.82112 
L 55.869387 -39.523327 
L 55.077595 -39.230243 
L 54.285803 -38.93972 
L 53.494011 -38.651353 
L 52.702219 -38.368856 
L 51.910427 -38.083528 
L 51.118635 -37.80704 
L 50.326843 -37.531934 
L 49.535051 -37.259456 
L 48.743259 -36.98845 
L 47.951467 -36.716981 
L 47.159675 -36.456399 
L 46.367884 -36.198362 
L 45.576092 -35.94026 
L 44.7843 -35.684295 
L 43.992508 -35.433478 
L 43.200716 -35.183977 
L 42.408924 -34.937242 
L 41.617132 -34.693253 
L 40.82534 -34.450781 
L 40.033548 -34.213166 
L 39.241756 -33.977579 
L 38.449964 -33.744377 
L 37.658172 -33.51382 
L 36.86638 -33.286079 
L 36.074588 -33.061487 
L 35.282796 -32.838304 
L 34.491005 -32.617639 
L 33.699213 -32.4 
z
" id="m0573ec5687" style="stroke:#008000;stroke-opacity:0.2;"/>
    </defs>
    <g clip-path="url(#pfb0a9296c8)">
     <use style="fill:#008000;fill-opacity:0.2;stroke:#008000;stroke-opacity:0.2;" x="0.0" xlink:href="#m0573ec5687" y="147.401574803"/>
    </g>
   </g>
   <g id="PolyCollection_2">
    <defs>
     <path d="M 33.699213 -32.4 
L 33.699213 -32.4 
L 34.491005 -32.478841 
L 35.282796 -32.558034 
L 36.074588 -32.637628 
L 36.86638 -32.717578 
L 37.658172 -32.797916 
L 38.449964 -32.878596 
L 39.241756 -32.959633 
L 40.033548 -33.04112 
L 40.82534 -33.123037 
L 41.617132 -33.205331 
L 42.408924 -33.287968 
L 43.200716 -33.371583 
L 43.992508 -33.455241 
L 44.7843 -33.539334 
L 45.576092 -33.623394 
L 46.367884 -33.708153 
L 47.159675 -33.793622 
L 47.951467 -33.8795 
L 48.743259 -33.965509 
L 49.535051 -34.051981 
L 50.326843 -34.138615 
L 51.118635 -34.225902 
L 51.910427 -34.313189 
L 52.702219 -34.401236 
L 53.494011 -34.490321 
L 54.285803 -34.578584 
L 55.077595 -34.66806 
L 55.869387 -34.757257 
L 56.661179 -34.846322 
L 57.452971 -34.936409 
L 58.244763 -35.027389 
L 59.036555 -35.117518 
L 59.828346 -35.209053 
L 60.620138 -35.301363 
L 61.41193 -35.394623 
L 62.203722 -35.485986 
L 62.995514 -35.578618 
L 63.787306 -35.678172 
L 64.579098 -35.786877 
L 65.37089 -35.904753 
L 66.162682 -36.031396 
L 66.954474 -36.170767 
L 67.746266 -36.315264 
L 68.538058 -36.467335 
L 69.32985 -36.628904 
L 70.121642 -36.800203 
L 70.913434 -36.989043 
L 71.705225 -37.206629 
L 72.497017 -37.442728 
L 73.288809 -37.707936 
L 74.080601 -37.98322 
L 74.872393 -38.255971 
L 75.664185 -38.532338 
L 76.455977 -38.809376 
L 77.247769 -39.092689 
L 78.039561 -39.377069 
L 78.831353 -39.662746 
L 79.623145 -39.949014 
L 80.414937 -40.241258 
L 81.206729 -40.529756 
L 81.998521 -40.821102 
L 82.790313 -41.119303 
L 83.582105 -41.417331 
L 84.373896 -41.719842 
L 85.165688 -42.028904 
L 85.95748 -42.341353 
L 86.749272 -42.653972 
L 87.541064 -42.969398 
L 88.332856 -43.286463 
L 89.124648 -43.608362 
L 89.91644 -43.928749 
L 90.708232 -44.25433 
L 91.500024 -44.587151 
L 92.291816 -44.925602 
L 93.083608 -45.263066 
L 93.8754 -45.602964 
L 94.667192 -45.939886 
L 95.458984 -46.286798 
L 96.250775 -46.634424 
L 97.042567 -46.980898 
L 97.834359 -47.335366 
L 98.626151 -47.689442 
L 99.417943 -48.047492 
L 100.209735 -48.410867 
L 101.001527 -48.778624 
L 101.793319 -49.153481 
L 102.585111 -49.527191 
L 103.376903 -49.903734 
L 104.168695 -50.289327 
L 104.960487 -50.673322 
L 105.752279 -51.058605 
L 106.544071 -51.451934 
L 107.335863 -51.843635 
L 108.127654 -52.249205 
L 108.919446 -52.655146 
L 109.711238 -53.063565 
L 110.50303 -53.471789 
L 111.294822 -53.886211 
L 112.086614 -54.30596 
L 112.086614 -80.020297 
L 112.086614 -80.020297 
L 111.294822 -78.996864 
L 110.50303 -78.003084 
L 109.711238 -77.008491 
L 108.919446 -76.033765 
L 108.127654 -75.085395 
L 107.335863 -74.139637 
L 106.544071 -73.212965 
L 105.752279 -72.304626 
L 104.960487 -71.412385 
L 104.168695 -70.530066 
L 103.376903 -69.659777 
L 102.585111 -68.798315 
L 101.793319 -67.952818 
L 101.001527 -67.125008 
L 100.209735 -66.298304 
L 99.417943 -65.485388 
L 98.626151 -64.676553 
L 97.834359 -63.894358 
L 97.042567 -63.11362 
L 96.250775 -62.349972 
L 95.458984 -61.596896 
L 94.667192 -60.860088 
L 93.8754 -60.13837 
L 93.083608 -59.410377 
L 92.291816 -58.711095 
L 91.500024 -58.01776 
L 90.708232 -57.330511 
L 89.91644 -56.660928 
L 89.124648 -56.002214 
L 88.332856 -55.350275 
L 87.541064 -54.707926 
L 86.749272 -54.076398 
L 85.95748 -53.465279 
L 85.165688 -52.851729 
L 84.373896 -52.252136 
L 83.582105 -51.668515 
L 82.790313 -51.087394 
L 81.998521 -50.517486 
L 81.206729 -49.952462 
L 80.414937 -49.396401 
L 79.623145 -48.85504 
L 78.831353 -48.325589 
L 78.039561 -47.802026 
L 77.247769 -47.286338 
L 76.455977 -46.772954 
L 75.664185 -46.272973 
L 74.872393 -45.774411 
L 74.080601 -45.296663 
L 73.288809 -44.822615 
L 72.497017 -44.360189 
L 71.705225 -43.898662 
L 70.913434 -43.455863 
L 70.121642 -43.032734 
L 69.32985 -42.622633 
L 68.538058 -42.231652 
L 67.746266 -41.85462 
L 66.954474 -41.505526 
L 66.162682 -41.177524 
L 65.37089 -40.863965 
L 64.579098 -40.581962 
L 63.787306 -40.316338 
L 62.995514 -40.069184 
L 62.203722 -39.827053 
L 61.41193 -39.587212 
L 60.620138 -39.350066 
L 59.828346 -39.117189 
L 59.036555 -38.883397 
L 58.244763 -38.651446 
L 57.452971 -38.421252 
L 56.661179 -38.194981 
L 55.869387 -37.969267 
L 55.077595 -37.746576 
L 54.285803 -37.525076 
L 53.494011 -37.305685 
L 52.702219 -37.088339 
L 51.910427 -36.873511 
L 51.118635 -36.659843 
L 50.326843 -36.446748 
L 49.535051 -36.235778 
L 48.743259 -36.02744 
L 47.951467 -35.820109 
L 47.159675 -35.615307 
L 46.367884 -35.412138 
L 45.576092 -35.211288 
L 44.7843 -35.011795 
L 43.992508 -34.813326 
L 43.200716 -34.61764 
L 42.408924 -34.423476 
L 41.617132 -34.231439 
L 40.82534 -34.040403 
L 40.033548 -33.851197 
L 39.241756 -33.664023 
L 38.449964 -33.478504 
L 37.658172 -33.294709 
L 36.86638 -33.112398 
L 36.074588 -32.931767 
L 35.282796 -32.75289 
L 34.491005 -32.57563 
L 33.699213 -32.4 
z
" id="m32ed8cd00d" style="stroke:#008000;stroke-opacity:0.2;"/>
    </defs>
    <g clip-path="url(#pfb0a9296c8)">
     <use style="fill:#008000;fill-opacity:0.2;stroke:#008000;stroke-opacity:0.2;" x="0.0" xlink:href="#m32ed8cd00d" y="147.401574803"/>
    </g>
   </g>
   <g id="PolyCollection_3">
    <defs>
     <path d="M 33.699213 -32.4 
L 33.699213 -32.4 
L 34.491005 -32.500838 
L 35.282796 -32.6023 
L 36.074588 -32.70437 
L 36.86638 -32.807072 
L 37.658172 -32.910288 
L 38.449964 -33.014084 
L 39.241756 -33.11857 
L 40.033548 -33.223584 
L 40.82534 -33.329247 
L 41.617132 -33.435501 
L 42.408924 -33.542347 
L 43.200716 -33.649908 
L 43.992508 -33.757956 
L 44.7843 -33.866606 
L 45.576092 -33.975988 
L 46.367884 -34.085774 
L 47.159675 -34.196015 
L 47.951467 -34.307014 
L 48.743259 -34.418769 
L 49.535051 -34.531075 
L 50.326843 -34.643753 
L 51.118635 -34.756994 
L 51.910427 -34.871146 
L 52.702219 -34.985775 
L 53.494011 -35.100636 
L 54.285803 -35.216617 
L 55.077595 -35.333086 
L 55.869387 -35.449966 
L 56.661179 -35.567345 
L 57.452971 -35.684968 
L 58.244763 -35.803525 
L 59.036555 -35.922924 
L 59.828346 -36.04319 
L 60.620138 -36.164144 
L 61.41193 -36.285726 
L 62.203722 -36.407138 
L 62.995514 -36.529804 
L 63.787306 -36.657941 
L 64.579098 -36.797661 
L 65.37089 -36.948486 
L 66.162682 -37.106834 
L 66.954474 -37.281548 
L 67.746266 -37.462551 
L 68.538058 -37.65817 
L 69.32985 -37.863516 
L 70.121642 -38.087478 
L 70.913434 -38.329613 
L 71.705225 -38.58976 
L 72.497017 -38.871113 
L 73.288809 -39.170291 
L 74.080601 -39.475379 
L 74.872393 -39.780491 
L 75.664185 -40.093674 
L 76.455977 -40.408906 
L 77.247769 -40.726318 
L 78.039561 -41.046997 
L 78.831353 -41.371494 
L 79.623145 -41.699701 
L 80.414937 -42.030258 
L 81.206729 -42.36798 
L 81.998521 -42.706106 
L 82.790313 -43.048858 
L 83.582105 -43.394708 
L 84.373896 -43.742058 
L 85.165688 -44.096971 
L 85.95748 -44.453603 
L 86.749272 -44.812597 
L 87.541064 -45.177498 
L 88.332856 -45.545106 
L 89.124648 -45.917696 
L 89.91644 -46.293244 
L 90.708232 -46.677016 
L 91.500024 -47.062317 
L 92.291816 -47.450981 
L 93.083608 -47.844864 
L 93.8754 -48.242178 
L 94.667192 -48.645452 
L 95.458984 -49.050811 
L 96.250775 -49.4612 
L 97.042567 -49.874949 
L 97.834359 -50.294352 
L 98.626151 -50.718295 
L 99.417943 -51.143887 
L 100.209735 -51.57557 
L 101.001527 -52.011628 
L 101.793319 -52.450166 
L 102.585111 -52.897084 
L 103.376903 -53.350755 
L 104.168695 -53.804149 
L 104.960487 -54.266718 
L 105.752279 -54.731744 
L 106.544071 -55.201428 
L 107.335863 -55.678007 
L 108.127654 -56.154514 
L 108.919446 -56.638692 
L 109.711238 -57.129014 
L 110.50303 -57.623041 
L 111.294822 -58.120655 
L 112.086614 -58.62781 
L 112.086614 -70.349563 
L 112.086614 -70.349563 
L 111.294822 -69.579848 
L 110.50303 -68.819636 
L 109.711238 -68.069597 
L 108.919446 -67.325654 
L 108.127654 -66.597346 
L 107.335863 -65.880072 
L 106.544071 -65.169127 
L 105.752279 -64.472279 
L 104.960487 -63.779037 
L 104.168695 -63.099071 
L 103.376903 -62.42988 
L 102.585111 -61.765152 
L 101.793319 -61.108544 
L 101.001527 -60.461545 
L 100.209735 -59.821809 
L 99.417943 -59.197538 
L 98.626151 -58.579638 
L 97.834359 -57.96842 
L 97.042567 -57.369583 
L 96.250775 -56.778657 
L 95.458984 -56.193988 
L 94.667192 -55.620182 
L 93.8754 -55.046504 
L 93.083608 -54.483025 
L 92.291816 -53.927207 
L 91.500024 -53.377046 
L 90.708232 -52.833317 
L 89.91644 -52.29838 
L 89.124648 -51.772788 
L 88.332856 -51.251674 
L 87.541064 -50.738347 
L 86.749272 -50.231948 
L 85.95748 -49.73409 
L 85.165688 -49.240065 
L 84.373896 -48.757872 
L 83.582105 -48.280374 
L 82.790313 -47.810514 
L 81.998521 -47.345924 
L 81.206729 -46.887652 
L 80.414937 -46.436626 
L 79.623145 -45.989395 
L 78.831353 -45.550099 
L 78.039561 -45.115246 
L 77.247769 -44.685614 
L 76.455977 -44.263163 
L 75.664185 -43.84632 
L 74.872393 -43.438297 
L 74.080601 -43.033401 
L 73.288809 -42.63451 
L 72.497017 -42.240769 
L 71.705225 -41.863108 
L 70.913434 -41.49487 
L 70.121642 -41.138555 
L 69.32985 -40.802036 
L 68.538058 -40.479722 
L 67.746266 -40.179547 
L 66.954474 -39.894296 
L 66.162682 -39.630296 
L 65.37089 -39.381314 
L 64.579098 -39.150173 
L 63.787306 -38.9365 
L 62.995514 -38.735346 
L 62.203722 -38.540332 
L 61.41193 -38.347232 
L 60.620138 -38.154788 
L 59.828346 -37.963944 
L 59.036555 -37.774863 
L 58.244763 -37.586939 
L 57.452971 -37.40045 
L 56.661179 -37.214953 
L 55.869387 -37.031285 
L 55.077595 -36.84922 
L 54.285803 -36.667897 
L 53.494011 -36.488281 
L 52.702219 -36.309679 
L 51.910427 -36.132501 
L 51.118635 -35.956391 
L 50.326843 -35.781809 
L 49.535051 -35.608385 
L 48.743259 -35.436416 
L 47.951467 -35.26523 
L 47.159675 -35.095456 
L 46.367884 -34.926864 
L 45.576092 -34.759693 
L 44.7843 -34.593589 
L 43.992508 -34.428965 
L 43.200716 -34.265343 
L 42.408924 -34.103461 
L 41.617132 -33.942462 
L 40.82534 -33.782734 
L 40.033548 -33.624194 
L 39.241756 -33.466904 
L 38.449964 -33.310913 
L 37.658172 -33.15612 
L 36.86638 -33.002502 
L 36.074588 -32.850157 
L 35.282796 -32.698888 
L 34.491005 -32.548839 
L 33.699213 -32.4 
z
" id="m1b25bd9e2b" style="stroke:#008000;stroke-opacity:0.2;"/>
    </defs>
    <g clip-path="url(#pfb0a9296c8)">
     <use style="fill:#008000;fill-opacity:0.2;stroke:#008000;stroke-opacity:0.2;" x="0.0" xlink:href="#m1b25bd9e2b" y="147.401574803"/>
    </g>
   </g>
   <g id="LineCollection_1">
    <path clip-path="url(#pfb0a9296c8)" d="M 92.489764 85.345798 
L 92.489764 84.694695 
" style="fill:none;stroke:#000000;"/>
   </g>
   <g id="line2d_1">
    <defs>
     <path d="M 3 0 
L -3 -0 
" id="m15febdb490" style="stroke:#000000;stroke-width:0.5;"/>
    </defs>
    <g clip-path="url(#pfb0a9296c8)">
     <use style="stroke:#000000;stroke-width:0.5;" x="92.4897637795" xlink:href="#m15febdb490" y="85.3457981714"/>
    </g>
   </g>
   <g id="line2d_2">
    <g clip-path="url(#pfb0a9296c8)">
     <use style="stroke:#000000;stroke-width:0.5;" x="92.4897637795" xlink:href="#m15febdb490" y="84.6946947419"/>
    </g>
   </g>
   <g id="line2d_3">
    <defs>
     <path d="M 0 2 
C 0.530406 2 1.03916 1.789267 1.414214 1.414214 
C 1.789267 1.03916 2 0.530406 2 0 
C 2 -0.530406 1.789267 -1.03916 1.414214 -1.414214 
C 1.03916 -1.789267 0.530406 -2 0 -2 
C -0.530406 -2 -1.03916 -1.789267 -1.414214 -1.414214 
C -1.789267 -1.03916 -2 -0.530406 -2 0 
C -2 0.530406 -1.789267 1.03916 -1.414214 1.414214 
C -1.03916 1.789267 -0.530406 2 0 2 
z
" id="md4dd12d3fa" style="stroke:#000000;stroke-width:0.5;"/>
    </defs>
    <g clip-path="url(#pfb0a9296c8)">
     <use style="stroke:#000000;stroke-width:0.5;" x="92.4897637795" xlink:href="#md4dd12d3fa" y="85.0202464567"/>
    </g>
   </g>
   <g id="patch_3">
    <path d="M 28.8 21.2 
L 116.985827 21.2 
" style="fill:none;stroke:#000000;stroke-linecap:square;stroke-linejoin:miter;"/>
   </g>
   <g id="patch_4">
    <path d="M 116.985827 115.001575 
L 116.985827 21.2 
" style="fill:none;stroke:#000000;stroke-linecap:square;stroke-linejoin:miter;"/>
   </g>
   <g id="patch_5">
    <path d="M 28.8 115.001575 
L 116.985827 115.001575 
" style="fill:none;stroke:#000000;stroke-linecap:square;stroke-linejoin:miter;"/>
   </g>
   <g id="patch_6">
    <path d="M 28.8 115.001575 
L 28.8 21.2 
" style="fill:none;stroke:#000000;stroke-linecap:square;stroke-linejoin:miter;"/>
   </g>
   <g id="matplotlib.axis_1">
    <g id="xtick_1">
     <g id="line2d_4">
      <defs>
       <path d="M 0 0 
L 0 -4 
" id="mac33af1cad" style="stroke:#000000;stroke-width:0.5;"/>
      </defs>
      <g>
       <use style="stroke:#000000;stroke-width:0.5;" x="33.6992125984" xlink:href="#mac33af1cad" y="115.001574803"/>
      </g>
     </g>
     <g id="line2d_5">
      <defs>
       <path d="M 0 0 
L 0 4 
" id="mab5e6aaf40" style="stroke:#000000;stroke-width:0.5;"/>
      </defs>
      <g>
       <use style="stroke:#000000;stroke-width:0.5;" x="33.6992125984" xlink:href="#mab5e6aaf40" y="21.2"/>
      </g>
     </g>
     <g id="text_1">
      <text style="font-family:Helvetica LT Std;font-size:8.0px;font-style:normal;font-weight:400;text-anchor:middle;" transform="rotate(-0.000000, 33.699213, 124.697825)" x="33.6992125984" y="124.697824803">0</text>
     </g>
    </g>
    <g id="xtick_2">
     <g id="line2d_6">
      <g>
       <use style="stroke:#000000;stroke-width:0.5;" x="53.2960629921" xlink:href="#mac33af1cad" y="115.001574803"/>
      </g>
     </g>
     <g id="line2d_7">
      <g>
       <use style="stroke:#000000;stroke-width:0.5;" x="53.2960629921" xlink:href="#mab5e6aaf40" y="21.2"/>
      </g>
     </g>
     <g id="text_2">
      <text style="font-family:Helvetica LT Std;font-size:8.0px;font-style:normal;font-weight:400;text-anchor:middle;" transform="rotate(-0.000000, 53.296063, 124.697825)" x="53.2960629921" y="124.697824803">2</text>
     </g>
    </g>
    <g id="xtick_3">
     <g id="line2d_8">
      <g>
       <use style="stroke:#000000;stroke-width:0.5;" x="72.8929133858" xlink:href="#mac33af1cad" y="115.001574803"/>
      </g>
     </g>
     <g id="line2d_9">
      <g>
       <use style="stroke:#000000;stroke-width:0.5;" x="72.8929133858" xlink:href="#mab5e6aaf40" y="21.2"/>
      </g>
     </g>
     <g id="text_3">
      <text style="font-family:Helvetica LT Std;font-size:8.0px;font-style:normal;font-weight:400;text-anchor:middle;" transform="rotate(-0.000000, 72.892913, 124.697825)" x="72.8929133858" y="124.697824803">4</text>
     </g>
    </g>
    <g id="xtick_4">
     <g id="line2d_10">
      <g>
       <use style="stroke:#000000;stroke-width:0.5;" x="92.4897637795" xlink:href="#mac33af1cad" y="115.001574803"/>
      </g>
     </g>
     <g id="line2d_11">
      <g>
       <use style="stroke:#000000;stroke-width:0.5;" x="92.4897637795" xlink:href="#mab5e6aaf40" y="21.2"/>
      </g>
     </g>
     <g id="text_4">
      <text style="font-family:Helvetica LT Std;font-size:8.0px;font-style:normal;font-weight:400;text-anchor:middle;" transform="rotate(-0.000000, 92.489764, 124.697825)" x="92.4897637795" y="124.697824803">6</text>
     </g>
    </g>
    <g id="xtick_5">
     <g id="line2d_12">
      <g>
       <use style="stroke:#000000;stroke-width:0.5;" x="112.086614173" xlink:href="#mac33af1cad" y="115.001574803"/>
      </g>
     </g>
     <g id="line2d_13">
      <g>
       <use style="stroke:#000000;stroke-width:0.5;" x="112.086614173" xlink:href="#mab5e6aaf40" y="21.2"/>
      </g>
     </g>
     <g id="text_5">
      <text style="font-family:Helvetica LT Std;font-size:8.0px;font-style:normal;font-weight:400;text-anchor:middle;" transform="rotate(-0.000000, 112.086614, 124.697825)" x="112.086614173" y="124.697824803">8</text>
     </g>
    </g>
    <g id="text_6">
     <text style="font-family:Helvetica LT Std;font-size:8.0px;font-style:normal;font-weight:400;text-anchor:middle;" transform="rotate(-0.000000, 72.892913, 136.417825)" x="72.8929133858" y="136.417824803">Time (days)</text>
    </g>
   </g>
   <g id="matplotlib.axis_2">
    <g id="ytick_1">
     <g id="line2d_14">
      <defs>
       <path d="M 0 0 
L 4 0 
" id="m3a038da91c" style="stroke:#000000;stroke-width:0.5;"/>
      </defs>
      <g>
       <use style="stroke:#000000;stroke-width:0.5;" x="28.8" xlink:href="#m3a038da91c" y="115.001574803"/>
      </g>
     </g>
     <g id="line2d_15">
      <defs>
       <path d="M 0 0 
L -4 0 
" id="m394ddebe53" style="stroke:#000000;stroke-width:0.5;"/>
      </defs>
      <g>
       <use style="stroke:#000000;stroke-width:0.5;" x="116.985826772" xlink:href="#m394ddebe53" y="115.001574803"/>
      </g>
     </g>
     <g id="text_7">
      <text style="font-family:Helvetica LT Std;font-size:8.0px;font-style:normal;font-weight:400;text-anchor:end;" transform="rotate(-0.000000, 24.800000, 117.337825)" x="24.8" y="117.337824803">0</text>
     </g>
    </g>
    <g id="ytick_2">
     <g id="line2d_16">
      <g>
       <use style="stroke:#000000;stroke-width:0.5;" x="28.8" xlink:href="#m3a038da91c" y="91.5511811024"/>
      </g>
     </g>
     <g id="line2d_17">
      <g>
       <use style="stroke:#000000;stroke-width:0.5;" x="116.985826772" xlink:href="#m394ddebe53" y="91.5511811024"/>
      </g>
     </g>
     <g id="text_8">
      <text style="font-family:Helvetica LT Std;font-size:8.0px;font-style:normal;font-weight:400;text-anchor:end;" transform="rotate(-0.000000, 24.800000, 93.887431)" x="24.8" y="93.8874311024">1</text>
     </g>
    </g>
    <g id="ytick_3">
     <g id="line2d_18">
      <g>
       <use style="stroke:#000000;stroke-width:0.5;" x="28.8" xlink:href="#m3a038da91c" y="68.1007874016"/>
      </g>
     </g>
     <g id="line2d_19">
      <g>
       <use style="stroke:#000000;stroke-width:0.5;" x="116.985826772" xlink:href="#m394ddebe53" y="68.1007874016"/>
      </g>
     </g>
     <g id="text_9">
      <text style="font-family:Helvetica LT Std;font-size:8.0px;font-style:normal;font-weight:400;text-anchor:end;" transform="rotate(-0.000000, 24.800000, 70.437037)" x="24.8" y="70.4370374016">2</text>
     </g>
    </g>
    <g id="ytick_4">
     <g id="line2d_20">
      <g>
       <use style="stroke:#000000;stroke-width:0.5;" x="28.8" xlink:href="#m3a038da91c" y="44.6503937008"/>
      </g>
     </g>
     <g id="line2d_21">
      <g>
       <use style="stroke:#000000;stroke-width:0.5;" x="116.985826772" xlink:href="#m394ddebe53" y="44.6503937008"/>
      </g>
     </g>
     <g id="text_10">
      <text style="font-family:Helvetica LT Std;font-size:8.0px;font-style:normal;font-weight:400;text-anchor:end;" transform="rotate(-0.000000, 24.800000, 46.986644)" x="24.8" y="46.9866437008">3</text>
     </g>
    </g>
    <g id="ytick_5">
     <g id="line2d_22">
      <g>
       <use style="stroke:#000000;stroke-width:0.5;" x="28.8" xlink:href="#m3a038da91c" y="21.2"/>
      </g>
     </g>
     <g id="line2d_23">
      <g>
       <use style="stroke:#000000;stroke-width:0.5;" x="116.985826772" xlink:href="#m394ddebe53" y="21.2"/>
      </g>
     </g>
     <g id="text_11">
      <text style="font-family:Helvetica LT Std;font-size:8.0px;font-style:normal;font-weight:400;text-anchor:end;" transform="rotate(-0.000000, 24.800000, 23.536250)" x="24.8" y="23.53625">4</text>
     </g>
    </g>
    <g id="text_12">
     <text style="font-family:Helvetica LT Std;font-size:8.0px;font-style:normal;font-weight:400;text-anchor:middle;" transform="rotate(-90.000000, 16.112500, 68.100787)" x="16.1125" y="68.1007874016">Outgrowth (mm)</text>
    </g>
   </g>
   <g id="text_13">
    <text style="font-family:Helvetica LT Std;font-size:8.0px;font-style:normal;font-weight:400;text-anchor:middle;" transform="rotate(-0.000000, 72.892913, 16.200000)" x="72.8929133858" y="16.2">Full model</text>
   </g>
   <g id="legend_1">
    <g id="patch_7">
     <path d="M 36 34.09625 
L 52 34.09625 
L 52 28.49625 
L 36 28.49625 
z
" style="fill:#008000;opacity:0.2;stroke:#008000;stroke-linejoin:miter;"/>
    </g>
    <g id="text_14">
     <text style="font-family:Helvetica LT Std;font-size:8.0px;font-style:normal;font-weight:400;text-anchor:start;" transform="rotate(-0.000000, 58.400000, 34.096250)" x="58.4" y="34.09625">Prediction</text>
    </g>
    <g id="LineCollection_2">
     <path d="M 44 46.01625 
L 44 38.01625 
" style="fill:none;stroke:#000000;"/>
    </g>
    <g id="line2d_24">
     <g>
      <use style="stroke:#000000;stroke-width:0.5;" x="44.0" xlink:href="#m15febdb490" y="46.01625"/>
     </g>
    </g>
    <g id="line2d_25">
     <g>
      <use style="stroke:#000000;stroke-width:0.5;" x="44.0" xlink:href="#m15febdb490" y="38.01625"/>
     </g>
    </g>
    <g id="line2d_26"/>
    <g id="line2d_27">
     <g>
      <use style="stroke:#000000;stroke-width:0.5;" x="44.0" xlink:href="#md4dd12d3fa" y="42.01625"/>
     </g>
    </g>
    <g id="text_15">
     <text style="font-family:Helvetica LT Std;font-size:8.0px;font-style:normal;font-weight:400;text-anchor:start;" transform="rotate(-0.000000, 58.400000, 44.816250)" x="58.4" y="44.81625">Fei rescaled</text>
    </g>
   </g>
  </g>
  <g id="axes_2">
   <g id="patch_8">
    <path d="M 127.785827 115.001575 
L 215.971654 115.001575 
L 215.971654 21.2 
L 127.785827 21.2 
z
" style="fill:#ffffff;"/>
   </g>
   <g id="PolyCollection_4">
    <defs>
     <path d="M 132.685039 -32.4 
L 132.685039 -32.4 
L 133.476831 -32.458693 
L 134.268623 -32.517637 
L 135.060415 -32.576829 
L 135.852207 -32.63627 
L 136.643999 -32.696317 
L 137.435791 -32.756449 
L 138.227583 -32.816589 
L 139.019375 -32.877003 
L 139.811167 -32.937908 
L 140.602959 -32.999267 
L 141.394751 -33.060922 
L 142.186543 -33.122885 
L 142.978335 -33.185751 
L 143.770126 -33.248128 
L 144.561918 -33.31078 
L 145.35371 -33.373817 
L 146.145502 -33.43688 
L 146.937294 -33.499868 
L 147.729086 -33.563215 
L 148.520878 -33.626797 
L 149.31267 -33.690612 
L 150.104462 -33.754662 
L 150.896254 -33.819353 
L 151.688046 -33.884306 
L 152.479838 -33.949023 
L 153.27163 -34.013535 
L 154.063422 -34.078404 
L 154.855214 -34.143851 
L 155.647005 -34.210186 
L 156.438797 -34.275624 
L 157.230589 -34.341583 
L 158.022381 -34.408218 
L 158.814173 -34.475473 
L 159.605965 -34.542678 
L 160.397757 -34.60981 
L 161.189549 -34.677183 
L 161.981341 -34.744798 
L 162.773133 -34.812654 
L 163.564925 -34.880753 
L 164.356717 -34.948458 
L 165.148509 -35.016356 
L 165.940301 -35.085536 
L 166.732093 -35.154963 
L 167.523885 -35.224635 
L 168.315676 -35.29447 
L 169.107468 -35.364282 
L 169.89926 -35.434341 
L 170.691052 -35.504647 
L 171.482844 -35.575201 
L 172.274636 -35.645641 
L 173.066428 -35.716021 
L 173.85822 -35.786617 
L 174.650012 -35.857429 
L 175.441804 -35.928458 
L 176.233596 -35.999704 
L 177.025388 -36.071166 
L 177.81718 -36.142846 
L 178.608972 -36.215235 
L 179.400764 -36.288485 
L 180.192555 -36.361987 
L 180.984347 -36.43574 
L 181.776139 -36.50816 
L 182.567931 -36.580347 
L 183.359723 -36.654472 
L 184.151515 -36.73037 
L 184.943307 -36.806573 
L 185.735099 -36.883083 
L 186.526891 -36.95907 
L 187.318683 -37.034841 
L 188.110475 -37.110866 
L 188.902267 -37.187143 
L 189.694059 -37.263674 
L 190.485851 -37.3403 
L 191.277643 -37.416273 
L 192.069435 -37.492479 
L 192.861226 -37.568916 
L 193.653018 -37.645587 
L 194.44481 -37.721685 
L 195.236602 -37.796253 
L 196.028394 -37.871196 
L 196.820186 -37.951443 
L 197.611978 -38.031987 
L 198.40377 -38.112117 
L 199.195562 -38.193307 
L 199.987354 -38.271273 
L 200.779146 -38.348853 
L 201.570938 -38.426636 
L 202.36273 -38.504622 
L 203.154522 -38.583926 
L 203.946314 -38.663657 
L 204.738105 -38.744167 
L 205.529897 -38.825922 
L 206.321689 -38.907954 
L 207.113481 -38.990262 
L 207.905273 -39.072846 
L 208.697065 -39.153027 
L 209.488857 -39.233109 
L 210.280649 -39.314846 
L 211.072441 -39.397567 
L 211.072441 -72.068846 
L 211.072441 -72.068846 
L 210.280649 -71.393695 
L 209.488857 -70.726347 
L 208.697065 -70.066713 
L 207.905273 -69.418135 
L 207.113481 -68.770327 
L 206.321689 -68.133345 
L 205.529897 -67.509389 
L 204.738105 -66.913451 
L 203.946314 -66.32373 
L 203.154522 -65.745815 
L 202.36273 -65.17506 
L 201.570938 -64.610029 
L 200.779146 -64.038494 
L 199.987354 -63.466402 
L 199.195562 -62.912736 
L 198.40377 -62.364864 
L 197.611978 -61.822726 
L 196.820186 -61.286266 
L 196.028394 -60.755426 
L 195.236602 -60.230151 
L 194.44481 -59.710385 
L 193.653018 -59.196072 
L 192.861226 -58.687159 
L 192.069435 -58.183588 
L 191.277643 -57.685251 
L 190.485851 -57.19217 
L 189.694059 -56.704329 
L 188.902267 -56.221624 
L 188.110475 -55.744002 
L 187.318683 -55.272744 
L 186.526891 -54.806769 
L 185.735099 -54.345656 
L 184.943307 -53.889344 
L 184.151515 -53.43032 
L 183.359723 -52.981902 
L 182.567931 -52.527915 
L 181.776139 -52.079024 
L 180.984347 -51.635178 
L 180.192555 -51.196326 
L 179.400764 -50.762415 
L 178.608972 -50.333393 
L 177.81718 -49.909215 
L 177.025388 -49.489829 
L 176.233596 -49.075185 
L 175.441804 -48.66524 
L 174.650012 -48.259948 
L 173.85822 -47.860394 
L 173.066428 -47.473758 
L 172.274636 -47.091188 
L 171.482844 -46.712643 
L 170.691052 -46.338088 
L 169.89926 -45.967483 
L 169.107468 -45.600785 
L 168.315676 -45.236539 
L 167.523885 -44.871511 
L 166.732093 -44.509294 
L 165.940301 -44.157241 
L 165.148509 -43.81092 
L 164.356717 -43.468251 
L 163.564925 -43.131075 
L 162.773133 -42.791031 
L 161.981341 -42.461839 
L 161.189549 -42.133462 
L 160.397757 -41.808563 
L 159.605965 -41.487116 
L 158.814173 -41.16909 
L 158.022381 -40.854452 
L 157.230589 -40.543169 
L 156.438797 -40.23166 
L 155.647005 -39.921795 
L 154.855214 -39.615512 
L 154.063422 -39.31298 
L 153.27163 -39.014086 
L 152.479838 -38.72312 
L 151.688046 -38.4368 
L 150.896254 -38.154407 
L 150.104462 -37.876713 
L 149.31267 -37.595421 
L 148.520878 -37.323234 
L 147.729086 -37.051441 
L 146.937294 -36.781232 
L 146.145502 -36.514119 
L 145.35371 -36.250878 
L 144.561918 -35.989195 
L 143.770126 -35.728803 
L 142.978335 -35.470931 
L 142.186543 -35.216901 
L 141.394751 -34.968912 
L 140.602959 -34.721883 
L 139.811167 -34.473985 
L 139.019375 -34.229441 
L 138.227583 -33.989459 
L 137.435791 -33.754737 
L 136.643999 -33.522298 
L 135.852207 -33.292351 
L 135.060415 -33.065249 
L 134.268623 -32.841384 
L 133.476831 -32.619413 
L 132.685039 -32.4 
z
" id="m566c8def5c" style="stroke:#008000;stroke-opacity:0.2;"/>
    </defs>
    <g clip-path="url(#pc8269d1619)">
     <use style="fill:#008000;fill-opacity:0.2;stroke:#008000;stroke-opacity:0.2;" x="0.0" xlink:href="#m566c8def5c" y="147.401574803"/>
    </g>
   </g>
   <g id="PolyCollection_5">
    <defs>
     <path d="M 132.685039 -32.4 
L 132.685039 -32.4 
L 133.476831 -32.479264 
L 134.268623 -32.558973 
L 135.060415 -32.639073 
L 135.852207 -32.719594 
L 136.643999 -32.800526 
L 137.435791 -32.881845 
L 138.227583 -32.963473 
L 139.019375 -33.045496 
L 139.811167 -33.12798 
L 140.602959 -33.21109 
L 141.394751 -33.294411 
L 142.186543 -33.378254 
L 142.978335 -33.462594 
L 143.770126 -33.547132 
L 144.561918 -33.632113 
L 145.35371 -33.717572 
L 146.145502 -33.803498 
L 146.937294 -33.889853 
L 147.729086 -33.975863 
L 148.520878 -34.062461 
L 149.31267 -34.149698 
L 150.104462 -34.237491 
L 150.896254 -34.325486 
L 151.688046 -34.414179 
L 152.479838 -34.503093 
L 153.27163 -34.592862 
L 154.063422 -34.683442 
L 154.855214 -34.773461 
L 155.647005 -34.863888 
L 156.438797 -34.954957 
L 157.230589 -35.046199 
L 158.022381 -35.13726 
L 158.814173 -35.229194 
L 159.605965 -35.321221 
L 160.397757 -35.41408 
L 161.189549 -35.506416 
L 161.981341 -35.599328 
L 162.773133 -35.692881 
L 163.564925 -35.786998 
L 164.356717 -35.882077 
L 165.148509 -35.977359 
L 165.940301 -36.072982 
L 166.732093 -36.168169 
L 167.523885 -36.264153 
L 168.315676 -36.36067 
L 169.107468 -36.457581 
L 169.89926 -36.555047 
L 170.691052 -36.652437 
L 171.482844 -36.75026 
L 172.274636 -36.849016 
L 173.066428 -36.947369 
L 173.85822 -37.047112 
L 174.650012 -37.146875 
L 175.441804 -37.247542 
L 176.233596 -37.347601 
L 177.025388 -37.448054 
L 177.81718 -37.548949 
L 178.608972 -37.649839 
L 179.400764 -37.752079 
L 180.192555 -37.855565 
L 180.984347 -37.957956 
L 181.776139 -38.061325 
L 182.567931 -38.165687 
L 183.359723 -38.269928 
L 184.151515 -38.375078 
L 184.943307 -38.478962 
L 185.735099 -38.583948 
L 186.526891 -38.690109 
L 187.318683 -38.796765 
L 188.110475 -38.902815 
L 188.902267 -39.008668 
L 189.694059 -39.116483 
L 190.485851 -39.224983 
L 191.277643 -39.331821 
L 192.069435 -39.439849 
L 192.861226 -39.548031 
L 193.653018 -39.65691 
L 194.44481 -39.765672 
L 195.236602 -39.876069 
L 196.028394 -39.986403 
L 196.820186 -40.097594 
L 197.611978 -40.208091 
L 198.40377 -40.320555 
L 199.195562 -40.432716 
L 199.987354 -40.545245 
L 200.779146 -40.658905 
L 201.570938 -40.771372 
L 202.36273 -40.885959 
L 203.154522 -40.999777 
L 203.946314 -41.111405 
L 204.738105 -41.225087 
L 205.529897 -41.341674 
L 206.321689 -41.456421 
L 207.113481 -41.571754 
L 207.905273 -41.686957 
L 208.697065 -41.803828 
L 209.488857 -41.920985 
L 210.280649 -42.038889 
L 211.072441 -42.154652 
L 211.072441 -59.628234 
L 211.072441 -59.628234 
L 210.280649 -59.228428 
L 209.488857 -58.835068 
L 208.697065 -58.441153 
L 207.905273 -58.049955 
L 207.113481 -57.666284 
L 206.321689 -57.282725 
L 205.529897 -56.899255 
L 204.738105 -56.519783 
L 203.946314 -56.147663 
L 203.154522 -55.778263 
L 202.36273 -55.409587 
L 201.570938 -55.041821 
L 200.779146 -54.680161 
L 199.987354 -54.320913 
L 199.195562 -53.965667 
L 198.40377 -53.610104 
L 197.611978 -53.258523 
L 196.820186 -52.911818 
L 196.028394 -52.564869 
L 195.236602 -52.220556 
L 194.44481 -51.880131 
L 193.653018 -51.54394 
L 192.861226 -51.208307 
L 192.069435 -50.875705 
L 191.277643 -50.550226 
L 190.485851 -50.225522 
L 189.694059 -49.901256 
L 188.902267 -49.575912 
L 188.110475 -49.260202 
L 187.318683 -48.942579 
L 186.526891 -48.630153 
L 185.735099 -48.321408 
L 184.943307 -48.013493 
L 184.151515 -47.706169 
L 183.359723 -47.403258 
L 182.567931 -47.102747 
L 181.776139 -46.802184 
L 180.984347 -46.504776 
L 180.192555 -46.208037 
L 179.400764 -45.915617 
L 178.608972 -45.626713 
L 177.81718 -45.340878 
L 177.025388 -45.055681 
L 176.233596 -44.775631 
L 175.441804 -44.496938 
L 174.650012 -44.215254 
L 173.85822 -43.938674 
L 173.066428 -43.66567 
L 172.274636 -43.394537 
L 171.482844 -43.125716 
L 170.691052 -42.858069 
L 169.89926 -42.592265 
L 169.107468 -42.331695 
L 168.315676 -42.071854 
L 167.523885 -41.814696 
L 166.732093 -41.558209 
L 165.940301 -41.304491 
L 165.148509 -41.054418 
L 164.356717 -40.804767 
L 163.564925 -40.557348 
L 162.773133 -40.311607 
L 161.981341 -40.067993 
L 161.189549 -39.827297 
L 160.397757 -39.588759 
L 159.605965 -39.351482 
L 158.814173 -39.116013 
L 158.022381 -38.883359 
L 157.230589 -38.654057 
L 156.438797 -38.424285 
L 155.647005 -38.195658 
L 154.855214 -37.968897 
L 154.063422 -37.745582 
L 153.27163 -37.52378 
L 152.479838 -37.304129 
L 151.688046 -37.085362 
L 150.896254 -36.869208 
L 150.104462 -36.655558 
L 149.31267 -36.443792 
L 148.520878 -36.233324 
L 147.729086 -36.024586 
L 146.937294 -35.817507 
L 146.145502 -35.612552 
L 145.35371 -35.409667 
L 144.561918 -35.208367 
L 143.770126 -35.009012 
L 142.978335 -34.811322 
L 142.186543 -34.615811 
L 141.394751 -34.421676 
L 140.602959 -34.229279 
L 139.811167 -34.039059 
L 139.019375 -33.85 
L 138.227583 -33.662957 
L 137.435791 -33.477448 
L 136.643999 -33.29378 
L 135.852207 -33.111713 
L 135.060415 -32.9315 
L 134.268623 -32.752708 
L 133.476831 -32.57555 
L 132.685039 -32.4 
z
" id="m7050fc624e" style="stroke:#008000;stroke-opacity:0.2;"/>
    </defs>
    <g clip-path="url(#pc8269d1619)">
     <use style="fill:#008000;fill-opacity:0.2;stroke:#008000;stroke-opacity:0.2;" x="0.0" xlink:href="#m7050fc624e" y="147.401574803"/>
    </g>
   </g>
   <g id="PolyCollection_6">
    <defs>
     <path d="M 132.685039 -32.4 
L 132.685039 -32.4 
L 133.476831 -32.501065 
L 134.268623 -32.60277 
L 135.060415 -32.705108 
L 135.852207 -32.808089 
L 136.643999 -32.911663 
L 137.435791 -33.015879 
L 138.227583 -33.120729 
L 139.019375 -33.226094 
L 139.811167 -33.332186 
L 140.602959 -33.438874 
L 141.394751 -33.546197 
L 142.186543 -33.654084 
L 142.978335 -33.762478 
L 143.770126 -33.871492 
L 144.561918 -33.980948 
L 145.35371 -34.09132 
L 146.145502 -34.202458 
L 146.937294 -34.314055 
L 147.729086 -34.426199 
L 148.520878 -34.538953 
L 149.31267 -34.652179 
L 150.104462 -34.765774 
L 150.896254 -34.880202 
L 151.688046 -34.995312 
L 152.479838 -35.111166 
L 153.27163 -35.227611 
L 154.063422 -35.344173 
L 154.855214 -35.46166 
L 155.647005 -35.579404 
L 156.438797 -35.698466 
L 157.230589 -35.817723 
L 158.022381 -35.93766 
L 158.814173 -36.058191 
L 159.605965 -36.17956 
L 160.397757 -36.301624 
L 161.189549 -36.423987 
L 161.981341 -36.546677 
L 162.773133 -36.670235 
L 163.564925 -36.794242 
L 164.356717 -36.91864 
L 165.148509 -37.044181 
L 165.940301 -37.170064 
L 166.732093 -37.297052 
L 167.523885 -37.424111 
L 168.315676 -37.552121 
L 169.107468 -37.680154 
L 169.89926 -37.809495 
L 170.691052 -37.93919 
L 171.482844 -38.069621 
L 172.274636 -38.20068 
L 173.066428 -38.332656 
L 173.85822 -38.465114 
L 174.650012 -38.597716 
L 175.441804 -38.730636 
L 176.233596 -38.864516 
L 177.025388 -38.998824 
L 177.81718 -39.134326 
L 178.608972 -39.271177 
L 179.400764 -39.40804 
L 180.192555 -39.544739 
L 180.984347 -39.681739 
L 181.776139 -39.820465 
L 182.567931 -39.960178 
L 183.359723 -40.099469 
L 184.151515 -40.240379 
L 184.943307 -40.380987 
L 185.735099 -40.523304 
L 186.526891 -40.665651 
L 187.318683 -40.808217 
L 188.110475 -40.951559 
L 188.902267 -41.095819 
L 189.694059 -41.241055 
L 190.485851 -41.386406 
L 191.277643 -41.531844 
L 192.069435 -41.678827 
L 192.861226 -41.826159 
L 193.653018 -41.9745 
L 194.44481 -42.124727 
L 195.236602 -42.274196 
L 196.028394 -42.424153 
L 196.820186 -42.574852 
L 197.611978 -42.726989 
L 198.40377 -42.87929 
L 199.195562 -43.032223 
L 199.987354 -43.186645 
L 200.779146 -43.341994 
L 201.570938 -43.49765 
L 202.36273 -43.654167 
L 203.154522 -43.81077 
L 203.946314 -43.968131 
L 204.738105 -44.12719 
L 205.529897 -44.286741 
L 206.321689 -44.447483 
L 207.113481 -44.607502 
L 207.905273 -44.769438 
L 208.697065 -44.931054 
L 209.488857 -45.09241 
L 210.280649 -45.254989 
L 211.072441 -45.418737 
L 211.072441 -53.82584 
L 211.072441 -53.82584 
L 210.280649 -53.528637 
L 209.488857 -53.235939 
L 208.697065 -52.942589 
L 207.905273 -52.653497 
L 207.113481 -52.367448 
L 206.321689 -52.080134 
L 205.529897 -51.794841 
L 204.738105 -51.511666 
L 203.946314 -51.230463 
L 203.154522 -50.953298 
L 202.36273 -50.675616 
L 201.570938 -50.400154 
L 200.779146 -50.127975 
L 199.987354 -49.855776 
L 199.195562 -49.585163 
L 198.40377 -49.317957 
L 197.611978 -49.051252 
L 196.820186 -48.786214 
L 196.028394 -48.523575 
L 195.236602 -48.263844 
L 194.44481 -48.005129 
L 193.653018 -47.747134 
L 192.861226 -47.491567 
L 192.069435 -47.237777 
L 191.277643 -46.986146 
L 190.485851 -46.735214 
L 189.694059 -46.485989 
L 188.902267 -46.239185 
L 188.110475 -45.993064 
L 187.318683 -45.748777 
L 186.526891 -45.505107 
L 185.735099 -45.264753 
L 184.943307 -45.025795 
L 184.151515 -44.787904 
L 183.359723 -44.55176 
L 182.567931 -44.316955 
L 181.776139 -44.084983 
L 180.984347 -43.853647 
L 180.192555 -43.624731 
L 179.400764 -43.396941 
L 178.608972 -43.170214 
L 177.81718 -42.944839 
L 177.025388 -42.72122 
L 176.233596 -42.498232 
L 175.441804 -42.27757 
L 174.650012 -42.058133 
L 173.85822 -41.840296 
L 173.066428 -41.624003 
L 172.274636 -41.408241 
L 171.482844 -41.194268 
L 170.691052 -40.982514 
L 169.89926 -40.771906 
L 169.107468 -40.562764 
L 168.315676 -40.354765 
L 167.523885 -40.148465 
L 166.732093 -39.943613 
L 165.940301 -39.740687 
L 165.148509 -39.53862 
L 164.356717 -39.337967 
L 163.564925 -39.139087 
L 162.773133 -38.941855 
L 161.981341 -38.745971 
L 161.189549 -38.551101 
L 160.397757 -38.357486 
L 159.605965 -38.164913 
L 158.814173 -37.973888 
L 158.022381 -37.784538 
L 157.230589 -37.596326 
L 156.438797 -37.409512 
L 155.647005 -37.223842 
L 154.855214 -37.03942 
L 154.063422 -36.856186 
L 153.27163 -36.67467 
L 152.479838 -36.494073 
L 151.688046 -36.315102 
L 150.896254 -36.137221 
L 150.104462 -35.961054 
L 149.31267 -35.78611 
L 148.520878 -35.612081 
L 147.729086 -35.439533 
L 146.937294 -35.268562 
L 146.145502 -35.098694 
L 145.35371 -34.930004 
L 144.561918 -34.76256 
L 143.770126 -34.596505 
L 142.978335 -34.431402 
L 142.186543 -34.267514 
L 141.394751 -34.10512 
L 140.602959 -33.94392 
L 139.811167 -33.784068 
L 139.019375 -33.625483 
L 138.227583 -33.468094 
L 137.435791 -33.311774 
L 136.643999 -33.156731 
L 135.852207 -33.002946 
L 135.060415 -32.85041 
L 134.268623 -32.699094 
L 133.476831 -32.548941 
L 132.685039 -32.4 
z
" id="m185bf3e9e1" style="stroke:#008000;stroke-opacity:0.2;"/>
    </defs>
    <g clip-path="url(#pc8269d1619)">
     <use style="fill:#008000;fill-opacity:0.2;stroke:#008000;stroke-opacity:0.2;" x="0.0" xlink:href="#m185bf3e9e1" y="147.401574803"/>
    </g>
   </g>
   <g id="LineCollection_3">
    <path clip-path="url(#pc8269d1619)" d="M 191.475591 105.046189 
L 191.475591 104.497042 
" style="fill:none;stroke:#000000;"/>
   </g>
   <g id="line2d_28">
    <g clip-path="url(#pc8269d1619)">
     <use style="stroke:#000000;stroke-width:0.5;" x="191.475590551" xlink:href="#m15febdb490" y="105.046189486"/>
    </g>
   </g>
   <g id="line2d_29">
    <g clip-path="url(#pc8269d1619)">
     <use style="stroke:#000000;stroke-width:0.5;" x="191.475590551" xlink:href="#m15febdb490" y="104.497041627"/>
    </g>
   </g>
   <g id="line2d_30">
    <g clip-path="url(#pc8269d1619)">
     <use style="stroke:#000000;stroke-width:0.5;" x="191.475590551" xlink:href="#md4dd12d3fa" y="104.771615557"/>
    </g>
   </g>
   <g id="patch_9">
    <path d="M 127.785827 21.2 
L 215.971654 21.2 
" style="fill:none;stroke:#000000;stroke-linecap:square;stroke-linejoin:miter;"/>
   </g>
   <g id="patch_10">
    <path d="M 215.971654 115.001575 
L 215.971654 21.2 
" style="fill:none;stroke:#000000;stroke-linecap:square;stroke-linejoin:miter;"/>
   </g>
   <g id="patch_11">
    <path d="M 127.785827 115.001575 
L 215.971654 115.001575 
" style="fill:none;stroke:#000000;stroke-linecap:square;stroke-linejoin:miter;"/>
   </g>
   <g id="patch_12">
    <path d="M 127.785827 115.001575 
L 127.785827 21.2 
" style="fill:none;stroke:#000000;stroke-linecap:square;stroke-linejoin:miter;"/>
   </g>
   <g id="matplotlib.axis_3">
    <g id="xtick_6">
     <g id="line2d_31">
      <g>
       <use style="stroke:#000000;stroke-width:0.5;" x="132.68503937" xlink:href="#mac33af1cad" y="115.001574803"/>
      </g>
     </g>
     <g id="line2d_32">
      <g>
       <use style="stroke:#000000;stroke-width:0.5;" x="132.68503937" xlink:href="#mab5e6aaf40" y="21.2"/>
      </g>
     </g>
     <g id="text_16">
      <text style="font-family:Helvetica LT Std;font-size:8.0px;font-style:normal;font-weight:400;text-anchor:middle;" transform="rotate(-0.000000, 132.685039, 124.697825)" x="132.68503937" y="124.697824803">0</text>
     </g>
    </g>
    <g id="xtick_7">
     <g id="line2d_33">
      <g>
       <use style="stroke:#000000;stroke-width:0.5;" x="152.281889764" xlink:href="#mac33af1cad" y="115.001574803"/>
      </g>
     </g>
     <g id="line2d_34">
      <g>
       <use style="stroke:#000000;stroke-width:0.5;" x="152.281889764" xlink:href="#mab5e6aaf40" y="21.2"/>
      </g>
     </g>
     <g id="text_17">
      <text style="font-family:Helvetica LT Std;font-size:8.0px;font-style:normal;font-weight:400;text-anchor:middle;" transform="rotate(-0.000000, 152.281890, 124.697825)" x="152.281889764" y="124.697824803">2</text>
     </g>
    </g>
    <g id="xtick_8">
     <g id="line2d_35">
      <g>
       <use style="stroke:#000000;stroke-width:0.5;" x="171.878740157" xlink:href="#mac33af1cad" y="115.001574803"/>
      </g>
     </g>
     <g id="line2d_36">
      <g>
       <use style="stroke:#000000;stroke-width:0.5;" x="171.878740157" xlink:href="#mab5e6aaf40" y="21.2"/>
      </g>
     </g>
     <g id="text_18">
      <text style="font-family:Helvetica LT Std;font-size:8.0px;font-style:normal;font-weight:400;text-anchor:middle;" transform="rotate(-0.000000, 171.878740, 124.697825)" x="171.878740157" y="124.697824803">4</text>
     </g>
    </g>
    <g id="xtick_9">
     <g id="line2d_37">
      <g>
       <use style="stroke:#000000;stroke-width:0.5;" x="191.475590551" xlink:href="#mac33af1cad" y="115.001574803"/>
      </g>
     </g>
     <g id="line2d_38">
      <g>
       <use style="stroke:#000000;stroke-width:0.5;" x="191.475590551" xlink:href="#mab5e6aaf40" y="21.2"/>
      </g>
     </g>
     <g id="text_19">
      <text style="font-family:Helvetica LT Std;font-size:8.0px;font-style:normal;font-weight:400;text-anchor:middle;" transform="rotate(-0.000000, 191.475591, 124.697825)" x="191.475590551" y="124.697824803">6</text>
     </g>
    </g>
    <g id="xtick_10">
     <g id="line2d_39">
      <g>
       <use style="stroke:#000000;stroke-width:0.5;" x="211.072440945" xlink:href="#mac33af1cad" y="115.001574803"/>
      </g>
     </g>
     <g id="line2d_40">
      <g>
       <use style="stroke:#000000;stroke-width:0.5;" x="211.072440945" xlink:href="#mab5e6aaf40" y="21.2"/>
      </g>
     </g>
     <g id="text_20">
      <text style="font-family:Helvetica LT Std;font-size:8.0px;font-style:normal;font-weight:400;text-anchor:middle;" transform="rotate(-0.000000, 211.072441, 124.697825)" x="211.072440945" y="124.697824803">8</text>
     </g>
    </g>
    <g id="text_21">
     <text style="font-family:Helvetica LT Std;font-size:8.0px;font-style:normal;font-weight:400;text-anchor:middle;" transform="rotate(-0.000000, 171.878740, 136.417825)" x="171.878740157" y="136.417824803">Time (days)</text>
    </g>
   </g>
   <g id="matplotlib.axis_4">
    <g id="ytick_6">
     <g id="line2d_41">
      <g>
       <use style="stroke:#000000;stroke-width:0.5;" x="127.785826772" xlink:href="#m3a038da91c" y="115.001574803"/>
      </g>
     </g>
     <g id="line2d_42">
      <g>
       <use style="stroke:#000000;stroke-width:0.5;" x="215.971653543" xlink:href="#m394ddebe53" y="115.001574803"/>
      </g>
     </g>
    </g>
    <g id="ytick_7">
     <g id="line2d_43">
      <g>
       <use style="stroke:#000000;stroke-width:0.5;" x="127.785826772" xlink:href="#m3a038da91c" y="91.5511811024"/>
      </g>
     </g>
     <g id="line2d_44">
      <g>
       <use style="stroke:#000000;stroke-width:0.5;" x="215.971653543" xlink:href="#m394ddebe53" y="91.5511811024"/>
      </g>
     </g>
    </g>
    <g id="ytick_8">
     <g id="line2d_45">
      <g>
       <use style="stroke:#000000;stroke-width:0.5;" x="127.785826772" xlink:href="#m3a038da91c" y="68.1007874016"/>
      </g>
     </g>
     <g id="line2d_46">
      <g>
       <use style="stroke:#000000;stroke-width:0.5;" x="215.971653543" xlink:href="#m394ddebe53" y="68.1007874016"/>
      </g>
     </g>
    </g>
    <g id="ytick_9">
     <g id="line2d_47">
      <g>
       <use style="stroke:#000000;stroke-width:0.5;" x="127.785826772" xlink:href="#m3a038da91c" y="44.6503937008"/>
      </g>
     </g>
     <g id="line2d_48">
      <g>
       <use style="stroke:#000000;stroke-width:0.5;" x="215.971653543" xlink:href="#m394ddebe53" y="44.6503937008"/>
      </g>
     </g>
    </g>
    <g id="ytick_10">
     <g id="line2d_49">
      <g>
       <use style="stroke:#000000;stroke-width:0.5;" x="127.785826772" xlink:href="#m3a038da91c" y="21.2"/>
      </g>
     </g>
     <g id="line2d_50">
      <g>
       <use style="stroke:#000000;stroke-width:0.5;" x="215.971653543" xlink:href="#m394ddebe53" y="21.2"/>
      </g>
     </g>
    </g>
   </g>
   <g id="text_22">
    <text style="font-family:Helvetica LT Std;font-size:8.0px;font-style:normal;font-weight:400;text-anchor:middle;" transform="rotate(-0.000000, 171.878740, 16.200000)" x="171.878740157" y="16.2">No acceleration</text>
   </g>
   <g id="legend_2">
    <g id="patch_13">
     <path d="M 134.985827 34.09625 
L 150.985827 34.09625 
L 150.985827 28.49625 
L 134.985827 28.49625 
z
" style="fill:#008000;opacity:0.2;stroke:#008000;stroke-linejoin:miter;"/>
    </g>
    <g id="text_23">
     <text style="font-family:Helvetica LT Std;font-size:8.0px;font-style:normal;font-weight:400;text-anchor:start;" transform="rotate(-0.000000, 157.385827, 34.096250)" x="157.385826772" y="34.09625">Prediction</text>
    </g>
    <g id="LineCollection_4">
     <path d="M 142.985827 46.01625 
L 142.985827 38.01625 
" style="fill:none;stroke:#000000;"/>
    </g>
    <g id="line2d_51">
     <g>
      <use style="stroke:#000000;stroke-width:0.5;" x="142.985826772" xlink:href="#m15febdb490" y="46.01625"/>
     </g>
    </g>
    <g id="line2d_52">
     <g>
      <use style="stroke:#000000;stroke-width:0.5;" x="142.985826772" xlink:href="#m15febdb490" y="38.01625"/>
     </g>
    </g>
    <g id="line2d_53"/>
    <g id="line2d_54">
     <g>
      <use style="stroke:#000000;stroke-width:0.5;" x="142.985826772" xlink:href="#md4dd12d3fa" y="42.01625"/>
     </g>
    </g>
    <g id="text_24">
     <text style="font-family:Helvetica LT Std;font-size:8.0px;font-style:normal;font-weight:400;text-anchor:start;" transform="rotate(-0.000000, 157.385827, 44.816250)" x="157.385826772" y="44.81625">Fei SOX2-</text>
    </g>
   </g>
  </g>
 </g>
 <defs>
  <clipPath id="pfb0a9296c8">
   <rect height="93.8015748031" width="88.1858267717" x="28.8" y="21.2"/>
  </clipPath>
  <clipPath id="pc8269d1619">
   <rect height="93.8015748031" width="88.1858267717" x="127.785826772" y="21.2"/>
  </clipPath>
 </defs>
</svg>
