<?xml version="1.0" encoding="utf-8" standalone="no"?>
<!DOCTYPE svg PUBLIC "-//W3C//DTD SVG 1.1//EN"
  "http://www.w3.org/Graphics/SVG/1.1/DTD/svg11.dtd">
<!-- Created with matplotlib (http://matplotlib.org/) -->
<svg height="108pt" version="1.1" viewBox="0 0 144 108" width="144pt" xmlns="http://www.w3.org/2000/svg" xmlns:xlink="http://www.w3.org/1999/xlink">
 <defs>
  <style type="text/css">
*{stroke-linecap:butt;stroke-linejoin:round;stroke-miterlimit:100000;}
  </style>
 </defs>
 <g id="figure_1">
  <g id="patch_1">
   <path d="M 0 108 
L 1 108.031436 
L 2 108.068377 
L 3 108.166123 
L 4 108.198645 
L 5 108.27227 
L 6 108.310835 
L 7 108.346248 
L 8 108.403888 
L 9 108.474274 
L 10 108.526239 
L 11 108.585328 
L 12 108.673649 
L 13 108.719794 
L 14 108.762205 
L 15 108.792697 
L 16 108.818742 
L 17 108.839942 
L 18 108.894243 
L 19 108.922181 
L 20 108.951905 
L 21 108.9773 
L 22 108.9885 
L 23 108.998624 
L 24 108.99842 
L 25 108.98891 
L 26 108.977256 
L 27 108.946227 
L 28 108.935059 
L 29 108.904942 
L 30 108.845165 
L 31 108.807973 
L 32 108.768877 
L 33 108.726437 
L 34 108.693672 
L 35 108.626246 
L 36 108.58712 
L 37 108.544445 
L 38 108.473865 
L 39 108.437474 
L 40 108.379071 
L 41 108.268118 
L 42 108.19746 
L 43 108.08452 
L 44 108.038747 
L 45 107.977464 
L 46 107.928965 
L 47 107.848142 
L 48 107.729623 
L 49 107.659412 
L 50 107.57615 
L 51 107.543008 
L 52 107.491771 
L 53 107.423372 
L 54 107.357157 
L 55 107.28024 
L 56 107.252924 
L 57 107.226447 
L 58 107.203796 
L 59 107.184265 
L 60 107.157871 
L 61 107.1081 
L 62 107.073027 
L 63 107.037161 
L 64 107.021794 
L 65 107.006025 
L 66 107.002612 
L 67 107.000195 
L 68 107.000681 
L 69 107.00261 
L 70 107.015867 
L 71 107.024258 
L 72 107.045794 
L 73 107.068827 
L 74 107.08606 
L 75 107.104523 
L 76 107.124975 
L 77 107.141575 
L 78 107.204354 
L 79 107.279619 
L 80 107.312258 
L 81 107.379822 
L 82 107.433869 
L 83 107.467573 
L 84 107.557699 
L 85 107.586234 
L 86 107.61772 
L 87 107.648731 
L 88 107.703539 
L 89 107.768126 
L 90 107.806322 
L 91 107.902256 
L 92 107.951514 
L 93 107.995583 
L 94 108.035707 
L 95 108.144074 
L 96 108.185702 
L 97 108.247844 
L 98 108.317806 
L 99 108.42231 
L 100 108.459298 
L 101 108.505175 
L 102 108.57367 
L 103 108.622416 
L 104 108.700013 
L 105 108.730554 
L 106 108.800068 
L 107 108.824041 
L 108 108.852663 
L 109 108.894456 
L 110 108.916032 
L 111 108.92998 
L 112 108.956702 
L 113 108.966012 
L 114 108.978459 
L 115 108.989514 
L 116 108.995178 
L 117 108.999942 
L 118 108.994394 
L 119 108.981106 
L 120 108.973589 
L 121 108.948804 
L 122 108.925235 
L 123 108.889055 
L 124 108.863093 
L 125 108.840771 
L 126 108.772011 
L 127 108.697476 
L 128 108.603497 
L 129 108.552445 
L 130 108.498511 
L 131 108.46326 
L 132 108.357172 
L 133 108.304908 
L 134 108.268001 
L 135 108.23697 
L 136 108.175815 
L 137 108.108395 
L 138 108.059489 
L 139 107.994297 
L 140 107.956109 
L 141 107.914113 
L 142 107.872096 
L 143 107.81258 
L 144 107.69942 
L 143.647169 107 
L 143.607751 106 
L 143.56065 105 
L 143.50387 104 
L 143.471207 103 
L 143.435029 102 
L 143.402939 101 
L 143.368659 100 
L 143.310281 99 
L 143.265096 98 
L 143.235472 97 
L 143.185086 96 
L 143.159889 95 
L 143.138838 94 
L 143.10387 93 
L 143.07958 92 
L 143.065513 91 
L 143.046571 90 
L 143.03091 89 
L 143.018358 88 
L 143.012522 87 
L 143.00564 86 
L 143.000466 85 
L 143.002249 84 
L 143.004974 83 
L 143.016128 82 
L 143.044363 81 
L 143.088151 80 
L 143.10884 79 
L 143.149813 78 
L 143.189888 77 
L 143.208998 76 
L 143.231507 75 
L 143.298158 74 
L 143.347868 73 
L 143.421574 72 
L 143.452888 71 
L 143.52951 70 
L 143.567808 69 
L 143.641925 68 
L 143.745983 67 
L 143.815814 66 
L 143.921048 65 
L 143.976063 64 
L 144.099538 63 
L 144.170097 62 
L 144.285936 61 
L 144.336117 60 
L 144.371721 59 
L 144.463128 58 
L 144.516636 57 
L 144.604544 56 
L 144.673729 55 
L 144.720493 54 
L 144.792537 53 
L 144.842679 52 
L 144.860069 51 
L 144.887072 50 
L 144.906499 49 
L 144.925837 48 
L 144.964086 47 
L 144.980519 46 
L 144.988888 45 
L 144.993207 44 
L 144.999762 43 
L 144.997216 42 
L 144.991757 41 
L 144.975329 40 
L 144.943394 39 
L 144.905414 38 
L 144.87061 37 
L 144.807538 36 
L 144.786111 35 
L 144.735493 34 
L 144.710536 33 
L 144.654902 32 
L 144.623673 31 
L 144.573529 30 
L 144.541036 29 
L 144.460624 28 
L 144.391698 27 
L 144.276001 26 
L 144.200522 25 
L 144.084997 24 
L 144.005513 23 
L 143.897072 22 
L 143.857704 21 
L 143.754836 20 
L 143.655038 19 
L 143.609541 18 
L 143.575219 17 
L 143.523263 16 
L 143.483616 15 
L 143.448102 14 
L 143.380457 13 
L 143.341375 12 
L 143.290894 11 
L 143.241588 10 
L 143.190518 9 
L 143.146279 8 
L 143.124259 7 
L 143.108703 6 
L 143.066256 5 
L 143.051388 4 
L 143.02866 3 
L 143.008344 2 
L 143.002547 0 
L 143 0.999935 
L 142 0.996878 
L 141 0.985282 
L 140 0.968362 
L 139 0.936701 
L 138 0.922618 
L 137 0.869946 
L 136 0.820857 
L 135 0.766156 
L 134 0.721808 
L 133 0.651816 
L 132 0.601433 
L 131 0.547526 
L 130 0.478087 
L 129 0.420699 
L 128 0.370534 
L 127 0.293372 
L 126 0.235182 
L 125 0.174544 
L 124 0.137343 
L 123 0.072251 
L 122 -0.032879 
L 121 -0.093181 
L 120 -0.189503 
L 119 -0.221506 
L 118 -0.272523 
L 117 -0.389315 
L 116 -0.424762 
L 115 -0.480642 
L 114 -0.511018 
L 113 -0.599404 
L 112 -0.644168 
L 111 -0.725056 
L 110 -0.785202 
L 109 -0.848288 
L 108 -0.871236 
L 107 -0.887406 
L 106 -0.916335 
L 105 -0.946687 
L 104 -0.959261 
L 103 -0.98414 
L 102 -0.996224 
L 101 -0.999986 
L 100 -0.99555 
L 99 -0.983211 
L 98 -0.968798 
L 97 -0.952725 
L 96 -0.917204 
L 95 -0.89727 
L 94 -0.840681 
L 93 -0.773487 
L 92 -0.746117 
L 91 -0.711969 
L 90 -0.663289 
L 89 -0.615004 
L 88 -0.555927 
L 87 -0.460322 
L 86 -0.417182 
L 85 -0.367334 
L 84 -0.3088 
L 83 -0.261214 
L 82 -0.200086 
L 81 -0.144001 
L 80 -0.06983 
L 79 0.047408 
L 78 0.103132 
L 77 0.211358 
L 76 0.317508 
L 75 0.42508 
L 74 0.459588 
L 73 0.562895 
L 72 0.638619 
L 71 0.678054 
L 70 0.717438 
L 69 0.73992 
L 68 0.795733 
L 67 0.821785 
L 66 0.85202 
L 65 0.902791 
L 64 0.921442 
L 63 0.943151 
L 62 0.955797 
L 61 0.97479 
L 60 0.99218 
L 59 0.999218 
L 58 0.998194 
L 57 0.99119 
L 56 0.98182 
L 55 0.958422 
L 54 0.933339 
L 53 0.92094 
L 52 0.887847 
L 51 0.87148 
L 50 0.853075 
L 49 0.803938 
L 48 0.760125 
L 47 0.71704 
L 46 0.694099 
L 45 0.653836 
L 44 0.568976 
L 43 0.526584 
L 42 0.462198 
L 41 0.417909 
L 40 0.310063 
L 39 0.233123 
L 38 0.196681 
L 37 0.141794 
L 36 0.066693 
L 35 0.008098 
L 34 -0.028477 
L 33 -0.140524 
L 32 -0.202209 
L 31 -0.252729 
L 30 -0.351514 
L 29 -0.389536 
L 28 -0.424984 
L 27 -0.516618 
L 26 -0.55989 
L 25 -0.613219 
L 24 -0.646084 
L 23 -0.708978 
L 22 -0.762832 
L 21 -0.819958 
L 20 -0.842048 
L 19 -0.885787 
L 18 -0.932881 
L 17 -0.949728 
L 16 -0.977802 
L 15 -0.988798 
L 14 -0.993367 
L 13 -0.999015 
L 12 -0.999066 
L 11 -0.995976 
L 10 -0.992463 
L 9 -0.986641 
L 8 -0.973789 
L 7 -0.950164 
L 6 -0.93528 
L 5 -0.911708 
L 4 -0.875389 
L 3 -0.843806 
L 2 -0.813913 
L 1 -0.735221 
L 0 -0.69867 
L -0.672947 1 
L -0.602274 2 
L -0.511172 3 
L -0.449215 4 
L -0.415602 5 
L -0.381102 6 
L -0.283662 7 
L -0.236072 8 
L -0.204566 9 
L -0.160881 10 
L -0.090712 11 
L -0.040845 12 
L -0.006168 13 
L 0.10348 14 
L 0.136951 15 
L 0.174293 16 
L 0.254538 17 
L 0.293032 18 
L 0.334809 19 
L 0.377234 20 
L 0.486962 21 
L 0.575247 22 
L 0.649893 23 
L 0.73835 24 
L 0.812412 25 
L 0.861577 26 
L 0.917194 27 
L 0.951894 28 
L 0.963765 29 
L 0.985988 30 
L 0.997967 31 
L 0.999719 32 
L 0.994302 33 
L 0.978104 34 
L 0.961604 35 
L 0.930421 36 
L 0.917056 37 
L 0.887413 38 
L 0.82439 39 
L 0.775069 40 
L 0.72898 41 
L 0.646753 42 
L 0.60085 43 
L 0.566525 44 
L 0.512986 45 
L 0.424099 46 
L 0.392961 47 
L 0.284912 48 
L 0.17284 49 
L 0.137402 50 
L 0.052616 51 
L -0.012991 52 
L -0.115045 53 
L -0.23126 54 
L -0.271951 55 
L -0.31304 56 
L -0.349681 57 
L -0.390677 58 
L -0.466746 59 
L -0.542812 60 
L -0.5735 61 
L -0.599991 62 
L -0.656572 63 
L -0.701088 64 
L -0.731106 65 
L -0.758162 66 
L -0.800727 67 
L -0.853592 68 
L -0.884513 69 
L -0.910788 70 
L -0.925721 71 
L -0.95601 72 
L -0.977339 73 
L -0.994228 74 
L -0.998943 75 
L -0.999553 76 
L -0.997507 77 
L -0.991646 78 
L -0.972999 79 
L -0.940942 80 
L -0.894502 81 
L -0.852556 82 
L -0.785851 83 
L -0.716785 84 
L -0.66941 85 
L -0.617891 86 
L -0.578191 87 
L -0.508771 88 
L -0.44224 89 
L -0.333331 90 
L -0.268083 91 
L -0.159875 92 
L -0.098871 93 
L -0.050186 94 
L 0.026048 95 
L 0.085579 96 
L 0.160207 97 
L 0.279034 98 
L 0.376979 99 
L 0.456027 100 
L 0.501774 101 
L 0.529046 102 
L 0.572708 103 
L 0.621292 104 
L 0.653026 105 
L 0.733256 106 
L 0.799749 108 
z
" style="fill:#ffffff;"/>
  </g>
  <g id="axes_1">
   <g id="patch_2">
    <path d="M 18 48.845455 
L 19 48.876891 
L 20 48.913831 
L 21 49.011578 
L 22 49.044099 
L 23 49.117724 
L 24 49.15629 
L 25 49.191703 
L 26 49.249343 
L 27 49.319729 
L 28 49.371693 
L 29 49.430783 
L 30 49.519104 
L 31 49.565248 
L 32 49.607659 
L 33 49.638152 
L 34 49.664197 
L 35 49.685397 
L 36 49.739698 
L 37 49.767636 
L 38 49.79736 
L 39 49.822754 
L 40 49.833955 
L 41 49.844079 
L 42 49.843874 
L 43 49.834364 
L 44 49.822711 
L 45 49.791682 
L 46 49.780514 
L 47 49.750396 
L 48 49.690619 
L 49 49.653428 
L 50 49.614332 
L 51 49.571892 
L 52 49.539127 
L 53 49.4717 
L 54 49.432574 
L 55 49.3899 
L 56 49.319319 
L 57 49.282928 
L 58 49.224525 
L 59 49.113573 
L 60 49.042914 
L 61 48.929975 
L 62 48.884202 
L 63 48.822918 
L 64 48.774419 
L 65 48.693596 
L 66 48.575078 
L 67 48.504867 
L 68 48.421604 
L 69 48.388463 
L 70 48.337225 
L 71 48.268827 
L 72 48.202612 
L 73 48.125694 
L 74 48.098379 
L 75 48.071902 
L 76 48.049251 
L 77 48.02972 
L 78 48.003326 
L 79 47.953555 
L 80 47.918482 
L 81 47.882616 
L 82 47.867249 
L 83 47.851479 
L 84 47.848067 
L 85 47.845649 
L 86 47.846135 
L 87 47.848065 
L 88 47.861322 
L 89 47.869712 
L 90 47.891249 
L 91 47.914281 
L 92 47.931515 
L 93 47.949977 
L 94 47.97043 
L 95 47.98703 
L 96 48.049808 
L 97 48.125073 
L 98 48.157713 
L 99 48.225276 
L 100 48.279323 
L 101 48.313028 
L 102 48.403154 
L 103 48.431689 
L 104 48.463175 
L 105 48.494186 
L 106 48.548993 
L 107 48.613581 
L 108 48.651776 
L 109 48.74771 
L 110 48.796968 
L 111 48.841038 
L 112 48.881162 
L 113 48.989529 
L 114 49.031157 
L 115 49.093298 
L 116 49.16326 
L 117 49.267765 
L 118 49.304752 
L 119 49.35063 
L 120 49.419124 
L 121 49.46787 
L 122 49.545468 
L 123 49.576008 
L 124 49.645523 
L 125 49.669496 
L 126 49.698117 
L 127 49.739911 
L 128 49.761486 
L 129.6 49.775434 
L 130.556702 47.845455 
L 130.566012 46.845455 
L 130.578459 45.845455 
L 130.589514 44.845455 
L 130.595178 43.845455 
L 130.599942 42.845455 
L 130.594394 41.845455 
L 130.581106 40.845455 
L 130.573589 39.845455 
L 130.548804 38.845455 
L 130.525235 37.845455 
L 130.489055 36.845455 
L 130.463093 35.845455 
L 130.440771 34.845455 
L 130.372011 33.845455 
L 130.297476 32.845455 
L 130.203497 31.845455 
L 130.152445 30.845455 
L 130.098511 29.845455 
L 130.06326 28.845455 
L 129.957172 27.845455 
L 129.904908 26.845455 
L 129.868001 25.845455 
L 129.83697 24.845455 
L 129.775815 23.845455 
L 129.708395 22.845455 
L 129.659489 21.845455 
L 129.594297 20.845455 
L 129.556109 19.845455 
L 129.514113 18.845455 
L 129.472096 17.845455 
L 129.41258 16.845455 
L 129.29942 15.845455 
L 129.247169 14.845455 
L 129.207751 13.845455 
L 129.16065 12.845455 
L 129.10387 11.845455 
L 129.071207 10.8 
L 128.6 11.364971 
L 127.6 11.397061 
L 126.6 11.431341 
L 125.6 11.489719 
L 124.6 11.534904 
L 123.6 11.564528 
L 122.6 11.614914 
L 121.6 11.640111 
L 120.6 11.661162 
L 119.6 11.69613 
L 118.6 11.72042 
L 117.6 11.734487 
L 116.6 11.753429 
L 115.6 11.76909 
L 114.6 11.781642 
L 113.6 11.787478 
L 112.6 11.79436 
L 111.6 11.799534 
L 110.6 11.797751 
L 109.6 11.795026 
L 108.6 11.783872 
L 107.6 11.755637 
L 106.6 11.711849 
L 105.6 11.69116 
L 104.6 11.650187 
L 103.6 11.610112 
L 102.6 11.591002 
L 101.6 11.568493 
L 100.6 11.501842 
L 99.6 11.452132 
L 98.6 11.378426 
L 97.6 11.347112 
L 96.6 11.27049 
L 95.6 11.232192 
L 94.6 11.158075 
L 93.6 11.054017 
L 92.6 10.984186 
L 91.6 10.878952 
L 90.6 10.823937 
L 89.6 10.700462 
L 88.6 10.629903 
L 87.6 10.514064 
L 86.6 10.463883 
L 85.6 10.428279 
L 84.6 10.336872 
L 83.6 10.283364 
L 82.6 10.195456 
L 81.6 10.126271 
L 80.6 10.079507 
L 79.6 10.007463 
L 78.6 9.957321 
L 77.6 9.939931 
L 76.6 9.912928 
L 75.6 9.893501 
L 74.6 9.874163 
L 73.6 9.835914 
L 72.6 9.819481 
L 71.6 9.811112 
L 70.6 9.806793 
L 69.6 9.800238 
L 68.6 9.802784 
L 67.6 9.808243 
L 66.6 9.824671 
L 65.6 9.856606 
L 64.6 9.894586 
L 63.6 9.92939 
L 62.6 9.992462 
L 61.6 10.013889 
L 60.6 10.064507 
L 59.6 10.089464 
L 58.6 10.145098 
L 57.6 10.176327 
L 56.6 10.226471 
L 55.6 10.258964 
L 54.6 10.339376 
L 53.6 10.408302 
L 52.6 10.523999 
L 51.6 10.599478 
L 50.6 10.715003 
L 49.6 10.794487 
L 48.6 10.902928 
L 47.6 10.942296 
L 46.6 11.045164 
L 45.6 11.144962 
L 44.6 11.190459 
L 43.6 11.224781 
L 42.6 11.276737 
L 41.6 11.316384 
L 40.6 11.351898 
L 39.6 11.419543 
L 38.6 11.458625 
L 37.6 11.509106 
L 36.6 11.558412 
L 35.6 11.609482 
L 34.6 11.653721 
L 33.6 11.675741 
L 32.6 11.691297 
L 31.6 11.733744 
L 30.6 11.748612 
L 29.6 11.77134 
L 28.6 11.791656 
L 27.6 11.797453 
L 26.6 11.799935 
L 25.6 11.796878 
L 24.6 11.785282 
L 23.6 11.768362 
L 22.6 11.736701 
L 21.6 11.722618 
L 20.6 11.669946 
L 19.6 11.620857 
L 18 11.566156 
L 18.721808 11.8 
L 18.651816 12.8 
L 18.601433 13.8 
L 18.547526 14.8 
L 18.478087 15.8 
L 18.420699 16.8 
L 18.370534 17.8 
L 18.293372 18.8 
L 18.235182 19.8 
L 18.174544 20.8 
L 18.137343 21.8 
L 18.072251 22.8 
L 17.967121 23.8 
L 17.906819 24.8 
L 17.810497 25.8 
L 17.778494 26.8 
L 17.727477 27.8 
L 17.610685 28.8 
L 17.575238 29.8 
L 17.519358 30.8 
L 17.488982 31.8 
L 17.400596 32.8 
L 17.355832 33.8 
L 17.274944 34.8 
L 17.214798 35.8 
L 17.151712 36.8 
L 17.128764 37.8 
L 17.112594 38.8 
L 17.083665 39.8 
L 17.053313 40.8 
L 17.040739 41.8 
L 17.01586 42.8 
L 17.003776 43.8 
L 17.000014 44.8 
L 17.00445 45.8 
L 17.016789 46.8 
L 17.031202 47.8 
L 17.047275 48.845455 
z
" style="fill:#ffffff;"/>
   </g>
   <g id="line2d_1">
    <path clip-path="url(#pc18073c4b9)" d="M 18 41.236364 
L 19 41.2678 
L 20 41.30474 
L 21 41.402487 
L 22 41.435009 
L 23 41.508633 
L 24 41.547199 
L 25 41.582612 
L 26 41.640252 
L 27 41.710638 
L 28 41.762602 
L 29 41.821692 
L 30 41.910013 
L 31 41.956157 
L 32 41.998568 
L 33 42.029061 
L 34 42.055106 
L 35 42.076306 
L 36 42.130607 
L 37 42.158545 
L 38 42.188269 
L 39 42.213663 
L 40 42.224864 
L 41 42.234988 
L 42 42.234783 
L 43 42.225274 
L 44 42.21362 
L 45 42.182591 
L 46 42.171423 
L 47 42.141305 
L 48 42.081528 
L 49 42.044337 
L 50 42.005241 
L 51.513514 41.962801 
L 52.212071 40.23977 
L 52.149539 39.239452 
L 52.115308 38.239273 
L 52.077527 37.239076 
L 52.011841 36.238742 
L 51.980345 35.238576 
L 51.926836 34.238303 
L 51.820778 33.237772 
L 51.755015 32.237438 
L 51.64697 31.236897 
L 51.606091 30.236685 
L 51.549702 29.236397 
L 51.506097 28.236172 
L 51.430169 27.235788 
L 51.316546 26.23522 
L 51.25123 25.234888 
L 51.172862 24.234493 
L 51.144614 23.234343 
L 51.098271 22.234104 
L 51.034767 21.233781 
L 50.973446 20.233469 
L 50.905474 18.405569 
L 52.625225 17.662015 
L 53.625225 17.635538 
L 54.625225 17.612887 
L 55.625225 17.593356 
L 56.625225 17.566962 
L 57.625225 17.517191 
L 58.625225 17.482118 
L 59.625225 17.446252 
L 60.625225 17.430885 
L 61.625225 17.415116 
L 62.625225 17.411703 
L 63.625225 17.409286 
L 64.625225 17.409772 
L 65.625225 17.411701 
L 66.625225 17.424958 
L 67.625225 17.433348 
L 68.625225 17.454885 
L 69.625225 17.477918 
L 70.625225 17.495151 
L 71.625225 17.513614 
L 72.625225 17.534066 
L 73.625225 17.550666 
L 74.625225 17.613445 
L 75.625225 17.68871 
L 76.625225 17.721349 
L 77.625225 17.788912 
L 78.625225 17.84296 
L 79.625225 17.876664 
L 80.625225 17.96679 
L 81.625225 17.995325 
L 82.625225 18.026811 
L 83.625225 18.057822 
L 84.625225 18.11263 
L 85.625225 18.177217 
L 86.625225 18.215412 
L 87.625225 18.311347 
L 88.625225 18.360605 
L 89.625225 18.404674 
L 90.625225 18.444798 
L 91.625225 18.553165 
L 92.625225 18.594793 
L 93.625225 18.656934 
L 94.625225 18.726897 
L 95.625225 18.831401 
L 96.625225 18.868389 
L 97.625225 18.914266 
L 98.625225 18.982761 
L 99.625225 19.031506 
L 100.625225 19.109104 
L 101.625225 19.139645 
L 102.625225 19.209159 
L 103.625225 19.233132 
L 104.625225 19.261754 
L 105.625225 19.303547 
L 106.625225 19.325123 
L 107.625225 19.339071 
L 108.625225 19.365793 
L 109.625225 19.375103 
L 110.625225 19.38755 
L 111.625225 19.398604 
L 112.625225 19.404269 
L 113.625225 19.409033 
L 114.625225 19.403485 
L 115.625225 19.390197 
L 116.625225 19.38268 
L 117.625225 19.357895 
L 118.625225 19.334326 
L 119.625225 19.298145 
L 120.625225 19.272184 
L 121.625225 19.249862 
L 122.625225 19.181102 
L 123.625225 19.106567 
L 124.625225 19.012588 
L 125.625225 18.961536 
L 126.625225 18.907602 
L 127.625225 18.872351 
L 129.6 18.766263 
L 129.6 18.409091 
" style="fill:none;stroke:#000000;stroke-linecap:square;stroke-width:2.0;"/>
   </g>
   <g id="patch_3">
    <path d="M 18 10.8 
L 19 10.831436 
L 20 10.868377 
L 21 10.966123 
L 22 10.998645 
L 23 11.07227 
L 24 11.110835 
L 25 11.146248 
L 26 11.203888 
L 27 11.274274 
L 28 11.326239 
L 29 11.385328 
L 30 11.473649 
L 31 11.519794 
L 32 11.562205 
L 33 11.592697 
L 34 11.618742 
L 35 11.639942 
L 36 11.694243 
L 37 11.722181 
L 38 11.751905 
L 39 11.7773 
L 40 11.7885 
L 41 11.798624 
L 42 11.79842 
L 43 11.78891 
L 44 11.777256 
L 45 11.746227 
L 46 11.735059 
L 47 11.704942 
L 48 11.645165 
L 49 11.607973 
L 50 11.568877 
L 51 11.526437 
L 52 11.493672 
L 53 11.426246 
L 54 11.38712 
L 55 11.344445 
L 56 11.273865 
L 57 11.237474 
L 58 11.179071 
L 59 11.068118 
L 60 10.99746 
L 61 10.88452 
L 62 10.838747 
L 63 10.777464 
L 64 10.728965 
L 65 10.648142 
L 66 10.529623 
L 67 10.459412 
L 68 10.37615 
L 69 10.343008 
L 70 10.291771 
L 71 10.223372 
L 72 10.157157 
L 73 10.08024 
L 74 10.052924 
L 75 10.026447 
L 76 10.003796 
L 77 9.984265 
L 78 9.957871 
L 79 9.9081 
L 80 9.873027 
L 81 9.837161 
L 82 9.821794 
L 83 9.806025 
L 84 9.802612 
L 85 9.800195 
L 86 9.800681 
L 87 9.80261 
L 88 9.815867 
L 89 9.824258 
L 90 9.845794 
L 91 9.868827 
L 92 9.88606 
L 93 9.904523 
L 94 9.924975 
L 95 9.941575 
L 96 10.004354 
L 97 10.079619 
L 98 10.112258 
L 99 10.179822 
L 100 10.233869 
L 101 10.267573 
L 102 10.357699 
L 103 10.386234 
L 104 10.41772 
L 105 10.448731 
L 106 10.503539 
L 107 10.568126 
L 108 10.606322 
L 109 10.702256 
L 110 10.751514 
L 111 10.795583 
L 112 10.835707 
L 113 10.944074 
L 114 10.985702 
L 115 11.047844 
L 116 11.117806 
L 117 11.22231 
L 118 11.259298 
L 119 11.305175 
L 120 11.37367 
L 121 11.422416 
L 122 11.500013 
L 123 11.530554 
L 124 11.600068 
L 125 11.624041 
L 126 11.652663 
L 127 11.694456 
L 128 11.716032 
L 129.6 11.72998 
" style="fill:none;"/>
   </g>
   <g id="patch_4">
    <path d="M 129.6 48.845455 
L 129.631436 47.845455 
L 129.668377 46.845455 
L 129.766123 45.845455 
L 129.798645 44.845455 
L 129.87227 43.845455 
L 129.910835 42.845455 
L 129.946248 41.845455 
L 130.003888 40.845455 
L 130.074274 39.845455 
L 130.126239 38.845455 
L 130.185328 37.845455 
L 130.273649 36.845455 
L 130.319794 35.845455 
L 130.362205 34.845455 
L 130.392697 33.845455 
L 130.418742 32.845455 
L 130.439942 31.845455 
L 130.494243 30.845455 
L 130.522181 29.845455 
L 130.551905 28.845455 
L 130.5773 27.845455 
L 130.5885 26.845455 
L 130.598624 25.845455 
L 130.59842 24.845455 
L 130.58891 23.845455 
L 130.577256 22.845455 
L 130.546227 21.845455 
L 130.535059 20.845455 
L 130.504942 19.845455 
L 130.445165 18.845455 
L 130.407973 17.845455 
L 130.368877 16.845455 
L 130.326437 15.845455 
L 130.293672 14.845455 
L 130.226246 13.845455 
L 130.18712 12.845455 
L 130.144445 11.845455 
L 130.073865 10.8 
" style="fill:none;"/>
   </g>
   <g id="patch_5">
    <path d="M 18 48.845455 
L 19 48.876891 
L 20 48.913831 
L 21 49.011578 
L 22 49.044099 
L 23 49.117724 
L 24 49.15629 
L 25 49.191703 
L 26 49.249343 
L 27 49.319729 
L 28 49.371693 
L 29 49.430783 
L 30 49.519104 
L 31 49.565248 
L 32 49.607659 
L 33 49.638152 
L 34 49.664197 
L 35 49.685397 
L 36 49.739698 
L 37 49.767636 
L 38 49.79736 
L 39 49.822754 
L 40 49.833955 
L 41 49.844079 
L 42 49.843874 
L 43 49.834364 
L 44 49.822711 
L 45 49.791682 
L 46 49.780514 
L 47 49.750396 
L 48 49.690619 
L 49 49.653428 
L 50 49.614332 
L 51 49.571892 
L 52 49.539127 
L 53 49.4717 
L 54 49.432574 
L 55 49.3899 
L 56 49.319319 
L 57 49.282928 
L 58 49.224525 
L 59 49.113573 
L 60 49.042914 
L 61 48.929975 
L 62 48.884202 
L 63 48.822918 
L 64 48.774419 
L 65 48.693596 
L 66 48.575078 
L 67 48.504867 
L 68 48.421604 
L 69 48.388463 
L 70 48.337225 
L 71 48.268827 
L 72 48.202612 
L 73 48.125694 
L 74 48.098379 
L 75 48.071902 
L 76 48.049251 
L 77 48.02972 
L 78 48.003326 
L 79 47.953555 
L 80 47.918482 
L 81 47.882616 
L 82 47.867249 
L 83 47.851479 
L 84 47.848067 
L 85 47.845649 
L 86 47.846135 
L 87 47.848065 
L 88 47.861322 
L 89 47.869712 
L 90 47.891249 
L 91 47.914281 
L 92 47.931515 
L 93 47.949977 
L 94 47.97043 
L 95 47.98703 
L 96 48.049808 
L 97 48.125073 
L 98 48.157713 
L 99 48.225276 
L 100 48.279323 
L 101 48.313028 
L 102 48.403154 
L 103 48.431689 
L 104 48.463175 
L 105 48.494186 
L 106 48.548993 
L 107 48.613581 
L 108 48.651776 
L 109 48.74771 
L 110 48.796968 
L 111 48.841038 
L 112 48.881162 
L 113 48.989529 
L 114 49.031157 
L 115 49.093298 
L 116 49.16326 
L 117 49.267765 
L 118 49.304752 
L 119 49.35063 
L 120 49.419124 
L 121 49.46787 
L 122 49.545468 
L 123 49.576008 
L 124 49.645523 
L 125 49.669496 
L 126 49.698117 
L 127 49.739911 
L 128 49.761486 
L 129.6 49.775434 
" style="fill:none;stroke:#000000;stroke-linecap:square;stroke-linejoin:miter;stroke-width:1.5;"/>
   </g>
   <g id="patch_6">
    <path d="M 18 48.845455 
L 18.031436 47.845455 
L 18.068377 46.845455 
L 18.166123 45.845455 
L 18.198645 44.845455 
L 18.27227 43.845455 
L 18.310835 42.845455 
L 18.346248 41.845455 
L 18.403888 40.845455 
L 18.474274 39.845455 
L 18.526239 38.845455 
L 18.585328 37.845455 
L 18.673649 36.845455 
L 18.719794 35.845455 
L 18.762205 34.845455 
L 18.792697 33.845455 
L 18.818742 32.845455 
L 18.839942 31.845455 
L 18.894243 30.845455 
L 18.922181 29.845455 
L 18.951905 28.845455 
L 18.9773 27.845455 
L 18.9885 26.845455 
L 18.998624 25.845455 
L 18.99842 24.845455 
L 18.98891 23.845455 
L 18.977256 22.845455 
L 18.946227 21.845455 
L 18.935059 20.845455 
L 18.904942 19.845455 
L 18.845165 18.845455 
L 18.807973 17.845455 
L 18.768877 16.845455 
L 18.726437 15.845455 
L 18.693672 14.845455 
L 18.626246 13.845455 
L 18.58712 12.845455 
L 18.544445 11.845455 
L 18.473865 10.8 
" style="fill:none;stroke:#000000;stroke-linecap:square;stroke-linejoin:miter;stroke-width:1.5;"/>
   </g>
   <g id="matplotlib.axis_1"/>
   <g id="matplotlib.axis_2">
    <g id="text_1">
     <text style="font-family:Helvetica LT Std;font-size:8.0px;font-style:normal;font-weight:400;" transform="translate(4.117 36.7146022727)rotate(-90.0)">growth</text>
     <text style="font-family:Helvetica LT Std;font-size:8.0px;font-style:normal;font-weight:400;" transform="translate(11.97625 37.3102272727)rotate(-90.0)">fraction</text>
    </g>
   </g>
  </g>
  <g id="axes_2">
   <g id="patch_7">
    <path d="M 18 94.5 
L 19 94.531436 
L 20 94.568377 
L 21 94.666123 
L 22 94.698645 
L 23 94.77227 
L 24 94.810835 
L 25 94.846248 
L 26 94.903888 
L 27 94.974274 
L 28 95.026239 
L 29 95.085328 
L 30 95.173649 
L 31 95.219794 
L 32 95.262205 
L 33 95.292697 
L 34 95.318742 
L 35 95.339942 
L 36 95.394243 
L 37 95.422181 
L 38 95.451905 
L 39 95.4773 
L 40 95.4885 
L 41 95.498624 
L 42 95.49842 
L 43 95.48891 
L 44 95.477256 
L 45 95.446227 
L 46 95.435059 
L 47 95.404942 
L 48 95.345165 
L 49 95.307973 
L 50 95.268877 
L 51 95.226437 
L 52 95.193672 
L 53 95.126246 
L 54 95.08712 
L 55 95.044445 
L 56 94.973865 
L 57 94.937474 
L 58 94.879071 
L 59 94.768118 
L 60 94.69746 
L 61 94.58452 
L 62 94.538747 
L 63 94.477464 
L 64 94.428965 
L 65 94.348142 
L 66 94.229623 
L 67 94.159412 
L 68 94.07615 
L 69 94.043008 
L 70 93.991771 
L 71 93.923372 
L 72 93.857157 
L 73 93.78024 
L 74 93.752924 
L 75 93.726447 
L 76 93.703796 
L 77 93.684265 
L 78 93.657871 
L 79 93.6081 
L 80 93.573027 
L 81 93.537161 
L 82 93.521794 
L 83 93.506025 
L 84 93.502612 
L 85 93.500195 
L 86 93.500681 
L 87 93.50261 
L 88 93.515867 
L 89 93.524258 
L 90 93.545794 
L 91 93.568827 
L 92 93.58606 
L 93 93.604523 
L 94 93.624975 
L 95 93.641575 
L 96 93.704354 
L 97 93.779619 
L 98 93.812258 
L 99 93.879822 
L 100 93.933869 
L 101 93.967573 
L 102 94.057699 
L 103 94.086234 
L 104 94.11772 
L 105 94.148731 
L 106 94.203539 
L 107 94.268126 
L 108 94.306322 
L 109 94.402256 
L 110 94.451514 
L 111 94.495583 
L 112 94.535707 
L 113 94.644074 
L 114 94.685702 
L 115 94.747844 
L 116 94.817806 
L 117 94.92231 
L 118 94.959298 
L 119 95.005175 
L 120 95.07367 
L 121 95.122416 
L 122 95.200013 
L 123 95.230554 
L 124 95.300068 
L 125 95.324041 
L 126 95.352663 
L 127 95.394456 
L 128 95.416032 
L 129.6 95.42998 
L 130.556702 93.5 
L 130.566012 92.5 
L 130.578459 91.5 
L 130.589514 90.5 
L 130.595178 89.5 
L 130.599942 88.5 
L 130.594394 87.5 
L 130.581106 86.5 
L 130.573589 85.5 
L 130.548804 84.5 
L 130.525235 83.5 
L 130.489055 82.5 
L 130.463093 81.5 
L 130.440771 80.5 
L 130.372011 79.5 
L 130.297476 78.5 
L 130.203497 77.5 
L 130.152445 76.5 
L 130.098511 75.5 
L 130.06326 74.5 
L 129.957172 73.5 
L 129.904908 72.5 
L 129.868001 71.5 
L 129.83697 70.5 
L 129.775815 69.5 
L 129.708395 68.5 
L 129.659489 67.5 
L 129.594297 66.5 
L 129.556109 65.5 
L 129.514113 64.5 
L 129.472096 63.5 
L 129.41258 62.5 
L 129.29942 61.5 
L 129.247169 60.5 
L 129.207751 59.5 
L 129.16065 58.5 
L 129.10387 57.5 
L 129.071207 56.454545 
L 128.6 57.019516 
L 127.6 57.051607 
L 126.6 57.085886 
L 125.6 57.144264 
L 124.6 57.189449 
L 123.6 57.219073 
L 122.6 57.269459 
L 121.6 57.294657 
L 120.6 57.315708 
L 119.6 57.350675 
L 118.6 57.374965 
L 117.6 57.389032 
L 116.6 57.407974 
L 115.6 57.423636 
L 114.6 57.436188 
L 113.6 57.442023 
L 112.6 57.448906 
L 111.6 57.454079 
L 110.6 57.452297 
L 109.6 57.449571 
L 108.6 57.438418 
L 107.6 57.410182 
L 106.6 57.366395 
L 105.6 57.345705 
L 104.6 57.304732 
L 103.6 57.264657 
L 102.6 57.245547 
L 101.6 57.223039 
L 100.6 57.156387 
L 99.6 57.106678 
L 98.6 57.032971 
L 97.6 57.001657 
L 96.6 56.925035 
L 95.6 56.886737 
L 94.6 56.812621 
L 93.6 56.708562 
L 92.6 56.638731 
L 91.6 56.533498 
L 90.6 56.478482 
L 89.6 56.355008 
L 88.6 56.284448 
L 87.6 56.168609 
L 86.6 56.118428 
L 85.6 56.082824 
L 84.6 55.991418 
L 83.6 55.93791 
L 82.6 55.850001 
L 81.6 55.780817 
L 80.6 55.734052 
L 79.6 55.662008 
L 78.6 55.611866 
L 77.6 55.594477 
L 76.6 55.567473 
L 75.6 55.548046 
L 74.6 55.528708 
L 73.6 55.49046 
L 72.6 55.474026 
L 71.6 55.465657 
L 70.6 55.461339 
L 69.6 55.454783 
L 68.6 55.45733 
L 67.6 55.462788 
L 66.6 55.479217 
L 65.6 55.511151 
L 64.6 55.549132 
L 63.6 55.583936 
L 62.6 55.647007 
L 61.6 55.668434 
L 60.6 55.719052 
L 59.6 55.74401 
L 58.6 55.799643 
L 57.6 55.830872 
L 56.6 55.881016 
L 55.6 55.913509 
L 54.6 55.993922 
L 53.6 56.062847 
L 52.6 56.178545 
L 51.6 56.254024 
L 50.6 56.369548 
L 49.6 56.449033 
L 48.6 56.557474 
L 47.6 56.596841 
L 46.6 56.699709 
L 45.6 56.799507 
L 44.6 56.845004 
L 43.6 56.879327 
L 42.6 56.931282 
L 41.6 56.970929 
L 40.6 57.006444 
L 39.6 57.074089 
L 38.6 57.11317 
L 37.6 57.163652 
L 36.6 57.212958 
L 35.6 57.264027 
L 34.6 57.308266 
L 33.6 57.330286 
L 32.6 57.345843 
L 31.6 57.388289 
L 30.6 57.403158 
L 29.6 57.425885 
L 28.6 57.446202 
L 27.6 57.451998 
L 26.6 57.454481 
L 25.6 57.451423 
L 24.6 57.439828 
L 23.6 57.422907 
L 22.6 57.391246 
L 21.6 57.377163 
L 20.6 57.324491 
L 19.6 57.275402 
L 18 57.220701 
L 18.721808 57.454545 
L 18.651816 58.454545 
L 18.601433 59.454545 
L 18.547526 60.454545 
L 18.478087 61.454545 
L 18.420699 62.454545 
L 18.370534 63.454545 
L 18.293372 64.454545 
L 18.235182 65.454545 
L 18.174544 66.454545 
L 18.137343 67.454545 
L 18.072251 68.454545 
L 17.967121 69.454545 
L 17.906819 70.454545 
L 17.810497 71.454545 
L 17.778494 72.454545 
L 17.727477 73.454545 
L 17.610685 74.454545 
L 17.575238 75.454545 
L 17.519358 76.454545 
L 17.488982 77.454545 
L 17.400596 78.454545 
L 17.355832 79.454545 
L 17.274944 80.454545 
L 17.214798 81.454545 
L 17.151712 82.454545 
L 17.128764 83.454545 
L 17.112594 84.454545 
L 17.083665 85.454545 
L 17.053313 86.454545 
L 17.040739 87.454545 
L 17.01586 88.454545 
L 17.003776 89.454545 
L 17.000014 90.454545 
L 17.00445 91.454545 
L 17.016789 92.454545 
L 17.031202 93.454545 
L 17.047275 94.5 
z
" style="fill:#ffffff;"/>
   </g>
   <g id="line2d_2">
    <path clip-path="url(#pdb50eca960)" d="M 18 86.890909 
L 19 86.922346 
L 20 86.959286 
L 21 87.057032 
L 22 87.089554 
L 23 87.163179 
L 24 87.201744 
L 25 87.237157 
L 26 87.294797 
L 27 87.365184 
L 28 87.417148 
L 29 87.476238 
L 30 87.564559 
L 31 87.610703 
L 32 87.653114 
L 33 87.683606 
L 34 87.709651 
L 35 87.730851 
L 36 87.785153 
L 37 87.81309 
L 38 87.842814 
L 39 87.868209 
L 40 87.879409 
L 41 87.889533 
L 42 87.889329 
L 43 87.879819 
L 44 87.868166 
L 45 87.837136 
L 46 87.825968 
L 47 87.795851 
L 48 87.736074 
L 49 87.698882 
L 50 87.659786 
L 51.513514 87.617347 
L 52.212071 85.894316 
L 52.149539 84.893998 
L 52.115308 83.893818 
L 52.077527 82.893621 
L 52.011841 81.893288 
L 51.980345 80.893122 
L 51.926836 79.892848 
L 51.820778 78.892317 
L 51.755015 77.891983 
L 51.64697 76.891442 
L 51.606091 75.89123 
L 51.549702 74.890942 
L 51.506097 73.890717 
L 51.430169 72.890334 
L 51.316546 71.889766 
L 51.25123 70.889434 
L 51.172862 69.889038 
L 51.144614 68.888888 
L 51.098271 67.888649 
L 51.034767 66.888327 
L 50.973446 65.888015 
L 50.905474 64.060114 
L 52.625225 63.316561 
L 53.625225 63.290083 
L 54.625225 63.267433 
L 55.625225 63.247901 
L 56.625225 63.221507 
L 57.625225 63.171737 
L 58.625225 63.136663 
L 59.625225 63.100798 
L 60.625225 63.085431 
L 61.625225 63.069661 
L 62.625225 63.066249 
L 63.625225 63.063831 
L 64.625225 63.064317 
L 65.625225 63.066247 
L 66.625225 63.079503 
L 67.625225 63.087894 
L 68.625225 63.109431 
L 69.625225 63.132463 
L 70.625225 63.149697 
L 71.625225 63.168159 
L 72.625225 63.188612 
L 73.625225 63.205212 
L 74.625225 63.26799 
L 75.625225 63.343255 
L 76.625225 63.375895 
L 77.625225 63.443458 
L 78.625225 63.497505 
L 79.625225 63.531209 
L 80.625225 63.621335 
L 81.625225 63.64987 
L 82.625225 63.681357 
L 83.625225 63.712367 
L 84.625225 63.767175 
L 85.625225 63.831763 
L 86.625225 63.869958 
L 87.625225 63.965892 
L 88.625225 64.01515 
L 89.625225 64.05922 
L 90.625225 64.099343 
L 91.625225 64.20771 
L 92.625225 64.249339 
L 93.625225 64.31148 
L 94.625225 64.381442 
L 95.625225 64.485947 
L 96.625225 64.522934 
L 97.625225 64.568812 
L 98.625225 64.637306 
L 99.625225 64.686052 
L 100.625225 64.76365 
L 101.625225 64.79419 
L 102.625225 64.863705 
L 103.625225 64.887678 
L 104.625225 64.916299 
L 105.625225 64.958092 
L 106.625225 64.979668 
L 107.625225 64.993616 
L 108.625225 65.020339 
L 109.625225 65.029648 
L 110.625225 65.042095 
L 111.625225 65.05315 
L 112.625225 65.058815 
L 113.625225 65.063578 
L 114.625225 65.058031 
L 115.625225 65.044743 
L 116.625225 65.037225 
L 117.625225 65.01244 
L 118.625225 64.988872 
L 119.625225 64.952691 
L 120.625225 64.926729 
L 121.625225 64.904408 
L 122.625225 64.835648 
L 123.625225 64.761113 
L 124.625225 64.667133 
L 125.625225 64.616081 
L 126.625225 64.562147 
L 127.625225 64.526897 
L 129.6 64.420809 
L 129.6 64.063636 
" style="fill:none;stroke:#000000;stroke-linecap:square;stroke-width:2.0;"/>
   </g>
   <g id="patch_8">
    <path d="M 18 56.454545 
L 19 56.485982 
L 20 56.522922 
L 21 56.620669 
L 22 56.65319 
L 23 56.726815 
L 24 56.765381 
L 25 56.800794 
L 26 56.858434 
L 27 56.92882 
L 28 56.980784 
L 29 57.039874 
L 30 57.128195 
L 31 57.174339 
L 32 57.21675 
L 33 57.247243 
L 34 57.273288 
L 35 57.294488 
L 36 57.348789 
L 37 57.376726 
L 38 57.40645 
L 39 57.431845 
L 40 57.443046 
L 41 57.45317 
L 42 57.452965 
L 43 57.443455 
L 44 57.431802 
L 45 57.400773 
L 46 57.389605 
L 47 57.359487 
L 48 57.29971 
L 49 57.262519 
L 50 57.223423 
L 51 57.180983 
L 52 57.148218 
L 53 57.080791 
L 54 57.041665 
L 55 56.998991 
L 56 56.92841 
L 57 56.892019 
L 58 56.833616 
L 59 56.722664 
L 60 56.652005 
L 61 56.539066 
L 62 56.493293 
L 63 56.432009 
L 64 56.38351 
L 65 56.302687 
L 66 56.184168 
L 67 56.113958 
L 68 56.030695 
L 69 55.997554 
L 70 55.946316 
L 71 55.877918 
L 72 55.811702 
L 73 55.734785 
L 74 55.70747 
L 75 55.680992 
L 76 55.658342 
L 77 55.63881 
L 78 55.612417 
L 79 55.562646 
L 80 55.527573 
L 81 55.491707 
L 82 55.47634 
L 83 55.46057 
L 84 55.457158 
L 85 55.45474 
L 86 55.455226 
L 87 55.457156 
L 88 55.470413 
L 89 55.478803 
L 90 55.50034 
L 91 55.523372 
L 92 55.540606 
L 93 55.559068 
L 94 55.579521 
L 95 55.596121 
L 96 55.658899 
L 97 55.734164 
L 98 55.766804 
L 99 55.834367 
L 100 55.888414 
L 101 55.922119 
L 102 56.012245 
L 103 56.040779 
L 104 56.072266 
L 105 56.103276 
L 106 56.158084 
L 107 56.222672 
L 108 56.260867 
L 109 56.356801 
L 110 56.406059 
L 111 56.450129 
L 112 56.490252 
L 113 56.598619 
L 114 56.640248 
L 115 56.702389 
L 116 56.772351 
L 117 56.876856 
L 118 56.913843 
L 119 56.959721 
L 120 57.028215 
L 121 57.076961 
L 122 57.154559 
L 123 57.185099 
L 124 57.254614 
L 125 57.278587 
L 126 57.307208 
L 127 57.349001 
L 128 57.370577 
L 129.6 57.384525 
" style="fill:none;"/>
   </g>
   <g id="patch_9">
    <path d="M 129.6 94.5 
L 129.631436 93.5 
L 129.668377 92.5 
L 129.766123 91.5 
L 129.798645 90.5 
L 129.87227 89.5 
L 129.910835 88.5 
L 129.946248 87.5 
L 130.003888 86.5 
L 130.074274 85.5 
L 130.126239 84.5 
L 130.185328 83.5 
L 130.273649 82.5 
L 130.319794 81.5 
L 130.362205 80.5 
L 130.392697 79.5 
L 130.418742 78.5 
L 130.439942 77.5 
L 130.494243 76.5 
L 130.522181 75.5 
L 130.551905 74.5 
L 130.5773 73.5 
L 130.5885 72.5 
L 130.598624 71.5 
L 130.59842 70.5 
L 130.58891 69.5 
L 130.577256 68.5 
L 130.546227 67.5 
L 130.535059 66.5 
L 130.504942 65.5 
L 130.445165 64.5 
L 130.407973 63.5 
L 130.368877 62.5 
L 130.326437 61.5 
L 130.293672 60.5 
L 130.226246 59.5 
L 130.18712 58.5 
L 130.144445 57.5 
L 130.073865 56.454545 
" style="fill:none;"/>
   </g>
   <g id="patch_10">
    <path d="M 18 94.5 
L 19 94.531436 
L 20 94.568377 
L 21 94.666123 
L 22 94.698645 
L 23 94.77227 
L 24 94.810835 
L 25 94.846248 
L 26 94.903888 
L 27 94.974274 
L 28 95.026239 
L 29 95.085328 
L 30 95.173649 
L 31 95.219794 
L 32 95.262205 
L 33 95.292697 
L 34 95.318742 
L 35 95.339942 
L 36 95.394243 
L 37 95.422181 
L 38 95.451905 
L 39 95.4773 
L 40 95.4885 
L 41 95.498624 
L 42 95.49842 
L 43 95.48891 
L 44 95.477256 
L 45 95.446227 
L 46 95.435059 
L 47 95.404942 
L 48 95.345165 
L 49 95.307973 
L 50 95.268877 
L 51 95.226437 
L 52 95.193672 
L 53 95.126246 
L 54 95.08712 
L 55 95.044445 
L 56 94.973865 
L 57 94.937474 
L 58 94.879071 
L 59 94.768118 
L 60 94.69746 
L 61 94.58452 
L 62 94.538747 
L 63 94.477464 
L 64 94.428965 
L 65 94.348142 
L 66 94.229623 
L 67 94.159412 
L 68 94.07615 
L 69 94.043008 
L 70 93.991771 
L 71 93.923372 
L 72 93.857157 
L 73 93.78024 
L 74 93.752924 
L 75 93.726447 
L 76 93.703796 
L 77 93.684265 
L 78 93.657871 
L 79 93.6081 
L 80 93.573027 
L 81 93.537161 
L 82 93.521794 
L 83 93.506025 
L 84 93.502612 
L 85 93.500195 
L 86 93.500681 
L 87 93.50261 
L 88 93.515867 
L 89 93.524258 
L 90 93.545794 
L 91 93.568827 
L 92 93.58606 
L 93 93.604523 
L 94 93.624975 
L 95 93.641575 
L 96 93.704354 
L 97 93.779619 
L 98 93.812258 
L 99 93.879822 
L 100 93.933869 
L 101 93.967573 
L 102 94.057699 
L 103 94.086234 
L 104 94.11772 
L 105 94.148731 
L 106 94.203539 
L 107 94.268126 
L 108 94.306322 
L 109 94.402256 
L 110 94.451514 
L 111 94.495583 
L 112 94.535707 
L 113 94.644074 
L 114 94.685702 
L 115 94.747844 
L 116 94.817806 
L 117 94.92231 
L 118 94.959298 
L 119 95.005175 
L 120 95.07367 
L 121 95.122416 
L 122 95.200013 
L 123 95.230554 
L 124 95.300068 
L 125 95.324041 
L 126 95.352663 
L 127 95.394456 
L 128 95.416032 
L 129.6 95.42998 
" style="fill:none;stroke:#000000;stroke-linecap:square;stroke-linejoin:miter;stroke-width:1.5;"/>
   </g>
   <g id="patch_11">
    <path d="M 18 94.5 
L 18.031436 93.5 
L 18.068377 92.5 
L 18.166123 91.5 
L 18.198645 90.5 
L 18.27227 89.5 
L 18.310835 88.5 
L 18.346248 87.5 
L 18.403888 86.5 
L 18.474274 85.5 
L 18.526239 84.5 
L 18.585328 83.5 
L 18.673649 82.5 
L 18.719794 81.5 
L 18.762205 80.5 
L 18.792697 79.5 
L 18.818742 78.5 
L 18.839942 77.5 
L 18.894243 76.5 
L 18.922181 75.5 
L 18.951905 74.5 
L 18.9773 73.5 
L 18.9885 72.5 
L 18.998624 71.5 
L 18.99842 70.5 
L 18.98891 69.5 
L 18.977256 68.5 
L 18.946227 67.5 
L 18.935059 66.5 
L 18.904942 65.5 
L 18.845165 64.5 
L 18.807973 63.5 
L 18.768877 62.5 
L 18.726437 61.5 
L 18.693672 60.5 
L 18.626246 59.5 
L 18.58712 58.5 
L 18.544445 57.5 
L 18.473865 56.454545 
" style="fill:none;stroke:#000000;stroke-linecap:square;stroke-linejoin:miter;stroke-width:1.5;"/>
   </g>
   <g id="matplotlib.axis_3">
    <g id="text_2">
     <text style="font-family:Helvetica LT Std;font-size:8.0px;font-style:normal;font-weight:400;text-anchor:middle;" transform="rotate(-0.000000, 73.800000, 105.196250)" x="73.8" y="105.19625">AP position</text>
    </g>
   </g>
   <g id="matplotlib.axis_4">
    <g id="text_3">
     <text style="font-family:Helvetica LT Std;font-size:8.0px;font-style:normal;font-weight:400;" transform="translate(4.117 81.9247727273)rotate(-90.0)">mitotic</text>
     <text style="font-family:Helvetica LT Std;font-size:8.0px;font-style:normal;font-weight:400;" transform="translate(11.97625 80.4410227273)rotate(-90.0)">index</text>
    </g>
   </g>
  </g>
 </g>
 <defs>
  <clipPath id="pdb50eca960">
   <rect height="38.0454545455" width="111.6" x="18.0" y="56.4545454545"/>
  </clipPath>
  <clipPath id="pc18073c4b9">
   <rect height="38.0454545455" width="111.6" x="18.0" y="10.8"/>
  </clipPath>
 </defs>
</svg>
