<?xml version="1.0" encoding="utf-8" standalone="no"?>
<!DOCTYPE svg PUBLIC "-//W3C//DTD SVG 1.1//EN"
  "http://www.w3.org/Graphics/SVG/1.1/DTD/svg11.dtd">
<!-- Created with matplotlib (http://matplotlib.org/) -->
<svg height="184pt" version="1.1" viewBox="0 0 93 184" width="93pt" xmlns="http://www.w3.org/2000/svg" xmlns:xlink="http://www.w3.org/1999/xlink">
 <defs>
  <style type="text/css">
*{stroke-linecap:butt;stroke-linejoin:round;stroke-miterlimit:100000;}
  </style>
 </defs>
 <g id="figure_1">
  <g id="patch_1">
   <path d="M 0 184.251969 
L 93.543307 184.251969 
L 93.543307 0 
L 0 0 
z
" style="fill:#ffffff;"/>
  </g>
  <g id="axes_1">
   <g id="patch_2">
    <path d="M 11.692913 83.33214 
L 84.188976 83.33214 
L 84.188976 18.425197 
L 11.692913 18.425197 
z
" style="fill:#ffffff;"/>
   </g>
   <g id="PolyCollection_1">
    <defs>
     <path d="M 15.720472 -147.398327 
L 15.720472 -100.890199 
L 16.371391 -103.06368 
L 17.02231 -105.041624 
L 17.673228 -107.028221 
L 18.324147 -108.845578 
L 18.975066 -110.665798 
L 19.625984 -112.418337 
L 20.276903 -113.970441 
L 20.927822 -115.523975 
L 21.57874 -117.049289 
L 22.229659 -118.445479 
L 22.880577 -119.715425 
L 23.531496 -120.933348 
L 24.182415 -122.137196 
L 24.833333 -123.297882 
L 25.484252 -124.404492 
L 26.135171 -125.513752 
L 26.786089 -126.57484 
L 27.437008 -127.616763 
L 28.087927 -128.547403 
L 28.738845 -129.502525 
L 29.389764 -130.353995 
L 30.040682 -131.140521 
L 30.691601 -131.946469 
L 31.34252 -132.690255 
L 31.993438 -133.408061 
L 32.644357 -134.096634 
L 33.295276 -134.816659 
L 33.946194 -135.480787 
L 34.597113 -136.13079 
L 35.248031 -136.727485 
L 35.89895 -137.332268 
L 36.549869 -137.899804 
L 37.200787 -138.472874 
L 37.851706 -139.008517 
L 38.502625 -139.529494 
L 39.153543 -140.005643 
L 39.804462 -140.499076 
L 40.455381 -140.964606 
L 41.106299 -141.418215 
L 41.757218 -141.879639 
L 42.408136 -142.290459 
L 43.059055 -142.680979 
L 43.709974 -143.080808 
L 44.360892 -143.454878 
L 45.011811 -143.833541 
L 45.66273 -144.173601 
L 46.313648 -144.52368 
L 46.964567 -144.84361 
L 47.615486 -145.167666 
L 48.266404 -145.476071 
L 48.917323 -145.767984 
L 49.568241 -146.049236 
L 50.21916 -146.337928 
L 50.870079 -146.577822 
L 51.520997 -146.844122 
L 52.171916 -147.105891 
L 52.822835 -147.333981 
L 53.473753 -147.566543 
L 54.124672 -147.784188 
L 54.775591 -147.994233 
L 55.426509 -148.202224 
L 56.077428 -148.415009 
L 56.728346 -148.623412 
L 57.379265 -148.805304 
L 58.030184 -148.970389 
L 58.681102 -149.129635 
L 59.332021 -149.300718 
L 59.98294 -149.468095 
L 60.633858 -149.614312 
L 61.284777 -149.756724 
L 61.935696 -149.897246 
L 62.586614 -150.034391 
L 63.237533 -150.17399 
L 63.888451 -150.287856 
L 64.53937 -150.422545 
L 65.190289 -150.552362 
L 65.841207 -150.664529 
L 66.492126 -150.779991 
L 67.143045 -150.907801 
L 67.793963 -151.032187 
L 68.444882 -151.144617 
L 69.095801 -151.278635 
L 69.746719 -151.402844 
L 70.397638 -151.501073 
L 71.048556 -151.612646 
L 71.699475 -151.707615 
L 72.350394 -151.821734 
L 73.001312 -151.903905 
L 73.652231 -152.005088 
L 74.30315 -152.092451 
L 74.954068 -152.179248 
L 75.604987 -152.284091 
L 76.255906 -152.375973 
L 76.906824 -152.471384 
L 77.557743 -152.55593 
L 78.208661 -152.642839 
L 78.85958 -152.742376 
L 79.510499 -152.834904 
L 80.161417 -152.918895 
L 80.161417 -162.3613 
L 80.161417 -162.3613 
L 79.510499 -162.337152 
L 78.85958 -162.314466 
L 78.208661 -162.290772 
L 77.557743 -162.263052 
L 76.906824 -162.232471 
L 76.255906 -162.201102 
L 75.604987 -162.170583 
L 74.954068 -162.137789 
L 74.30315 -162.102429 
L 73.652231 -162.065537 
L 73.001312 -162.028571 
L 72.350394 -161.988622 
L 71.699475 -161.946686 
L 71.048556 -161.903854 
L 70.397638 -161.859874 
L 69.746719 -161.813906 
L 69.095801 -161.76396 
L 68.444882 -161.714197 
L 67.793963 -161.659284 
L 67.143045 -161.607321 
L 66.492126 -161.54769 
L 65.841207 -161.489921 
L 65.190289 -161.425482 
L 64.53937 -161.359267 
L 63.888451 -161.293503 
L 63.237533 -161.217282 
L 62.586614 -161.143525 
L 61.935696 -161.062011 
L 61.284777 -160.98182 
L 60.633858 -160.892877 
L 59.98294 -160.804604 
L 59.332021 -160.710176 
L 58.681102 -160.615886 
L 58.030184 -160.512845 
L 57.379265 -160.407907 
L 56.728346 -160.292385 
L 56.077428 -160.174773 
L 55.426509 -160.051516 
L 54.775591 -159.918572 
L 54.124672 -159.783643 
L 53.473753 -159.648042 
L 52.822835 -159.509647 
L 52.171916 -159.365789 
L 51.520997 -159.217769 
L 50.870079 -159.054755 
L 50.21916 -158.895511 
L 49.568241 -158.729985 
L 48.917323 -158.550639 
L 48.266404 -158.361189 
L 47.615486 -158.172049 
L 46.964567 -157.962846 
L 46.313648 -157.761703 
L 45.66273 -157.546099 
L 45.011811 -157.337587 
L 44.360892 -157.106406 
L 43.709974 -156.858906 
L 43.059055 -156.608608 
L 42.408136 -156.360754 
L 41.757218 -156.09838 
L 41.106299 -155.828154 
L 40.455381 -155.570333 
L 39.804462 -155.305382 
L 39.153543 -155.037309 
L 38.502625 -154.780935 
L 37.851706 -154.509572 
L 37.200787 -154.260838 
L 36.549869 -153.971687 
L 35.89895 -153.670508 
L 35.248031 -153.415521 
L 34.597113 -153.166888 
L 33.946194 -152.908628 
L 33.295276 -152.650697 
L 32.644357 -152.401523 
L 31.993438 -152.134166 
L 31.34252 -151.904391 
L 30.691601 -151.675312 
L 30.040682 -151.45046 
L 29.389764 -151.247892 
L 28.738845 -151.032619 
L 28.087927 -150.811239 
L 27.437008 -150.607442 
L 26.786089 -150.417038 
L 26.135171 -150.216464 
L 25.484252 -150.027566 
L 24.833333 -149.814002 
L 24.182415 -149.611471 
L 23.531496 -149.437801 
L 22.880577 -149.239517 
L 22.229659 -149.05802 
L 21.57874 -148.860116 
L 20.927822 -148.688495 
L 20.276903 -148.550387 
L 19.625984 -148.376503 
L 18.975066 -148.213495 
L 18.324147 -148.069207 
L 17.673228 -147.90417 
L 17.02231 -147.755143 
L 16.371391 -147.603893 
L 15.720472 -147.398327 
z
" id="md1f35e70a4" style="stroke:#008000;stroke-opacity:0.2;"/>
    </defs>
    <g clip-path="url(#p2899e0d84d)">
     <use style="fill:#008000;fill-opacity:0.2;stroke:#008000;stroke-opacity:0.2;" x="0.0" xlink:href="#md1f35e70a4" y="184.251968504"/>
    </g>
   </g>
   <g id="PolyCollection_2">
    <defs>
     <path d="M 15.720472 -142.359006 
L 15.720472 -109.789867 
L 16.371391 -111.528248 
L 17.02231 -113.161301 
L 17.673228 -114.746411 
L 18.324147 -116.267639 
L 18.975066 -117.740832 
L 19.625984 -119.140316 
L 20.276903 -120.489895 
L 20.927822 -121.740661 
L 21.57874 -122.976139 
L 22.229659 -124.17399 
L 22.880577 -125.311165 
L 23.531496 -126.411958 
L 24.182415 -127.463704 
L 24.833333 -128.45172 
L 25.484252 -129.410778 
L 26.135171 -130.326518 
L 26.786089 -131.215875 
L 27.437008 -132.059238 
L 28.087927 -132.878321 
L 28.738845 -133.676808 
L 29.389764 -134.447296 
L 30.040682 -135.174863 
L 30.691601 -135.875326 
L 31.34252 -136.560222 
L 31.993438 -137.215313 
L 32.644357 -137.833649 
L 33.295276 -138.438301 
L 33.946194 -139.015617 
L 34.597113 -139.579362 
L 35.248031 -140.132919 
L 35.89895 -140.653603 
L 36.549869 -141.161786 
L 37.200787 -141.649353 
L 37.851706 -142.113593 
L 38.502625 -142.560854 
L 39.153543 -143.005165 
L 39.804462 -143.42078 
L 40.455381 -143.828903 
L 41.106299 -144.217037 
L 41.757218 -144.58835 
L 42.408136 -144.952281 
L 43.059055 -145.314875 
L 43.709974 -145.660495 
L 44.360892 -145.997403 
L 45.011811 -146.329218 
L 45.66273 -146.643754 
L 46.313648 -146.933611 
L 46.964567 -147.233115 
L 47.615486 -147.520766 
L 48.266404 -147.796277 
L 48.917323 -148.070974 
L 49.568241 -148.333438 
L 50.21916 -148.58745 
L 50.870079 -148.82964 
L 51.520997 -149.074283 
L 52.171916 -149.303427 
L 52.822835 -149.536347 
L 53.473753 -149.74792 
L 54.124672 -149.958065 
L 54.775591 -150.160556 
L 55.426509 -150.362362 
L 56.077428 -150.557955 
L 56.728346 -150.752431 
L 57.379265 -150.943886 
L 58.030184 -151.129216 
L 58.681102 -151.307483 
L 59.332021 -151.48149 
L 59.98294 -151.648088 
L 60.633858 -151.812792 
L 61.284777 -151.981897 
L 61.935696 -152.137245 
L 62.586614 -152.291189 
L 63.237533 -152.444076 
L 63.888451 -152.589682 
L 64.53937 -152.736446 
L 65.190289 -152.881272 
L 65.841207 -153.024905 
L 66.492126 -153.15982 
L 67.143045 -153.302552 
L 67.793963 -153.436114 
L 68.444882 -153.560875 
L 69.095801 -153.686716 
L 69.746719 -153.811741 
L 70.397638 -153.937677 
L 71.048556 -154.059809 
L 71.699475 -154.18194 
L 72.350394 -154.30599 
L 73.001312 -154.417453 
L 73.652231 -154.530197 
L 74.30315 -154.639876 
L 74.954068 -154.751945 
L 75.604987 -154.863013 
L 76.255906 -154.968011 
L 76.906824 -155.076166 
L 77.557743 -155.176962 
L 78.208661 -155.283095 
L 78.85958 -155.380706 
L 79.510499 -155.480038 
L 80.161417 -155.578587 
L 80.161417 -161.920653 
L 80.161417 -161.920653 
L 79.510499 -161.884223 
L 78.85958 -161.845744 
L 78.208661 -161.805747 
L 77.557743 -161.764405 
L 76.906824 -161.721726 
L 76.255906 -161.677018 
L 75.604987 -161.630218 
L 74.954068 -161.581534 
L 74.30315 -161.53116 
L 73.652231 -161.479807 
L 73.001312 -161.425728 
L 72.350394 -161.368492 
L 71.699475 -161.310437 
L 71.048556 -161.249833 
L 70.397638 -161.186843 
L 69.746719 -161.120081 
L 69.095801 -161.052297 
L 68.444882 -160.981193 
L 67.793963 -160.90794 
L 67.143045 -160.831855 
L 66.492126 -160.752906 
L 65.841207 -160.671272 
L 65.190289 -160.585062 
L 64.53937 -160.497182 
L 63.888451 -160.406292 
L 63.237533 -160.311676 
L 62.586614 -160.214437 
L 61.935696 -160.111472 
L 61.284777 -160.005988 
L 60.633858 -159.89735 
L 59.98294 -159.784347 
L 59.332021 -159.667336 
L 58.681102 -159.544722 
L 58.030184 -159.412262 
L 57.379265 -159.282592 
L 56.728346 -159.146866 
L 56.077428 -159.005192 
L 55.426509 -158.858809 
L 54.775591 -158.710246 
L 54.124672 -158.554818 
L 53.473753 -158.391512 
L 52.822835 -158.222271 
L 52.171916 -158.049775 
L 51.520997 -157.865304 
L 50.870079 -157.676928 
L 50.21916 -157.486571 
L 49.568241 -157.287484 
L 48.917323 -157.080858 
L 48.266404 -156.865152 
L 47.615486 -156.651929 
L 46.964567 -156.428796 
L 46.313648 -156.201027 
L 45.66273 -155.966027 
L 45.011811 -155.721497 
L 44.360892 -155.471185 
L 43.709974 -155.219798 
L 43.059055 -154.964112 
L 42.408136 -154.69269 
L 41.757218 -154.41815 
L 41.106299 -154.138469 
L 40.455381 -153.856432 
L 39.804462 -153.572585 
L 39.153543 -153.271542 
L 38.502625 -152.966233 
L 37.851706 -152.665477 
L 37.200787 -152.363638 
L 36.549869 -152.057685 
L 35.89895 -151.750042 
L 35.248031 -151.426492 
L 34.597113 -151.109371 
L 33.946194 -150.801779 
L 33.295276 -150.488194 
L 32.644357 -150.186915 
L 31.993438 -149.88665 
L 31.34252 -149.581011 
L 30.691601 -149.272044 
L 30.040682 -148.966085 
L 29.389764 -148.666427 
L 28.738845 -148.368093 
L 28.087927 -148.072808 
L 27.437008 -147.779973 
L 26.786089 -147.486011 
L 26.135171 -147.180443 
L 25.484252 -146.873962 
L 24.833333 -146.576928 
L 24.182415 -146.279189 
L 23.531496 -145.99066 
L 22.880577 -145.696662 
L 22.229659 -145.397317 
L 21.57874 -145.099474 
L 20.927822 -144.801133 
L 20.276903 -144.484578 
L 19.625984 -144.194801 
L 18.975066 -143.889655 
L 18.324147 -143.589238 
L 17.673228 -143.283656 
L 17.02231 -142.975381 
L 16.371391 -142.670878 
L 15.720472 -142.359006 
z
" id="mf43e4b3eec" style="stroke:#008000;stroke-opacity:0.2;"/>
    </defs>
    <g clip-path="url(#p2899e0d84d)">
     <use style="fill:#008000;fill-opacity:0.2;stroke:#008000;stroke-opacity:0.2;" x="0.0" xlink:href="#mf43e4b3eec" y="184.251968504"/>
    </g>
   </g>
   <g id="PolyCollection_3">
    <defs>
     <path d="M 15.720472 -136.132981 
L 15.720472 -118.807113 
L 16.371391 -120.082905 
L 17.02231 -121.323471 
L 17.673228 -122.522637 
L 18.324147 -123.676016 
L 18.975066 -124.806082 
L 19.625984 -125.896266 
L 20.276903 -126.945228 
L 20.927822 -127.952519 
L 21.57874 -128.930271 
L 22.229659 -129.887105 
L 22.880577 -130.800753 
L 23.531496 -131.683184 
L 24.182415 -132.53114 
L 24.833333 -133.356828 
L 25.484252 -134.152939 
L 26.135171 -134.906249 
L 26.786089 -135.643707 
L 27.437008 -136.357978 
L 28.087927 -137.04187 
L 28.738845 -137.712241 
L 29.389764 -138.346716 
L 30.040682 -138.970538 
L 30.691601 -139.563643 
L 31.34252 -140.143243 
L 31.993438 -140.699011 
L 32.644357 -141.241167 
L 33.295276 -141.765229 
L 33.946194 -142.262519 
L 34.597113 -142.750831 
L 35.248031 -143.221091 
L 35.89895 -143.678837 
L 36.549869 -144.120777 
L 37.200787 -144.544618 
L 37.851706 -144.960666 
L 38.502625 -145.356301 
L 39.153543 -145.742475 
L 39.804462 -146.119437 
L 40.455381 -146.484455 
L 41.106299 -146.834981 
L 41.757218 -147.177824 
L 42.408136 -147.509719 
L 43.059055 -147.83622 
L 43.709974 -148.144127 
L 44.360892 -148.44873 
L 45.011811 -148.748623 
L 45.66273 -149.041861 
L 46.313648 -149.327828 
L 46.964567 -149.597507 
L 47.615486 -149.865281 
L 48.266404 -150.125876 
L 48.917323 -150.379761 
L 49.568241 -150.626869 
L 50.21916 -150.865706 
L 50.870079 -151.099612 
L 51.520997 -151.330035 
L 52.171916 -151.554527 
L 52.822835 -151.775103 
L 53.473753 -151.98606 
L 54.124672 -152.194912 
L 54.775591 -152.398472 
L 55.426509 -152.600352 
L 56.077428 -152.795924 
L 56.728346 -152.985463 
L 57.379265 -153.171167 
L 58.030184 -153.348994 
L 58.681102 -153.528208 
L 59.332021 -153.705714 
L 59.98294 -153.875546 
L 60.633858 -154.045439 
L 61.284777 -154.212015 
L 61.935696 -154.374939 
L 62.586614 -154.534295 
L 63.237533 -154.687586 
L 63.888451 -154.840908 
L 64.53937 -154.99141 
L 65.190289 -155.136817 
L 65.841207 -155.280019 
L 66.492126 -155.42046 
L 67.143045 -155.55796 
L 67.793963 -155.694137 
L 68.444882 -155.826882 
L 69.095801 -155.957189 
L 69.746719 -156.085749 
L 70.397638 -156.209772 
L 71.048556 -156.333806 
L 71.699475 -156.455034 
L 72.350394 -156.572695 
L 73.001312 -156.686025 
L 73.652231 -156.799171 
L 74.30315 -156.912137 
L 74.954068 -157.022138 
L 75.604987 -157.129085 
L 76.255906 -157.234036 
L 76.906824 -157.337825 
L 77.557743 -157.439553 
L 78.208661 -157.539058 
L 78.85958 -157.637022 
L 79.510499 -157.733202 
L 80.161417 -157.82808 
L 80.161417 -161.103734 
L 80.161417 -161.103734 
L 79.510499 -161.048217 
L 78.85958 -160.991622 
L 78.208661 -160.932913 
L 77.557743 -160.871786 
L 76.906824 -160.809541 
L 76.255906 -160.744793 
L 75.604987 -160.67805 
L 74.954068 -160.609741 
L 74.30315 -160.539329 
L 73.652231 -160.465893 
L 73.001312 -160.390566 
L 72.350394 -160.313721 
L 71.699475 -160.232873 
L 71.048556 -160.150255 
L 70.397638 -160.065438 
L 69.746719 -159.978576 
L 69.095801 -159.888859 
L 68.444882 -159.795758 
L 67.793963 -159.700188 
L 67.143045 -159.600633 
L 66.492126 -159.498466 
L 65.841207 -159.392715 
L 65.190289 -159.284549 
L 64.53937 -159.172669 
L 63.888451 -159.057669 
L 63.237533 -158.939069 
L 62.586614 -158.815678 
L 61.935696 -158.689461 
L 61.284777 -158.560886 
L 60.633858 -158.428185 
L 59.98294 -158.292641 
L 59.332021 -158.152483 
L 58.681102 -158.006448 
L 58.030184 -157.857162 
L 57.379265 -157.702955 
L 56.728346 -157.544293 
L 56.077428 -157.381721 
L 55.426509 -157.214369 
L 54.775591 -157.041233 
L 54.124672 -156.862098 
L 53.473753 -156.678831 
L 52.822835 -156.490587 
L 52.171916 -156.297084 
L 51.520997 -156.097785 
L 50.870079 -155.895091 
L 50.21916 -155.687549 
L 49.568241 -155.470034 
L 48.917323 -155.247381 
L 48.266404 -155.021318 
L 47.615486 -154.789219 
L 46.964567 -154.550092 
L 46.313648 -154.306534 
L 45.66273 -154.054642 
L 45.011811 -153.794865 
L 44.360892 -153.530643 
L 43.709974 -153.258873 
L 43.059055 -152.983492 
L 42.408136 -152.702538 
L 41.757218 -152.412818 
L 41.106299 -152.116794 
L 40.455381 -151.817617 
L 39.804462 -151.502368 
L 39.153543 -151.184229 
L 38.502625 -150.861037 
L 37.851706 -150.534457 
L 37.200787 -150.196497 
L 36.549869 -149.856376 
L 35.89895 -149.502879 
L 35.248031 -149.150849 
L 34.597113 -148.794386 
L 33.946194 -148.433285 
L 33.295276 -148.05859 
L 32.644357 -147.689444 
L 31.993438 -147.309257 
L 31.34252 -146.919598 
L 30.691601 -146.53314 
L 30.040682 -146.141502 
L 29.389764 -145.740313 
L 28.738845 -145.334145 
L 28.087927 -144.924762 
L 27.437008 -144.508808 
L 26.786089 -144.090648 
L 26.135171 -143.674316 
L 25.484252 -143.254658 
L 24.833333 -142.825903 
L 24.182415 -142.383537 
L 23.531496 -141.934738 
L 22.880577 -141.477331 
L 22.229659 -141.023947 
L 21.57874 -140.567461 
L 20.927822 -140.101325 
L 20.276903 -139.630507 
L 19.625984 -139.160012 
L 18.975066 -138.676241 
L 18.324147 -138.191045 
L 17.673228 -137.686409 
L 17.02231 -137.174996 
L 16.371391 -136.662013 
L 15.720472 -136.132981 
z
" id="m311beafefb" style="stroke:#008000;stroke-opacity:0.2;"/>
    </defs>
    <g clip-path="url(#p2899e0d84d)">
     <use style="fill:#008000;fill-opacity:0.2;stroke:#008000;stroke-opacity:0.2;" x="0.0" xlink:href="#m311beafefb" y="184.251968504"/>
    </g>
   </g>
   <g id="LineCollection_1">
    <path clip-path="url(#p2899e0d84d)" d="M 15.720472 65.132741 
L 15.720472 48.425193 
" style="fill:none;stroke:#000000;"/>
    <path clip-path="url(#p2899e0d84d)" d="M 39.885827 48.308506 
L 39.885827 33.900857 
" style="fill:none;stroke:#000000;"/>
    <path clip-path="url(#p2899e0d84d)" d="M 47.940945 31.264407 
L 47.940945 26.983644 
" style="fill:none;stroke:#000000;"/>
    <path clip-path="url(#p2899e0d84d)" d="M 64.051181 24.482373 
L 64.051181 23.763998 
" style="fill:none;stroke:#000000;"/>
    <path clip-path="url(#p2899e0d84d)" d="M 80.161417 30.365525 
L 80.161417 27.006285 
" style="fill:none;stroke:#000000;"/>
   </g>
   <g id="line2d_1">
    <defs>
     <path d="M 3 0 
L -3 -0 
" id="m852ac941e0" style="stroke:#000000;stroke-width:0.5;"/>
    </defs>
    <g clip-path="url(#p2899e0d84d)">
     <use style="stroke:#000000;stroke-width:0.5;" x="15.7204724409" xlink:href="#m852ac941e0" y="65.1327406917"/>
     <use style="stroke:#000000;stroke-width:0.5;" x="39.8858267717" xlink:href="#m852ac941e0" y="48.3085056088"/>
     <use style="stroke:#000000;stroke-width:0.5;" x="47.9409448819" xlink:href="#m852ac941e0" y="31.2644074022"/>
     <use style="stroke:#000000;stroke-width:0.5;" x="64.0511811024" xlink:href="#m852ac941e0" y="24.4823728269"/>
     <use style="stroke:#000000;stroke-width:0.5;" x="80.1614173228" xlink:href="#m852ac941e0" y="30.3655254959"/>
    </g>
   </g>
   <g id="line2d_2">
    <g clip-path="url(#p2899e0d84d)">
     <use style="stroke:#000000;stroke-width:0.5;" x="15.7204724409" xlink:href="#m852ac941e0" y="48.4251925573"/>
     <use style="stroke:#000000;stroke-width:0.5;" x="39.8858267717" xlink:href="#m852ac941e0" y="33.9008571939"/>
     <use style="stroke:#000000;stroke-width:0.5;" x="47.9409448819" xlink:href="#m852ac941e0" y="26.98364359"/>
     <use style="stroke:#000000;stroke-width:0.5;" x="64.0511811024" xlink:href="#m852ac941e0" y="23.763998014"/>
     <use style="stroke:#000000;stroke-width:0.5;" x="80.1614173228" xlink:href="#m852ac941e0" y="27.0062851696"/>
    </g>
   </g>
   <g id="line2d_3">
    <defs>
     <path d="M 0 2 
C 0.530406 2 1.03916 1.789267 1.414214 1.414214 
C 1.789267 1.03916 2 0.530406 2 0 
C 2 -0.530406 1.789267 -1.03916 1.414214 -1.414214 
C 1.03916 -1.789267 0.530406 -2 0 -2 
C -0.530406 -2 -1.03916 -1.789267 -1.414214 -1.414214 
C -1.789267 -1.03916 -2 -0.530406 -2 0 
C -2 0.530406 -1.789267 1.03916 -1.414214 1.414214 
C -1.03916 1.789267 -0.530406 2 0 2 
z
" id="md5bf4e82e3" style="stroke:#000000;stroke-width:0.5;"/>
    </defs>
    <g clip-path="url(#p2899e0d84d)">
     <use style="stroke:#000000;stroke-width:0.5;" x="15.7204724409" xlink:href="#md5bf4e82e3" y="56.7789666245"/>
     <use style="stroke:#000000;stroke-width:0.5;" x="39.8858267717" xlink:href="#md5bf4e82e3" y="41.1046814014"/>
     <use style="stroke:#000000;stroke-width:0.5;" x="47.9409448819" xlink:href="#md5bf4e82e3" y="29.1240254961"/>
     <use style="stroke:#000000;stroke-width:0.5;" x="64.0511811024" xlink:href="#md5bf4e82e3" y="24.1231854205"/>
     <use style="stroke:#000000;stroke-width:0.5;" x="80.1614173228" xlink:href="#md5bf4e82e3" y="28.6859053327"/>
    </g>
   </g>
   <g id="patch_3">
    <path d="M 11.692913 18.425197 
L 84.188976 18.425197 
" style="fill:none;stroke:#000000;stroke-linecap:square;stroke-linejoin:miter;"/>
   </g>
   <g id="patch_4">
    <path d="M 84.188976 83.33214 
L 84.188976 18.425197 
" style="fill:none;stroke:#000000;stroke-linecap:square;stroke-linejoin:miter;"/>
   </g>
   <g id="patch_5">
    <path d="M 11.692913 83.33214 
L 84.188976 83.33214 
" style="fill:none;stroke:#000000;stroke-linecap:square;stroke-linejoin:miter;"/>
   </g>
   <g id="patch_6">
    <path d="M 11.692913 83.33214 
L 11.692913 18.425197 
" style="fill:none;stroke:#000000;stroke-linecap:square;stroke-linejoin:miter;"/>
   </g>
   <g id="matplotlib.axis_1">
    <g id="xtick_1">
     <g id="line2d_4">
      <defs>
       <path d="M 0 0 
L 0 -4 
" id="mb5ffcb5b41" style="stroke:#000000;stroke-width:0.5;"/>
      </defs>
      <g>
       <use style="stroke:#000000;stroke-width:0.5;" x="15.7204724409" xlink:href="#mb5ffcb5b41" y="83.3321403006"/>
      </g>
     </g>
     <g id="line2d_5">
      <defs>
       <path d="M 0 0 
L 0 4 
" id="m3cdac1e773" style="stroke:#000000;stroke-width:0.5;"/>
      </defs>
      <g>
       <use style="stroke:#000000;stroke-width:0.5;" x="15.7204724409" xlink:href="#m3cdac1e773" y="18.4251968504"/>
      </g>
     </g>
    </g>
    <g id="xtick_2">
     <g id="line2d_6">
      <g>
       <use style="stroke:#000000;stroke-width:0.5;" x="31.8307086614" xlink:href="#mb5ffcb5b41" y="83.3321403006"/>
      </g>
     </g>
     <g id="line2d_7">
      <g>
       <use style="stroke:#000000;stroke-width:0.5;" x="31.8307086614" xlink:href="#m3cdac1e773" y="18.4251968504"/>
      </g>
     </g>
    </g>
    <g id="xtick_3">
     <g id="line2d_8">
      <g>
       <use style="stroke:#000000;stroke-width:0.5;" x="47.9409448819" xlink:href="#mb5ffcb5b41" y="83.3321403006"/>
      </g>
     </g>
     <g id="line2d_9">
      <g>
       <use style="stroke:#000000;stroke-width:0.5;" x="47.9409448819" xlink:href="#m3cdac1e773" y="18.4251968504"/>
      </g>
     </g>
    </g>
    <g id="xtick_4">
     <g id="line2d_10">
      <g>
       <use style="stroke:#000000;stroke-width:0.5;" x="64.0511811024" xlink:href="#mb5ffcb5b41" y="83.3321403006"/>
      </g>
     </g>
     <g id="line2d_11">
      <g>
       <use style="stroke:#000000;stroke-width:0.5;" x="64.0511811024" xlink:href="#m3cdac1e773" y="18.4251968504"/>
      </g>
     </g>
    </g>
    <g id="xtick_5">
     <g id="line2d_12">
      <g>
       <use style="stroke:#000000;stroke-width:0.5;" x="80.1614173228" xlink:href="#mb5ffcb5b41" y="83.3321403006"/>
      </g>
     </g>
     <g id="line2d_13">
      <g>
       <use style="stroke:#000000;stroke-width:0.5;" x="80.1614173228" xlink:href="#m3cdac1e773" y="18.4251968504"/>
      </g>
     </g>
    </g>
   </g>
   <g id="matplotlib.axis_2">
    <g id="ytick_1">
     <g id="line2d_14">
      <defs>
       <path d="M 0 0 
L 4 0 
" id="m4c7bc1d037" style="stroke:#000000;stroke-width:0.5;"/>
      </defs>
      <g>
       <use style="stroke:#000000;stroke-width:0.5;" x="11.6929133858" xlink:href="#m4c7bc1d037" y="80.3818246893"/>
      </g>
     </g>
     <g id="line2d_15">
      <defs>
       <path d="M 0 0 
L -4 0 
" id="mb882d6f64f" style="stroke:#000000;stroke-width:0.5;"/>
      </defs>
      <g>
       <use style="stroke:#000000;stroke-width:0.5;" x="84.188976378" xlink:href="#mb882d6f64f" y="80.3818246893"/>
      </g>
     </g>
     <g id="text_1">
      <text style="font-family:Helvetica LT Std;font-size:8.0px;font-style:normal;font-weight:400;text-anchor:end;" transform="rotate(-0.000000, 7.692913, 82.718075)" x="7.69291338583" y="82.7180746893">0.8</text>
     </g>
    </g>
    <g id="ytick_2">
     <g id="line2d_16">
      <g>
       <use style="stroke:#000000;stroke-width:0.5;" x="11.6929133858" xlink:href="#m4c7bc1d037" y="50.8786685755"/>
      </g>
     </g>
     <g id="line2d_17">
      <g>
       <use style="stroke:#000000;stroke-width:0.5;" x="84.188976378" xlink:href="#mb882d6f64f" y="50.8786685755"/>
      </g>
     </g>
     <g id="text_2">
      <text style="font-family:Helvetica LT Std;font-size:8.0px;font-style:normal;font-weight:400;text-anchor:end;" transform="rotate(-0.000000, 7.692913, 53.214919)" x="7.69291338583" y="53.2149185755">0.9</text>
     </g>
    </g>
    <g id="ytick_3">
     <g id="line2d_18">
      <g>
       <use style="stroke:#000000;stroke-width:0.5;" x="11.6929133858" xlink:href="#m4c7bc1d037" y="21.3755124618"/>
      </g>
     </g>
     <g id="line2d_19">
      <g>
       <use style="stroke:#000000;stroke-width:0.5;" x="84.188976378" xlink:href="#mb882d6f64f" y="21.3755124618"/>
      </g>
     </g>
     <g id="text_3">
      <text style="font-family:Helvetica LT Std;font-size:8.0px;font-style:normal;font-weight:400;text-anchor:end;" transform="rotate(-0.000000, 7.692913, 23.711762)" x="7.69291338583" y="23.7117624618">1.0</text>
     </g>
    </g>
    <g id="ytick_4">
     <g id="line2d_20">
      <defs>
       <path d="M 0 0 
L 2 0 
" id="m6b35949f67" style="stroke:#000000;stroke-width:0.5;"/>
      </defs>
      <g>
       <use style="stroke:#000000;stroke-width:0.5;" x="11.6929133858" xlink:href="#m6b35949f67" y="65.6302466324"/>
      </g>
     </g>
     <g id="line2d_21">
      <defs>
       <path d="M 0 0 
L -2 0 
" id="m4ad82d953f" style="stroke:#000000;stroke-width:0.5;"/>
      </defs>
      <g>
       <use style="stroke:#000000;stroke-width:0.5;" x="84.188976378" xlink:href="#m4ad82d953f" y="65.6302466324"/>
      </g>
     </g>
    </g>
    <g id="ytick_5">
     <g id="line2d_22">
      <g>
       <use style="stroke:#000000;stroke-width:0.5;" x="11.6929133858" xlink:href="#m6b35949f67" y="36.1270905186"/>
      </g>
     </g>
     <g id="line2d_23">
      <g>
       <use style="stroke:#000000;stroke-width:0.5;" x="84.188976378" xlink:href="#m4ad82d953f" y="36.1270905186"/>
      </g>
     </g>
    </g>
    <g id="text_4">
     <text style="font-family:Helvetica LT Std;font-size:8.0px;font-style:normal;font-weight:400;text-anchor:middle;" transform="rotate(-90.000000, -4.985837, 50.878669)" x="-4.98583661417" y="50.8786685755">Growth fraction</text>
    </g>
   </g>
  </g>
  <g id="axes_2">
   <g id="patch_7">
    <path d="M 11.692913 161.220472 
L 84.188976 161.220472 
L 84.188976 96.313529 
L 11.692913 96.313529 
z
" style="fill:#ffffff;"/>
   </g>
   <g id="PolyCollection_4">
    <defs>
     <path d="M 15.720472 -23.031496 
L 15.720472 -23.031496 
L 16.371391 -23.028546 
L 17.02231 -23.025595 
L 17.673228 -23.022645 
L 18.324147 -23.019695 
L 18.975066 -23.016744 
L 19.625984 -23.013794 
L 20.276903 -23.010844 
L 20.927822 -23.007894 
L 21.57874 -23.004943 
L 22.229659 -23.001993 
L 22.880577 -22.999043 
L 23.531496 -22.996092 
L 24.182415 -22.993142 
L 24.833333 -22.990192 
L 25.484252 -22.987241 
L 26.135171 -22.984291 
L 26.786089 -22.981341 
L 27.437008 -22.97839 
L 28.087927 -22.97544 
L 28.738845 -22.97249 
L 29.389764 -22.969539 
L 30.040682 -22.966589 
L 30.691601 -22.963639 
L 31.34252 -22.960688 
L 31.993438 -22.957738 
L 32.644357 -22.954788 
L 33.295276 -22.951838 
L 33.946194 -22.948887 
L 34.597113 -22.945937 
L 35.248031 -22.942987 
L 35.89895 -22.940036 
L 36.549869 -22.937086 
L 37.200787 -22.934136 
L 37.851706 -22.931185 
L 38.502625 -22.928235 
L 39.153543 -22.925285 
L 39.804462 -22.922334 
L 40.455381 -22.919384 
L 41.106299 -22.916434 
L 41.757218 -22.913483 
L 42.408136 -22.910533 
L 43.059055 -22.907583 
L 43.709974 -22.904632 
L 44.360892 -22.901682 
L 45.011811 -22.898732 
L 45.66273 -22.895782 
L 46.313648 -22.892831 
L 46.964567 -22.889881 
L 47.615486 -22.886931 
L 48.266404 -22.88398 
L 48.917323 -22.88103 
L 49.568241 -22.87808 
L 50.21916 -22.875129 
L 50.870079 -22.872179 
L 51.520997 -22.869229 
L 52.171916 -22.866278 
L 52.822835 -22.863328 
L 53.473753 -22.860378 
L 54.124672 -22.857427 
L 54.775591 -22.854477 
L 55.426509 -22.851527 
L 56.077428 -22.848576 
L 56.728346 -22.845626 
L 57.379265 -22.842676 
L 58.030184 -22.839726 
L 58.681102 -22.836775 
L 59.332021 -22.833825 
L 59.98294 -22.830875 
L 60.633858 -22.827924 
L 61.284777 -22.824974 
L 61.935696 -22.822024 
L 62.586614 -22.819073 
L 63.237533 -22.816123 
L 63.888451 -22.813173 
L 64.53937 -22.810222 
L 65.190289 -22.807272 
L 65.841207 -22.804322 
L 66.492126 -22.801371 
L 67.143045 -22.798421 
L 67.793963 -22.795471 
L 68.444882 -22.79252 
L 69.095801 -22.78957 
L 69.746719 -22.78662 
L 70.397638 -22.78367 
L 71.048556 -22.780719 
L 71.699475 -22.777769 
L 72.350394 -22.774819 
L 73.001312 -22.771868 
L 73.652231 -22.768918 
L 74.30315 -22.765968 
L 74.954068 -22.763017 
L 75.604987 -22.760067 
L 76.255906 -22.757117 
L 76.906824 -22.754166 
L 77.557743 -22.751216 
L 78.208661 -22.748266 
L 78.85958 -22.745315 
L 79.510499 -22.742365 
L 80.161417 -22.739415 
L 80.161417 -28.152098 
L 80.161417 -28.152098 
L 79.510499 -28.100374 
L 78.85958 -28.048651 
L 78.208661 -27.996928 
L 77.557743 -27.945205 
L 76.906824 -27.893481 
L 76.255906 -27.841758 
L 75.604987 -27.790035 
L 74.954068 -27.738312 
L 74.30315 -27.686588 
L 73.652231 -27.634865 
L 73.001312 -27.583142 
L 72.350394 -27.531419 
L 71.699475 -27.479695 
L 71.048556 -27.427972 
L 70.397638 -27.376249 
L 69.746719 -27.324526 
L 69.095801 -27.272802 
L 68.444882 -27.221079 
L 67.793963 -27.169356 
L 67.143045 -27.117633 
L 66.492126 -27.065909 
L 65.841207 -27.014186 
L 65.190289 -26.962463 
L 64.53937 -26.91074 
L 63.888451 -26.859016 
L 63.237533 -26.807293 
L 62.586614 -26.75557 
L 61.935696 -26.703847 
L 61.284777 -26.652123 
L 60.633858 -26.6004 
L 59.98294 -26.548677 
L 59.332021 -26.496954 
L 58.681102 -26.44523 
L 58.030184 -26.393507 
L 57.379265 -26.341784 
L 56.728346 -26.290061 
L 56.077428 -26.238337 
L 55.426509 -26.186614 
L 54.775591 -26.134891 
L 54.124672 -26.083168 
L 53.473753 -26.031444 
L 52.822835 -25.979721 
L 52.171916 -25.927998 
L 51.520997 -25.876275 
L 50.870079 -25.824551 
L 50.21916 -25.772828 
L 49.568241 -25.721105 
L 48.917323 -25.669382 
L 48.266404 -25.617658 
L 47.615486 -25.565935 
L 46.964567 -25.514212 
L 46.313648 -25.462489 
L 45.66273 -25.410765 
L 45.011811 -25.359042 
L 44.360892 -25.307319 
L 43.709974 -25.255596 
L 43.059055 -25.203872 
L 42.408136 -25.152149 
L 41.757218 -25.100426 
L 41.106299 -25.048703 
L 40.455381 -24.996979 
L 39.804462 -24.945256 
L 39.153543 -24.893533 
L 38.502625 -24.84181 
L 37.851706 -24.790086 
L 37.200787 -24.738363 
L 36.549869 -24.68664 
L 35.89895 -24.634917 
L 35.248031 -24.583193 
L 34.597113 -24.53147 
L 33.946194 -24.479747 
L 33.295276 -24.428024 
L 32.644357 -24.3763 
L 31.993438 -24.324577 
L 31.34252 -24.272854 
L 30.691601 -24.221131 
L 30.040682 -24.169408 
L 29.389764 -24.117684 
L 28.738845 -24.065961 
L 28.087927 -24.014238 
L 27.437008 -23.962515 
L 26.786089 -23.910791 
L 26.135171 -23.859068 
L 25.484252 -23.807345 
L 24.833333 -23.755622 
L 24.182415 -23.703898 
L 23.531496 -23.652175 
L 22.880577 -23.600452 
L 22.229659 -23.548729 
L 21.57874 -23.497005 
L 20.927822 -23.445282 
L 20.276903 -23.393559 
L 19.625984 -23.341836 
L 18.975066 -23.290112 
L 18.324147 -23.238389 
L 17.673228 -23.186666 
L 17.02231 -23.134943 
L 16.371391 -23.083219 
L 15.720472 -23.031496 
z
" id="meb50f90db4" style="stroke:#008000;stroke-opacity:0.2;"/>
    </defs>
    <g clip-path="url(#pe703a59025)">
     <use style="fill:#008000;fill-opacity:0.2;stroke:#008000;stroke-opacity:0.2;" x="0.0" xlink:href="#meb50f90db4" y="184.251968504"/>
    </g>
   </g>
   <g id="PolyCollection_5">
    <defs>
     <path d="M 15.720472 -23.031496 
L 15.720472 -23.031496 
L 16.371391 -23.038933 
L 17.02231 -23.046369 
L 17.673228 -23.053806 
L 18.324147 -23.061243 
L 18.975066 -23.068679 
L 19.625984 -23.076116 
L 20.276903 -23.083553 
L 20.927822 -23.090989 
L 21.57874 -23.098426 
L 22.229659 -23.105863 
L 22.880577 -23.113299 
L 23.531496 -23.120736 
L 24.182415 -23.128173 
L 24.833333 -23.135609 
L 25.484252 -23.143046 
L 26.135171 -23.150483 
L 26.786089 -23.157919 
L 27.437008 -23.165356 
L 28.087927 -23.172793 
L 28.738845 -23.180229 
L 29.389764 -23.187666 
L 30.040682 -23.195103 
L 30.691601 -23.202539 
L 31.34252 -23.209976 
L 31.993438 -23.217413 
L 32.644357 -23.224849 
L 33.295276 -23.232286 
L 33.946194 -23.239723 
L 34.597113 -23.247159 
L 35.248031 -23.254596 
L 35.89895 -23.262033 
L 36.549869 -23.269469 
L 37.200787 -23.276906 
L 37.851706 -23.284343 
L 38.502625 -23.291779 
L 39.153543 -23.299216 
L 39.804462 -23.306653 
L 40.455381 -23.314089 
L 41.106299 -23.321526 
L 41.757218 -23.328963 
L 42.408136 -23.336399 
L 43.059055 -23.343836 
L 43.709974 -23.351273 
L 44.360892 -23.358709 
L 45.011811 -23.366146 
L 45.66273 -23.373583 
L 46.313648 -23.381019 
L 46.964567 -23.388456 
L 47.615486 -23.395893 
L 48.266404 -23.403329 
L 48.917323 -23.410766 
L 49.568241 -23.418203 
L 50.21916 -23.425639 
L 50.870079 -23.433076 
L 51.520997 -23.440513 
L 52.171916 -23.44795 
L 52.822835 -23.455386 
L 53.473753 -23.462823 
L 54.124672 -23.47026 
L 54.775591 -23.477696 
L 55.426509 -23.485133 
L 56.077428 -23.49257 
L 56.728346 -23.500006 
L 57.379265 -23.507443 
L 58.030184 -23.51488 
L 58.681102 -23.522316 
L 59.332021 -23.529753 
L 59.98294 -23.53719 
L 60.633858 -23.544626 
L 61.284777 -23.552063 
L 61.935696 -23.5595 
L 62.586614 -23.566936 
L 63.237533 -23.574373 
L 63.888451 -23.58181 
L 64.53937 -23.589246 
L 65.190289 -23.596683 
L 65.841207 -23.60412 
L 66.492126 -23.611556 
L 67.143045 -23.618993 
L 67.793963 -23.62643 
L 68.444882 -23.633866 
L 69.095801 -23.641303 
L 69.746719 -23.64874 
L 70.397638 -23.656176 
L 71.048556 -23.663613 
L 71.699475 -23.67105 
L 72.350394 -23.678486 
L 73.001312 -23.685923 
L 73.652231 -23.69336 
L 74.30315 -23.700796 
L 74.954068 -23.708233 
L 75.604987 -23.71567 
L 76.255906 -23.723106 
L 76.906824 -23.730543 
L 77.557743 -23.73798 
L 78.208661 -23.745416 
L 78.85958 -23.752853 
L 79.510499 -23.76029 
L 80.161417 -23.767726 
L 80.161417 -27.459448 
L 80.161417 -27.459448 
L 79.510499 -27.414721 
L 78.85958 -27.369994 
L 78.208661 -27.325267 
L 77.557743 -27.280541 
L 76.906824 -27.235814 
L 76.255906 -27.191087 
L 75.604987 -27.14636 
L 74.954068 -27.101633 
L 74.30315 -27.056907 
L 73.652231 -27.01218 
L 73.001312 -26.967453 
L 72.350394 -26.922726 
L 71.699475 -26.878 
L 71.048556 -26.833273 
L 70.397638 -26.788546 
L 69.746719 -26.743819 
L 69.095801 -26.699092 
L 68.444882 -26.654366 
L 67.793963 -26.609639 
L 67.143045 -26.564912 
L 66.492126 -26.520185 
L 65.841207 -26.475458 
L 65.190289 -26.430732 
L 64.53937 -26.386005 
L 63.888451 -26.341278 
L 63.237533 -26.296551 
L 62.586614 -26.251825 
L 61.935696 -26.207098 
L 61.284777 -26.162371 
L 60.633858 -26.117644 
L 59.98294 -26.072917 
L 59.332021 -26.028191 
L 58.681102 -25.983464 
L 58.030184 -25.938737 
L 57.379265 -25.89401 
L 56.728346 -25.849283 
L 56.077428 -25.804557 
L 55.426509 -25.75983 
L 54.775591 -25.715103 
L 54.124672 -25.670376 
L 53.473753 -25.62565 
L 52.822835 -25.580923 
L 52.171916 -25.536196 
L 51.520997 -25.491469 
L 50.870079 -25.446742 
L 50.21916 -25.402016 
L 49.568241 -25.357289 
L 48.917323 -25.312562 
L 48.266404 -25.267835 
L 47.615486 -25.223109 
L 46.964567 -25.178382 
L 46.313648 -25.133655 
L 45.66273 -25.088928 
L 45.011811 -25.044201 
L 44.360892 -24.999475 
L 43.709974 -24.954748 
L 43.059055 -24.910021 
L 42.408136 -24.865294 
L 41.757218 -24.820567 
L 41.106299 -24.775841 
L 40.455381 -24.731114 
L 39.804462 -24.686387 
L 39.153543 -24.64166 
L 38.502625 -24.596934 
L 37.851706 -24.552207 
L 37.200787 -24.50748 
L 36.549869 -24.462753 
L 35.89895 -24.418026 
L 35.248031 -24.3733 
L 34.597113 -24.328573 
L 33.946194 -24.283846 
L 33.295276 -24.239119 
L 32.644357 -24.194392 
L 31.993438 -24.149666 
L 31.34252 -24.104939 
L 30.691601 -24.060212 
L 30.040682 -24.015485 
L 29.389764 -23.970759 
L 28.738845 -23.926032 
L 28.087927 -23.881305 
L 27.437008 -23.836578 
L 26.786089 -23.791851 
L 26.135171 -23.747125 
L 25.484252 -23.702398 
L 24.833333 -23.657671 
L 24.182415 -23.612944 
L 23.531496 -23.568217 
L 22.880577 -23.523491 
L 22.229659 -23.478764 
L 21.57874 -23.434037 
L 20.927822 -23.38931 
L 20.276903 -23.344584 
L 19.625984 -23.299857 
L 18.975066 -23.25513 
L 18.324147 -23.210403 
L 17.673228 -23.165676 
L 17.02231 -23.12095 
L 16.371391 -23.076223 
L 15.720472 -23.031496 
z
" id="m85afbf4cec" style="stroke:#008000;stroke-opacity:0.2;"/>
    </defs>
    <g clip-path="url(#pe703a59025)">
     <use style="fill:#008000;fill-opacity:0.2;stroke:#008000;stroke-opacity:0.2;" x="0.0" xlink:href="#m85afbf4cec" y="184.251968504"/>
    </g>
   </g>
   <g id="PolyCollection_6">
    <defs>
     <path d="M 15.720472 -23.031496 
L 15.720472 -23.031496 
L 16.371391 -23.045929 
L 17.02231 -23.060362 
L 17.673228 -23.074795 
L 18.324147 -23.089229 
L 18.975066 -23.103662 
L 19.625984 -23.118095 
L 20.276903 -23.132528 
L 20.927822 -23.146961 
L 21.57874 -23.161394 
L 22.229659 -23.175827 
L 22.880577 -23.190261 
L 23.531496 -23.204694 
L 24.182415 -23.219127 
L 24.833333 -23.23356 
L 25.484252 -23.247993 
L 26.135171 -23.262426 
L 26.786089 -23.276859 
L 27.437008 -23.291292 
L 28.087927 -23.305726 
L 28.738845 -23.320159 
L 29.389764 -23.334592 
L 30.040682 -23.349025 
L 30.691601 -23.363458 
L 31.34252 -23.377891 
L 31.993438 -23.392324 
L 32.644357 -23.406757 
L 33.295276 -23.421191 
L 33.946194 -23.435624 
L 34.597113 -23.450057 
L 35.248031 -23.46449 
L 35.89895 -23.478923 
L 36.549869 -23.493356 
L 37.200787 -23.507789 
L 37.851706 -23.522223 
L 38.502625 -23.536656 
L 39.153543 -23.551089 
L 39.804462 -23.565522 
L 40.455381 -23.579955 
L 41.106299 -23.594388 
L 41.757218 -23.608821 
L 42.408136 -23.623254 
L 43.059055 -23.637688 
L 43.709974 -23.652121 
L 44.360892 -23.666554 
L 45.011811 -23.680987 
L 45.66273 -23.69542 
L 46.313648 -23.709853 
L 46.964567 -23.724286 
L 47.615486 -23.738719 
L 48.266404 -23.753153 
L 48.917323 -23.767586 
L 49.568241 -23.782019 
L 50.21916 -23.796452 
L 50.870079 -23.810885 
L 51.520997 -23.825318 
L 52.171916 -23.839751 
L 52.822835 -23.854185 
L 53.473753 -23.868618 
L 54.124672 -23.883051 
L 54.775591 -23.897484 
L 55.426509 -23.911917 
L 56.077428 -23.92635 
L 56.728346 -23.940783 
L 57.379265 -23.955216 
L 58.030184 -23.96965 
L 58.681102 -23.984083 
L 59.332021 -23.998516 
L 59.98294 -24.012949 
L 60.633858 -24.027382 
L 61.284777 -24.041815 
L 61.935696 -24.056248 
L 62.586614 -24.070682 
L 63.237533 -24.085115 
L 63.888451 -24.099548 
L 64.53937 -24.113981 
L 65.190289 -24.128414 
L 65.841207 -24.142847 
L 66.492126 -24.15728 
L 67.143045 -24.171713 
L 67.793963 -24.186147 
L 68.444882 -24.20058 
L 69.095801 -24.215013 
L 69.746719 -24.229446 
L 70.397638 -24.243879 
L 71.048556 -24.258312 
L 71.699475 -24.272745 
L 72.350394 -24.287178 
L 73.001312 -24.301612 
L 73.652231 -24.316045 
L 74.30315 -24.330478 
L 74.954068 -24.344911 
L 75.604987 -24.359344 
L 76.255906 -24.373777 
L 76.906824 -24.38821 
L 77.557743 -24.402644 
L 78.208661 -24.417077 
L 78.85958 -24.43151 
L 79.510499 -24.445943 
L 80.161417 -24.460376 
L 80.161417 -26.712462 
L 80.161417 -26.712462 
L 79.510499 -26.67528 
L 78.85958 -26.638099 
L 78.208661 -26.600917 
L 77.557743 -26.563736 
L 76.906824 -26.526554 
L 76.255906 -26.489373 
L 75.604987 -26.452191 
L 74.954068 -26.41501 
L 74.30315 -26.377828 
L 73.652231 -26.340647 
L 73.001312 -26.303465 
L 72.350394 -26.266284 
L 71.699475 -26.229102 
L 71.048556 -26.191921 
L 70.397638 -26.15474 
L 69.746719 -26.117558 
L 69.095801 -26.080377 
L 68.444882 -26.043195 
L 67.793963 -26.006014 
L 67.143045 -25.968832 
L 66.492126 -25.931651 
L 65.841207 -25.894469 
L 65.190289 -25.857288 
L 64.53937 -25.820106 
L 63.888451 -25.782925 
L 63.237533 -25.745743 
L 62.586614 -25.708562 
L 61.935696 -25.67138 
L 61.284777 -25.634199 
L 60.633858 -25.597017 
L 59.98294 -25.559836 
L 59.332021 -25.522655 
L 58.681102 -25.485473 
L 58.030184 -25.448292 
L 57.379265 -25.41111 
L 56.728346 -25.373929 
L 56.077428 -25.336747 
L 55.426509 -25.299566 
L 54.775591 -25.262384 
L 54.124672 -25.225203 
L 53.473753 -25.188021 
L 52.822835 -25.15084 
L 52.171916 -25.113658 
L 51.520997 -25.076477 
L 50.870079 -25.039295 
L 50.21916 -25.002114 
L 49.568241 -24.964932 
L 48.917323 -24.927751 
L 48.266404 -24.89057 
L 47.615486 -24.853388 
L 46.964567 -24.816207 
L 46.313648 -24.779025 
L 45.66273 -24.741844 
L 45.011811 -24.704662 
L 44.360892 -24.667481 
L 43.709974 -24.630299 
L 43.059055 -24.593118 
L 42.408136 -24.555936 
L 41.757218 -24.518755 
L 41.106299 -24.481573 
L 40.455381 -24.444392 
L 39.804462 -24.40721 
L 39.153543 -24.370029 
L 38.502625 -24.332847 
L 37.851706 -24.295666 
L 37.200787 -24.258485 
L 36.549869 -24.221303 
L 35.89895 -24.184122 
L 35.248031 -24.14694 
L 34.597113 -24.109759 
L 33.946194 -24.072577 
L 33.295276 -24.035396 
L 32.644357 -23.998214 
L 31.993438 -23.961033 
L 31.34252 -23.923851 
L 30.691601 -23.88667 
L 30.040682 -23.849488 
L 29.389764 -23.812307 
L 28.738845 -23.775125 
L 28.087927 -23.737944 
L 27.437008 -23.700763 
L 26.786089 -23.663581 
L 26.135171 -23.6264 
L 25.484252 -23.589218 
L 24.833333 -23.552037 
L 24.182415 -23.514855 
L 23.531496 -23.477674 
L 22.880577 -23.440492 
L 22.229659 -23.403311 
L 21.57874 -23.366129 
L 20.927822 -23.328948 
L 20.276903 -23.291766 
L 19.625984 -23.254585 
L 18.975066 -23.217403 
L 18.324147 -23.180222 
L 17.673228 -23.14304 
L 17.02231 -23.105859 
L 16.371391 -23.068678 
L 15.720472 -23.031496 
z
" id="m420a91fb2a" style="stroke:#008000;stroke-opacity:0.2;"/>
    </defs>
    <g clip-path="url(#pe703a59025)">
     <use style="fill:#008000;fill-opacity:0.2;stroke:#008000;stroke-opacity:0.2;" x="0.0" xlink:href="#m420a91fb2a" y="184.251968504"/>
    </g>
   </g>
   <g id="LineCollection_2">
    <path clip-path="url(#pe703a59025)" d="M 15.720472 161.220472 
L 15.720472 161.220472 
" style="fill:none;stroke:#000000;"/>
    <path clip-path="url(#pe703a59025)" d="M 31.830709 160.449799 
L 31.830709 160.157525 
" style="fill:none;stroke:#000000;"/>
    <path clip-path="url(#pe703a59025)" d="M 39.885827 158.908993 
L 39.885827 158.232763 
" style="fill:none;stroke:#000000;"/>
    <path clip-path="url(#pe703a59025)" d="M 47.940945 154.560085 
L 47.940945 153.220004 
" style="fill:none;stroke:#000000;"/>
    <path clip-path="url(#pe703a59025)" d="M 64.051181 141.395781 
L 64.051181 139.5534 
" style="fill:none;stroke:#000000;"/>
    <path clip-path="url(#pe703a59025)" d="M 80.161417 125.766562 
L 80.161417 123.418784 
" style="fill:none;stroke:#000000;"/>
   </g>
   <g id="line2d_24">
    <g clip-path="url(#pe703a59025)">
     <use style="stroke:#000000;stroke-width:0.5;" x="15.7204724409" xlink:href="#m852ac941e0" y="161.220472441"/>
     <use style="stroke:#000000;stroke-width:0.5;" x="31.8307086614" xlink:href="#m852ac941e0" y="160.449799043"/>
     <use style="stroke:#000000;stroke-width:0.5;" x="39.8858267717" xlink:href="#m852ac941e0" y="158.90899334"/>
     <use style="stroke:#000000;stroke-width:0.5;" x="47.9409448819" xlink:href="#m852ac941e0" y="154.560085423"/>
     <use style="stroke:#000000;stroke-width:0.5;" x="64.0511811024" xlink:href="#m852ac941e0" y="141.395780796"/>
     <use style="stroke:#000000;stroke-width:0.5;" x="80.1614173228" xlink:href="#m852ac941e0" y="125.766561584"/>
    </g>
   </g>
   <g id="line2d_25">
    <g clip-path="url(#pe703a59025)">
     <use style="stroke:#000000;stroke-width:0.5;" x="15.7204724409" xlink:href="#m852ac941e0" y="161.220472441"/>
     <use style="stroke:#000000;stroke-width:0.5;" x="31.8307086614" xlink:href="#m852ac941e0" y="160.157524686"/>
     <use style="stroke:#000000;stroke-width:0.5;" x="39.8858267717" xlink:href="#m852ac941e0" y="158.23276323"/>
     <use style="stroke:#000000;stroke-width:0.5;" x="47.9409448819" xlink:href="#m852ac941e0" y="153.220003607"/>
     <use style="stroke:#000000;stroke-width:0.5;" x="64.0511811024" xlink:href="#m852ac941e0" y="139.553400485"/>
     <use style="stroke:#000000;stroke-width:0.5;" x="80.1614173228" xlink:href="#m852ac941e0" y="123.418784246"/>
    </g>
   </g>
   <g id="line2d_26">
    <g clip-path="url(#pe703a59025)">
     <use style="stroke:#000000;stroke-width:0.5;" x="15.7204724409" xlink:href="#md5bf4e82e3" y="161.220472441"/>
     <use style="stroke:#000000;stroke-width:0.5;" x="31.8307086614" xlink:href="#md5bf4e82e3" y="160.303661865"/>
     <use style="stroke:#000000;stroke-width:0.5;" x="39.8858267717" xlink:href="#md5bf4e82e3" y="158.570878285"/>
     <use style="stroke:#000000;stroke-width:0.5;" x="47.9409448819" xlink:href="#md5bf4e82e3" y="153.890044515"/>
     <use style="stroke:#000000;stroke-width:0.5;" x="64.0511811024" xlink:href="#md5bf4e82e3" y="140.474590641"/>
     <use style="stroke:#000000;stroke-width:0.5;" x="80.1614173228" xlink:href="#md5bf4e82e3" y="124.592672915"/>
    </g>
   </g>
   <g id="patch_8">
    <path d="M 11.692913 96.313529 
L 84.188976 96.313529 
" style="fill:none;stroke:#000000;stroke-linecap:square;stroke-linejoin:miter;"/>
   </g>
   <g id="patch_9">
    <path d="M 84.188976 161.220472 
L 84.188976 96.313529 
" style="fill:none;stroke:#000000;stroke-linecap:square;stroke-linejoin:miter;"/>
   </g>
   <g id="patch_10">
    <path d="M 11.692913 161.220472 
L 84.188976 161.220472 
" style="fill:none;stroke:#000000;stroke-linecap:square;stroke-linejoin:miter;"/>
   </g>
   <g id="patch_11">
    <path d="M 11.692913 161.220472 
L 11.692913 96.313529 
" style="fill:none;stroke:#000000;stroke-linecap:square;stroke-linejoin:miter;"/>
   </g>
   <g id="matplotlib.axis_3">
    <g id="xtick_6">
     <g id="line2d_27">
      <g>
       <use style="stroke:#000000;stroke-width:0.5;" x="15.7204724409" xlink:href="#mb5ffcb5b41" y="161.220472441"/>
      </g>
     </g>
     <g id="line2d_28">
      <g>
       <use style="stroke:#000000;stroke-width:0.5;" x="15.7204724409" xlink:href="#m3cdac1e773" y="96.3135289907"/>
      </g>
     </g>
     <g id="text_5">
      <text style="font-family:Helvetica LT Std;font-size:8.0px;font-style:normal;font-weight:400;text-anchor:middle;" transform="rotate(-0.000000, 15.720472, 170.916722)" x="15.7204724409" y="170.916722441">0</text>
     </g>
    </g>
    <g id="xtick_7">
     <g id="line2d_29">
      <g>
       <use style="stroke:#000000;stroke-width:0.5;" x="31.8307086614" xlink:href="#mb5ffcb5b41" y="161.220472441"/>
      </g>
     </g>
     <g id="line2d_30">
      <g>
       <use style="stroke:#000000;stroke-width:0.5;" x="31.8307086614" xlink:href="#m3cdac1e773" y="96.3135289907"/>
      </g>
     </g>
     <g id="text_6">
      <text style="font-family:Helvetica LT Std;font-size:8.0px;font-style:normal;font-weight:400;text-anchor:middle;" transform="rotate(-0.000000, 31.830709, 170.916722)" x="31.8307086614" y="170.916722441">2</text>
     </g>
    </g>
    <g id="xtick_8">
     <g id="line2d_31">
      <g>
       <use style="stroke:#000000;stroke-width:0.5;" x="47.9409448819" xlink:href="#mb5ffcb5b41" y="161.220472441"/>
      </g>
     </g>
     <g id="line2d_32">
      <g>
       <use style="stroke:#000000;stroke-width:0.5;" x="47.9409448819" xlink:href="#m3cdac1e773" y="96.3135289907"/>
      </g>
     </g>
     <g id="text_7">
      <text style="font-family:Helvetica LT Std;font-size:8.0px;font-style:normal;font-weight:400;text-anchor:middle;" transform="rotate(-0.000000, 47.940945, 170.916722)" x="47.9409448819" y="170.916722441">4</text>
     </g>
    </g>
    <g id="xtick_9">
     <g id="line2d_33">
      <g>
       <use style="stroke:#000000;stroke-width:0.5;" x="64.0511811024" xlink:href="#mb5ffcb5b41" y="161.220472441"/>
      </g>
     </g>
     <g id="line2d_34">
      <g>
       <use style="stroke:#000000;stroke-width:0.5;" x="64.0511811024" xlink:href="#m3cdac1e773" y="96.3135289907"/>
      </g>
     </g>
     <g id="text_8">
      <text style="font-family:Helvetica LT Std;font-size:8.0px;font-style:normal;font-weight:400;text-anchor:middle;" transform="rotate(-0.000000, 64.051181, 170.916722)" x="64.0511811024" y="170.916722441">6</text>
     </g>
    </g>
    <g id="xtick_10">
     <g id="line2d_35">
      <g>
       <use style="stroke:#000000;stroke-width:0.5;" x="80.1614173228" xlink:href="#mb5ffcb5b41" y="161.220472441"/>
      </g>
     </g>
     <g id="line2d_36">
      <g>
       <use style="stroke:#000000;stroke-width:0.5;" x="80.1614173228" xlink:href="#m3cdac1e773" y="96.3135289907"/>
      </g>
     </g>
     <g id="text_9">
      <text style="font-family:Helvetica LT Std;font-size:8.0px;font-style:normal;font-weight:400;text-anchor:middle;" transform="rotate(-0.000000, 80.161417, 170.916722)" x="80.1614173228" y="170.916722441">8</text>
     </g>
    </g>
    <g id="text_10">
     <text style="font-family:Helvetica LT Std;font-size:8.0px;font-style:normal;font-weight:400;text-anchor:middle;" transform="rotate(-0.000000, 47.940945, 182.636722)" x="47.9409448819" y="182.636722441">Time (days)</text>
    </g>
   </g>
   <g id="matplotlib.axis_4">
    <g id="ytick_6">
     <g id="line2d_37">
      <g>
       <use style="stroke:#000000;stroke-width:0.5;" x="11.6929133858" xlink:href="#m4c7bc1d037" y="161.220472441"/>
      </g>
     </g>
     <g id="line2d_38">
      <g>
       <use style="stroke:#000000;stroke-width:0.5;" x="84.188976378" xlink:href="#mb882d6f64f" y="161.220472441"/>
      </g>
     </g>
     <g id="text_11">
      <text style="font-family:Helvetica LT Std;font-size:8.0px;font-style:normal;font-weight:400;text-anchor:end;" transform="rotate(-0.000000, 7.692913, 163.556722)" x="7.69291338583" y="163.556722441">0</text>
     </g>
    </g>
    <g id="ytick_7">
     <g id="line2d_39">
      <g>
       <use style="stroke:#000000;stroke-width:0.5;" x="11.6929133858" xlink:href="#m4c7bc1d037" y="144.993736578"/>
      </g>
     </g>
     <g id="line2d_40">
      <g>
       <use style="stroke:#000000;stroke-width:0.5;" x="84.188976378" xlink:href="#mb882d6f64f" y="144.993736578"/>
      </g>
     </g>
     <g id="text_12">
      <text style="font-family:Helvetica LT Std;font-size:8.0px;font-style:normal;font-weight:400;text-anchor:end;" transform="rotate(-0.000000, 7.692913, 147.329987)" x="7.69291338583" y="147.329986578">1</text>
     </g>
    </g>
    <g id="ytick_8">
     <g id="line2d_41">
      <g>
       <use style="stroke:#000000;stroke-width:0.5;" x="11.6929133858" xlink:href="#m4c7bc1d037" y="128.767000716"/>
      </g>
     </g>
     <g id="line2d_42">
      <g>
       <use style="stroke:#000000;stroke-width:0.5;" x="84.188976378" xlink:href="#mb882d6f64f" y="128.767000716"/>
      </g>
     </g>
     <g id="text_13">
      <text style="font-family:Helvetica LT Std;font-size:8.0px;font-style:normal;font-weight:400;text-anchor:end;" transform="rotate(-0.000000, 7.692913, 131.103251)" x="7.69291338583" y="131.103250716">2</text>
     </g>
    </g>
    <g id="ytick_9">
     <g id="line2d_43">
      <g>
       <use style="stroke:#000000;stroke-width:0.5;" x="11.6929133858" xlink:href="#m4c7bc1d037" y="112.540264853"/>
      </g>
     </g>
     <g id="line2d_44">
      <g>
       <use style="stroke:#000000;stroke-width:0.5;" x="84.188976378" xlink:href="#mb882d6f64f" y="112.540264853"/>
      </g>
     </g>
     <g id="text_14">
      <text style="font-family:Helvetica LT Std;font-size:8.0px;font-style:normal;font-weight:400;text-anchor:end;" transform="rotate(-0.000000, 7.692913, 114.876515)" x="7.69291338583" y="114.876514853">3</text>
     </g>
    </g>
    <g id="ytick_10">
     <g id="line2d_45">
      <g>
       <use style="stroke:#000000;stroke-width:0.5;" x="11.6929133858" xlink:href="#m4c7bc1d037" y="96.3135289907"/>
      </g>
     </g>
     <g id="line2d_46">
      <g>
       <use style="stroke:#000000;stroke-width:0.5;" x="84.188976378" xlink:href="#mb882d6f64f" y="96.3135289907"/>
      </g>
     </g>
     <g id="text_15">
      <text style="font-family:Helvetica LT Std;font-size:8.0px;font-style:normal;font-weight:400;text-anchor:end;" transform="rotate(-0.000000, 7.692913, 98.649779)" x="7.69291338583" y="98.6497789907">4</text>
     </g>
    </g>
    <g id="text_16">
     <text style="font-family:Helvetica LT Std;font-size:8.0px;font-style:normal;font-weight:400;text-anchor:middle;" transform="rotate(-90.000000, -0.994587, 128.767001)" x="-0.994586614173" y="128.767000716">Outgrowth (mm)</text>
    </g>
   </g>
  </g>
  <g id="text_17">
   <text style="font-family:Helvetica LT Std;font-size:8.0px;font-style:normal;font-weight:400;text-anchor:middle;" transform="rotate(-0.000000, 46.771654, 9.381289)" x="46.7716535433" y="9.38128937008">No division</text>
  </g>
 </g>
 <defs>
  <clipPath id="pe703a59025">
   <rect height="64.9069434503" width="72.4960629921" x="11.6929133858" y="96.3135289907"/>
  </clipPath>
  <clipPath id="p2899e0d84d">
   <rect height="64.9069434503" width="72.4960629921" x="11.6929133858" y="18.4251968504"/>
  </clipPath>
 </defs>
</svg>
