<?xml version="1.0" encoding="utf-8" standalone="no"?>
<!DOCTYPE svg PUBLIC "-//W3C//DTD SVG 1.1//EN"
  "http://www.w3.org/Graphics/SVG/1.1/DTD/svg11.dtd">
<!-- Created with matplotlib (http://matplotlib.org/) -->
<svg height="184pt" version="1.1" viewBox="0 0 93 184" width="93pt" xmlns="http://www.w3.org/2000/svg" xmlns:xlink="http://www.w3.org/1999/xlink">
 <defs>
  <style type="text/css">
*{stroke-linecap:butt;stroke-linejoin:round;stroke-miterlimit:100000;}
  </style>
 </defs>
 <g id="figure_1">
  <g id="patch_1">
   <path d="M 0 184.251969 
L 93.543307 184.251969 
L 93.543307 0 
L 0 0 
z
" style="fill:#ffffff;"/>
  </g>
  <g id="axes_1">
   <g id="patch_2">
    <path d="M 11.692913 83.33214 
L 84.188976 83.33214 
L 84.188976 18.425197 
L 11.692913 18.425197 
z
" style="fill:#ffffff;"/>
   </g>
   <g id="PolyCollection_1">
    <defs>
     <path d="M 15.720472 -147.600615 
L 15.720472 -100.942753 
L 16.371391 -103.133492 
L 17.02231 -105.163158 
L 17.673228 -107.178294 
L 18.324147 -109.087455 
L 18.975066 -110.786862 
L 19.625984 -112.5185 
L 20.276903 -114.13981 
L 20.927822 -115.66258 
L 21.57874 -117.07247 
L 22.229659 -118.454123 
L 22.880577 -119.835437 
L 23.531496 -121.107093 
L 24.182415 -122.260453 
L 24.833333 -123.400567 
L 25.484252 -124.479263 
L 26.135171 -125.558696 
L 26.786089 -126.552164 
L 27.437008 -127.521711 
L 28.087927 -128.47827 
L 28.738845 -129.406299 
L 29.389764 -130.243705 
L 30.040682 -131.066245 
L 30.691601 -131.880541 
L 31.34252 -132.607031 
L 31.993438 -133.34508 
L 32.644357 -134.079204 
L 33.295276 -134.762621 
L 33.946194 -135.457869 
L 34.597113 -136.114795 
L 35.248031 -136.73599 
L 35.89895 -137.323194 
L 36.549869 -137.897218 
L 37.200787 -138.418942 
L 37.851706 -138.942888 
L 38.502625 -139.453065 
L 39.153543 -139.945455 
L 39.804462 -140.442143 
L 40.455381 -140.925251 
L 41.106299 -141.367344 
L 41.757218 -141.822072 
L 42.408136 -142.230303 
L 43.059055 -142.616197 
L 43.709974 -143.006747 
L 44.360892 -143.379216 
L 45.011811 -143.73749 
L 45.66273 -144.076211 
L 46.313648 -144.418112 
L 46.964567 -144.757154 
L 47.615486 -145.098989 
L 48.266404 -145.401334 
L 48.917323 -145.693973 
L 49.568241 -145.961766 
L 50.21916 -146.285857 
L 50.870079 -146.552294 
L 51.520997 -146.802677 
L 52.171916 -147.060165 
L 52.822835 -147.303458 
L 53.473753 -147.521141 
L 54.124672 -147.724457 
L 54.775591 -147.949157 
L 55.426509 -148.163474 
L 56.077428 -148.379137 
L 56.728346 -148.585412 
L 57.379265 -148.763124 
L 58.030184 -148.949146 
L 58.681102 -149.117399 
L 59.332021 -149.290422 
L 59.98294 -149.484377 
L 60.633858 -149.652022 
L 61.284777 -149.811923 
L 61.935696 -149.951319 
L 62.586614 -150.087306 
L 63.237533 -150.248548 
L 63.888451 -150.366405 
L 64.53937 -150.504961 
L 65.190289 -150.612954 
L 65.841207 -150.758699 
L 66.492126 -150.881577 
L 67.143045 -151.023144 
L 67.793963 -151.139274 
L 68.444882 -151.245255 
L 69.095801 -151.375277 
L 69.746719 -151.486527 
L 70.397638 -151.577781 
L 71.048556 -151.673985 
L 71.699475 -151.790971 
L 72.350394 -151.895213 
L 73.001312 -151.993572 
L 73.652231 -152.087661 
L 74.30315 -152.179893 
L 74.954068 -152.284089 
L 75.604987 -152.379148 
L 76.255906 -152.470316 
L 76.906824 -152.566458 
L 77.557743 -152.661033 
L 78.208661 -152.751271 
L 78.85958 -152.836729 
L 79.510499 -152.927839 
L 80.161417 -153.009112 
L 80.161417 -162.378771 
L 80.161417 -162.378771 
L 79.510499 -162.354857 
L 78.85958 -162.330437 
L 78.208661 -162.304385 
L 77.557743 -162.277076 
L 76.906824 -162.25011 
L 76.255906 -162.221296 
L 75.604987 -162.190096 
L 74.954068 -162.158123 
L 74.30315 -162.124337 
L 73.652231 -162.089771 
L 73.001312 -162.05508 
L 72.350394 -162.017267 
L 71.699475 -161.978224 
L 71.048556 -161.937118 
L 70.397638 -161.894287 
L 69.746719 -161.849525 
L 69.095801 -161.80152 
L 68.444882 -161.751272 
L 67.793963 -161.69956 
L 67.143045 -161.645128 
L 66.492126 -161.586 
L 65.841207 -161.525684 
L 65.190289 -161.462549 
L 64.53937 -161.393346 
L 63.888451 -161.326241 
L 63.237533 -161.250774 
L 62.586614 -161.173783 
L 61.935696 -161.092653 
L 61.284777 -161.0083 
L 60.633858 -160.925474 
L 59.98294 -160.836681 
L 59.332021 -160.741813 
L 58.681102 -160.639748 
L 58.030184 -160.53281 
L 57.379265 -160.429575 
L 56.728346 -160.314403 
L 56.077428 -160.195272 
L 55.426509 -160.074934 
L 54.775591 -159.952223 
L 54.124672 -159.825202 
L 53.473753 -159.679359 
L 52.822835 -159.541692 
L 52.171916 -159.390032 
L 51.520997 -159.232947 
L 50.870079 -159.072288 
L 50.21916 -158.897697 
L 49.568241 -158.715818 
L 48.917323 -158.528499 
L 48.266404 -158.340015 
L 47.615486 -158.146088 
L 46.964567 -157.943892 
L 46.313648 -157.731719 
L 45.66273 -157.51687 
L 45.011811 -157.310313 
L 44.360892 -157.068421 
L 43.709974 -156.845259 
L 43.059055 -156.590316 
L 42.408136 -156.349822 
L 41.757218 -156.096925 
L 41.106299 -155.829744 
L 40.455381 -155.555246 
L 39.804462 -155.309515 
L 39.153543 -155.036959 
L 38.502625 -154.765942 
L 37.851706 -154.49509 
L 37.200787 -154.211347 
L 36.549869 -153.937988 
L 35.89895 -153.634937 
L 35.248031 -153.362247 
L 34.597113 -153.086876 
L 33.946194 -152.828898 
L 33.295276 -152.599877 
L 32.644357 -152.361168 
L 31.993438 -152.12243 
L 31.34252 -151.862399 
L 30.691601 -151.644486 
L 30.040682 -151.410217 
L 29.389764 -151.224785 
L 28.738845 -151.013043 
L 28.087927 -150.840071 
L 27.437008 -150.647012 
L 26.786089 -150.463519 
L 26.135171 -150.278697 
L 25.484252 -150.084399 
L 24.833333 -149.857429 
L 24.182415 -149.70044 
L 23.531496 -149.499214 
L 22.880577 -149.318885 
L 22.229659 -149.128995 
L 21.57874 -148.957101 
L 20.927822 -148.808763 
L 20.276903 -148.63633 
L 19.625984 -148.466608 
L 18.975066 -148.311657 
L 18.324147 -148.16164 
L 17.673228 -148.005259 
L 17.02231 -147.861545 
L 16.371391 -147.728564 
L 15.720472 -147.600615 
z
" id="m3606e14981" style="stroke:#008000;stroke-opacity:0.2;"/>
    </defs>
    <g clip-path="url(#pa692c08fbb)">
     <use style="fill:#008000;fill-opacity:0.2;stroke:#008000;stroke-opacity:0.2;" x="0.0" xlink:href="#m3606e14981" y="184.251968504"/>
    </g>
   </g>
   <g id="PolyCollection_2">
    <defs>
     <path d="M 15.720472 -142.39261 
L 15.720472 -109.693691 
L 16.371391 -111.406311 
L 17.02231 -113.040095 
L 17.673228 -114.619012 
L 18.324147 -116.129307 
L 18.975066 -117.585424 
L 19.625984 -118.98573 
L 20.276903 -120.341703 
L 20.927822 -121.640842 
L 21.57874 -122.860737 
L 22.229659 -124.053357 
L 22.880577 -125.20473 
L 23.531496 -126.288381 
L 24.182415 -127.339407 
L 24.833333 -128.339519 
L 25.484252 -129.291811 
L 26.135171 -130.223794 
L 26.786089 -131.112375 
L 27.437008 -131.95894 
L 28.087927 -132.779503 
L 28.738845 -133.566323 
L 29.389764 -134.332705 
L 30.040682 -135.056691 
L 30.691601 -135.763324 
L 31.34252 -136.446079 
L 31.993438 -137.090599 
L 32.644357 -137.704371 
L 33.295276 -138.308332 
L 33.946194 -138.890785 
L 34.597113 -139.47049 
L 35.248031 -139.995502 
L 35.89895 -140.514017 
L 36.549869 -141.018403 
L 37.200787 -141.522795 
L 37.851706 -141.988324 
L 38.502625 -142.449051 
L 39.153543 -142.881605 
L 39.804462 -143.307373 
L 40.455381 -143.722487 
L 41.106299 -144.130699 
L 41.757218 -144.519741 
L 42.408136 -144.897058 
L 43.059055 -145.268164 
L 43.709974 -145.616405 
L 44.360892 -145.947887 
L 45.011811 -146.274414 
L 45.66273 -146.589589 
L 46.313648 -146.894538 
L 46.964567 -147.189433 
L 47.615486 -147.479153 
L 48.266404 -147.761562 
L 48.917323 -148.038188 
L 49.568241 -148.296208 
L 50.21916 -148.555226 
L 50.870079 -148.799753 
L 51.520997 -149.044303 
L 52.171916 -149.274083 
L 52.822835 -149.500747 
L 53.473753 -149.721345 
L 54.124672 -149.933582 
L 54.775591 -150.144027 
L 55.426509 -150.348814 
L 56.077428 -150.547891 
L 56.728346 -150.741093 
L 57.379265 -150.927236 
L 58.030184 -151.104433 
L 58.681102 -151.281979 
L 59.332021 -151.45573 
L 59.98294 -151.63267 
L 60.633858 -151.799032 
L 61.284777 -151.963215 
L 61.935696 -152.121986 
L 62.586614 -152.275777 
L 63.237533 -152.433668 
L 63.888451 -152.58115 
L 64.53937 -152.731015 
L 65.190289 -152.872505 
L 65.841207 -153.016426 
L 66.492126 -153.153808 
L 67.143045 -153.295349 
L 67.793963 -153.427952 
L 68.444882 -153.558104 
L 69.095801 -153.690024 
L 69.746719 -153.81811 
L 70.397638 -153.942781 
L 71.048556 -154.065958 
L 71.699475 -154.188971 
L 72.350394 -154.31232 
L 73.001312 -154.430707 
L 73.652231 -154.550906 
L 74.30315 -154.661801 
L 74.954068 -154.771884 
L 75.604987 -154.879463 
L 76.255906 -154.983993 
L 76.906824 -155.091179 
L 77.557743 -155.194278 
L 78.208661 -155.292191 
L 78.85958 -155.390155 
L 79.510499 -155.489428 
L 80.161417 -155.587627 
L 80.161417 -161.936767 
L 80.161417 -161.936767 
L 79.510499 -161.899679 
L 78.85958 -161.861395 
L 78.208661 -161.821718 
L 77.557743 -161.779722 
L 76.906824 -161.736122 
L 76.255906 -161.690942 
L 75.604987 -161.643848 
L 74.954068 -161.595245 
L 74.30315 -161.544841 
L 73.652231 -161.492493 
L 73.001312 -161.437563 
L 72.350394 -161.381609 
L 71.699475 -161.322334 
L 71.048556 -161.261606 
L 70.397638 -161.198438 
L 69.746719 -161.132225 
L 69.095801 -161.063567 
L 68.444882 -160.992954 
L 67.793963 -160.919662 
L 67.143045 -160.842412 
L 66.492126 -160.763939 
L 65.841207 -160.681993 
L 65.190289 -160.596821 
L 64.53937 -160.508998 
L 63.888451 -160.416994 
L 63.237533 -160.322025 
L 62.586614 -160.225104 
L 61.935696 -160.123317 
L 61.284777 -160.014881 
L 60.633858 -159.904392 
L 59.98294 -159.791215 
L 59.332021 -159.670594 
L 58.681102 -159.547592 
L 58.030184 -159.419167 
L 57.379265 -159.286429 
L 56.728346 -159.15075 
L 56.077428 -159.012704 
L 55.426509 -158.867024 
L 54.775591 -158.713962 
L 54.124672 -158.559021 
L 53.473753 -158.39563 
L 52.822835 -158.226463 
L 52.171916 -158.050694 
L 51.520997 -157.867861 
L 50.870079 -157.679519 
L 50.21916 -157.488711 
L 49.568241 -157.287905 
L 48.917323 -157.078624 
L 48.266404 -156.864196 
L 47.615486 -156.652877 
L 46.964567 -156.42955 
L 46.313648 -156.199568 
L 45.66273 -155.965017 
L 45.011811 -155.722281 
L 44.360892 -155.467147 
L 43.709974 -155.208875 
L 43.059055 -154.944908 
L 42.408136 -154.670707 
L 41.757218 -154.395707 
L 41.106299 -154.110284 
L 40.455381 -153.819264 
L 39.804462 -153.523119 
L 39.153543 -153.233105 
L 38.502625 -152.939038 
L 37.851706 -152.634937 
L 37.200787 -152.325292 
L 36.549869 -152.01776 
L 35.89895 -151.714018 
L 35.248031 -151.40365 
L 34.597113 -151.085477 
L 33.946194 -150.767926 
L 33.295276 -150.45698 
L 32.644357 -150.157101 
L 31.993438 -149.847001 
L 31.34252 -149.541496 
L 30.691601 -149.238565 
L 30.040682 -148.936875 
L 29.389764 -148.636203 
L 28.738845 -148.331402 
L 28.087927 -148.034496 
L 27.437008 -147.741244 
L 26.786089 -147.4479 
L 26.135171 -147.158154 
L 25.484252 -146.858835 
L 24.833333 -146.553101 
L 24.182415 -146.257328 
L 23.531496 -145.945703 
L 22.880577 -145.655995 
L 22.229659 -145.356207 
L 21.57874 -145.058583 
L 20.927822 -144.77097 
L 20.276903 -144.4658 
L 19.625984 -144.180844 
L 18.975066 -143.883049 
L 18.324147 -143.590843 
L 17.673228 -143.295825 
L 17.02231 -142.998063 
L 16.371391 -142.696642 
L 15.720472 -142.39261 
z
" id="me795d1142f" style="stroke:#008000;stroke-opacity:0.2;"/>
    </defs>
    <g clip-path="url(#pa692c08fbb)">
     <use style="fill:#008000;fill-opacity:0.2;stroke:#008000;stroke-opacity:0.2;" x="0.0" xlink:href="#me795d1142f" y="184.251968504"/>
    </g>
   </g>
   <g id="PolyCollection_3">
    <defs>
     <path d="M 15.720472 -136.076776 
L 15.720472 -118.875109 
L 16.371391 -120.134269 
L 17.02231 -121.35648 
L 17.673228 -122.526929 
L 18.324147 -123.667526 
L 18.975066 -124.764887 
L 19.625984 -125.839526 
L 20.276903 -126.882003 
L 20.927822 -127.888503 
L 21.57874 -128.860843 
L 22.229659 -129.802774 
L 22.880577 -130.711161 
L 23.531496 -131.585723 
L 24.182415 -132.449286 
L 24.833333 -133.273754 
L 25.484252 -134.064108 
L 26.135171 -134.83032 
L 26.786089 -135.566583 
L 27.437008 -136.277875 
L 28.087927 -136.973761 
L 28.738845 -137.641573 
L 29.389764 -138.294223 
L 30.040682 -138.906191 
L 30.691601 -139.506461 
L 31.34252 -140.084506 
L 31.993438 -140.638607 
L 32.644357 -141.177456 
L 33.295276 -141.704157 
L 33.946194 -142.20838 
L 34.597113 -142.69722 
L 35.248031 -143.170739 
L 35.89895 -143.632099 
L 36.549869 -144.072239 
L 37.200787 -144.49847 
L 37.851706 -144.91286 
L 38.502625 -145.316438 
L 39.153543 -145.703886 
L 39.804462 -146.083941 
L 40.455381 -146.450913 
L 41.106299 -146.803729 
L 41.757218 -147.145364 
L 42.408136 -147.479767 
L 43.059055 -147.807149 
L 43.709974 -148.120258 
L 44.360892 -148.425747 
L 45.011811 -148.725283 
L 45.66273 -149.019881 
L 46.313648 -149.299377 
L 46.964567 -149.574713 
L 47.615486 -149.843549 
L 48.266404 -150.103253 
L 48.917323 -150.359103 
L 49.568241 -150.605371 
L 50.21916 -150.850902 
L 50.870079 -151.085002 
L 51.520997 -151.317064 
L 52.171916 -151.543348 
L 52.822835 -151.76172 
L 53.473753 -151.979467 
L 54.124672 -152.187942 
L 54.775591 -152.394599 
L 55.426509 -152.595971 
L 56.077428 -152.793209 
L 56.728346 -152.984816 
L 57.379265 -153.175262 
L 58.030184 -153.357498 
L 58.681102 -153.540719 
L 59.332021 -153.719682 
L 59.98294 -153.89097 
L 60.633858 -154.061689 
L 61.284777 -154.229224 
L 61.935696 -154.389501 
L 62.586614 -154.549684 
L 63.237533 -154.708481 
L 63.888451 -154.861556 
L 64.53937 -155.013901 
L 65.190289 -155.164643 
L 65.841207 -155.307421 
L 66.492126 -155.448165 
L 67.143045 -155.586217 
L 67.793963 -155.722668 
L 68.444882 -155.855582 
L 69.095801 -155.98589 
L 69.746719 -156.111953 
L 70.397638 -156.238603 
L 71.048556 -156.362106 
L 71.699475 -156.483926 
L 72.350394 -156.601077 
L 73.001312 -156.715185 
L 73.652231 -156.828604 
L 74.30315 -156.939509 
L 74.954068 -157.048867 
L 75.604987 -157.155907 
L 76.255906 -157.261416 
L 76.906824 -157.364765 
L 77.557743 -157.465467 
L 78.208661 -157.564526 
L 78.85958 -157.660059 
L 79.510499 -157.754896 
L 80.161417 -157.84781 
L 80.161417 -161.127306 
L 80.161417 -161.127306 
L 79.510499 -161.07216 
L 78.85958 -161.015023 
L 78.208661 -160.956018 
L 77.557743 -160.895906 
L 76.906824 -160.833321 
L 76.255906 -160.768156 
L 75.604987 -160.70128 
L 74.954068 -160.633268 
L 74.30315 -160.561253 
L 73.652231 -160.488088 
L 73.001312 -160.412036 
L 72.350394 -160.334068 
L 71.699475 -160.25376 
L 71.048556 -160.171597 
L 70.397638 -160.086271 
L 69.746719 -159.998927 
L 69.095801 -159.908039 
L 68.444882 -159.815585 
L 67.793963 -159.719696 
L 67.143045 -159.619335 
L 66.492126 -159.516523 
L 65.841207 -159.410806 
L 65.190289 -159.302024 
L 64.53937 -159.189778 
L 63.888451 -159.073916 
L 63.237533 -158.955876 
L 62.586614 -158.833139 
L 61.935696 -158.7067 
L 61.284777 -158.576932 
L 60.633858 -158.442208 
L 59.98294 -158.303607 
L 59.332021 -158.161587 
L 58.681102 -158.014328 
L 58.030184 -157.864362 
L 57.379265 -157.710197 
L 56.728346 -157.548801 
L 56.077428 -157.385392 
L 55.426509 -157.216231 
L 54.775591 -157.04149 
L 54.124672 -156.860832 
L 53.473753 -156.676122 
L 52.822835 -156.489441 
L 52.171916 -156.293678 
L 51.520997 -156.096428 
L 50.870079 -155.889506 
L 50.21916 -155.677736 
L 49.568241 -155.459824 
L 48.917323 -155.237288 
L 48.266404 -155.009796 
L 47.615486 -154.772644 
L 46.964567 -154.53056 
L 46.313648 -154.28607 
L 45.66273 -154.034477 
L 45.011811 -153.771454 
L 44.360892 -153.507 
L 43.709974 -153.23819 
L 43.059055 -152.960406 
L 42.408136 -152.672068 
L 41.757218 -152.380603 
L 41.106299 -152.078496 
L 40.455381 -151.77676 
L 39.804462 -151.469391 
L 39.153543 -151.152274 
L 38.502625 -150.82619 
L 37.851706 -150.491137 
L 37.200787 -150.153071 
L 36.549869 -149.814471 
L 35.89895 -149.463605 
L 35.248031 -149.108563 
L 34.597113 -148.744551 
L 33.946194 -148.375252 
L 33.295276 -148.00047 
L 32.644357 -147.615002 
L 31.993438 -147.235509 
L 31.34252 -146.848205 
L 30.691601 -146.459754 
L 30.040682 -146.067909 
L 29.389764 -145.669129 
L 28.738845 -145.264951 
L 28.087927 -144.859096 
L 27.437008 -144.447133 
L 26.786089 -144.026143 
L 26.135171 -143.60627 
L 25.484252 -143.175899 
L 24.833333 -142.752256 
L 24.182415 -142.31709 
L 23.531496 -141.882023 
L 22.880577 -141.431541 
L 22.229659 -140.980267 
L 21.57874 -140.514488 
L 20.927822 -140.042268 
L 20.276903 -139.56732 
L 19.625984 -139.084149 
L 18.975066 -138.598559 
L 18.324147 -138.109503 
L 17.673228 -137.609206 
L 17.02231 -137.106429 
L 16.371391 -136.597429 
L 15.720472 -136.076776 
z
" id="mee6d655a94" style="stroke:#008000;stroke-opacity:0.2;"/>
    </defs>
    <g clip-path="url(#pa692c08fbb)">
     <use style="fill:#008000;fill-opacity:0.2;stroke:#008000;stroke-opacity:0.2;" x="0.0" xlink:href="#mee6d655a94" y="184.251968504"/>
    </g>
   </g>
   <g id="LineCollection_1">
    <path clip-path="url(#pa692c08fbb)" d="M 15.720472 65.132741 
L 15.720472 48.425193 
" style="fill:none;stroke:#000000;"/>
    <path clip-path="url(#pa692c08fbb)" d="M 39.885827 48.308506 
L 39.885827 33.900857 
" style="fill:none;stroke:#000000;"/>
    <path clip-path="url(#pa692c08fbb)" d="M 47.940945 31.264407 
L 47.940945 26.983644 
" style="fill:none;stroke:#000000;"/>
    <path clip-path="url(#pa692c08fbb)" d="M 64.051181 24.482373 
L 64.051181 23.763998 
" style="fill:none;stroke:#000000;"/>
    <path clip-path="url(#pa692c08fbb)" d="M 80.161417 30.365525 
L 80.161417 27.006285 
" style="fill:none;stroke:#000000;"/>
   </g>
   <g id="line2d_1">
    <defs>
     <path d="M 3 0 
L -3 -0 
" id="m39de5ed123" style="stroke:#000000;stroke-width:0.5;"/>
    </defs>
    <g clip-path="url(#pa692c08fbb)">
     <use style="stroke:#000000;stroke-width:0.5;" x="15.7204724409" xlink:href="#m39de5ed123" y="65.1327406917"/>
     <use style="stroke:#000000;stroke-width:0.5;" x="39.8858267717" xlink:href="#m39de5ed123" y="48.3085056088"/>
     <use style="stroke:#000000;stroke-width:0.5;" x="47.9409448819" xlink:href="#m39de5ed123" y="31.2644074022"/>
     <use style="stroke:#000000;stroke-width:0.5;" x="64.0511811024" xlink:href="#m39de5ed123" y="24.4823728269"/>
     <use style="stroke:#000000;stroke-width:0.5;" x="80.1614173228" xlink:href="#m39de5ed123" y="30.3655254959"/>
    </g>
   </g>
   <g id="line2d_2">
    <g clip-path="url(#pa692c08fbb)">
     <use style="stroke:#000000;stroke-width:0.5;" x="15.7204724409" xlink:href="#m39de5ed123" y="48.4251925573"/>
     <use style="stroke:#000000;stroke-width:0.5;" x="39.8858267717" xlink:href="#m39de5ed123" y="33.9008571939"/>
     <use style="stroke:#000000;stroke-width:0.5;" x="47.9409448819" xlink:href="#m39de5ed123" y="26.98364359"/>
     <use style="stroke:#000000;stroke-width:0.5;" x="64.0511811024" xlink:href="#m39de5ed123" y="23.763998014"/>
     <use style="stroke:#000000;stroke-width:0.5;" x="80.1614173228" xlink:href="#m39de5ed123" y="27.0062851696"/>
    </g>
   </g>
   <g id="line2d_3">
    <defs>
     <path d="M 0 2 
C 0.530406 2 1.03916 1.789267 1.414214 1.414214 
C 1.789267 1.03916 2 0.530406 2 0 
C 2 -0.530406 1.789267 -1.03916 1.414214 -1.414214 
C 1.03916 -1.789267 0.530406 -2 0 -2 
C -0.530406 -2 -1.03916 -1.789267 -1.414214 -1.414214 
C -1.789267 -1.03916 -2 -0.530406 -2 0 
C -2 0.530406 -1.789267 1.03916 -1.414214 1.414214 
C -1.03916 1.789267 -0.530406 2 0 2 
z
" id="mf53ab340e0" style="stroke:#000000;stroke-width:0.5;"/>
    </defs>
    <g clip-path="url(#pa692c08fbb)">
     <use style="stroke:#000000;stroke-width:0.5;" x="15.7204724409" xlink:href="#mf53ab340e0" y="56.7789666245"/>
     <use style="stroke:#000000;stroke-width:0.5;" x="39.8858267717" xlink:href="#mf53ab340e0" y="41.1046814014"/>
     <use style="stroke:#000000;stroke-width:0.5;" x="47.9409448819" xlink:href="#mf53ab340e0" y="29.1240254961"/>
     <use style="stroke:#000000;stroke-width:0.5;" x="64.0511811024" xlink:href="#mf53ab340e0" y="24.1231854205"/>
     <use style="stroke:#000000;stroke-width:0.5;" x="80.1614173228" xlink:href="#mf53ab340e0" y="28.6859053327"/>
    </g>
   </g>
   <g id="patch_3">
    <path d="M 11.692913 18.425197 
L 84.188976 18.425197 
" style="fill:none;stroke:#000000;stroke-linecap:square;stroke-linejoin:miter;"/>
   </g>
   <g id="patch_4">
    <path d="M 84.188976 83.33214 
L 84.188976 18.425197 
" style="fill:none;stroke:#000000;stroke-linecap:square;stroke-linejoin:miter;"/>
   </g>
   <g id="patch_5">
    <path d="M 11.692913 83.33214 
L 84.188976 83.33214 
" style="fill:none;stroke:#000000;stroke-linecap:square;stroke-linejoin:miter;"/>
   </g>
   <g id="patch_6">
    <path d="M 11.692913 83.33214 
L 11.692913 18.425197 
" style="fill:none;stroke:#000000;stroke-linecap:square;stroke-linejoin:miter;"/>
   </g>
   <g id="matplotlib.axis_1">
    <g id="xtick_1">
     <g id="line2d_4">
      <defs>
       <path d="M 0 0 
L 0 -4 
" id="m9bf27f3ace" style="stroke:#000000;stroke-width:0.5;"/>
      </defs>
      <g>
       <use style="stroke:#000000;stroke-width:0.5;" x="15.7204724409" xlink:href="#m9bf27f3ace" y="83.3321403006"/>
      </g>
     </g>
     <g id="line2d_5">
      <defs>
       <path d="M 0 0 
L 0 4 
" id="m36d2d04e5f" style="stroke:#000000;stroke-width:0.5;"/>
      </defs>
      <g>
       <use style="stroke:#000000;stroke-width:0.5;" x="15.7204724409" xlink:href="#m36d2d04e5f" y="18.4251968504"/>
      </g>
     </g>
    </g>
    <g id="xtick_2">
     <g id="line2d_6">
      <g>
       <use style="stroke:#000000;stroke-width:0.5;" x="31.8307086614" xlink:href="#m9bf27f3ace" y="83.3321403006"/>
      </g>
     </g>
     <g id="line2d_7">
      <g>
       <use style="stroke:#000000;stroke-width:0.5;" x="31.8307086614" xlink:href="#m36d2d04e5f" y="18.4251968504"/>
      </g>
     </g>
    </g>
    <g id="xtick_3">
     <g id="line2d_8">
      <g>
       <use style="stroke:#000000;stroke-width:0.5;" x="47.9409448819" xlink:href="#m9bf27f3ace" y="83.3321403006"/>
      </g>
     </g>
     <g id="line2d_9">
      <g>
       <use style="stroke:#000000;stroke-width:0.5;" x="47.9409448819" xlink:href="#m36d2d04e5f" y="18.4251968504"/>
      </g>
     </g>
    </g>
    <g id="xtick_4">
     <g id="line2d_10">
      <g>
       <use style="stroke:#000000;stroke-width:0.5;" x="64.0511811024" xlink:href="#m9bf27f3ace" y="83.3321403006"/>
      </g>
     </g>
     <g id="line2d_11">
      <g>
       <use style="stroke:#000000;stroke-width:0.5;" x="64.0511811024" xlink:href="#m36d2d04e5f" y="18.4251968504"/>
      </g>
     </g>
    </g>
    <g id="xtick_5">
     <g id="line2d_12">
      <g>
       <use style="stroke:#000000;stroke-width:0.5;" x="80.1614173228" xlink:href="#m9bf27f3ace" y="83.3321403006"/>
      </g>
     </g>
     <g id="line2d_13">
      <g>
       <use style="stroke:#000000;stroke-width:0.5;" x="80.1614173228" xlink:href="#m36d2d04e5f" y="18.4251968504"/>
      </g>
     </g>
    </g>
   </g>
   <g id="matplotlib.axis_2">
    <g id="ytick_1">
     <g id="line2d_14">
      <defs>
       <path d="M 0 0 
L 4 0 
" id="m2b5ef592b8" style="stroke:#000000;stroke-width:0.5;"/>
      </defs>
      <g>
       <use style="stroke:#000000;stroke-width:0.5;" x="11.6929133858" xlink:href="#m2b5ef592b8" y="80.3818246893"/>
      </g>
     </g>
     <g id="line2d_15">
      <defs>
       <path d="M 0 0 
L -4 0 
" id="m404ddeefd2" style="stroke:#000000;stroke-width:0.5;"/>
      </defs>
      <g>
       <use style="stroke:#000000;stroke-width:0.5;" x="84.188976378" xlink:href="#m404ddeefd2" y="80.3818246893"/>
      </g>
     </g>
     <g id="text_1">
      <text style="font-family:Helvetica LT Std;font-size:8.0px;font-style:normal;font-weight:400;text-anchor:end;" transform="rotate(-0.000000, 7.692913, 82.718075)" x="7.69291338583" y="82.7180746893">0.8</text>
     </g>
    </g>
    <g id="ytick_2">
     <g id="line2d_16">
      <g>
       <use style="stroke:#000000;stroke-width:0.5;" x="11.6929133858" xlink:href="#m2b5ef592b8" y="50.8786685755"/>
      </g>
     </g>
     <g id="line2d_17">
      <g>
       <use style="stroke:#000000;stroke-width:0.5;" x="84.188976378" xlink:href="#m404ddeefd2" y="50.8786685755"/>
      </g>
     </g>
     <g id="text_2">
      <text style="font-family:Helvetica LT Std;font-size:8.0px;font-style:normal;font-weight:400;text-anchor:end;" transform="rotate(-0.000000, 7.692913, 53.214919)" x="7.69291338583" y="53.2149185755">0.9</text>
     </g>
    </g>
    <g id="ytick_3">
     <g id="line2d_18">
      <g>
       <use style="stroke:#000000;stroke-width:0.5;" x="11.6929133858" xlink:href="#m2b5ef592b8" y="21.3755124618"/>
      </g>
     </g>
     <g id="line2d_19">
      <g>
       <use style="stroke:#000000;stroke-width:0.5;" x="84.188976378" xlink:href="#m404ddeefd2" y="21.3755124618"/>
      </g>
     </g>
     <g id="text_3">
      <text style="font-family:Helvetica LT Std;font-size:8.0px;font-style:normal;font-weight:400;text-anchor:end;" transform="rotate(-0.000000, 7.692913, 23.711762)" x="7.69291338583" y="23.7117624618">1.0</text>
     </g>
    </g>
    <g id="ytick_4">
     <g id="line2d_20">
      <defs>
       <path d="M 0 0 
L 2 0 
" id="mde48f9864e" style="stroke:#000000;stroke-width:0.5;"/>
      </defs>
      <g>
       <use style="stroke:#000000;stroke-width:0.5;" x="11.6929133858" xlink:href="#mde48f9864e" y="65.6302466324"/>
      </g>
     </g>
     <g id="line2d_21">
      <defs>
       <path d="M 0 0 
L -2 0 
" id="mdbccd4dc0b" style="stroke:#000000;stroke-width:0.5;"/>
      </defs>
      <g>
       <use style="stroke:#000000;stroke-width:0.5;" x="84.188976378" xlink:href="#mdbccd4dc0b" y="65.6302466324"/>
      </g>
     </g>
    </g>
    <g id="ytick_5">
     <g id="line2d_22">
      <g>
       <use style="stroke:#000000;stroke-width:0.5;" x="11.6929133858" xlink:href="#mde48f9864e" y="36.1270905186"/>
      </g>
     </g>
     <g id="line2d_23">
      <g>
       <use style="stroke:#000000;stroke-width:0.5;" x="84.188976378" xlink:href="#mdbccd4dc0b" y="36.1270905186"/>
      </g>
     </g>
    </g>
    <g id="text_4">
     <text style="font-family:Helvetica LT Std;font-size:8.0px;font-style:normal;font-weight:400;text-anchor:middle;" transform="rotate(-90.000000, -4.985837, 50.878669)" x="-4.98583661417" y="50.8786685755">Growth fraction</text>
    </g>
   </g>
  </g>
  <g id="axes_2">
   <g id="patch_7">
    <path d="M 11.692913 161.220472 
L 84.188976 161.220472 
L 84.188976 96.313529 
L 11.692913 96.313529 
z
" style="fill:#ffffff;"/>
   </g>
   <g id="PolyCollection_4">
    <defs>
     <path d="M 15.720472 -23.031496 
L 15.720472 -23.031496 
L 16.371391 -23.072109 
L 17.02231 -23.112896 
L 17.673228 -23.153855 
L 18.324147 -23.194985 
L 18.975066 -23.236536 
L 19.625984 -23.278145 
L 20.276903 -23.319759 
L 20.927822 -23.361563 
L 21.57874 -23.403707 
L 22.229659 -23.446165 
L 22.880577 -23.488828 
L 23.531496 -23.531704 
L 24.182415 -23.575204 
L 24.833333 -23.618367 
L 25.484252 -23.661719 
L 26.135171 -23.705338 
L 26.786089 -23.748976 
L 27.437008 -23.792561 
L 28.087927 -23.836395 
L 28.738845 -23.88039 
L 29.389764 -23.924548 
L 30.040682 -23.968868 
L 30.691601 -24.013632 
L 31.34252 -24.058576 
L 31.993438 -24.103358 
L 32.644357 -24.147998 
L 33.295276 -24.192885 
L 33.946194 -24.238171 
L 34.597113 -24.284073 
L 35.248031 -24.329353 
L 35.89895 -24.374994 
L 36.549869 -24.421103 
L 37.200787 -24.46764 
L 37.851706 -24.514144 
L 38.502625 -24.560597 
L 39.153543 -24.607216 
L 39.804462 -24.654003 
L 40.455381 -24.700956 
L 41.106299 -24.748078 
L 41.757218 -24.794927 
L 42.408136 -24.84191 
L 43.059055 -24.88978 
L 43.709974 -24.93782 
L 44.360892 -24.98603 
L 45.011811 -25.034354 
L 45.66273 -25.082661 
L 46.313648 -25.131139 
L 46.964567 -25.179788 
L 47.615486 -25.228609 
L 48.266404 -25.27735 
L 48.917323 -25.32605 
L 49.568241 -25.3749 
L 50.21916 -25.423899 
L 50.870079 -25.473048 
L 51.520997 -25.522347 
L 52.171916 -25.571797 
L 52.822835 -25.621396 
L 53.473753 -25.671487 
L 54.124672 -25.722173 
L 54.775591 -25.773033 
L 55.426509 -25.824067 
L 56.077428 -25.874178 
L 56.728346 -25.924129 
L 57.379265 -25.975421 
L 58.030184 -26.027939 
L 58.681102 -26.080669 
L 59.332021 -26.133611 
L 59.98294 -26.18619 
L 60.633858 -26.238621 
L 61.284777 -26.291227 
L 61.935696 -26.344008 
L 62.586614 -26.396964 
L 63.237533 -26.449986 
L 63.888451 -26.502557 
L 64.53937 -26.555288 
L 65.190289 -26.60818 
L 65.841207 -26.661233 
L 66.492126 -26.71389 
L 67.143045 -26.765488 
L 67.793963 -26.817345 
L 68.444882 -26.872873 
L 69.095801 -26.928606 
L 69.746719 -26.984053 
L 70.397638 -27.040233 
L 71.048556 -27.094182 
L 71.699475 -27.147865 
L 72.350394 -27.201687 
L 73.001312 -27.255651 
L 73.652231 -27.310526 
L 74.30315 -27.365696 
L 74.954068 -27.421406 
L 75.604987 -27.477978 
L 76.255906 -27.53474 
L 76.906824 -27.591694 
L 77.557743 -27.648839 
L 78.208661 -27.704321 
L 78.85958 -27.759735 
L 79.510499 -27.816294 
L 80.161417 -27.873533 
L 80.161417 -50.480753 
L 80.161417 -50.480753 
L 79.510499 -50.013576 
L 78.85958 -49.551798 
L 78.208661 -49.095357 
L 77.557743 -48.646567 
L 76.906824 -48.19831 
L 76.255906 -47.757544 
L 75.604987 -47.325791 
L 74.954068 -46.913426 
L 74.30315 -46.505363 
L 73.652231 -46.105468 
L 73.001312 -45.710529 
L 72.350394 -45.31955 
L 71.699475 -44.924071 
L 71.048556 -44.528205 
L 70.397638 -44.145091 
L 69.746719 -43.765985 
L 69.095801 -43.390847 
L 68.444882 -43.019638 
L 67.793963 -42.652318 
L 67.143045 -42.288849 
L 66.492126 -41.929191 
L 65.841207 -41.573308 
L 65.190289 -41.22116 
L 64.53937 -40.872709 
L 63.888451 -40.52788 
L 63.237533 -40.186687 
L 62.586614 -39.849121 
L 61.935696 -39.515108 
L 61.284777 -39.184613 
L 60.633858 -38.858521 
L 59.98294 -38.536086 
L 59.332021 -38.217014 
L 58.681102 -37.901264 
L 58.030184 -37.583638 
L 57.379265 -37.27335 
L 56.728346 -36.959209 
L 56.077428 -36.648595 
L 55.426509 -36.341471 
L 54.775591 -36.037803 
L 54.124672 -35.737554 
L 53.473753 -35.440688 
L 52.822835 -35.147173 
L 52.171916 -34.856975 
L 51.520997 -34.570058 
L 50.870079 -34.286393 
L 50.21916 -34.005947 
L 49.568241 -33.729471 
L 48.917323 -33.461935 
L 48.266404 -33.197211 
L 47.615486 -32.935274 
L 46.964567 -32.676096 
L 46.313648 -32.419653 
L 45.66273 -32.165912 
L 45.011811 -31.913868 
L 44.360892 -31.661284 
L 43.709974 -31.410644 
L 43.059055 -31.167037 
L 42.408136 -30.927397 
L 41.757218 -30.690284 
L 41.106299 -30.456971 
L 40.455381 -30.221675 
L 39.804462 -29.993887 
L 39.153543 -29.766663 
L 38.502625 -29.541846 
L 37.851706 -29.319418 
L 37.200787 -29.099356 
L 36.549869 -28.881639 
L 35.89895 -28.666244 
L 35.248031 -28.450692 
L 34.597113 -28.236278 
L 33.946194 -28.024342 
L 33.295276 -27.815002 
L 32.644357 -27.608179 
L 31.993438 -27.406842 
L 31.34252 -27.20872 
L 30.691601 -27.013316 
L 30.040682 -26.821162 
L 29.389764 -26.62652 
L 28.738845 -26.438177 
L 28.087927 -26.250107 
L 27.437008 -26.063134 
L 26.786089 -25.878302 
L 26.135171 -25.69615 
L 25.484252 -25.515076 
L 24.833333 -25.334894 
L 24.182415 -25.156458 
L 23.531496 -24.980679 
L 22.880577 -24.809081 
L 22.229659 -24.638147 
L 21.57874 -24.466611 
L 20.927822 -24.297396 
L 20.276903 -24.131338 
L 19.625984 -23.96892 
L 18.975066 -23.808081 
L 18.324147 -23.648967 
L 17.673228 -23.491822 
L 17.02231 -23.336916 
L 16.371391 -23.183321 
L 15.720472 -23.031496 
z
" id="md03643b420" style="stroke:#008000;stroke-opacity:0.2;"/>
    </defs>
    <g clip-path="url(#p15dd2dd5b2)">
     <use style="fill:#008000;fill-opacity:0.2;stroke:#008000;stroke-opacity:0.2;" x="0.0" xlink:href="#md03643b420" y="184.251968504"/>
    </g>
   </g>
   <g id="PolyCollection_5">
    <defs>
     <path d="M 15.720472 -23.031496 
L 15.720472 -23.031496 
L 16.371391 -23.086344 
L 17.02231 -23.141499 
L 17.673228 -23.196925 
L 18.324147 -23.252643 
L 18.975066 -23.308644 
L 19.625984 -23.364913 
L 20.276903 -23.421397 
L 20.927822 -23.478153 
L 21.57874 -23.535229 
L 22.229659 -23.592738 
L 22.880577 -23.650393 
L 23.531496 -23.708408 
L 24.182415 -23.766768 
L 24.833333 -23.825265 
L 25.484252 -23.884069 
L 26.135171 -23.943204 
L 26.786089 -24.002661 
L 27.437008 -24.062415 
L 28.087927 -24.12193 
L 28.738845 -24.181853 
L 29.389764 -24.242217 
L 30.040682 -24.302966 
L 30.691601 -24.363855 
L 31.34252 -24.425227 
L 31.993438 -24.486752 
L 32.644357 -24.548869 
L 33.295276 -24.611547 
L 33.946194 -24.673836 
L 34.597113 -24.736408 
L 35.248031 -24.799424 
L 35.89895 -24.86256 
L 36.549869 -24.925571 
L 37.200787 -24.989185 
L 37.851706 -25.052864 
L 38.502625 -25.117119 
L 39.153543 -25.181012 
L 39.804462 -25.245303 
L 40.455381 -25.310039 
L 41.106299 -25.375163 
L 41.757218 -25.440954 
L 42.408136 -25.506886 
L 43.059055 -25.573053 
L 43.709974 -25.638918 
L 44.360892 -25.705336 
L 45.011811 -25.772121 
L 45.66273 -25.83918 
L 46.313648 -25.906623 
L 46.964567 -25.974013 
L 47.615486 -26.041703 
L 48.266404 -26.110037 
L 48.917323 -26.178094 
L 49.568241 -26.247112 
L 50.21916 -26.316144 
L 50.870079 -26.385801 
L 51.520997 -26.455039 
L 52.171916 -26.524548 
L 52.822835 -26.594363 
L 53.473753 -26.664175 
L 54.124672 -26.734921 
L 54.775591 -26.806529 
L 55.426509 -26.87738 
L 56.077428 -26.948907 
L 56.728346 -27.021121 
L 57.379265 -27.093252 
L 58.030184 -27.166011 
L 58.681102 -27.237895 
L 59.332021 -27.310541 
L 59.98294 -27.384 
L 60.633858 -27.457802 
L 61.284777 -27.531185 
L 61.935696 -27.60443 
L 62.586614 -27.679034 
L 63.237533 -27.754112 
L 63.888451 -27.82804 
L 64.53937 -27.90279 
L 65.190289 -27.977648 
L 65.841207 -28.052988 
L 66.492126 -28.128247 
L 67.143045 -28.204637 
L 67.793963 -28.280984 
L 68.444882 -28.357923 
L 69.095801 -28.434383 
L 69.746719 -28.512204 
L 70.397638 -28.589815 
L 71.048556 -28.66768 
L 71.699475 -28.746329 
L 72.350394 -28.824151 
L 73.001312 -28.903441 
L 73.652231 -28.982198 
L 74.30315 -29.05944 
L 74.954068 -29.138104 
L 75.604987 -29.218778 
L 76.255906 -29.298177 
L 76.906824 -29.377984 
L 77.557743 -29.4577 
L 78.208661 -29.53857 
L 78.85958 -29.619637 
L 79.510499 -29.701222 
L 80.161417 -29.781326 
L 80.161417 -41.872347 
L 80.161417 -41.872347 
L 79.510499 -41.595697 
L 78.85958 -41.323507 
L 78.208661 -41.050934 
L 77.557743 -40.78024 
L 76.906824 -40.514756 
L 76.255906 -40.249348 
L 75.604987 -39.984002 
L 74.954068 -39.721423 
L 74.30315 -39.463931 
L 73.652231 -39.20832 
L 73.001312 -38.953211 
L 72.350394 -38.698732 
L 71.699475 -38.448478 
L 71.048556 -38.199892 
L 70.397638 -37.954076 
L 69.746719 -37.708041 
L 69.095801 -37.464761 
L 68.444882 -37.224855 
L 67.793963 -36.98478 
L 67.143045 -36.746529 
L 66.492126 -36.510969 
L 65.841207 -36.278338 
L 65.190289 -36.046093 
L 64.53937 -35.815946 
L 63.888451 -35.590728 
L 63.237533 -35.366046 
L 62.586614 -35.141666 
L 61.935696 -34.916541 
L 61.284777 -34.698082 
L 60.633858 -34.4783 
L 59.98294 -34.262114 
L 59.332021 -34.048475 
L 58.681102 -33.83541 
L 58.030184 -33.622754 
L 57.379265 -33.413151 
L 56.728346 -33.20521 
L 56.077428 -32.997232 
L 55.426509 -32.791438 
L 54.775591 -32.586106 
L 54.124672 -32.383764 
L 53.473753 -32.183853 
L 52.822835 -31.986067 
L 52.171916 -31.788722 
L 51.520997 -31.594938 
L 50.870079 -31.402094 
L 50.21916 -31.20718 
L 49.568241 -31.015797 
L 48.917323 -30.82689 
L 48.266404 -30.639276 
L 47.615486 -30.453263 
L 46.964567 -30.268062 
L 46.313648 -30.084137 
L 45.66273 -29.903833 
L 45.011811 -29.724033 
L 44.360892 -29.54609 
L 43.709974 -29.368611 
L 43.059055 -29.193048 
L 42.408136 -29.020008 
L 41.757218 -28.847259 
L 41.106299 -28.676055 
L 40.455381 -28.506012 
L 39.804462 -28.337441 
L 39.153543 -28.170889 
L 38.502625 -28.00583 
L 37.851706 -27.841644 
L 37.200787 -27.678709 
L 36.549869 -27.517722 
L 35.89895 -27.359053 
L 35.248031 -27.20006 
L 34.597113 -27.04186 
L 33.946194 -26.88495 
L 33.295276 -26.730426 
L 32.644357 -26.576947 
L 31.993438 -26.424958 
L 31.34252 -26.27358 
L 30.691601 -26.124009 
L 30.040682 -25.976172 
L 29.389764 -25.829639 
L 28.738845 -25.684003 
L 28.087927 -25.539564 
L 27.437008 -25.396275 
L 26.786089 -25.254453 
L 26.135171 -25.114065 
L 25.484252 -24.974774 
L 24.833333 -24.836828 
L 24.182415 -24.700035 
L 23.531496 -24.564749 
L 22.880577 -24.430415 
L 22.229659 -24.297284 
L 21.57874 -24.16566 
L 20.927822 -24.034838 
L 20.276903 -23.905412 
L 19.625984 -23.777047 
L 18.975066 -23.649956 
L 18.324147 -23.523973 
L 17.673228 -23.399273 
L 17.02231 -23.275556 
L 16.371391 -23.15297 
L 15.720472 -23.031496 
z
" id="m5871280423" style="stroke:#008000;stroke-opacity:0.2;"/>
    </defs>
    <g clip-path="url(#p15dd2dd5b2)">
     <use style="fill:#008000;fill-opacity:0.2;stroke:#008000;stroke-opacity:0.2;" x="0.0" xlink:href="#m5871280423" y="184.251968504"/>
    </g>
   </g>
   <g id="PolyCollection_6">
    <defs>
     <path d="M 15.720472 -23.031496 
L 15.720472 -23.031496 
L 16.371391 -23.101429 
L 17.02231 -23.171805 
L 17.673228 -23.242619 
L 18.324147 -23.313877 
L 18.975066 -23.385546 
L 19.625984 -23.457659 
L 20.276903 -23.530212 
L 20.927822 -23.60312 
L 21.57874 -23.676531 
L 22.229659 -23.750356 
L 22.880577 -23.824619 
L 23.531496 -23.899272 
L 24.182415 -23.974276 
L 24.833333 -24.04971 
L 25.484252 -24.125449 
L 26.135171 -24.201822 
L 26.786089 -24.278725 
L 27.437008 -24.355946 
L 28.087927 -24.433545 
L 28.738845 -24.511566 
L 29.389764 -24.589914 
L 30.040682 -24.668517 
L 30.691601 -24.747697 
L 31.34252 -24.827348 
L 31.993438 -24.907514 
L 32.644357 -24.98809 
L 33.295276 -25.068746 
L 33.946194 -25.150043 
L 34.597113 -25.231516 
L 35.248031 -25.313903 
L 35.89895 -25.396424 
L 36.549869 -25.479416 
L 37.200787 -25.562818 
L 37.851706 -25.6468 
L 38.502625 -25.731264 
L 39.153543 -25.815934 
L 39.804462 -25.900831 
L 40.455381 -25.986328 
L 41.106299 -26.072136 
L 41.757218 -26.158214 
L 42.408136 -26.245084 
L 43.059055 -26.33219 
L 43.709974 -26.420061 
L 44.360892 -26.50798 
L 45.011811 -26.596558 
L 45.66273 -26.685152 
L 46.313648 -26.77465 
L 46.964567 -26.864394 
L 47.615486 -26.954647 
L 48.266404 -27.045335 
L 48.917323 -27.136657 
L 49.568241 -27.228313 
L 50.21916 -27.320068 
L 50.870079 -27.412043 
L 51.520997 -27.504683 
L 52.171916 -27.597619 
L 52.822835 -27.691381 
L 53.473753 -27.786076 
L 54.124672 -27.88078 
L 54.775591 -27.97537 
L 55.426509 -28.070169 
L 56.077428 -28.166161 
L 56.728346 -28.262838 
L 57.379265 -28.359221 
L 58.030184 -28.456725 
L 58.681102 -28.554021 
L 59.332021 -28.652498 
L 59.98294 -28.750997 
L 60.633858 -28.849646 
L 61.284777 -28.948833 
L 61.935696 -29.048655 
L 62.586614 -29.149153 
L 63.237533 -29.24973 
L 63.888451 -29.350368 
L 64.53937 -29.452073 
L 65.190289 -29.554022 
L 65.841207 -29.656668 
L 66.492126 -29.760619 
L 67.143045 -29.864045 
L 67.793963 -29.967809 
L 68.444882 -30.072087 
L 69.095801 -30.17736 
L 69.746719 -30.282746 
L 70.397638 -30.38857 
L 71.048556 -30.495424 
L 71.699475 -30.602919 
L 72.350394 -30.710626 
L 73.001312 -30.81893 
L 73.652231 -30.927293 
L 74.30315 -31.036181 
L 74.954068 -31.146243 
L 75.604987 -31.256646 
L 76.255906 -31.367873 
L 76.906824 -31.4786 
L 77.557743 -31.590653 
L 78.208661 -31.702485 
L 78.85958 -31.814137 
L 79.510499 -31.926635 
L 80.161417 -32.039942 
L 80.161417 -37.857322 
L 80.161417 -37.857322 
L 79.510499 -37.651669 
L 78.85958 -37.449134 
L 78.208661 -37.246147 
L 77.557743 -37.046107 
L 76.906824 -36.848173 
L 76.255906 -36.649363 
L 75.604987 -36.451952 
L 74.954068 -36.256005 
L 74.30315 -36.061424 
L 73.652231 -35.869637 
L 73.001312 -35.677493 
L 72.350394 -35.486884 
L 71.699475 -35.298547 
L 71.048556 -35.110196 
L 70.397638 -34.922942 
L 69.746719 -34.738046 
L 69.095801 -34.553498 
L 68.444882 -34.370102 
L 67.793963 -34.188366 
L 67.143045 -34.008643 
L 66.492126 -33.829622 
L 65.841207 -33.6511 
L 65.190289 -33.474258 
L 64.53937 -33.298645 
L 63.888451 -33.124526 
L 63.237533 -32.950892 
L 62.586614 -32.778438 
L 61.935696 -32.60766 
L 61.284777 -32.437353 
L 60.633858 -32.268317 
L 59.98294 -32.099707 
L 59.332021 -31.933392 
L 58.681102 -31.768042 
L 58.030184 -31.603431 
L 57.379265 -31.440029 
L 56.728346 -31.277553 
L 56.077428 -31.117038 
L 55.426509 -30.956962 
L 54.775591 -30.798562 
L 54.124672 -30.64094 
L 53.473753 -30.484054 
L 52.822835 -30.328103 
L 52.171916 -30.173368 
L 51.520997 -30.019069 
L 50.870079 -29.86638 
L 50.21916 -29.714538 
L 49.568241 -29.563804 
L 48.917323 -29.414138 
L 48.266404 -29.264839 
L 47.615486 -29.116778 
L 46.964567 -28.970253 
L 46.313648 -28.824521 
L 45.66273 -28.679803 
L 45.011811 -28.535876 
L 44.360892 -28.393124 
L 43.709974 -28.251375 
L 43.059055 -28.110958 
L 42.408136 -27.971136 
L 41.757218 -27.832292 
L 41.106299 -27.694675 
L 40.455381 -27.558198 
L 39.804462 -27.422655 
L 39.153543 -27.287812 
L 38.502625 -27.153838 
L 37.851706 -27.020586 
L 37.200787 -26.888404 
L 36.549869 -26.757381 
L 35.89895 -26.627146 
L 35.248031 -26.497879 
L 34.597113 -26.369402 
L 33.946194 -26.24179 
L 33.295276 -26.114999 
L 32.644357 -25.989397 
L 31.993438 -25.864431 
L 31.34252 -25.74059 
L 30.691601 -25.617504 
L 30.040682 -25.495603 
L 29.389764 -25.374549 
L 28.738845 -25.254128 
L 28.087927 -25.134732 
L 27.437008 -25.016426 
L 26.786089 -24.898885 
L 26.135171 -24.782158 
L 25.484252 -24.666293 
L 24.833333 -24.55139 
L 24.182415 -24.437145 
L 23.531496 -24.323741 
L 22.880577 -24.211371 
L 22.229659 -24.099827 
L 21.57874 -23.989216 
L 20.927822 -23.879481 
L 20.276903 -23.770575 
L 19.625984 -23.662407 
L 18.975066 -23.555124 
L 18.324147 -23.44871 
L 17.673228 -23.343162 
L 17.02231 -23.238457 
L 16.371391 -23.134557 
L 15.720472 -23.031496 
z
" id="m6bb4cd8b19" style="stroke:#008000;stroke-opacity:0.2;"/>
    </defs>
    <g clip-path="url(#p15dd2dd5b2)">
     <use style="fill:#008000;fill-opacity:0.2;stroke:#008000;stroke-opacity:0.2;" x="0.0" xlink:href="#m6bb4cd8b19" y="184.251968504"/>
    </g>
   </g>
   <g id="LineCollection_2">
    <path clip-path="url(#p15dd2dd5b2)" d="M 15.720472 161.220472 
L 15.720472 161.220472 
" style="fill:none;stroke:#000000;"/>
    <path clip-path="url(#p15dd2dd5b2)" d="M 31.830709 160.449799 
L 31.830709 160.157525 
" style="fill:none;stroke:#000000;"/>
    <path clip-path="url(#p15dd2dd5b2)" d="M 39.885827 158.908993 
L 39.885827 158.232763 
" style="fill:none;stroke:#000000;"/>
    <path clip-path="url(#p15dd2dd5b2)" d="M 47.940945 154.560085 
L 47.940945 153.220004 
" style="fill:none;stroke:#000000;"/>
    <path clip-path="url(#p15dd2dd5b2)" d="M 64.051181 141.395781 
L 64.051181 139.5534 
" style="fill:none;stroke:#000000;"/>
    <path clip-path="url(#p15dd2dd5b2)" d="M 80.161417 125.766562 
L 80.161417 123.418784 
" style="fill:none;stroke:#000000;"/>
   </g>
   <g id="line2d_24">
    <g clip-path="url(#p15dd2dd5b2)">
     <use style="stroke:#000000;stroke-width:0.5;" x="15.7204724409" xlink:href="#m39de5ed123" y="161.220472441"/>
     <use style="stroke:#000000;stroke-width:0.5;" x="31.8307086614" xlink:href="#m39de5ed123" y="160.449799043"/>
     <use style="stroke:#000000;stroke-width:0.5;" x="39.8858267717" xlink:href="#m39de5ed123" y="158.90899334"/>
     <use style="stroke:#000000;stroke-width:0.5;" x="47.9409448819" xlink:href="#m39de5ed123" y="154.560085423"/>
     <use style="stroke:#000000;stroke-width:0.5;" x="64.0511811024" xlink:href="#m39de5ed123" y="141.395780796"/>
     <use style="stroke:#000000;stroke-width:0.5;" x="80.1614173228" xlink:href="#m39de5ed123" y="125.766561584"/>
    </g>
   </g>
   <g id="line2d_25">
    <g clip-path="url(#p15dd2dd5b2)">
     <use style="stroke:#000000;stroke-width:0.5;" x="15.7204724409" xlink:href="#m39de5ed123" y="161.220472441"/>
     <use style="stroke:#000000;stroke-width:0.5;" x="31.8307086614" xlink:href="#m39de5ed123" y="160.157524686"/>
     <use style="stroke:#000000;stroke-width:0.5;" x="39.8858267717" xlink:href="#m39de5ed123" y="158.23276323"/>
     <use style="stroke:#000000;stroke-width:0.5;" x="47.9409448819" xlink:href="#m39de5ed123" y="153.220003607"/>
     <use style="stroke:#000000;stroke-width:0.5;" x="64.0511811024" xlink:href="#m39de5ed123" y="139.553400485"/>
     <use style="stroke:#000000;stroke-width:0.5;" x="80.1614173228" xlink:href="#m39de5ed123" y="123.418784246"/>
    </g>
   </g>
   <g id="line2d_26">
    <g clip-path="url(#p15dd2dd5b2)">
     <use style="stroke:#000000;stroke-width:0.5;" x="15.7204724409" xlink:href="#mf53ab340e0" y="161.220472441"/>
     <use style="stroke:#000000;stroke-width:0.5;" x="31.8307086614" xlink:href="#mf53ab340e0" y="160.303661865"/>
     <use style="stroke:#000000;stroke-width:0.5;" x="39.8858267717" xlink:href="#mf53ab340e0" y="158.570878285"/>
     <use style="stroke:#000000;stroke-width:0.5;" x="47.9409448819" xlink:href="#mf53ab340e0" y="153.890044515"/>
     <use style="stroke:#000000;stroke-width:0.5;" x="64.0511811024" xlink:href="#mf53ab340e0" y="140.474590641"/>
     <use style="stroke:#000000;stroke-width:0.5;" x="80.1614173228" xlink:href="#mf53ab340e0" y="124.592672915"/>
    </g>
   </g>
   <g id="patch_8">
    <path d="M 11.692913 96.313529 
L 84.188976 96.313529 
" style="fill:none;stroke:#000000;stroke-linecap:square;stroke-linejoin:miter;"/>
   </g>
   <g id="patch_9">
    <path d="M 84.188976 161.220472 
L 84.188976 96.313529 
" style="fill:none;stroke:#000000;stroke-linecap:square;stroke-linejoin:miter;"/>
   </g>
   <g id="patch_10">
    <path d="M 11.692913 161.220472 
L 84.188976 161.220472 
" style="fill:none;stroke:#000000;stroke-linecap:square;stroke-linejoin:miter;"/>
   </g>
   <g id="patch_11">
    <path d="M 11.692913 161.220472 
L 11.692913 96.313529 
" style="fill:none;stroke:#000000;stroke-linecap:square;stroke-linejoin:miter;"/>
   </g>
   <g id="matplotlib.axis_3">
    <g id="xtick_6">
     <g id="line2d_27">
      <g>
       <use style="stroke:#000000;stroke-width:0.5;" x="15.7204724409" xlink:href="#m9bf27f3ace" y="161.220472441"/>
      </g>
     </g>
     <g id="line2d_28">
      <g>
       <use style="stroke:#000000;stroke-width:0.5;" x="15.7204724409" xlink:href="#m36d2d04e5f" y="96.3135289907"/>
      </g>
     </g>
     <g id="text_5">
      <text style="font-family:Helvetica LT Std;font-size:8.0px;font-style:normal;font-weight:400;text-anchor:middle;" transform="rotate(-0.000000, 15.720472, 170.916722)" x="15.7204724409" y="170.916722441">0</text>
     </g>
    </g>
    <g id="xtick_7">
     <g id="line2d_29">
      <g>
       <use style="stroke:#000000;stroke-width:0.5;" x="31.8307086614" xlink:href="#m9bf27f3ace" y="161.220472441"/>
      </g>
     </g>
     <g id="line2d_30">
      <g>
       <use style="stroke:#000000;stroke-width:0.5;" x="31.8307086614" xlink:href="#m36d2d04e5f" y="96.3135289907"/>
      </g>
     </g>
     <g id="text_6">
      <text style="font-family:Helvetica LT Std;font-size:8.0px;font-style:normal;font-weight:400;text-anchor:middle;" transform="rotate(-0.000000, 31.830709, 170.916722)" x="31.8307086614" y="170.916722441">2</text>
     </g>
    </g>
    <g id="xtick_8">
     <g id="line2d_31">
      <g>
       <use style="stroke:#000000;stroke-width:0.5;" x="47.9409448819" xlink:href="#m9bf27f3ace" y="161.220472441"/>
      </g>
     </g>
     <g id="line2d_32">
      <g>
       <use style="stroke:#000000;stroke-width:0.5;" x="47.9409448819" xlink:href="#m36d2d04e5f" y="96.3135289907"/>
      </g>
     </g>
     <g id="text_7">
      <text style="font-family:Helvetica LT Std;font-size:8.0px;font-style:normal;font-weight:400;text-anchor:middle;" transform="rotate(-0.000000, 47.940945, 170.916722)" x="47.9409448819" y="170.916722441">4</text>
     </g>
    </g>
    <g id="xtick_9">
     <g id="line2d_33">
      <g>
       <use style="stroke:#000000;stroke-width:0.5;" x="64.0511811024" xlink:href="#m9bf27f3ace" y="161.220472441"/>
      </g>
     </g>
     <g id="line2d_34">
      <g>
       <use style="stroke:#000000;stroke-width:0.5;" x="64.0511811024" xlink:href="#m36d2d04e5f" y="96.3135289907"/>
      </g>
     </g>
     <g id="text_8">
      <text style="font-family:Helvetica LT Std;font-size:8.0px;font-style:normal;font-weight:400;text-anchor:middle;" transform="rotate(-0.000000, 64.051181, 170.916722)" x="64.0511811024" y="170.916722441">6</text>
     </g>
    </g>
    <g id="xtick_10">
     <g id="line2d_35">
      <g>
       <use style="stroke:#000000;stroke-width:0.5;" x="80.1614173228" xlink:href="#m9bf27f3ace" y="161.220472441"/>
      </g>
     </g>
     <g id="line2d_36">
      <g>
       <use style="stroke:#000000;stroke-width:0.5;" x="80.1614173228" xlink:href="#m36d2d04e5f" y="96.3135289907"/>
      </g>
     </g>
     <g id="text_9">
      <text style="font-family:Helvetica LT Std;font-size:8.0px;font-style:normal;font-weight:400;text-anchor:middle;" transform="rotate(-0.000000, 80.161417, 170.916722)" x="80.1614173228" y="170.916722441">8</text>
     </g>
    </g>
    <g id="text_10">
     <text style="font-family:Helvetica LT Std;font-size:8.0px;font-style:normal;font-weight:400;text-anchor:middle;" transform="rotate(-0.000000, 47.940945, 182.636722)" x="47.9409448819" y="182.636722441">Time (days)</text>
    </g>
   </g>
   <g id="matplotlib.axis_4">
    <g id="ytick_6">
     <g id="line2d_37">
      <g>
       <use style="stroke:#000000;stroke-width:0.5;" x="11.6929133858" xlink:href="#m2b5ef592b8" y="161.220472441"/>
      </g>
     </g>
     <g id="line2d_38">
      <g>
       <use style="stroke:#000000;stroke-width:0.5;" x="84.188976378" xlink:href="#m404ddeefd2" y="161.220472441"/>
      </g>
     </g>
     <g id="text_11">
      <text style="font-family:Helvetica LT Std;font-size:8.0px;font-style:normal;font-weight:400;text-anchor:end;" transform="rotate(-0.000000, 7.692913, 163.556722)" x="7.69291338583" y="163.556722441">0</text>
     </g>
    </g>
    <g id="ytick_7">
     <g id="line2d_39">
      <g>
       <use style="stroke:#000000;stroke-width:0.5;" x="11.6929133858" xlink:href="#m2b5ef592b8" y="144.993736578"/>
      </g>
     </g>
     <g id="line2d_40">
      <g>
       <use style="stroke:#000000;stroke-width:0.5;" x="84.188976378" xlink:href="#m404ddeefd2" y="144.993736578"/>
      </g>
     </g>
     <g id="text_12">
      <text style="font-family:Helvetica LT Std;font-size:8.0px;font-style:normal;font-weight:400;text-anchor:end;" transform="rotate(-0.000000, 7.692913, 147.329987)" x="7.69291338583" y="147.329986578">1</text>
     </g>
    </g>
    <g id="ytick_8">
     <g id="line2d_41">
      <g>
       <use style="stroke:#000000;stroke-width:0.5;" x="11.6929133858" xlink:href="#m2b5ef592b8" y="128.767000716"/>
      </g>
     </g>
     <g id="line2d_42">
      <g>
       <use style="stroke:#000000;stroke-width:0.5;" x="84.188976378" xlink:href="#m404ddeefd2" y="128.767000716"/>
      </g>
     </g>
     <g id="text_13">
      <text style="font-family:Helvetica LT Std;font-size:8.0px;font-style:normal;font-weight:400;text-anchor:end;" transform="rotate(-0.000000, 7.692913, 131.103251)" x="7.69291338583" y="131.103250716">2</text>
     </g>
    </g>
    <g id="ytick_9">
     <g id="line2d_43">
      <g>
       <use style="stroke:#000000;stroke-width:0.5;" x="11.6929133858" xlink:href="#m2b5ef592b8" y="112.540264853"/>
      </g>
     </g>
     <g id="line2d_44">
      <g>
       <use style="stroke:#000000;stroke-width:0.5;" x="84.188976378" xlink:href="#m404ddeefd2" y="112.540264853"/>
      </g>
     </g>
     <g id="text_14">
      <text style="font-family:Helvetica LT Std;font-size:8.0px;font-style:normal;font-weight:400;text-anchor:end;" transform="rotate(-0.000000, 7.692913, 114.876515)" x="7.69291338583" y="114.876514853">3</text>
     </g>
    </g>
    <g id="ytick_10">
     <g id="line2d_45">
      <g>
       <use style="stroke:#000000;stroke-width:0.5;" x="11.6929133858" xlink:href="#m2b5ef592b8" y="96.3135289907"/>
      </g>
     </g>
     <g id="line2d_46">
      <g>
       <use style="stroke:#000000;stroke-width:0.5;" x="84.188976378" xlink:href="#m404ddeefd2" y="96.3135289907"/>
      </g>
     </g>
     <g id="text_15">
      <text style="font-family:Helvetica LT Std;font-size:8.0px;font-style:normal;font-weight:400;text-anchor:end;" transform="rotate(-0.000000, 7.692913, 98.649779)" x="7.69291338583" y="98.6497789907">4</text>
     </g>
    </g>
    <g id="text_16">
     <text style="font-family:Helvetica LT Std;font-size:8.0px;font-style:normal;font-weight:400;text-anchor:middle;" transform="rotate(-90.000000, -0.994587, 128.767001)" x="-0.994586614173" y="128.767000716">Outgrowth (mm)</text>
    </g>
   </g>
  </g>
  <g id="text_17">
   <text style="font-family:Helvetica LT Std;font-size:8.0px;font-style:normal;font-weight:400;text-anchor:middle;" transform="rotate(-0.000000, 46.771654, 9.381289)" x="46.7716535433" y="9.38128937008">No acceleration</text>
  </g>
 </g>
 <defs>
  <clipPath id="p15dd2dd5b2">
   <rect height="64.9069434503" width="72.4960629921" x="11.6929133858" y="96.3135289907"/>
  </clipPath>
  <clipPath id="pa692c08fbb">
   <rect height="64.9069434503" width="72.4960629921" x="11.6929133858" y="18.4251968504"/>
  </clipPath>
 </defs>
</svg>
