<?xml version="1.0" encoding="utf-8" standalone="no"?>
<!DOCTYPE svg PUBLIC "-//W3C//DTD SVG 1.1//EN"
  "http://www.w3.org/Graphics/SVG/1.1/DTD/svg11.dtd">
<!-- Created with matplotlib (http://matplotlib.org/) -->
<svg height="184pt" version="1.1" viewBox="0 0 93 184" width="93pt" xmlns="http://www.w3.org/2000/svg" xmlns:xlink="http://www.w3.org/1999/xlink">
 <defs>
  <style type="text/css">
*{stroke-linecap:butt;stroke-linejoin:round;stroke-miterlimit:100000;}
  </style>
 </defs>
 <g id="figure_1">
  <g id="patch_1">
   <path d="M 0 184.251969 
L 93.543307 184.251969 
L 93.543307 0 
L 0 0 
z
" style="fill:#ffffff;"/>
  </g>
  <g id="axes_1">
   <g id="patch_2">
    <path d="M 11.692913 83.33214 
L 84.188976 83.33214 
L 84.188976 18.425197 
L 11.692913 18.425197 
z
" style="fill:#ffffff;"/>
   </g>
   <g id="PolyCollection_1">
    <defs>
     <path d="M 15.720472 -147.518942 
L 15.720472 -100.729014 
L 16.371391 -101.008086 
L 17.02231 -101.305872 
L 17.673228 -101.634909 
L 18.324147 -101.910071 
L 18.975066 -102.191063 
L 19.625984 -102.491089 
L 20.276903 -102.786715 
L 20.927822 -103.083525 
L 21.57874 -103.379302 
L 22.229659 -103.68595 
L 22.880577 -103.941698 
L 23.531496 -104.216742 
L 24.182415 -104.504124 
L 24.833333 -104.816216 
L 25.484252 -105.041436 
L 26.135171 -105.353527 
L 26.786089 -105.636769 
L 27.437008 -105.959479 
L 28.087927 -106.208839 
L 28.738845 -106.436215 
L 29.389764 -106.680593 
L 30.040682 -106.932626 
L 30.691601 -107.19788 
L 31.34252 -107.488448 
L 31.993438 -107.72743 
L 32.644357 -108.005746 
L 33.295276 -108.243416 
L 33.946194 -108.480734 
L 34.597113 -108.767813 
L 35.248031 -109.004373 
L 35.89895 -109.278769 
L 36.549869 -109.554043 
L 37.200787 -109.796872 
L 37.851706 -110.029328 
L 38.502625 -110.227429 
L 39.153543 -110.490503 
L 39.804462 -110.784912 
L 40.455381 -111.034217 
L 41.106299 -111.270051 
L 41.757218 -111.510078 
L 42.408136 -111.831854 
L 43.059055 -112.108364 
L 43.709974 -112.458625 
L 44.360892 -112.734625 
L 45.011811 -113.070617 
L 45.66273 -113.449541 
L 46.313648 -113.826045 
L 46.964567 -114.267061 
L 47.615486 -114.736302 
L 48.266404 -115.146358 
L 48.917323 -115.571326 
L 49.568241 -116.0225 
L 50.21916 -116.502346 
L 50.870079 -116.924701 
L 51.520997 -117.325163 
L 52.171916 -117.736275 
L 52.822835 -118.138461 
L 53.473753 -118.530133 
L 54.124672 -118.908347 
L 54.775591 -119.30942 
L 55.426509 -119.693776 
L 56.077428 -120.106577 
L 56.728346 -120.475038 
L 57.379265 -120.88701 
L 58.030184 -121.253649 
L 58.681102 -121.630474 
L 59.332021 -121.992744 
L 59.98294 -122.377841 
L 60.633858 -122.758036 
L 61.284777 -123.107853 
L 61.935696 -123.457923 
L 62.586614 -123.818063 
L 63.237533 -124.198296 
L 63.888451 -124.575114 
L 64.53937 -124.918082 
L 65.190289 -125.26953 
L 65.841207 -125.643034 
L 66.492126 -125.982813 
L 67.143045 -126.320832 
L 67.793963 -126.625814 
L 68.444882 -127.002025 
L 69.095801 -127.349906 
L 69.746719 -127.626214 
L 70.397638 -127.941808 
L 71.048556 -128.278702 
L 71.699475 -128.617724 
L 72.350394 -128.929834 
L 73.001312 -129.255525 
L 73.652231 -129.570261 
L 74.30315 -129.886528 
L 74.954068 -130.200099 
L 75.604987 -130.506965 
L 76.255906 -130.787202 
L 76.906824 -131.10079 
L 77.557743 -131.386174 
L 78.208661 -131.657207 
L 78.85958 -131.963886 
L 79.510499 -132.22964 
L 80.161417 -132.515743 
L 80.161417 -157.124955 
L 80.161417 -157.124955 
L 79.510499 -157.024235 
L 78.85958 -156.930957 
L 78.208661 -156.811145 
L 77.557743 -156.714485 
L 76.906824 -156.61204 
L 76.255906 -156.520453 
L 75.604987 -156.421262 
L 74.954068 -156.315572 
L 74.30315 -156.217021 
L 73.652231 -156.08593 
L 73.001312 -155.970761 
L 72.350394 -155.863621 
L 71.699475 -155.757544 
L 71.048556 -155.658892 
L 70.397638 -155.550179 
L 69.746719 -155.450459 
L 69.095801 -155.32729 
L 68.444882 -155.224461 
L 67.793963 -155.114903 
L 67.143045 -155.01469 
L 66.492126 -154.910558 
L 65.841207 -154.808011 
L 65.190289 -154.699431 
L 64.53937 -154.590467 
L 63.888451 -154.474563 
L 63.237533 -154.35874 
L 62.586614 -154.231815 
L 61.935696 -154.110143 
L 61.284777 -153.979575 
L 60.633858 -153.875772 
L 59.98294 -153.748579 
L 59.332021 -153.634858 
L 58.681102 -153.495291 
L 58.030184 -153.383832 
L 57.379265 -153.260876 
L 56.728346 -153.124133 
L 56.077428 -153.005557 
L 55.426509 -152.891263 
L 54.775591 -152.762908 
L 54.124672 -152.634121 
L 53.473753 -152.51501 
L 52.822835 -152.376052 
L 52.171916 -152.249684 
L 51.520997 -152.105348 
L 50.870079 -151.976573 
L 50.21916 -151.854754 
L 49.568241 -151.699427 
L 48.917323 -151.552536 
L 48.266404 -151.413861 
L 47.615486 -151.273509 
L 46.964567 -151.139517 
L 46.313648 -151.005943 
L 45.66273 -150.897293 
L 45.011811 -150.762201 
L 44.360892 -150.647622 
L 43.709974 -150.554959 
L 43.059055 -150.453035 
L 42.408136 -150.373541 
L 41.757218 -150.292266 
L 41.106299 -150.189602 
L 40.455381 -150.122794 
L 39.804462 -150.0662 
L 39.153543 -150.00937 
L 38.502625 -149.952334 
L 37.851706 -149.902422 
L 37.200787 -149.848147 
L 36.549869 -149.780874 
L 35.89895 -149.732421 
L 35.248031 -149.663397 
L 34.597113 -149.580373 
L 33.946194 -149.500808 
L 33.295276 -149.440407 
L 32.644357 -149.361561 
L 31.993438 -149.283557 
L 31.34252 -149.208869 
L 30.691601 -149.137626 
L 30.040682 -149.065988 
L 29.389764 -148.998327 
L 28.738845 -148.946708 
L 28.087927 -148.869359 
L 27.437008 -148.800815 
L 26.786089 -148.7482 
L 26.135171 -148.685503 
L 25.484252 -148.616784 
L 24.833333 -148.539646 
L 24.182415 -148.47609 
L 23.531496 -148.421671 
L 22.880577 -148.347393 
L 22.229659 -148.270788 
L 21.57874 -148.198808 
L 20.927822 -148.116447 
L 20.276903 -148.043701 
L 19.625984 -147.971706 
L 18.975066 -147.894549 
L 18.324147 -147.821318 
L 17.673228 -147.756872 
L 17.02231 -147.674345 
L 16.371391 -147.594766 
L 15.720472 -147.518942 
z
" id="m9f8f0c51e5" style="stroke:#008000;stroke-opacity:0.2;"/>
    </defs>
    <g clip-path="url(#p8c4466372c)">
     <use style="fill:#008000;fill-opacity:0.2;stroke:#008000;stroke-opacity:0.2;" x="0.0" xlink:href="#m9f8f0c51e5" y="184.251968504"/>
    </g>
   </g>
   <g id="PolyCollection_2">
    <defs>
     <path d="M 15.720472 -142.36284 
L 15.720472 -109.737905 
L 16.371391 -109.991781 
L 17.02231 -110.260975 
L 17.673228 -110.518944 
L 18.324147 -110.771 
L 18.975066 -111.02775 
L 19.625984 -111.288954 
L 20.276903 -111.536773 
L 20.927822 -111.790255 
L 21.57874 -112.055153 
L 22.229659 -112.322494 
L 22.880577 -112.576312 
L 23.531496 -112.827851 
L 24.182415 -113.068346 
L 24.833333 -113.310069 
L 25.484252 -113.541965 
L 26.135171 -113.77422 
L 26.786089 -114.017693 
L 27.437008 -114.266496 
L 28.087927 -114.493516 
L 28.738845 -114.730725 
L 29.389764 -114.96367 
L 30.040682 -115.188399 
L 30.691601 -115.423568 
L 31.34252 -115.646844 
L 31.993438 -115.878468 
L 32.644357 -116.097836 
L 33.295276 -116.319882 
L 33.946194 -116.539654 
L 34.597113 -116.755134 
L 35.248031 -116.989765 
L 35.89895 -117.222973 
L 36.549869 -117.446789 
L 37.200787 -117.656315 
L 37.851706 -117.883629 
L 38.502625 -118.106902 
L 39.153543 -118.330917 
L 39.804462 -118.543393 
L 40.455381 -118.756675 
L 41.106299 -118.975473 
L 41.757218 -119.212518 
L 42.408136 -119.48568 
L 43.059055 -119.772083 
L 43.709974 -120.08391 
L 44.360892 -120.378928 
L 45.011811 -120.687629 
L 45.66273 -121.034356 
L 46.313648 -121.393873 
L 46.964567 -121.74177 
L 47.615486 -122.105613 
L 48.266404 -122.499231 
L 48.917323 -122.902776 
L 49.568241 -123.293943 
L 50.21916 -123.682424 
L 50.870079 -124.062331 
L 51.520997 -124.439032 
L 52.171916 -124.817746 
L 52.822835 -125.191174 
L 53.473753 -125.554046 
L 54.124672 -125.917644 
L 54.775591 -126.285538 
L 55.426509 -126.642607 
L 56.077428 -127.002458 
L 56.728346 -127.3549 
L 57.379265 -127.704256 
L 58.030184 -128.052507 
L 58.681102 -128.397008 
L 59.332021 -128.754261 
L 59.98294 -129.09253 
L 60.633858 -129.428409 
L 61.284777 -129.763358 
L 61.935696 -130.094117 
L 62.586614 -130.415457 
L 63.237533 -130.732797 
L 63.888451 -131.04871 
L 64.53937 -131.359692 
L 65.190289 -131.671907 
L 65.841207 -131.974644 
L 66.492126 -132.273935 
L 67.143045 -132.577653 
L 67.793963 -132.868395 
L 68.444882 -133.1586 
L 69.095801 -133.455526 
L 69.746719 -133.744347 
L 70.397638 -134.041856 
L 71.048556 -134.323126 
L 71.699475 -134.614558 
L 72.350394 -134.895343 
L 73.001312 -135.165917 
L 73.652231 -135.442548 
L 74.30315 -135.714747 
L 74.954068 -135.993564 
L 75.604987 -136.256328 
L 76.255906 -136.520675 
L 76.906824 -136.780872 
L 77.557743 -137.033895 
L 78.208661 -137.289653 
L 78.85958 -137.537038 
L 79.510499 -137.784704 
L 80.161417 -138.037714 
L 80.161417 -154.395913 
L 80.161417 -154.395913 
L 79.510499 -154.288257 
L 78.85958 -154.174648 
L 78.208661 -154.065799 
L 77.557743 -153.956518 
L 76.906824 -153.841757 
L 76.255906 -153.727246 
L 75.604987 -153.609942 
L 74.954068 -153.489127 
L 74.30315 -153.366568 
L 73.652231 -153.240758 
L 73.001312 -153.120007 
L 72.350394 -152.996002 
L 71.699475 -152.873549 
L 71.048556 -152.747467 
L 70.397638 -152.617629 
L 69.746719 -152.489699 
L 69.095801 -152.359655 
L 68.444882 -152.228548 
L 67.793963 -152.088612 
L 67.143045 -151.950697 
L 66.492126 -151.811896 
L 65.841207 -151.677853 
L 65.190289 -151.541366 
L 64.53937 -151.402263 
L 63.888451 -151.258153 
L 63.237533 -151.110094 
L 62.586614 -150.964223 
L 61.935696 -150.813207 
L 61.284777 -150.668966 
L 60.633858 -150.519888 
L 59.98294 -150.365235 
L 59.332021 -150.21617 
L 58.681102 -150.059275 
L 58.030184 -149.903799 
L 57.379265 -149.744362 
L 56.728346 -149.583723 
L 56.077428 -149.422017 
L 55.426509 -149.264476 
L 54.775591 -149.099439 
L 54.124672 -148.936658 
L 53.473753 -148.769923 
L 52.822835 -148.601085 
L 52.171916 -148.43076 
L 51.520997 -148.254061 
L 50.870079 -148.079716 
L 50.21916 -147.901865 
L 49.568241 -147.719532 
L 48.917323 -147.536782 
L 48.266404 -147.360046 
L 47.615486 -147.176473 
L 46.964567 -146.993689 
L 46.313648 -146.820117 
L 45.66273 -146.656812 
L 45.011811 -146.504555 
L 44.360892 -146.364638 
L 43.709974 -146.22445 
L 43.059055 -146.091371 
L 42.408136 -145.972606 
L 41.757218 -145.868886 
L 41.106299 -145.771297 
L 40.455381 -145.678853 
L 39.804462 -145.591153 
L 39.153543 -145.511819 
L 38.502625 -145.426763 
L 37.851706 -145.340701 
L 37.200787 -145.256403 
L 36.549869 -145.17234 
L 35.89895 -145.085844 
L 35.248031 -145.001344 
L 34.597113 -144.916685 
L 33.946194 -144.82525 
L 33.295276 -144.737275 
L 32.644357 -144.64496 
L 31.993438 -144.561188 
L 31.34252 -144.480939 
L 30.691601 -144.397901 
L 30.040682 -144.310396 
L 29.389764 -144.228963 
L 28.738845 -144.144071 
L 28.087927 -144.052526 
L 27.437008 -143.973536 
L 26.786089 -143.880931 
L 26.135171 -143.794126 
L 25.484252 -143.708924 
L 24.833333 -143.618754 
L 24.182415 -143.530549 
L 23.531496 -143.438418 
L 22.880577 -143.350757 
L 22.229659 -143.261746 
L 21.57874 -143.17496 
L 20.927822 -143.080045 
L 20.276903 -142.994924 
L 19.625984 -142.910169 
L 18.975066 -142.823694 
L 18.324147 -142.735981 
L 17.673228 -142.650397 
L 17.02231 -142.55146 
L 16.371391 -142.459476 
L 15.720472 -142.36284 
z
" id="mdc12e69f32" style="stroke:#008000;stroke-opacity:0.2;"/>
    </defs>
    <g clip-path="url(#p8c4466372c)">
     <use style="fill:#008000;fill-opacity:0.2;stroke:#008000;stroke-opacity:0.2;" x="0.0" xlink:href="#mdc12e69f32" y="184.251968504"/>
    </g>
   </g>
   <g id="PolyCollection_3">
    <defs>
     <path d="M 15.720472 -136.134414 
L 15.720472 -118.804624 
L 16.371391 -119.015797 
L 17.02231 -119.234143 
L 17.673228 -119.446775 
L 18.324147 -119.655276 
L 18.975066 -119.861177 
L 19.625984 -120.072891 
L 20.276903 -120.27905 
L 20.927822 -120.486737 
L 21.57874 -120.6953 
L 22.229659 -120.898714 
L 22.880577 -121.105601 
L 23.531496 -121.307951 
L 24.182415 -121.505658 
L 24.833333 -121.704475 
L 25.484252 -121.90597 
L 26.135171 -122.106163 
L 26.786089 -122.307521 
L 27.437008 -122.505881 
L 28.087927 -122.701823 
L 28.738845 -122.892918 
L 29.389764 -123.08832 
L 30.040682 -123.282989 
L 30.691601 -123.476446 
L 31.34252 -123.667839 
L 31.993438 -123.854671 
L 32.644357 -124.05013 
L 33.295276 -124.239295 
L 33.946194 -124.424719 
L 34.597113 -124.613019 
L 35.248031 -124.798149 
L 35.89895 -124.985174 
L 36.549869 -125.165889 
L 37.200787 -125.353635 
L 37.851706 -125.532773 
L 38.502625 -125.714846 
L 39.153543 -125.896185 
L 39.804462 -126.067151 
L 40.455381 -126.253137 
L 41.106299 -126.455674 
L 41.757218 -126.667648 
L 42.408136 -126.891736 
L 43.059055 -127.135092 
L 43.709974 -127.386967 
L 44.360892 -127.654069 
L 45.011811 -127.934627 
L 45.66273 -128.226985 
L 46.313648 -128.537025 
L 46.964567 -128.856561 
L 47.615486 -129.19096 
L 48.266404 -129.530948 
L 48.917323 -129.872688 
L 49.568241 -130.214797 
L 50.21916 -130.546548 
L 50.870079 -130.881248 
L 51.520997 -131.207409 
L 52.171916 -131.531362 
L 52.822835 -131.858052 
L 53.473753 -132.176173 
L 54.124672 -132.496797 
L 54.775591 -132.81105 
L 55.426509 -133.12311 
L 56.077428 -133.431959 
L 56.728346 -133.740959 
L 57.379265 -134.044548 
L 58.030184 -134.343096 
L 58.681102 -134.640827 
L 59.332021 -134.931389 
L 59.98294 -135.217263 
L 60.633858 -135.503501 
L 61.284777 -135.784398 
L 61.935696 -136.062674 
L 62.586614 -136.343134 
L 63.237533 -136.622303 
L 63.888451 -136.893054 
L 64.53937 -137.163925 
L 65.190289 -137.433461 
L 65.841207 -137.696891 
L 66.492126 -137.961269 
L 67.143045 -138.223272 
L 67.793963 -138.478764 
L 68.444882 -138.728799 
L 69.095801 -138.978521 
L 69.746719 -139.232342 
L 70.397638 -139.48159 
L 71.048556 -139.727863 
L 71.699475 -139.969814 
L 72.350394 -140.20894 
L 73.001312 -140.44827 
L 73.652231 -140.680502 
L 74.30315 -140.911826 
L 74.954068 -141.142882 
L 75.604987 -141.372796 
L 76.255906 -141.597987 
L 76.906824 -141.820977 
L 77.557743 -142.039028 
L 78.208661 -142.259694 
L 78.85958 -142.475046 
L 79.510499 -142.690061 
L 80.161417 -142.903086 
L 80.161417 -151.330234 
L 80.161417 -151.330234 
L 79.510499 -151.191382 
L 78.85958 -151.053449 
L 78.208661 -150.910855 
L 77.557743 -150.767388 
L 76.906824 -150.624455 
L 76.255906 -150.479818 
L 75.604987 -150.331286 
L 74.954068 -150.184003 
L 74.30315 -150.034959 
L 73.652231 -149.885448 
L 73.001312 -149.733048 
L 72.350394 -149.574957 
L 71.699475 -149.415384 
L 71.048556 -149.25656 
L 70.397638 -149.098158 
L 69.746719 -148.936406 
L 69.095801 -148.776747 
L 68.444882 -148.610634 
L 67.793963 -148.443354 
L 67.143045 -148.277668 
L 66.492126 -148.107317 
L 65.841207 -147.933105 
L 65.190289 -147.756004 
L 64.53937 -147.579038 
L 63.888451 -147.400883 
L 63.237533 -147.222229 
L 62.586614 -147.043404 
L 61.935696 -146.860797 
L 61.284777 -146.67504 
L 60.633858 -146.489262 
L 59.98294 -146.299494 
L 59.332021 -146.104942 
L 58.681102 -145.91108 
L 58.030184 -145.714874 
L 57.379265 -145.518988 
L 56.728346 -145.319066 
L 56.077428 -145.115011 
L 55.426509 -144.909706 
L 54.775591 -144.703071 
L 54.124672 -144.493871 
L 53.473753 -144.281027 
L 52.822835 -144.067386 
L 52.171916 -143.852961 
L 51.520997 -143.64031 
L 50.870079 -143.417657 
L 50.21916 -143.195688 
L 49.568241 -142.978002 
L 48.917323 -142.75096 
L 48.266404 -142.523099 
L 47.615486 -142.294041 
L 46.964567 -142.074444 
L 46.313648 -141.861064 
L 45.66273 -141.64926 
L 45.011811 -141.449791 
L 44.360892 -141.264374 
L 43.709974 -141.093206 
L 43.059055 -140.932007 
L 42.408136 -140.783013 
L 41.757218 -140.639185 
L 41.106299 -140.503736 
L 40.455381 -140.386518 
L 39.804462 -140.27524 
L 39.153543 -140.170663 
L 38.502625 -140.069118 
L 37.851706 -139.960004 
L 37.200787 -139.85054 
L 36.549869 -139.746597 
L 35.89895 -139.638895 
L 35.248031 -139.533478 
L 34.597113 -139.427388 
L 33.946194 -139.318756 
L 33.295276 -139.207645 
L 32.644357 -139.095866 
L 31.993438 -138.989189 
L 31.34252 -138.880359 
L 30.691601 -138.769093 
L 30.040682 -138.656867 
L 29.389764 -138.545172 
L 28.738845 -138.43501 
L 28.087927 -138.327091 
L 27.437008 -138.217598 
L 26.786089 -138.102406 
L 26.135171 -137.988721 
L 25.484252 -137.877265 
L 24.833333 -137.766189 
L 24.182415 -137.646497 
L 23.531496 -137.533387 
L 22.880577 -137.413731 
L 22.229659 -137.300718 
L 21.57874 -137.183866 
L 20.927822 -137.070948 
L 20.276903 -136.955589 
L 19.625984 -136.837107 
L 18.975066 -136.719877 
L 18.324147 -136.601507 
L 17.673228 -136.487659 
L 17.02231 -136.373322 
L 16.371391 -136.25581 
L 15.720472 -136.134414 
z
" id="m3c461a606c" style="stroke:#008000;stroke-opacity:0.2;"/>
    </defs>
    <g clip-path="url(#p8c4466372c)">
     <use style="fill:#008000;fill-opacity:0.2;stroke:#008000;stroke-opacity:0.2;" x="0.0" xlink:href="#m3c461a606c" y="184.251968504"/>
    </g>
   </g>
   <g id="LineCollection_1">
    <path clip-path="url(#p8c4466372c)" d="M 15.720472 65.132741 
L 15.720472 48.425193 
" style="fill:none;stroke:#000000;"/>
    <path clip-path="url(#p8c4466372c)" d="M 39.885827 48.308506 
L 39.885827 33.900857 
" style="fill:none;stroke:#000000;"/>
    <path clip-path="url(#p8c4466372c)" d="M 47.940945 31.264407 
L 47.940945 26.983644 
" style="fill:none;stroke:#000000;"/>
    <path clip-path="url(#p8c4466372c)" d="M 64.051181 24.482373 
L 64.051181 23.763998 
" style="fill:none;stroke:#000000;"/>
    <path clip-path="url(#p8c4466372c)" d="M 80.161417 30.365525 
L 80.161417 27.006285 
" style="fill:none;stroke:#000000;"/>
   </g>
   <g id="line2d_1">
    <defs>
     <path d="M 3 0 
L -3 -0 
" id="md823693718" style="stroke:#000000;stroke-width:0.5;"/>
    </defs>
    <g clip-path="url(#p8c4466372c)">
     <use style="stroke:#000000;stroke-width:0.5;" x="15.7204724409" xlink:href="#md823693718" y="65.1327406917"/>
     <use style="stroke:#000000;stroke-width:0.5;" x="39.8858267717" xlink:href="#md823693718" y="48.3085056088"/>
     <use style="stroke:#000000;stroke-width:0.5;" x="47.9409448819" xlink:href="#md823693718" y="31.2644074022"/>
     <use style="stroke:#000000;stroke-width:0.5;" x="64.0511811024" xlink:href="#md823693718" y="24.4823728269"/>
     <use style="stroke:#000000;stroke-width:0.5;" x="80.1614173228" xlink:href="#md823693718" y="30.3655254959"/>
    </g>
   </g>
   <g id="line2d_2">
    <g clip-path="url(#p8c4466372c)">
     <use style="stroke:#000000;stroke-width:0.5;" x="15.7204724409" xlink:href="#md823693718" y="48.4251925573"/>
     <use style="stroke:#000000;stroke-width:0.5;" x="39.8858267717" xlink:href="#md823693718" y="33.9008571939"/>
     <use style="stroke:#000000;stroke-width:0.5;" x="47.9409448819" xlink:href="#md823693718" y="26.98364359"/>
     <use style="stroke:#000000;stroke-width:0.5;" x="64.0511811024" xlink:href="#md823693718" y="23.763998014"/>
     <use style="stroke:#000000;stroke-width:0.5;" x="80.1614173228" xlink:href="#md823693718" y="27.0062851696"/>
    </g>
   </g>
   <g id="line2d_3">
    <defs>
     <path d="M 0 2 
C 0.530406 2 1.03916 1.789267 1.414214 1.414214 
C 1.789267 1.03916 2 0.530406 2 0 
C 2 -0.530406 1.789267 -1.03916 1.414214 -1.414214 
C 1.03916 -1.789267 0.530406 -2 0 -2 
C -0.530406 -2 -1.03916 -1.789267 -1.414214 -1.414214 
C -1.789267 -1.03916 -2 -0.530406 -2 0 
C -2 0.530406 -1.789267 1.03916 -1.414214 1.414214 
C -1.03916 1.789267 -0.530406 2 0 2 
z
" id="m3bcaf576b6" style="stroke:#000000;stroke-width:0.5;"/>
    </defs>
    <g clip-path="url(#p8c4466372c)">
     <use style="stroke:#000000;stroke-width:0.5;" x="15.7204724409" xlink:href="#m3bcaf576b6" y="56.7789666245"/>
     <use style="stroke:#000000;stroke-width:0.5;" x="39.8858267717" xlink:href="#m3bcaf576b6" y="41.1046814014"/>
     <use style="stroke:#000000;stroke-width:0.5;" x="47.9409448819" xlink:href="#m3bcaf576b6" y="29.1240254961"/>
     <use style="stroke:#000000;stroke-width:0.5;" x="64.0511811024" xlink:href="#m3bcaf576b6" y="24.1231854205"/>
     <use style="stroke:#000000;stroke-width:0.5;" x="80.1614173228" xlink:href="#m3bcaf576b6" y="28.6859053327"/>
    </g>
   </g>
   <g id="patch_3">
    <path d="M 11.692913 18.425197 
L 84.188976 18.425197 
" style="fill:none;stroke:#000000;stroke-linecap:square;stroke-linejoin:miter;"/>
   </g>
   <g id="patch_4">
    <path d="M 84.188976 83.33214 
L 84.188976 18.425197 
" style="fill:none;stroke:#000000;stroke-linecap:square;stroke-linejoin:miter;"/>
   </g>
   <g id="patch_5">
    <path d="M 11.692913 83.33214 
L 84.188976 83.33214 
" style="fill:none;stroke:#000000;stroke-linecap:square;stroke-linejoin:miter;"/>
   </g>
   <g id="patch_6">
    <path d="M 11.692913 83.33214 
L 11.692913 18.425197 
" style="fill:none;stroke:#000000;stroke-linecap:square;stroke-linejoin:miter;"/>
   </g>
   <g id="matplotlib.axis_1">
    <g id="xtick_1">
     <g id="line2d_4">
      <defs>
       <path d="M 0 0 
L 0 -4 
" id="m4148c2cd7e" style="stroke:#000000;stroke-width:0.5;"/>
      </defs>
      <g>
       <use style="stroke:#000000;stroke-width:0.5;" x="15.7204724409" xlink:href="#m4148c2cd7e" y="83.3321403006"/>
      </g>
     </g>
     <g id="line2d_5">
      <defs>
       <path d="M 0 0 
L 0 4 
" id="mc363f62057" style="stroke:#000000;stroke-width:0.5;"/>
      </defs>
      <g>
       <use style="stroke:#000000;stroke-width:0.5;" x="15.7204724409" xlink:href="#mc363f62057" y="18.4251968504"/>
      </g>
     </g>
    </g>
    <g id="xtick_2">
     <g id="line2d_6">
      <g>
       <use style="stroke:#000000;stroke-width:0.5;" x="31.8307086614" xlink:href="#m4148c2cd7e" y="83.3321403006"/>
      </g>
     </g>
     <g id="line2d_7">
      <g>
       <use style="stroke:#000000;stroke-width:0.5;" x="31.8307086614" xlink:href="#mc363f62057" y="18.4251968504"/>
      </g>
     </g>
    </g>
    <g id="xtick_3">
     <g id="line2d_8">
      <g>
       <use style="stroke:#000000;stroke-width:0.5;" x="47.9409448819" xlink:href="#m4148c2cd7e" y="83.3321403006"/>
      </g>
     </g>
     <g id="line2d_9">
      <g>
       <use style="stroke:#000000;stroke-width:0.5;" x="47.9409448819" xlink:href="#mc363f62057" y="18.4251968504"/>
      </g>
     </g>
    </g>
    <g id="xtick_4">
     <g id="line2d_10">
      <g>
       <use style="stroke:#000000;stroke-width:0.5;" x="64.0511811024" xlink:href="#m4148c2cd7e" y="83.3321403006"/>
      </g>
     </g>
     <g id="line2d_11">
      <g>
       <use style="stroke:#000000;stroke-width:0.5;" x="64.0511811024" xlink:href="#mc363f62057" y="18.4251968504"/>
      </g>
     </g>
    </g>
    <g id="xtick_5">
     <g id="line2d_12">
      <g>
       <use style="stroke:#000000;stroke-width:0.5;" x="80.1614173228" xlink:href="#m4148c2cd7e" y="83.3321403006"/>
      </g>
     </g>
     <g id="line2d_13">
      <g>
       <use style="stroke:#000000;stroke-width:0.5;" x="80.1614173228" xlink:href="#mc363f62057" y="18.4251968504"/>
      </g>
     </g>
    </g>
   </g>
   <g id="matplotlib.axis_2">
    <g id="ytick_1">
     <g id="line2d_14">
      <defs>
       <path d="M 0 0 
L 4 0 
" id="m5d9bb9f821" style="stroke:#000000;stroke-width:0.5;"/>
      </defs>
      <g>
       <use style="stroke:#000000;stroke-width:0.5;" x="11.6929133858" xlink:href="#m5d9bb9f821" y="80.3818246893"/>
      </g>
     </g>
     <g id="line2d_15">
      <defs>
       <path d="M 0 0 
L -4 0 
" id="m6d3ef76401" style="stroke:#000000;stroke-width:0.5;"/>
      </defs>
      <g>
       <use style="stroke:#000000;stroke-width:0.5;" x="84.188976378" xlink:href="#m6d3ef76401" y="80.3818246893"/>
      </g>
     </g>
     <g id="text_1">
      <text style="font-family:Helvetica LT Std;font-size:8.0px;font-style:normal;font-weight:400;text-anchor:end;" transform="rotate(-0.000000, 7.692913, 82.718075)" x="7.69291338583" y="82.7180746893">0.8</text>
     </g>
    </g>
    <g id="ytick_2">
     <g id="line2d_16">
      <g>
       <use style="stroke:#000000;stroke-width:0.5;" x="11.6929133858" xlink:href="#m5d9bb9f821" y="50.8786685755"/>
      </g>
     </g>
     <g id="line2d_17">
      <g>
       <use style="stroke:#000000;stroke-width:0.5;" x="84.188976378" xlink:href="#m6d3ef76401" y="50.8786685755"/>
      </g>
     </g>
     <g id="text_2">
      <text style="font-family:Helvetica LT Std;font-size:8.0px;font-style:normal;font-weight:400;text-anchor:end;" transform="rotate(-0.000000, 7.692913, 53.214919)" x="7.69291338583" y="53.2149185755">0.9</text>
     </g>
    </g>
    <g id="ytick_3">
     <g id="line2d_18">
      <g>
       <use style="stroke:#000000;stroke-width:0.5;" x="11.6929133858" xlink:href="#m5d9bb9f821" y="21.3755124618"/>
      </g>
     </g>
     <g id="line2d_19">
      <g>
       <use style="stroke:#000000;stroke-width:0.5;" x="84.188976378" xlink:href="#m6d3ef76401" y="21.3755124618"/>
      </g>
     </g>
     <g id="text_3">
      <text style="font-family:Helvetica LT Std;font-size:8.0px;font-style:normal;font-weight:400;text-anchor:end;" transform="rotate(-0.000000, 7.692913, 23.711762)" x="7.69291338583" y="23.7117624618">1.0</text>
     </g>
    </g>
    <g id="ytick_4">
     <g id="line2d_20">
      <defs>
       <path d="M 0 0 
L 2 0 
" id="m5e021bed29" style="stroke:#000000;stroke-width:0.5;"/>
      </defs>
      <g>
       <use style="stroke:#000000;stroke-width:0.5;" x="11.6929133858" xlink:href="#m5e021bed29" y="65.6302466324"/>
      </g>
     </g>
     <g id="line2d_21">
      <defs>
       <path d="M 0 0 
L -2 0 
" id="m20abbb5e08" style="stroke:#000000;stroke-width:0.5;"/>
      </defs>
      <g>
       <use style="stroke:#000000;stroke-width:0.5;" x="84.188976378" xlink:href="#m20abbb5e08" y="65.6302466324"/>
      </g>
     </g>
    </g>
    <g id="ytick_5">
     <g id="line2d_22">
      <g>
       <use style="stroke:#000000;stroke-width:0.5;" x="11.6929133858" xlink:href="#m5e021bed29" y="36.1270905186"/>
      </g>
     </g>
     <g id="line2d_23">
      <g>
       <use style="stroke:#000000;stroke-width:0.5;" x="84.188976378" xlink:href="#m20abbb5e08" y="36.1270905186"/>
      </g>
     </g>
    </g>
    <g id="text_4">
     <text style="font-family:Helvetica LT Std;font-size:8.0px;font-style:normal;font-weight:400;text-anchor:middle;" transform="rotate(-90.000000, -4.985837, 50.878669)" x="-4.98583661417" y="50.8786685755">Growth fraction</text>
    </g>
   </g>
  </g>
  <g id="axes_2">
   <g id="patch_7">
    <path d="M 11.692913 161.220472 
L 84.188976 161.220472 
L 84.188976 96.313529 
L 11.692913 96.313529 
z
" style="fill:#ffffff;"/>
   </g>
   <g id="PolyCollection_4">
    <defs>
     <path d="M 15.720472 -23.031496 
L 15.720472 -23.031496 
L 16.371391 -23.057793 
L 17.02231 -23.08415 
L 17.673228 -23.110568 
L 18.324147 -23.137045 
L 18.975066 -23.163583 
L 19.625984 -23.190182 
L 20.276903 -23.216842 
L 20.927822 -23.243563 
L 21.57874 -23.270344 
L 22.229659 -23.297187 
L 22.880577 -23.324091 
L 23.531496 -23.351057 
L 24.182415 -23.378084 
L 24.833333 -23.405174 
L 25.484252 -23.432325 
L 26.135171 -23.459538 
L 26.786089 -23.486813 
L 27.437008 -23.514151 
L 28.087927 -23.541551 
L 28.738845 -23.569013 
L 29.389764 -23.596539 
L 30.040682 -23.624127 
L 30.691601 -23.651779 
L 31.34252 -23.679494 
L 31.993438 -23.707272 
L 32.644357 -23.735113 
L 33.295276 -23.763018 
L 33.946194 -23.790987 
L 34.597113 -23.81902 
L 35.248031 -23.847117 
L 35.89895 -23.875278 
L 36.549869 -23.903504 
L 37.200787 -23.931794 
L 37.851706 -23.960148 
L 38.502625 -23.988568 
L 39.153543 -24.017052 
L 39.804462 -24.045602 
L 40.455381 -24.076413 
L 41.106299 -24.112477 
L 41.757218 -24.152308 
L 42.408136 -24.198959 
L 43.059055 -24.24616 
L 43.709974 -24.285551 
L 44.360892 -24.327891 
L 45.011811 -24.369108 
L 45.66273 -24.422351 
L 46.313648 -24.49854 
L 46.964567 -24.588247 
L 47.615486 -24.698901 
L 48.266404 -24.828073 
L 48.917323 -24.96596 
L 49.568241 -25.107692 
L 50.21916 -25.253577 
L 50.870079 -25.387458 
L 51.520997 -25.529556 
L 52.171916 -25.673159 
L 52.822835 -25.814692 
L 53.473753 -25.955364 
L 54.124672 -26.10403 
L 54.775591 -26.247286 
L 55.426509 -26.387494 
L 56.077428 -26.533965 
L 56.728346 -26.686633 
L 57.379265 -26.83496 
L 58.030184 -26.985109 
L 58.681102 -27.136564 
L 59.332021 -27.283873 
L 59.98294 -27.435914 
L 60.633858 -27.585545 
L 61.284777 -27.733372 
L 61.935696 -27.883553 
L 62.586614 -28.038239 
L 63.237533 -28.197491 
L 63.888451 -28.346673 
L 64.53937 -28.497168 
L 65.190289 -28.648472 
L 65.841207 -28.810833 
L 66.492126 -28.964896 
L 67.143045 -29.123292 
L 67.793963 -29.280015 
L 68.444882 -29.427202 
L 69.095801 -29.580332 
L 69.746719 -29.741094 
L 70.397638 -29.898139 
L 71.048556 -30.061919 
L 71.699475 -30.224883 
L 72.350394 -30.387057 
L 73.001312 -30.547444 
L 73.652231 -30.708145 
L 74.30315 -30.878778 
L 74.954068 -31.048003 
L 75.604987 -31.21067 
L 76.255906 -31.39138 
L 76.906824 -31.566717 
L 77.557743 -31.738214 
L 78.208661 -31.908038 
L 78.85958 -32.07927 
L 79.510499 -32.247922 
L 80.161417 -32.426021 
L 80.161417 -72.36912 
L 80.161417 -72.36912 
L 79.510499 -71.041386 
L 78.85958 -69.742684 
L 78.208661 -68.472309 
L 77.557743 -67.229681 
L 76.906824 -66.014225 
L 76.255906 -64.825346 
L 75.604987 -63.662464 
L 74.954068 -62.48794 
L 74.30315 -61.300997 
L 73.652231 -60.131522 
L 73.001312 -59.086149 
L 72.350394 -58.002981 
L 71.699475 -56.944246 
L 71.048556 -55.909395 
L 70.397638 -54.897889 
L 69.746719 -53.9092 
L 69.095801 -52.994601 
L 68.444882 -52.173719 
L 67.793963 -51.275966 
L 67.143045 -50.379683 
L 66.492126 -49.50351 
L 65.841207 -48.646781 
L 65.190289 -47.904176 
L 64.53937 -47.150892 
L 63.888451 -46.401699 
L 63.237533 -45.523875 
L 62.586614 -44.877255 
L 61.935696 -44.10109 
L 61.284777 -43.342769 
L 60.633858 -42.672288 
L 59.98294 -41.973968 
L 59.332021 -41.296891 
L 58.681102 -40.601691 
L 58.030184 -39.978001 
L 57.379265 -39.381347 
L 56.728346 -38.778126 
L 56.077428 -38.123292 
L 55.426509 -37.484131 
L 54.775591 -36.957241 
L 54.124672 -36.418903 
L 53.473753 -35.895846 
L 52.822835 -35.313162 
L 52.171916 -34.87321 
L 51.520997 -34.417803 
L 50.870079 -33.956185 
L 50.21916 -33.538235 
L 49.568241 -33.031396 
L 48.917323 -32.616156 
L 48.266404 -32.142763 
L 47.615486 -31.74931 
L 46.964567 -31.369178 
L 46.313648 -31.041929 
L 45.66273 -30.698504 
L 45.011811 -30.35703 
L 44.360892 -30.04824 
L 43.709974 -29.736545 
L 43.059055 -29.431438 
L 42.408136 -29.167482 
L 41.757218 -28.938125 
L 41.106299 -28.738113 
L 40.455381 -28.53954 
L 39.804462 -28.36596 
L 39.153543 -28.192145 
L 38.502625 -28.020052 
L 37.851706 -27.849808 
L 37.200787 -27.682483 
L 36.549869 -27.516959 
L 35.89895 -27.353139 
L 35.248031 -27.191006 
L 34.597113 -27.030543 
L 33.946194 -26.871733 
L 33.295276 -26.714556 
L 32.644357 -26.558997 
L 31.993438 -26.405041 
L 31.34252 -26.252671 
L 30.691601 -26.101871 
L 30.040682 -25.952297 
L 29.389764 -25.803533 
L 28.738845 -25.657483 
L 28.087927 -25.51293 
L 27.437008 -25.36986 
L 26.786089 -25.228257 
L 26.135171 -25.088107 
L 25.484252 -24.949394 
L 24.833333 -24.812103 
L 24.182415 -24.67622 
L 23.531496 -24.541731 
L 22.880577 -24.408621 
L 22.229659 -24.276876 
L 21.57874 -24.146482 
L 20.927822 -24.017425 
L 20.276903 -23.889651 
L 19.625984 -23.763269 
L 18.975066 -23.638142 
L 18.324147 -23.514299 
L 17.673228 -23.391738 
L 17.02231 -23.270422 
L 16.371391 -23.15034 
L 15.720472 -23.031496 
z
" id="m79d7c995a2" style="stroke:#008000;stroke-opacity:0.2;"/>
    </defs>
    <g clip-path="url(#pa2036950b0)">
     <use style="fill:#008000;fill-opacity:0.2;stroke:#008000;stroke-opacity:0.2;" x="0.0" xlink:href="#m79d7c995a2" y="184.251968504"/>
    </g>
   </g>
   <g id="PolyCollection_5">
    <defs>
     <path d="M 15.720472 -23.031496 
L 15.720472 -23.031496 
L 16.371391 -23.067474 
L 17.02231 -23.103562 
L 17.673228 -23.139759 
L 18.324147 -23.176066 
L 18.975066 -23.212484 
L 19.625984 -23.249017 
L 20.276903 -23.285656 
L 20.927822 -23.322432 
L 21.57874 -23.359325 
L 22.229659 -23.396304 
L 22.880577 -23.433396 
L 23.531496 -23.470624 
L 24.182415 -23.507969 
L 24.833333 -23.545417 
L 25.484252 -23.582956 
L 26.135171 -23.62063 
L 26.786089 -23.658417 
L 27.437008 -23.696331 
L 28.087927 -23.734365 
L 28.738845 -23.772498 
L 29.389764 -23.810727 
L 30.040682 -23.849085 
L 30.691601 -23.887605 
L 31.34252 -23.926258 
L 31.993438 -23.964995 
L 32.644357 -24.003811 
L 33.295276 -24.042777 
L 33.946194 -24.081904 
L 34.597113 -24.121153 
L 35.248031 -24.160535 
L 35.89895 -24.200032 
L 36.549869 -24.239621 
L 37.200787 -24.27931 
L 37.851706 -24.319082 
L 38.502625 -24.35908 
L 39.153543 -24.399216 
L 39.804462 -24.439427 
L 40.455381 -24.482777 
L 41.106299 -24.53241 
L 41.757218 -24.588634 
L 42.408136 -24.650106 
L 43.059055 -24.713701 
L 43.709974 -24.783679 
L 44.360892 -24.855982 
L 45.011811 -24.936005 
L 45.66273 -25.022168 
L 46.313648 -25.120589 
L 46.964567 -25.2355 
L 47.615486 -25.362631 
L 48.266404 -25.507767 
L 48.917323 -25.658532 
L 49.568241 -25.80784 
L 50.21916 -25.958656 
L 50.870079 -26.110651 
L 51.520997 -26.2623 
L 52.171916 -26.418451 
L 52.822835 -26.574689 
L 53.473753 -26.731334 
L 54.124672 -26.889937 
L 54.775591 -27.049067 
L 55.426509 -27.20874 
L 56.077428 -27.369847 
L 56.728346 -27.532289 
L 57.379265 -27.69479 
L 58.030184 -27.856544 
L 58.681102 -28.019348 
L 59.332021 -28.18787 
L 59.98294 -28.355476 
L 60.633858 -28.524388 
L 61.284777 -28.698377 
L 61.935696 -28.870622 
L 62.586614 -29.045024 
L 63.237533 -29.218719 
L 63.888451 -29.393011 
L 64.53937 -29.567633 
L 65.190289 -29.743792 
L 65.841207 -29.925412 
L 66.492126 -30.108029 
L 67.143045 -30.290447 
L 67.793963 -30.475837 
L 68.444882 -30.663514 
L 69.095801 -30.85096 
L 69.746719 -31.040298 
L 70.397638 -31.230407 
L 71.048556 -31.423046 
L 71.699475 -31.616911 
L 72.350394 -31.813901 
L 73.001312 -32.012112 
L 73.652231 -32.208553 
L 74.30315 -32.407443 
L 74.954068 -32.6132 
L 75.604987 -32.816806 
L 76.255906 -33.022963 
L 76.906824 -33.230473 
L 77.557743 -33.441885 
L 78.208661 -33.653792 
L 78.85958 -33.872368 
L 79.510499 -34.088482 
L 80.161417 -34.306303 
L 80.161417 -48.356792 
L 80.161417 -48.356792 
L 79.510499 -47.811973 
L 78.85958 -47.271583 
L 78.208661 -46.742893 
L 77.557743 -46.221255 
L 76.906824 -45.706054 
L 76.255906 -45.195309 
L 75.604987 -44.68999 
L 74.954068 -44.205644 
L 74.30315 -43.716467 
L 73.652231 -43.236871 
L 73.001312 -42.769745 
L 72.350394 -42.297885 
L 71.699475 -41.844874 
L 71.048556 -41.392556 
L 70.397638 -40.949759 
L 69.746719 -40.50836 
L 69.095801 -40.07781 
L 68.444882 -39.652245 
L 67.793963 -39.239596 
L 67.143045 -38.82973 
L 66.492126 -38.4234 
L 65.841207 -38.02475 
L 65.190289 -37.62963 
L 64.53937 -37.240192 
L 63.888451 -36.855413 
L 63.237533 -36.481785 
L 62.586614 -36.11179 
L 61.935696 -35.75142 
L 61.284777 -35.397363 
L 60.633858 -35.043888 
L 59.98294 -34.705334 
L 59.332021 -34.36861 
L 58.681102 -34.035491 
L 58.030184 -33.708357 
L 57.379265 -33.38235 
L 56.728346 -33.062788 
L 56.077428 -32.74636 
L 55.426509 -32.441021 
L 54.775591 -32.139602 
L 54.124672 -31.841446 
L 53.473753 -31.553608 
L 52.822835 -31.268749 
L 52.171916 -30.98621 
L 51.520997 -30.699806 
L 50.870079 -30.42498 
L 50.21916 -30.156354 
L 49.568241 -29.892229 
L 48.917323 -29.632069 
L 48.266404 -29.374952 
L 47.615486 -29.124443 
L 46.964567 -28.881687 
L 46.313648 -28.645846 
L 45.66273 -28.414052 
L 45.011811 -28.193394 
L 44.360892 -27.981722 
L 43.709974 -27.784111 
L 43.059055 -27.60696 
L 42.408136 -27.438959 
L 41.757218 -27.281866 
L 41.106299 -27.135587 
L 40.455381 -27.003852 
L 39.804462 -26.880632 
L 39.153543 -26.761227 
L 38.502625 -26.642749 
L 37.851706 -26.524542 
L 37.200787 -26.407714 
L 36.549869 -26.2922 
L 35.89895 -26.177144 
L 35.248031 -26.062931 
L 34.597113 -25.949623 
L 33.946194 -25.837424 
L 33.295276 -25.726271 
L 32.644357 -25.615586 
L 31.993438 -25.506049 
L 31.34252 -25.39745 
L 30.691601 -25.289664 
L 30.040682 -25.18239 
L 29.389764 -25.076353 
L 28.738845 -24.971273 
L 28.087927 -24.866444 
L 27.437008 -24.762475 
L 26.786089 -24.659765 
L 26.135171 -24.55783 
L 25.484252 -24.456442 
L 24.833333 -24.356182 
L 24.182415 -24.256608 
L 23.531496 -24.157782 
L 22.880577 -24.059811 
L 22.229659 -23.962579 
L 21.57874 -23.866162 
L 20.927822 -23.770557 
L 20.276903 -23.67558 
L 19.625984 -23.58134 
L 18.975066 -23.487876 
L 18.324147 -23.395125 
L 17.673228 -23.303116 
L 17.02231 -23.211876 
L 16.371391 -23.121328 
L 15.720472 -23.031496 
z
" id="md40bebe8f4" style="stroke:#008000;stroke-opacity:0.2;"/>
    </defs>
    <g clip-path="url(#pa2036950b0)">
     <use style="fill:#008000;fill-opacity:0.2;stroke:#008000;stroke-opacity:0.2;" x="0.0" xlink:href="#md40bebe8f4" y="184.251968504"/>
    </g>
   </g>
   <g id="PolyCollection_6">
    <defs>
     <path d="M 15.720472 -23.031496 
L 15.720472 -23.031496 
L 16.371391 -23.079053 
L 17.02231 -23.12681 
L 17.673228 -23.174765 
L 18.324147 -23.222923 
L 18.975066 -23.271273 
L 19.625984 -23.319824 
L 20.276903 -23.368576 
L 20.927822 -23.41752 
L 21.57874 -23.466683 
L 22.229659 -23.516047 
L 22.880577 -23.565607 
L 23.531496 -23.615378 
L 24.182415 -23.665332 
L 24.833333 -23.715488 
L 25.484252 -23.765862 
L 26.135171 -23.816458 
L 26.786089 -23.867305 
L 27.437008 -23.91831 
L 28.087927 -23.969532 
L 28.738845 -24.020973 
L 29.389764 -24.072625 
L 30.040682 -24.124503 
L 30.691601 -24.176576 
L 31.34252 -24.22886 
L 31.993438 -24.281349 
L 32.644357 -24.334065 
L 33.295276 -24.387009 
L 33.946194 -24.440233 
L 34.597113 -24.49362 
L 35.248031 -24.547131 
L 35.89895 -24.601031 
L 36.549869 -24.655062 
L 37.200787 -24.709372 
L 37.851706 -24.763906 
L 38.502625 -24.818628 
L 39.153543 -24.873635 
L 39.804462 -24.928852 
L 40.455381 -24.986831 
L 41.106299 -25.051461 
L 41.757218 -25.124032 
L 42.408136 -25.201368 
L 43.059055 -25.285508 
L 43.709974 -25.375173 
L 44.360892 -25.472536 
L 45.011811 -25.576773 
L 45.66273 -25.68921 
L 46.313648 -25.815774 
L 46.964567 -25.951725 
L 47.615486 -26.100491 
L 48.266404 -26.258832 
L 48.917323 -26.420723 
L 49.568241 -26.584811 
L 50.21916 -26.750761 
L 50.870079 -26.918566 
L 51.520997 -27.087671 
L 52.171916 -27.259401 
L 52.822835 -27.431492 
L 53.473753 -27.604676 
L 54.124672 -27.780587 
L 54.775591 -27.957632 
L 55.426509 -28.137056 
L 56.077428 -28.3169 
L 56.728346 -28.499411 
L 57.379265 -28.68483 
L 58.030184 -28.872831 
L 58.681102 -29.059643 
L 59.332021 -29.247986 
L 59.98294 -29.438842 
L 60.633858 -29.631859 
L 61.284777 -29.826808 
L 61.935696 -30.024005 
L 62.586614 -30.222316 
L 63.237533 -30.422714 
L 63.888451 -30.625472 
L 64.53937 -30.830655 
L 65.190289 -31.036522 
L 65.841207 -31.24613 
L 66.492126 -31.458046 
L 67.143045 -31.672986 
L 67.793963 -31.888092 
L 68.444882 -32.105512 
L 69.095801 -32.325083 
L 69.746719 -32.547191 
L 70.397638 -32.770144 
L 71.048556 -32.997498 
L 71.699475 -33.227112 
L 72.350394 -33.457325 
L 73.001312 -33.691978 
L 73.652231 -33.927176 
L 74.30315 -34.167719 
L 74.954068 -34.407508 
L 75.604987 -34.651431 
L 76.255906 -34.896722 
L 76.906824 -35.14457 
L 77.557743 -35.395339 
L 78.208661 -35.649565 
L 78.85958 -35.904741 
L 79.510499 -36.164081 
L 80.161417 -36.4259 
L 80.161417 -42.695887 
L 80.161417 -42.695887 
L 79.510499 -42.291809 
L 78.85958 -41.894508 
L 78.208661 -41.497687 
L 77.557743 -41.109561 
L 76.906824 -40.726977 
L 76.255906 -40.347876 
L 75.604987 -39.973441 
L 74.954068 -39.607678 
L 74.30315 -39.246212 
L 73.652231 -38.886652 
L 73.001312 -38.530928 
L 72.350394 -38.181764 
L 71.699475 -37.835839 
L 71.048556 -37.49646 
L 70.397638 -37.159656 
L 69.746719 -36.828066 
L 69.095801 -36.501879 
L 68.444882 -36.178731 
L 67.793963 -35.861619 
L 67.143045 -35.549436 
L 66.492126 -35.240266 
L 65.841207 -34.936778 
L 65.190289 -34.634155 
L 64.53937 -34.336543 
L 63.888451 -34.046106 
L 63.237533 -33.759626 
L 62.586614 -33.476452 
L 61.935696 -33.195792 
L 61.284777 -32.916425 
L 60.633858 -32.642358 
L 59.98294 -32.372721 
L 59.332021 -32.106706 
L 58.681102 -31.844308 
L 58.030184 -31.584195 
L 57.379265 -31.331745 
L 56.728346 -31.080313 
L 56.077428 -30.831059 
L 55.426509 -30.584688 
L 54.775591 -30.343867 
L 54.124672 -30.107501 
L 53.473753 -29.871866 
L 52.822835 -29.641348 
L 52.171916 -29.410199 
L 51.520997 -29.18526 
L 50.870079 -28.963839 
L 50.21916 -28.743806 
L 49.568241 -28.527606 
L 48.917323 -28.314087 
L 48.266404 -28.103939 
L 47.615486 -27.8973 
L 46.964567 -27.696575 
L 46.313648 -27.50211 
L 45.66273 -27.316413 
L 45.011811 -27.140668 
L 44.360892 -26.974569 
L 43.709974 -26.816591 
L 43.059055 -26.668814 
L 42.408136 -26.533243 
L 41.757218 -26.406316 
L 41.106299 -26.291469 
L 40.455381 -26.186714 
L 39.804462 -26.091133 
L 39.153543 -25.998292 
L 38.502625 -25.90608 
L 37.851706 -25.814679 
L 37.200787 -25.72378 
L 36.549869 -25.633481 
L 35.89895 -25.543748 
L 35.248031 -25.454621 
L 34.597113 -25.366137 
L 33.946194 -25.278121 
L 33.295276 -25.190682 
L 32.644357 -25.103854 
L 31.993438 -25.017661 
L 31.34252 -24.931834 
L 30.691601 -24.846679 
L 30.040682 -24.762059 
L 29.389764 -24.677962 
L 28.738845 -24.59443 
L 28.087927 -24.511409 
L 27.437008 -24.428943 
L 26.786089 -24.346978 
L 26.135171 -24.265529 
L 25.484252 -24.184586 
L 24.833333 -24.104156 
L 24.182415 -24.024261 
L 23.531496 -23.944874 
L 22.880577 -23.866028 
L 22.229659 -23.787693 
L 21.57874 -23.709841 
L 20.927822 -23.632504 
L 20.276903 -23.555663 
L 19.625984 -23.479342 
L 18.975066 -23.403496 
L 18.324147 -23.328131 
L 17.673228 -23.253259 
L 17.02231 -23.178859 
L 16.371391 -23.104938 
L 15.720472 -23.031496 
z
" id="m23b73a60c8" style="stroke:#008000;stroke-opacity:0.2;"/>
    </defs>
    <g clip-path="url(#pa2036950b0)">
     <use style="fill:#008000;fill-opacity:0.2;stroke:#008000;stroke-opacity:0.2;" x="0.0" xlink:href="#m23b73a60c8" y="184.251968504"/>
    </g>
   </g>
   <g id="LineCollection_2">
    <path clip-path="url(#pa2036950b0)" d="M 15.720472 161.220472 
L 15.720472 161.220472 
" style="fill:none;stroke:#000000;"/>
    <path clip-path="url(#pa2036950b0)" d="M 31.830709 160.449799 
L 31.830709 160.157525 
" style="fill:none;stroke:#000000;"/>
    <path clip-path="url(#pa2036950b0)" d="M 39.885827 158.908993 
L 39.885827 158.232763 
" style="fill:none;stroke:#000000;"/>
    <path clip-path="url(#pa2036950b0)" d="M 47.940945 154.560085 
L 47.940945 153.220004 
" style="fill:none;stroke:#000000;"/>
    <path clip-path="url(#pa2036950b0)" d="M 64.051181 141.395781 
L 64.051181 139.5534 
" style="fill:none;stroke:#000000;"/>
    <path clip-path="url(#pa2036950b0)" d="M 80.161417 125.766562 
L 80.161417 123.418784 
" style="fill:none;stroke:#000000;"/>
   </g>
   <g id="line2d_24">
    <g clip-path="url(#pa2036950b0)">
     <use style="stroke:#000000;stroke-width:0.5;" x="15.7204724409" xlink:href="#md823693718" y="161.220472441"/>
     <use style="stroke:#000000;stroke-width:0.5;" x="31.8307086614" xlink:href="#md823693718" y="160.449799043"/>
     <use style="stroke:#000000;stroke-width:0.5;" x="39.8858267717" xlink:href="#md823693718" y="158.90899334"/>
     <use style="stroke:#000000;stroke-width:0.5;" x="47.9409448819" xlink:href="#md823693718" y="154.560085423"/>
     <use style="stroke:#000000;stroke-width:0.5;" x="64.0511811024" xlink:href="#md823693718" y="141.395780796"/>
     <use style="stroke:#000000;stroke-width:0.5;" x="80.1614173228" xlink:href="#md823693718" y="125.766561584"/>
    </g>
   </g>
   <g id="line2d_25">
    <g clip-path="url(#pa2036950b0)">
     <use style="stroke:#000000;stroke-width:0.5;" x="15.7204724409" xlink:href="#md823693718" y="161.220472441"/>
     <use style="stroke:#000000;stroke-width:0.5;" x="31.8307086614" xlink:href="#md823693718" y="160.157524686"/>
     <use style="stroke:#000000;stroke-width:0.5;" x="39.8858267717" xlink:href="#md823693718" y="158.23276323"/>
     <use style="stroke:#000000;stroke-width:0.5;" x="47.9409448819" xlink:href="#md823693718" y="153.220003607"/>
     <use style="stroke:#000000;stroke-width:0.5;" x="64.0511811024" xlink:href="#md823693718" y="139.553400485"/>
     <use style="stroke:#000000;stroke-width:0.5;" x="80.1614173228" xlink:href="#md823693718" y="123.418784246"/>
    </g>
   </g>
   <g id="line2d_26">
    <g clip-path="url(#pa2036950b0)">
     <use style="stroke:#000000;stroke-width:0.5;" x="15.7204724409" xlink:href="#m3bcaf576b6" y="161.220472441"/>
     <use style="stroke:#000000;stroke-width:0.5;" x="31.8307086614" xlink:href="#m3bcaf576b6" y="160.303661865"/>
     <use style="stroke:#000000;stroke-width:0.5;" x="39.8858267717" xlink:href="#m3bcaf576b6" y="158.570878285"/>
     <use style="stroke:#000000;stroke-width:0.5;" x="47.9409448819" xlink:href="#m3bcaf576b6" y="153.890044515"/>
     <use style="stroke:#000000;stroke-width:0.5;" x="64.0511811024" xlink:href="#m3bcaf576b6" y="140.474590641"/>
     <use style="stroke:#000000;stroke-width:0.5;" x="80.1614173228" xlink:href="#m3bcaf576b6" y="124.592672915"/>
    </g>
   </g>
   <g id="patch_8">
    <path d="M 11.692913 96.313529 
L 84.188976 96.313529 
" style="fill:none;stroke:#000000;stroke-linecap:square;stroke-linejoin:miter;"/>
   </g>
   <g id="patch_9">
    <path d="M 84.188976 161.220472 
L 84.188976 96.313529 
" style="fill:none;stroke:#000000;stroke-linecap:square;stroke-linejoin:miter;"/>
   </g>
   <g id="patch_10">
    <path d="M 11.692913 161.220472 
L 84.188976 161.220472 
" style="fill:none;stroke:#000000;stroke-linecap:square;stroke-linejoin:miter;"/>
   </g>
   <g id="patch_11">
    <path d="M 11.692913 161.220472 
L 11.692913 96.313529 
" style="fill:none;stroke:#000000;stroke-linecap:square;stroke-linejoin:miter;"/>
   </g>
   <g id="matplotlib.axis_3">
    <g id="xtick_6">
     <g id="line2d_27">
      <g>
       <use style="stroke:#000000;stroke-width:0.5;" x="15.7204724409" xlink:href="#m4148c2cd7e" y="161.220472441"/>
      </g>
     </g>
     <g id="line2d_28">
      <g>
       <use style="stroke:#000000;stroke-width:0.5;" x="15.7204724409" xlink:href="#mc363f62057" y="96.3135289907"/>
      </g>
     </g>
     <g id="text_5">
      <text style="font-family:Helvetica LT Std;font-size:8.0px;font-style:normal;font-weight:400;text-anchor:middle;" transform="rotate(-0.000000, 15.720472, 170.916722)" x="15.7204724409" y="170.916722441">0</text>
     </g>
    </g>
    <g id="xtick_7">
     <g id="line2d_29">
      <g>
       <use style="stroke:#000000;stroke-width:0.5;" x="31.8307086614" xlink:href="#m4148c2cd7e" y="161.220472441"/>
      </g>
     </g>
     <g id="line2d_30">
      <g>
       <use style="stroke:#000000;stroke-width:0.5;" x="31.8307086614" xlink:href="#mc363f62057" y="96.3135289907"/>
      </g>
     </g>
     <g id="text_6">
      <text style="font-family:Helvetica LT Std;font-size:8.0px;font-style:normal;font-weight:400;text-anchor:middle;" transform="rotate(-0.000000, 31.830709, 170.916722)" x="31.8307086614" y="170.916722441">2</text>
     </g>
    </g>
    <g id="xtick_8">
     <g id="line2d_31">
      <g>
       <use style="stroke:#000000;stroke-width:0.5;" x="47.9409448819" xlink:href="#m4148c2cd7e" y="161.220472441"/>
      </g>
     </g>
     <g id="line2d_32">
      <g>
       <use style="stroke:#000000;stroke-width:0.5;" x="47.9409448819" xlink:href="#mc363f62057" y="96.3135289907"/>
      </g>
     </g>
     <g id="text_7">
      <text style="font-family:Helvetica LT Std;font-size:8.0px;font-style:normal;font-weight:400;text-anchor:middle;" transform="rotate(-0.000000, 47.940945, 170.916722)" x="47.9409448819" y="170.916722441">4</text>
     </g>
    </g>
    <g id="xtick_9">
     <g id="line2d_33">
      <g>
       <use style="stroke:#000000;stroke-width:0.5;" x="64.0511811024" xlink:href="#m4148c2cd7e" y="161.220472441"/>
      </g>
     </g>
     <g id="line2d_34">
      <g>
       <use style="stroke:#000000;stroke-width:0.5;" x="64.0511811024" xlink:href="#mc363f62057" y="96.3135289907"/>
      </g>
     </g>
     <g id="text_8">
      <text style="font-family:Helvetica LT Std;font-size:8.0px;font-style:normal;font-weight:400;text-anchor:middle;" transform="rotate(-0.000000, 64.051181, 170.916722)" x="64.0511811024" y="170.916722441">6</text>
     </g>
    </g>
    <g id="xtick_10">
     <g id="line2d_35">
      <g>
       <use style="stroke:#000000;stroke-width:0.5;" x="80.1614173228" xlink:href="#m4148c2cd7e" y="161.220472441"/>
      </g>
     </g>
     <g id="line2d_36">
      <g>
       <use style="stroke:#000000;stroke-width:0.5;" x="80.1614173228" xlink:href="#mc363f62057" y="96.3135289907"/>
      </g>
     </g>
     <g id="text_9">
      <text style="font-family:Helvetica LT Std;font-size:8.0px;font-style:normal;font-weight:400;text-anchor:middle;" transform="rotate(-0.000000, 80.161417, 170.916722)" x="80.1614173228" y="170.916722441">8</text>
     </g>
    </g>
    <g id="text_10">
     <text style="font-family:Helvetica LT Std;font-size:8.0px;font-style:normal;font-weight:400;text-anchor:middle;" transform="rotate(-0.000000, 47.940945, 182.636722)" x="47.9409448819" y="182.636722441">Time (days)</text>
    </g>
   </g>
   <g id="matplotlib.axis_4">
    <g id="ytick_6">
     <g id="line2d_37">
      <g>
       <use style="stroke:#000000;stroke-width:0.5;" x="11.6929133858" xlink:href="#m5d9bb9f821" y="161.220472441"/>
      </g>
     </g>
     <g id="line2d_38">
      <g>
       <use style="stroke:#000000;stroke-width:0.5;" x="84.188976378" xlink:href="#m6d3ef76401" y="161.220472441"/>
      </g>
     </g>
     <g id="text_11">
      <text style="font-family:Helvetica LT Std;font-size:8.0px;font-style:normal;font-weight:400;text-anchor:end;" transform="rotate(-0.000000, 7.692913, 163.556722)" x="7.69291338583" y="163.556722441">0</text>
     </g>
    </g>
    <g id="ytick_7">
     <g id="line2d_39">
      <g>
       <use style="stroke:#000000;stroke-width:0.5;" x="11.6929133858" xlink:href="#m5d9bb9f821" y="144.993736578"/>
      </g>
     </g>
     <g id="line2d_40">
      <g>
       <use style="stroke:#000000;stroke-width:0.5;" x="84.188976378" xlink:href="#m6d3ef76401" y="144.993736578"/>
      </g>
     </g>
     <g id="text_12">
      <text style="font-family:Helvetica LT Std;font-size:8.0px;font-style:normal;font-weight:400;text-anchor:end;" transform="rotate(-0.000000, 7.692913, 147.329987)" x="7.69291338583" y="147.329986578">1</text>
     </g>
    </g>
    <g id="ytick_8">
     <g id="line2d_41">
      <g>
       <use style="stroke:#000000;stroke-width:0.5;" x="11.6929133858" xlink:href="#m5d9bb9f821" y="128.767000716"/>
      </g>
     </g>
     <g id="line2d_42">
      <g>
       <use style="stroke:#000000;stroke-width:0.5;" x="84.188976378" xlink:href="#m6d3ef76401" y="128.767000716"/>
      </g>
     </g>
     <g id="text_13">
      <text style="font-family:Helvetica LT Std;font-size:8.0px;font-style:normal;font-weight:400;text-anchor:end;" transform="rotate(-0.000000, 7.692913, 131.103251)" x="7.69291338583" y="131.103250716">2</text>
     </g>
    </g>
    <g id="ytick_9">
     <g id="line2d_43">
      <g>
       <use style="stroke:#000000;stroke-width:0.5;" x="11.6929133858" xlink:href="#m5d9bb9f821" y="112.540264853"/>
      </g>
     </g>
     <g id="line2d_44">
      <g>
       <use style="stroke:#000000;stroke-width:0.5;" x="84.188976378" xlink:href="#m6d3ef76401" y="112.540264853"/>
      </g>
     </g>
     <g id="text_14">
      <text style="font-family:Helvetica LT Std;font-size:8.0px;font-style:normal;font-weight:400;text-anchor:end;" transform="rotate(-0.000000, 7.692913, 114.876515)" x="7.69291338583" y="114.876514853">3</text>
     </g>
    </g>
    <g id="ytick_10">
     <g id="line2d_45">
      <g>
       <use style="stroke:#000000;stroke-width:0.5;" x="11.6929133858" xlink:href="#m5d9bb9f821" y="96.3135289907"/>
      </g>
     </g>
     <g id="line2d_46">
      <g>
       <use style="stroke:#000000;stroke-width:0.5;" x="84.188976378" xlink:href="#m6d3ef76401" y="96.3135289907"/>
      </g>
     </g>
     <g id="text_15">
      <text style="font-family:Helvetica LT Std;font-size:8.0px;font-style:normal;font-weight:400;text-anchor:end;" transform="rotate(-0.000000, 7.692913, 98.649779)" x="7.69291338583" y="98.6497789907">4</text>
     </g>
    </g>
    <g id="text_16">
     <text style="font-family:Helvetica LT Std;font-size:8.0px;font-style:normal;font-weight:400;text-anchor:middle;" transform="rotate(-90.000000, -0.994587, 128.767001)" x="-0.994586614173" y="128.767000716">Outgrowth (mm)</text>
    </g>
   </g>
  </g>
  <g id="text_17">
   <text style="font-family:Helvetica LT Std;font-size:8.0px;font-style:normal;font-weight:400;text-anchor:middle;" transform="rotate(-0.000000, 46.771654, 9.492539)" x="46.7716535433" y="9.49253937008">Only divisions</text>
  </g>
 </g>
 <defs>
  <clipPath id="pa2036950b0">
   <rect height="64.9069434503" width="72.4960629921" x="11.6929133858" y="96.3135289907"/>
  </clipPath>
  <clipPath id="p8c4466372c">
   <rect height="64.9069434503" width="72.4960629921" x="11.6929133858" y="18.4251968504"/>
  </clipPath>
 </defs>
</svg>
