<?xml version="1.0" encoding="utf-8" standalone="no"?>
<!DOCTYPE svg PUBLIC "-//W3C//DTD SVG 1.1//EN"
  "http://www.w3.org/Graphics/SVG/1.1/DTD/svg11.dtd">
<!-- Created with matplotlib (http://matplotlib.org/) -->
<svg height="184pt" version="1.1" viewBox="0 0 93 184" width="93pt" xmlns="http://www.w3.org/2000/svg" xmlns:xlink="http://www.w3.org/1999/xlink">
 <defs>
  <style type="text/css">
*{stroke-linecap:butt;stroke-linejoin:round;stroke-miterlimit:100000;}
  </style>
 </defs>
 <g id="figure_1">
  <g id="patch_1">
   <path d="M 0 184.251969 
L 93.543307 184.251969 
L 93.543307 0 
L 0 0 
z
" style="fill:#ffffff;"/>
  </g>
  <g id="axes_1">
   <g id="patch_2">
    <path d="M 11.692913 83.33214 
L 84.188976 83.33214 
L 84.188976 18.425197 
L 11.692913 18.425197 
z
" style="fill:#ffffff;"/>
   </g>
   <g id="PolyCollection_1">
    <defs>
     <path d="M 15.720472 -147.518942 
L 15.720472 -100.729014 
L 16.371391 -101.008086 
L 17.02231 -101.305872 
L 17.673228 -101.634909 
L 18.324147 -101.910071 
L 18.975066 -102.191063 
L 19.625984 -102.491089 
L 20.276903 -102.786715 
L 20.927822 -103.083525 
L 21.57874 -103.379302 
L 22.229659 -103.68595 
L 22.880577 -103.941698 
L 23.531496 -104.216742 
L 24.182415 -104.504124 
L 24.833333 -104.816216 
L 25.484252 -105.041436 
L 26.135171 -105.353527 
L 26.786089 -105.636769 
L 27.437008 -105.959479 
L 28.087927 -106.208839 
L 28.738845 -106.436215 
L 29.389764 -106.680593 
L 30.040682 -106.932626 
L 30.691601 -107.19788 
L 31.34252 -107.488448 
L 31.993438 -107.72743 
L 32.644357 -108.005746 
L 33.295276 -108.243416 
L 33.946194 -108.480734 
L 34.597113 -108.767813 
L 35.248031 -109.004373 
L 35.89895 -109.278769 
L 36.549869 -109.554043 
L 37.200787 -109.796872 
L 37.851706 -110.029328 
L 38.502625 -110.227429 
L 39.153543 -110.490503 
L 39.804462 -110.784912 
L 40.455381 -111.034217 
L 41.106299 -111.270051 
L 41.757218 -111.510078 
L 42.408136 -111.831853 
L 43.059055 -112.108364 
L 43.709974 -112.458625 
L 44.360892 -112.734625 
L 45.011811 -113.070617 
L 45.66273 -113.449542 
L 46.313648 -113.826045 
L 46.964567 -114.267061 
L 47.615486 -114.736301 
L 48.266404 -115.146358 
L 48.917323 -115.571326 
L 49.568241 -116.022501 
L 50.21916 -116.502346 
L 50.870079 -116.924701 
L 51.520997 -117.325163 
L 52.171916 -117.736274 
L 52.822835 -118.13846 
L 53.473753 -118.530132 
L 54.124672 -118.908347 
L 54.775591 -119.30942 
L 55.426509 -119.693776 
L 56.077428 -120.106577 
L 56.728346 -120.475038 
L 57.379265 -120.88701 
L 58.030184 -121.25365 
L 58.681102 -121.630474 
L 59.332021 -121.992744 
L 59.98294 -122.377841 
L 60.633858 -122.758036 
L 61.284777 -123.107853 
L 61.935696 -123.457923 
L 62.586614 -123.818063 
L 63.237533 -124.198296 
L 63.888451 -124.575114 
L 64.53937 -124.918082 
L 65.190289 -125.26953 
L 65.841207 -125.643034 
L 66.492126 -125.982813 
L 67.143045 -126.320832 
L 67.793963 -126.625815 
L 68.444882 -127.002025 
L 69.095801 -127.349906 
L 69.746719 -127.626214 
L 70.397638 -127.941808 
L 71.048556 -128.278702 
L 71.699475 -128.617724 
L 72.350394 -128.929835 
L 73.001312 -129.255525 
L 73.652231 -129.570261 
L 74.30315 -129.886529 
L 74.954068 -130.200099 
L 75.604987 -130.506965 
L 76.255906 -130.787202 
L 76.906824 -131.10079 
L 77.557743 -131.386174 
L 78.208661 -131.657207 
L 78.85958 -131.963886 
L 79.510499 -132.22964 
L 80.161417 -132.515743 
L 80.161417 -157.124955 
L 80.161417 -157.124955 
L 79.510499 -157.024235 
L 78.85958 -156.930957 
L 78.208661 -156.811145 
L 77.557743 -156.714485 
L 76.906824 -156.61204 
L 76.255906 -156.520453 
L 75.604987 -156.421262 
L 74.954068 -156.315572 
L 74.30315 -156.21702 
L 73.652231 -156.08593 
L 73.001312 -155.970761 
L 72.350394 -155.863621 
L 71.699475 -155.757544 
L 71.048556 -155.658892 
L 70.397638 -155.550179 
L 69.746719 -155.450459 
L 69.095801 -155.32729 
L 68.444882 -155.224461 
L 67.793963 -155.114903 
L 67.143045 -155.01469 
L 66.492126 -154.910558 
L 65.841207 -154.808011 
L 65.190289 -154.699431 
L 64.53937 -154.590467 
L 63.888451 -154.474563 
L 63.237533 -154.35874 
L 62.586614 -154.231815 
L 61.935696 -154.110143 
L 61.284777 -153.979575 
L 60.633858 -153.875772 
L 59.98294 -153.748579 
L 59.332021 -153.634858 
L 58.681102 -153.495291 
L 58.030184 -153.383832 
L 57.379265 -153.260876 
L 56.728346 -153.124133 
L 56.077428 -153.005557 
L 55.426509 -152.891263 
L 54.775591 -152.762908 
L 54.124672 -152.634121 
L 53.473753 -152.51501 
L 52.822835 -152.376052 
L 52.171916 -152.249684 
L 51.520997 -152.105348 
L 50.870079 -151.976573 
L 50.21916 -151.854754 
L 49.568241 -151.699427 
L 48.917323 -151.552536 
L 48.266404 -151.413861 
L 47.615486 -151.273509 
L 46.964567 -151.139517 
L 46.313648 -151.005944 
L 45.66273 -150.897293 
L 45.011811 -150.762201 
L 44.360892 -150.647622 
L 43.709974 -150.554959 
L 43.059055 -150.453035 
L 42.408136 -150.373541 
L 41.757218 -150.292266 
L 41.106299 -150.189602 
L 40.455381 -150.122794 
L 39.804462 -150.0662 
L 39.153543 -150.00937 
L 38.502625 -149.952334 
L 37.851706 -149.902422 
L 37.200787 -149.848147 
L 36.549869 -149.780874 
L 35.89895 -149.732421 
L 35.248031 -149.663397 
L 34.597113 -149.580373 
L 33.946194 -149.500808 
L 33.295276 -149.440407 
L 32.644357 -149.361561 
L 31.993438 -149.283557 
L 31.34252 -149.208869 
L 30.691601 -149.137626 
L 30.040682 -149.065988 
L 29.389764 -148.998327 
L 28.738845 -148.946708 
L 28.087927 -148.869359 
L 27.437008 -148.800815 
L 26.786089 -148.7482 
L 26.135171 -148.685503 
L 25.484252 -148.616784 
L 24.833333 -148.539646 
L 24.182415 -148.47609 
L 23.531496 -148.421671 
L 22.880577 -148.347393 
L 22.229659 -148.270788 
L 21.57874 -148.198808 
L 20.927822 -148.116447 
L 20.276903 -148.043701 
L 19.625984 -147.971706 
L 18.975066 -147.894549 
L 18.324147 -147.821318 
L 17.673228 -147.756872 
L 17.02231 -147.674345 
L 16.371391 -147.594766 
L 15.720472 -147.518942 
z
" id="m2eaa983a72" style="stroke:#008000;stroke-opacity:0.2;"/>
    </defs>
    <g clip-path="url(#p1dc24cfafd)">
     <use style="fill:#008000;fill-opacity:0.2;stroke:#008000;stroke-opacity:0.2;" x="0.0" xlink:href="#m2eaa983a72" y="184.251968504"/>
    </g>
   </g>
   <g id="PolyCollection_2">
    <defs>
     <path d="M 15.720472 -142.36284 
L 15.720472 -109.737905 
L 16.371391 -109.991781 
L 17.02231 -110.260975 
L 17.673228 -110.518944 
L 18.324147 -110.771 
L 18.975066 -111.02775 
L 19.625984 -111.288954 
L 20.276903 -111.536773 
L 20.927822 -111.790255 
L 21.57874 -112.055153 
L 22.229659 -112.322494 
L 22.880577 -112.576312 
L 23.531496 -112.827851 
L 24.182415 -113.068346 
L 24.833333 -113.310069 
L 25.484252 -113.541965 
L 26.135171 -113.77422 
L 26.786089 -114.017693 
L 27.437008 -114.266496 
L 28.087927 -114.493516 
L 28.738845 -114.730725 
L 29.389764 -114.96367 
L 30.040682 -115.188399 
L 30.691601 -115.423568 
L 31.34252 -115.646844 
L 31.993438 -115.878468 
L 32.644357 -116.097836 
L 33.295276 -116.319882 
L 33.946194 -116.539654 
L 34.597113 -116.755134 
L 35.248031 -116.989765 
L 35.89895 -117.222973 
L 36.549869 -117.446789 
L 37.200787 -117.656315 
L 37.851706 -117.883629 
L 38.502625 -118.106902 
L 39.153543 -118.330917 
L 39.804462 -118.543393 
L 40.455381 -118.756675 
L 41.106299 -118.975473 
L 41.757218 -119.212518 
L 42.408136 -119.48568 
L 43.059055 -119.772083 
L 43.709974 -120.08391 
L 44.360892 -120.378928 
L 45.011811 -120.687629 
L 45.66273 -121.034356 
L 46.313648 -121.393873 
L 46.964567 -121.74177 
L 47.615486 -122.105613 
L 48.266404 -122.499231 
L 48.917323 -122.902775 
L 49.568241 -123.293944 
L 50.21916 -123.682424 
L 50.870079 -124.062331 
L 51.520997 -124.439032 
L 52.171916 -124.817746 
L 52.822835 -125.191175 
L 53.473753 -125.554046 
L 54.124672 -125.917644 
L 54.775591 -126.285539 
L 55.426509 -126.642607 
L 56.077428 -127.002458 
L 56.728346 -127.3549 
L 57.379265 -127.704256 
L 58.030184 -128.052507 
L 58.681102 -128.397008 
L 59.332021 -128.754261 
L 59.98294 -129.092531 
L 60.633858 -129.42841 
L 61.284777 -129.763358 
L 61.935696 -130.094117 
L 62.586614 -130.415457 
L 63.237533 -130.732796 
L 63.888451 -131.04871 
L 64.53937 -131.359692 
L 65.190289 -131.671907 
L 65.841207 -131.974645 
L 66.492126 -132.273935 
L 67.143045 -132.577653 
L 67.793963 -132.868395 
L 68.444882 -133.158599 
L 69.095801 -133.455526 
L 69.746719 -133.744347 
L 70.397638 -134.041856 
L 71.048556 -134.323126 
L 71.699475 -134.614558 
L 72.350394 -134.895342 
L 73.001312 -135.165916 
L 73.652231 -135.442548 
L 74.30315 -135.714746 
L 74.954068 -135.993564 
L 75.604987 -136.256328 
L 76.255906 -136.520675 
L 76.906824 -136.780872 
L 77.557743 -137.033895 
L 78.208661 -137.289653 
L 78.85958 -137.537038 
L 79.510499 -137.784704 
L 80.161417 -138.037714 
L 80.161417 -154.395913 
L 80.161417 -154.395913 
L 79.510499 -154.288257 
L 78.85958 -154.174648 
L 78.208661 -154.065799 
L 77.557743 -153.956518 
L 76.906824 -153.841757 
L 76.255906 -153.727246 
L 75.604987 -153.609942 
L 74.954068 -153.489127 
L 74.30315 -153.366568 
L 73.652231 -153.240758 
L 73.001312 -153.120007 
L 72.350394 -152.996002 
L 71.699475 -152.873549 
L 71.048556 -152.747467 
L 70.397638 -152.617629 
L 69.746719 -152.489699 
L 69.095801 -152.359655 
L 68.444882 -152.228548 
L 67.793963 -152.088612 
L 67.143045 -151.950698 
L 66.492126 -151.811896 
L 65.841207 -151.677854 
L 65.190289 -151.541366 
L 64.53937 -151.402263 
L 63.888451 -151.258153 
L 63.237533 -151.110094 
L 62.586614 -150.964223 
L 61.935696 -150.813207 
L 61.284777 -150.668966 
L 60.633858 -150.519888 
L 59.98294 -150.365235 
L 59.332021 -150.21617 
L 58.681102 -150.059275 
L 58.030184 -149.903799 
L 57.379265 -149.744362 
L 56.728346 -149.583723 
L 56.077428 -149.422017 
L 55.426509 -149.264476 
L 54.775591 -149.099439 
L 54.124672 -148.936658 
L 53.473753 -148.769923 
L 52.822835 -148.601085 
L 52.171916 -148.43076 
L 51.520997 -148.254061 
L 50.870079 -148.079716 
L 50.21916 -147.901865 
L 49.568241 -147.719532 
L 48.917323 -147.536782 
L 48.266404 -147.360046 
L 47.615486 -147.176473 
L 46.964567 -146.993689 
L 46.313648 -146.820117 
L 45.66273 -146.656812 
L 45.011811 -146.504555 
L 44.360892 -146.364638 
L 43.709974 -146.22445 
L 43.059055 -146.09137 
L 42.408136 -145.972606 
L 41.757218 -145.868886 
L 41.106299 -145.771297 
L 40.455381 -145.678853 
L 39.804462 -145.591153 
L 39.153543 -145.511819 
L 38.502625 -145.426763 
L 37.851706 -145.340701 
L 37.200787 -145.256403 
L 36.549869 -145.17234 
L 35.89895 -145.085844 
L 35.248031 -145.001344 
L 34.597113 -144.916685 
L 33.946194 -144.82525 
L 33.295276 -144.737275 
L 32.644357 -144.64496 
L 31.993438 -144.561188 
L 31.34252 -144.480939 
L 30.691601 -144.397901 
L 30.040682 -144.310396 
L 29.389764 -144.228963 
L 28.738845 -144.144071 
L 28.087927 -144.052526 
L 27.437008 -143.973536 
L 26.786089 -143.880931 
L 26.135171 -143.794126 
L 25.484252 -143.708924 
L 24.833333 -143.618754 
L 24.182415 -143.530549 
L 23.531496 -143.438418 
L 22.880577 -143.350757 
L 22.229659 -143.261746 
L 21.57874 -143.17496 
L 20.927822 -143.080045 
L 20.276903 -142.994924 
L 19.625984 -142.910169 
L 18.975066 -142.823694 
L 18.324147 -142.735981 
L 17.673228 -142.650397 
L 17.02231 -142.55146 
L 16.371391 -142.459476 
L 15.720472 -142.36284 
z
" id="m75cad39e2a" style="stroke:#008000;stroke-opacity:0.2;"/>
    </defs>
    <g clip-path="url(#p1dc24cfafd)">
     <use style="fill:#008000;fill-opacity:0.2;stroke:#008000;stroke-opacity:0.2;" x="0.0" xlink:href="#m75cad39e2a" y="184.251968504"/>
    </g>
   </g>
   <g id="PolyCollection_3">
    <defs>
     <path d="M 15.720472 -136.134414 
L 15.720472 -118.804624 
L 16.371391 -119.015797 
L 17.02231 -119.234143 
L 17.673228 -119.446775 
L 18.324147 -119.655276 
L 18.975066 -119.861177 
L 19.625984 -120.072891 
L 20.276903 -120.27905 
L 20.927822 -120.486737 
L 21.57874 -120.6953 
L 22.229659 -120.898714 
L 22.880577 -121.105601 
L 23.531496 -121.307951 
L 24.182415 -121.505658 
L 24.833333 -121.704475 
L 25.484252 -121.90597 
L 26.135171 -122.106163 
L 26.786089 -122.307521 
L 27.437008 -122.505881 
L 28.087927 -122.701823 
L 28.738845 -122.892918 
L 29.389764 -123.08832 
L 30.040682 -123.282989 
L 30.691601 -123.476446 
L 31.34252 -123.667839 
L 31.993438 -123.854671 
L 32.644357 -124.05013 
L 33.295276 -124.239295 
L 33.946194 -124.424719 
L 34.597113 -124.613019 
L 35.248031 -124.798149 
L 35.89895 -124.985174 
L 36.549869 -125.165889 
L 37.200787 -125.353635 
L 37.851706 -125.532773 
L 38.502625 -125.714846 
L 39.153543 -125.896185 
L 39.804462 -126.067151 
L 40.455381 -126.253137 
L 41.106299 -126.455674 
L 41.757218 -126.667648 
L 42.408136 -126.891736 
L 43.059055 -127.135092 
L 43.709974 -127.386967 
L 44.360892 -127.654068 
L 45.011811 -127.934627 
L 45.66273 -128.226985 
L 46.313648 -128.537025 
L 46.964567 -128.856561 
L 47.615486 -129.19096 
L 48.266404 -129.530948 
L 48.917323 -129.872688 
L 49.568241 -130.214797 
L 50.21916 -130.546548 
L 50.870079 -130.881248 
L 51.520997 -131.207409 
L 52.171916 -131.531362 
L 52.822835 -131.858052 
L 53.473753 -132.176173 
L 54.124672 -132.496797 
L 54.775591 -132.81105 
L 55.426509 -133.12311 
L 56.077428 -133.431959 
L 56.728346 -133.74096 
L 57.379265 -134.044548 
L 58.030184 -134.343096 
L 58.681102 -134.640827 
L 59.332021 -134.931389 
L 59.98294 -135.217263 
L 60.633858 -135.503501 
L 61.284777 -135.784398 
L 61.935696 -136.062674 
L 62.586614 -136.343134 
L 63.237533 -136.622303 
L 63.888451 -136.893054 
L 64.53937 -137.163925 
L 65.190289 -137.433461 
L 65.841207 -137.696891 
L 66.492126 -137.961269 
L 67.143045 -138.223272 
L 67.793963 -138.478764 
L 68.444882 -138.728799 
L 69.095801 -138.978522 
L 69.746719 -139.232342 
L 70.397638 -139.48159 
L 71.048556 -139.727863 
L 71.699475 -139.969814 
L 72.350394 -140.208941 
L 73.001312 -140.44827 
L 73.652231 -140.680503 
L 74.30315 -140.911826 
L 74.954068 -141.142882 
L 75.604987 -141.372796 
L 76.255906 -141.597987 
L 76.906824 -141.820977 
L 77.557743 -142.039028 
L 78.208661 -142.259694 
L 78.85958 -142.475046 
L 79.510499 -142.690061 
L 80.161417 -142.903086 
L 80.161417 -151.330234 
L 80.161417 -151.330234 
L 79.510499 -151.191382 
L 78.85958 -151.053449 
L 78.208661 -150.910855 
L 77.557743 -150.767388 
L 76.906824 -150.624455 
L 76.255906 -150.479818 
L 75.604987 -150.331286 
L 74.954068 -150.184003 
L 74.30315 -150.034959 
L 73.652231 -149.885448 
L 73.001312 -149.733048 
L 72.350394 -149.574956 
L 71.699475 -149.415384 
L 71.048556 -149.25656 
L 70.397638 -149.098158 
L 69.746719 -148.936406 
L 69.095801 -148.776747 
L 68.444882 -148.610634 
L 67.793963 -148.443354 
L 67.143045 -148.277668 
L 66.492126 -148.107317 
L 65.841207 -147.933105 
L 65.190289 -147.756004 
L 64.53937 -147.579038 
L 63.888451 -147.400883 
L 63.237533 -147.222229 
L 62.586614 -147.043404 
L 61.935696 -146.860797 
L 61.284777 -146.67504 
L 60.633858 -146.489262 
L 59.98294 -146.299494 
L 59.332021 -146.104942 
L 58.681102 -145.91108 
L 58.030184 -145.714874 
L 57.379265 -145.518987 
L 56.728346 -145.319066 
L 56.077428 -145.115011 
L 55.426509 -144.909706 
L 54.775591 -144.703071 
L 54.124672 -144.493871 
L 53.473753 -144.281027 
L 52.822835 -144.067386 
L 52.171916 -143.852961 
L 51.520997 -143.64031 
L 50.870079 -143.417657 
L 50.21916 -143.195688 
L 49.568241 -142.978001 
L 48.917323 -142.75096 
L 48.266404 -142.523099 
L 47.615486 -142.294041 
L 46.964567 -142.074444 
L 46.313648 -141.861064 
L 45.66273 -141.64926 
L 45.011811 -141.449791 
L 44.360892 -141.264374 
L 43.709974 -141.093205 
L 43.059055 -140.932007 
L 42.408136 -140.783013 
L 41.757218 -140.639185 
L 41.106299 -140.503736 
L 40.455381 -140.386518 
L 39.804462 -140.27524 
L 39.153543 -140.170663 
L 38.502625 -140.069118 
L 37.851706 -139.960004 
L 37.200787 -139.85054 
L 36.549869 -139.746597 
L 35.89895 -139.638895 
L 35.248031 -139.533478 
L 34.597113 -139.427388 
L 33.946194 -139.318756 
L 33.295276 -139.207645 
L 32.644357 -139.095866 
L 31.993438 -138.989189 
L 31.34252 -138.880359 
L 30.691601 -138.769093 
L 30.040682 -138.656867 
L 29.389764 -138.545172 
L 28.738845 -138.43501 
L 28.087927 -138.327091 
L 27.437008 -138.217598 
L 26.786089 -138.102406 
L 26.135171 -137.988721 
L 25.484252 -137.877265 
L 24.833333 -137.766189 
L 24.182415 -137.646497 
L 23.531496 -137.533387 
L 22.880577 -137.413731 
L 22.229659 -137.300718 
L 21.57874 -137.183866 
L 20.927822 -137.070948 
L 20.276903 -136.955589 
L 19.625984 -136.837107 
L 18.975066 -136.719877 
L 18.324147 -136.601507 
L 17.673228 -136.487659 
L 17.02231 -136.373322 
L 16.371391 -136.25581 
L 15.720472 -136.134414 
z
" id="m0e33bce4f9" style="stroke:#008000;stroke-opacity:0.2;"/>
    </defs>
    <g clip-path="url(#p1dc24cfafd)">
     <use style="fill:#008000;fill-opacity:0.2;stroke:#008000;stroke-opacity:0.2;" x="0.0" xlink:href="#m0e33bce4f9" y="184.251968504"/>
    </g>
   </g>
   <g id="LineCollection_1">
    <path clip-path="url(#p1dc24cfafd)" d="M 15.720472 65.132741 
L 15.720472 48.425193 
" style="fill:none;stroke:#000000;"/>
    <path clip-path="url(#p1dc24cfafd)" d="M 39.885827 48.308506 
L 39.885827 33.900857 
" style="fill:none;stroke:#000000;"/>
    <path clip-path="url(#p1dc24cfafd)" d="M 47.940945 31.264407 
L 47.940945 26.983644 
" style="fill:none;stroke:#000000;"/>
    <path clip-path="url(#p1dc24cfafd)" d="M 64.051181 24.482373 
L 64.051181 23.763998 
" style="fill:none;stroke:#000000;"/>
    <path clip-path="url(#p1dc24cfafd)" d="M 80.161417 30.365525 
L 80.161417 27.006285 
" style="fill:none;stroke:#000000;"/>
   </g>
   <g id="line2d_1">
    <defs>
     <path d="M 3 0 
L -3 -0 
" id="m5814606b7c" style="stroke:#000000;stroke-width:0.5;"/>
    </defs>
    <g clip-path="url(#p1dc24cfafd)">
     <use style="stroke:#000000;stroke-width:0.5;" x="15.7204724409" xlink:href="#m5814606b7c" y="65.1327406917"/>
     <use style="stroke:#000000;stroke-width:0.5;" x="39.8858267717" xlink:href="#m5814606b7c" y="48.3085056088"/>
     <use style="stroke:#000000;stroke-width:0.5;" x="47.9409448819" xlink:href="#m5814606b7c" y="31.2644074022"/>
     <use style="stroke:#000000;stroke-width:0.5;" x="64.0511811024" xlink:href="#m5814606b7c" y="24.4823728269"/>
     <use style="stroke:#000000;stroke-width:0.5;" x="80.1614173228" xlink:href="#m5814606b7c" y="30.3655254959"/>
    </g>
   </g>
   <g id="line2d_2">
    <g clip-path="url(#p1dc24cfafd)">
     <use style="stroke:#000000;stroke-width:0.5;" x="15.7204724409" xlink:href="#m5814606b7c" y="48.4251925573"/>
     <use style="stroke:#000000;stroke-width:0.5;" x="39.8858267717" xlink:href="#m5814606b7c" y="33.9008571939"/>
     <use style="stroke:#000000;stroke-width:0.5;" x="47.9409448819" xlink:href="#m5814606b7c" y="26.98364359"/>
     <use style="stroke:#000000;stroke-width:0.5;" x="64.0511811024" xlink:href="#m5814606b7c" y="23.763998014"/>
     <use style="stroke:#000000;stroke-width:0.5;" x="80.1614173228" xlink:href="#m5814606b7c" y="27.0062851696"/>
    </g>
   </g>
   <g id="line2d_3">
    <defs>
     <path d="M 0 2 
C 0.530406 2 1.03916 1.789267 1.414214 1.414214 
C 1.789267 1.03916 2 0.530406 2 0 
C 2 -0.530406 1.789267 -1.03916 1.414214 -1.414214 
C 1.03916 -1.789267 0.530406 -2 0 -2 
C -0.530406 -2 -1.03916 -1.789267 -1.414214 -1.414214 
C -1.789267 -1.03916 -2 -0.530406 -2 0 
C -2 0.530406 -1.789267 1.03916 -1.414214 1.414214 
C -1.03916 1.789267 -0.530406 2 0 2 
z
" id="m323efecaff" style="stroke:#000000;stroke-width:0.5;"/>
    </defs>
    <g clip-path="url(#p1dc24cfafd)">
     <use style="stroke:#000000;stroke-width:0.5;" x="15.7204724409" xlink:href="#m323efecaff" y="56.7789666245"/>
     <use style="stroke:#000000;stroke-width:0.5;" x="39.8858267717" xlink:href="#m323efecaff" y="41.1046814014"/>
     <use style="stroke:#000000;stroke-width:0.5;" x="47.9409448819" xlink:href="#m323efecaff" y="29.1240254961"/>
     <use style="stroke:#000000;stroke-width:0.5;" x="64.0511811024" xlink:href="#m323efecaff" y="24.1231854205"/>
     <use style="stroke:#000000;stroke-width:0.5;" x="80.1614173228" xlink:href="#m323efecaff" y="28.6859053327"/>
    </g>
   </g>
   <g id="patch_3">
    <path d="M 11.692913 18.425197 
L 84.188976 18.425197 
" style="fill:none;stroke:#000000;stroke-linecap:square;stroke-linejoin:miter;"/>
   </g>
   <g id="patch_4">
    <path d="M 84.188976 83.33214 
L 84.188976 18.425197 
" style="fill:none;stroke:#000000;stroke-linecap:square;stroke-linejoin:miter;"/>
   </g>
   <g id="patch_5">
    <path d="M 11.692913 83.33214 
L 84.188976 83.33214 
" style="fill:none;stroke:#000000;stroke-linecap:square;stroke-linejoin:miter;"/>
   </g>
   <g id="patch_6">
    <path d="M 11.692913 83.33214 
L 11.692913 18.425197 
" style="fill:none;stroke:#000000;stroke-linecap:square;stroke-linejoin:miter;"/>
   </g>
   <g id="matplotlib.axis_1">
    <g id="xtick_1">
     <g id="line2d_4">
      <defs>
       <path d="M 0 0 
L 0 -4 
" id="m18f6bd3c8a" style="stroke:#000000;stroke-width:0.5;"/>
      </defs>
      <g>
       <use style="stroke:#000000;stroke-width:0.5;" x="15.7204724409" xlink:href="#m18f6bd3c8a" y="83.3321403006"/>
      </g>
     </g>
     <g id="line2d_5">
      <defs>
       <path d="M 0 0 
L 0 4 
" id="mb0478218c2" style="stroke:#000000;stroke-width:0.5;"/>
      </defs>
      <g>
       <use style="stroke:#000000;stroke-width:0.5;" x="15.7204724409" xlink:href="#mb0478218c2" y="18.4251968504"/>
      </g>
     </g>
    </g>
    <g id="xtick_2">
     <g id="line2d_6">
      <g>
       <use style="stroke:#000000;stroke-width:0.5;" x="31.8307086614" xlink:href="#m18f6bd3c8a" y="83.3321403006"/>
      </g>
     </g>
     <g id="line2d_7">
      <g>
       <use style="stroke:#000000;stroke-width:0.5;" x="31.8307086614" xlink:href="#mb0478218c2" y="18.4251968504"/>
      </g>
     </g>
    </g>
    <g id="xtick_3">
     <g id="line2d_8">
      <g>
       <use style="stroke:#000000;stroke-width:0.5;" x="47.9409448819" xlink:href="#m18f6bd3c8a" y="83.3321403006"/>
      </g>
     </g>
     <g id="line2d_9">
      <g>
       <use style="stroke:#000000;stroke-width:0.5;" x="47.9409448819" xlink:href="#mb0478218c2" y="18.4251968504"/>
      </g>
     </g>
    </g>
    <g id="xtick_4">
     <g id="line2d_10">
      <g>
       <use style="stroke:#000000;stroke-width:0.5;" x="64.0511811024" xlink:href="#m18f6bd3c8a" y="83.3321403006"/>
      </g>
     </g>
     <g id="line2d_11">
      <g>
       <use style="stroke:#000000;stroke-width:0.5;" x="64.0511811024" xlink:href="#mb0478218c2" y="18.4251968504"/>
      </g>
     </g>
    </g>
    <g id="xtick_5">
     <g id="line2d_12">
      <g>
       <use style="stroke:#000000;stroke-width:0.5;" x="80.1614173228" xlink:href="#m18f6bd3c8a" y="83.3321403006"/>
      </g>
     </g>
     <g id="line2d_13">
      <g>
       <use style="stroke:#000000;stroke-width:0.5;" x="80.1614173228" xlink:href="#mb0478218c2" y="18.4251968504"/>
      </g>
     </g>
    </g>
   </g>
   <g id="matplotlib.axis_2">
    <g id="ytick_1">
     <g id="line2d_14">
      <defs>
       <path d="M 0 0 
L 4 0 
" id="m91e4b71a47" style="stroke:#000000;stroke-width:0.5;"/>
      </defs>
      <g>
       <use style="stroke:#000000;stroke-width:0.5;" x="11.6929133858" xlink:href="#m91e4b71a47" y="80.3818246893"/>
      </g>
     </g>
     <g id="line2d_15">
      <defs>
       <path d="M 0 0 
L -4 0 
" id="m34deb85e21" style="stroke:#000000;stroke-width:0.5;"/>
      </defs>
      <g>
       <use style="stroke:#000000;stroke-width:0.5;" x="84.188976378" xlink:href="#m34deb85e21" y="80.3818246893"/>
      </g>
     </g>
     <g id="text_1">
      <text style="font-family:Helvetica LT Std;font-size:8.0px;font-style:normal;font-weight:400;text-anchor:end;" transform="rotate(-0.000000, 7.692913, 82.718075)" x="7.69291338583" y="82.7180746893">0.8</text>
     </g>
    </g>
    <g id="ytick_2">
     <g id="line2d_16">
      <g>
       <use style="stroke:#000000;stroke-width:0.5;" x="11.6929133858" xlink:href="#m91e4b71a47" y="50.8786685755"/>
      </g>
     </g>
     <g id="line2d_17">
      <g>
       <use style="stroke:#000000;stroke-width:0.5;" x="84.188976378" xlink:href="#m34deb85e21" y="50.8786685755"/>
      </g>
     </g>
     <g id="text_2">
      <text style="font-family:Helvetica LT Std;font-size:8.0px;font-style:normal;font-weight:400;text-anchor:end;" transform="rotate(-0.000000, 7.692913, 53.214919)" x="7.69291338583" y="53.2149185755">0.9</text>
     </g>
    </g>
    <g id="ytick_3">
     <g id="line2d_18">
      <g>
       <use style="stroke:#000000;stroke-width:0.5;" x="11.6929133858" xlink:href="#m91e4b71a47" y="21.3755124618"/>
      </g>
     </g>
     <g id="line2d_19">
      <g>
       <use style="stroke:#000000;stroke-width:0.5;" x="84.188976378" xlink:href="#m34deb85e21" y="21.3755124618"/>
      </g>
     </g>
     <g id="text_3">
      <text style="font-family:Helvetica LT Std;font-size:8.0px;font-style:normal;font-weight:400;text-anchor:end;" transform="rotate(-0.000000, 7.692913, 23.711762)" x="7.69291338583" y="23.7117624618">1.0</text>
     </g>
    </g>
    <g id="ytick_4">
     <g id="line2d_20">
      <defs>
       <path d="M 0 0 
L 2 0 
" id="m78a4e87b4d" style="stroke:#000000;stroke-width:0.5;"/>
      </defs>
      <g>
       <use style="stroke:#000000;stroke-width:0.5;" x="11.6929133858" xlink:href="#m78a4e87b4d" y="65.6302466324"/>
      </g>
     </g>
     <g id="line2d_21">
      <defs>
       <path d="M 0 0 
L -2 0 
" id="m3df2aea24e" style="stroke:#000000;stroke-width:0.5;"/>
      </defs>
      <g>
       <use style="stroke:#000000;stroke-width:0.5;" x="84.188976378" xlink:href="#m3df2aea24e" y="65.6302466324"/>
      </g>
     </g>
    </g>
    <g id="ytick_5">
     <g id="line2d_22">
      <g>
       <use style="stroke:#000000;stroke-width:0.5;" x="11.6929133858" xlink:href="#m78a4e87b4d" y="36.1270905186"/>
      </g>
     </g>
     <g id="line2d_23">
      <g>
       <use style="stroke:#000000;stroke-width:0.5;" x="84.188976378" xlink:href="#m3df2aea24e" y="36.1270905186"/>
      </g>
     </g>
    </g>
    <g id="text_4">
     <text style="font-family:Helvetica LT Std;font-size:8.0px;font-style:normal;font-weight:400;text-anchor:middle;" transform="rotate(-90.000000, -4.985837, 50.878669)" x="-4.98583661417" y="50.8786685755">Growth fraction</text>
    </g>
   </g>
  </g>
  <g id="axes_2">
   <g id="patch_7">
    <path d="M 11.692913 161.220472 
L 84.188976 161.220472 
L 84.188976 96.313529 
L 11.692913 96.313529 
z
" style="fill:#ffffff;"/>
   </g>
   <g id="PolyCollection_4">
    <defs>
     <path d="M 15.720472 -23.031496 
L 15.720472 -23.031496 
L 16.371391 -23.070926 
L 17.02231 -23.110438 
L 17.673228 -23.150031 
L 18.324147 -23.189708 
L 18.975066 -23.229537 
L 19.625984 -23.269525 
L 20.276903 -23.309642 
L 20.927822 -23.349887 
L 21.57874 -23.390261 
L 22.229659 -23.430731 
L 22.880577 -23.471233 
L 23.531496 -23.511842 
L 24.182415 -23.552557 
L 24.833333 -23.59338 
L 25.484252 -23.63431 
L 26.135171 -23.675209 
L 26.786089 -23.716194 
L 27.437008 -23.757268 
L 28.087927 -23.798432 
L 28.738845 -23.839686 
L 29.389764 -23.881031 
L 30.040682 -23.922467 
L 30.691601 -23.96436 
L 31.34252 -24.006508 
L 31.993438 -24.048793 
L 32.644357 -24.091213 
L 33.295276 -24.133771 
L 33.946194 -24.176296 
L 34.597113 -24.21876 
L 35.248031 -24.261529 
L 35.89895 -24.304589 
L 36.549869 -24.347685 
L 37.200787 -24.390595 
L 37.851706 -24.433879 
L 38.502625 -24.477138 
L 39.153543 -24.520811 
L 39.804462 -24.564376 
L 40.455381 -24.609225 
L 41.106299 -24.663493 
L 41.757218 -24.731768 
L 42.408136 -24.7856 
L 43.059055 -24.840302 
L 43.709974 -24.91123 
L 44.360892 -24.96987 
L 45.011811 -25.053801 
L 45.66273 -25.13718 
L 46.313648 -25.245177 
L 46.964567 -25.370353 
L 47.615486 -25.503686 
L 48.266404 -25.65478 
L 48.917323 -25.806462 
L 49.568241 -25.95833 
L 50.21916 -26.118215 
L 50.870079 -26.275999 
L 51.520997 -26.423732 
L 52.171916 -26.578232 
L 52.822835 -26.74631 
L 53.473753 -26.902696 
L 54.124672 -27.06742 
L 54.775591 -27.234078 
L 55.426509 -27.401822 
L 56.077428 -27.563498 
L 56.728346 -27.728576 
L 57.379265 -27.886634 
L 58.030184 -28.060699 
L 58.681102 -28.233799 
L 59.332021 -28.40976 
L 59.98294 -28.590357 
L 60.633858 -28.756473 
L 61.284777 -28.922936 
L 61.935696 -29.094214 
L 62.586614 -29.274011 
L 63.237533 -29.45102 
L 63.888451 -29.612058 
L 64.53937 -29.790917 
L 65.190289 -29.973301 
L 65.841207 -30.145515 
L 66.492126 -30.319913 
L 67.143045 -30.506366 
L 67.793963 -30.703664 
L 68.444882 -30.892015 
L 69.095801 -31.088613 
L 69.746719 -31.285711 
L 70.397638 -31.484656 
L 71.048556 -31.686666 
L 71.699475 -31.880279 
L 72.350394 -32.068558 
L 73.001312 -32.274378 
L 73.652231 -32.476959 
L 74.30315 -32.673677 
L 74.954068 -32.871357 
L 75.604987 -33.070464 
L 76.255906 -33.269826 
L 76.906824 -33.479703 
L 77.557743 -33.689573 
L 78.208661 -33.898569 
L 78.85958 -34.122837 
L 79.510499 -34.333477 
L 80.161417 -34.544152 
L 80.161417 -79.634247 
L 80.161417 -79.634247 
L 79.510499 -78.042606 
L 78.85958 -76.635072 
L 78.208661 -75.14571 
L 77.557743 -73.741117 
L 76.906824 -72.388898 
L 76.255906 -71.065959 
L 75.604987 -69.771755 
L 74.954068 -68.45893 
L 74.30315 -67.178508 
L 73.652231 -65.902703 
L 73.001312 -64.656899 
L 72.350394 -63.446802 
L 71.699475 -62.264337 
L 71.048556 -61.10895 
L 70.397638 -59.979656 
L 69.746719 -58.876096 
L 69.095801 -57.79364 
L 68.444882 -56.673984 
L 67.793963 -55.675451 
L 67.143045 -54.627293 
L 66.492126 -53.719954 
L 65.841207 -52.815063 
L 65.190289 -51.848125 
L 64.53937 -51.006294 
L 63.888451 -50.156799 
L 63.237533 -49.28961 
L 62.586614 -48.453177 
L 61.935696 -47.689336 
L 61.284777 -46.941228 
L 60.633858 -46.152553 
L 59.98294 -45.342809 
L 59.332021 -44.594566 
L 58.681102 -43.867428 
L 58.030184 -43.156111 
L 57.379265 -42.468121 
L 56.728346 -41.779371 
L 56.077428 -41.090937 
L 55.426509 -40.39186 
L 54.775591 -39.683192 
L 54.124672 -39.058115 
L 53.473753 -38.475721 
L 52.822835 -37.902446 
L 52.171916 -37.305856 
L 51.520997 -36.722274 
L 50.870079 -36.155863 
L 50.21916 -35.602947 
L 49.568241 -35.128533 
L 48.917323 -34.675759 
L 48.266404 -34.162471 
L 47.615486 -33.703759 
L 46.964567 -33.275463 
L 46.313648 -32.860294 
L 45.66273 -32.44079 
L 45.011811 -32.05166 
L 44.360892 -31.690551 
L 43.709974 -31.339336 
L 43.059055 -31.038805 
L 42.408136 -30.764436 
L 41.757218 -30.452377 
L 41.106299 -30.166609 
L 40.455381 -29.944606 
L 39.804462 -29.715116 
L 39.153543 -29.500448 
L 38.502625 -29.286044 
L 37.851706 -29.07386 
L 37.200787 -28.863879 
L 36.549869 -28.656079 
L 35.89895 -28.454222 
L 35.248031 -28.250299 
L 34.597113 -28.048771 
L 33.946194 -27.850234 
L 33.295276 -27.655784 
L 32.644357 -27.463132 
L 31.993438 -27.269165 
L 31.34252 -27.076543 
L 30.691601 -26.886012 
L 30.040682 -26.699082 
L 29.389764 -26.514439 
L 28.738845 -26.332835 
L 28.087927 -26.150433 
L 27.437008 -25.971748 
L 26.786089 -25.79477 
L 26.135171 -25.619483 
L 25.484252 -25.446632 
L 24.833333 -25.273993 
L 24.182415 -25.103602 
L 23.531496 -24.934912 
L 22.880577 -24.767829 
L 22.229659 -24.602336 
L 21.57874 -24.438418 
L 20.927822 -24.276385 
L 20.276903 -24.116183 
L 19.625984 -23.957316 
L 18.975066 -23.799772 
L 18.324147 -23.643353 
L 17.673228 -23.487804 
L 17.02231 -23.33399 
L 16.371391 -23.181927 
L 15.720472 -23.031496 
z
" id="mcf1df95c90" style="stroke:#008000;stroke-opacity:0.2;"/>
    </defs>
    <g clip-path="url(#p4547cd13bc)">
     <use style="fill:#008000;fill-opacity:0.2;stroke:#008000;stroke-opacity:0.2;" x="0.0" xlink:href="#mcf1df95c90" y="184.251968504"/>
    </g>
   </g>
   <g id="PolyCollection_5">
    <defs>
     <path d="M 15.720472 -23.031496 
L 15.720472 -23.031496 
L 16.371391 -23.085984 
L 17.02231 -23.140684 
L 17.673228 -23.195555 
L 18.324147 -23.25058 
L 18.975066 -23.305826 
L 19.625984 -23.361273 
L 20.276903 -23.416853 
L 20.927822 -23.472651 
L 21.57874 -23.528634 
L 22.229659 -23.584815 
L 22.880577 -23.641165 
L 23.531496 -23.697728 
L 24.182415 -23.754502 
L 24.833333 -23.811468 
L 25.484252 -23.868623 
L 26.135171 -23.926 
L 26.786089 -23.983549 
L 27.437008 -24.041405 
L 28.087927 -24.099414 
L 28.738845 -24.157778 
L 29.389764 -24.216182 
L 30.040682 -24.274724 
L 30.691601 -24.33368 
L 31.34252 -24.392509 
L 31.993438 -24.451414 
L 32.644357 -24.510788 
L 33.295276 -24.570356 
L 33.946194 -24.630234 
L 34.597113 -24.690264 
L 35.248031 -24.750484 
L 35.89895 -24.810926 
L 36.549869 -24.87176 
L 37.200787 -24.933049 
L 37.851706 -24.994425 
L 38.502625 -25.055638 
L 39.153543 -25.117094 
L 39.804462 -25.178874 
L 40.455381 -25.243775 
L 41.106299 -25.317326 
L 41.757218 -25.394674 
L 42.408136 -25.479799 
L 43.059055 -25.568857 
L 43.709974 -25.666516 
L 44.360892 -25.766718 
L 45.011811 -25.876879 
L 45.66273 -25.985801 
L 46.313648 -26.106941 
L 46.964567 -26.249122 
L 47.615486 -26.403384 
L 48.266404 -26.574429 
L 48.917323 -26.750473 
L 49.568241 -26.929381 
L 50.21916 -27.109255 
L 50.870079 -27.290441 
L 51.520997 -27.468969 
L 52.171916 -27.652269 
L 52.822835 -27.834226 
L 53.473753 -28.021683 
L 54.124672 -28.210543 
L 54.775591 -28.396855 
L 55.426509 -28.585017 
L 56.077428 -28.779377 
L 56.728346 -28.974863 
L 57.379265 -29.170963 
L 58.030184 -29.367491 
L 58.681102 -29.568329 
L 59.332021 -29.767995 
L 59.98294 -29.970642 
L 60.633858 -30.176051 
L 61.284777 -30.382806 
L 61.935696 -30.588007 
L 62.586614 -30.795236 
L 63.237533 -31.006754 
L 63.888451 -31.217548 
L 64.53937 -31.43297 
L 65.190289 -31.646848 
L 65.841207 -31.863074 
L 66.492126 -32.079307 
L 67.143045 -32.301316 
L 67.793963 -32.527154 
L 68.444882 -32.750979 
L 69.095801 -32.9784 
L 69.746719 -33.209239 
L 70.397638 -33.441739 
L 71.048556 -33.672206 
L 71.699475 -33.910556 
L 72.350394 -34.149545 
L 73.001312 -34.392036 
L 73.652231 -34.635746 
L 74.30315 -34.882544 
L 74.954068 -35.130302 
L 75.604987 -35.379451 
L 76.255906 -35.6345 
L 76.906824 -35.894616 
L 77.557743 -36.153964 
L 78.208661 -36.415637 
L 78.85958 -36.678094 
L 79.510499 -36.942536 
L 80.161417 -37.207256 
L 80.161417 -54.013367 
L 80.161417 -54.013367 
L 79.510499 -53.346547 
L 78.85958 -52.699203 
L 78.208661 -52.05496 
L 77.557743 -51.431788 
L 76.906824 -50.813706 
L 76.255906 -50.204772 
L 75.604987 -49.60295 
L 74.954068 -49.010515 
L 74.30315 -48.435305 
L 73.652231 -47.862528 
L 73.001312 -47.300619 
L 72.350394 -46.746207 
L 71.699475 -46.199528 
L 71.048556 -45.666731 
L 70.397638 -45.133056 
L 69.746719 -44.62166 
L 69.095801 -44.114716 
L 68.444882 -43.600906 
L 67.793963 -43.090675 
L 67.143045 -42.598711 
L 66.492126 -42.118782 
L 65.841207 -41.647022 
L 65.190289 -41.17423 
L 64.53937 -40.70104 
L 63.888451 -40.251813 
L 63.237533 -39.80762 
L 62.586614 -39.366903 
L 61.935696 -38.93959 
L 61.284777 -38.510865 
L 60.633858 -38.087359 
L 59.98294 -37.673636 
L 59.332021 -37.271156 
L 58.681102 -36.870352 
L 58.030184 -36.478591 
L 57.379265 -36.089437 
L 56.728346 -35.709981 
L 56.077428 -35.332463 
L 55.426509 -34.962989 
L 54.775591 -34.602547 
L 54.124672 -34.244639 
L 53.473753 -33.891739 
L 52.822835 -33.545207 
L 52.171916 -33.206225 
L 51.520997 -32.872405 
L 50.870079 -32.542501 
L 50.21916 -32.220154 
L 49.568241 -31.897751 
L 48.917323 -31.58304 
L 48.266404 -31.270298 
L 47.615486 -30.969766 
L 46.964567 -30.670428 
L 46.313648 -30.379286 
L 45.66273 -30.101766 
L 45.011811 -29.836656 
L 44.360892 -29.578917 
L 43.709974 -29.335247 
L 43.059055 -29.108305 
L 42.408136 -28.889838 
L 41.757218 -28.693954 
L 41.106299 -28.508656 
L 40.455381 -28.337353 
L 39.804462 -28.176256 
L 39.153543 -28.018152 
L 38.502625 -27.86111 
L 37.851706 -27.705037 
L 37.200787 -27.548499 
L 36.549869 -27.395047 
L 35.89895 -27.242399 
L 35.248031 -27.091115 
L 34.597113 -26.940986 
L 33.946194 -26.791876 
L 33.295276 -26.643708 
L 32.644357 -26.496588 
L 31.993438 -26.350081 
L 31.34252 -26.205186 
L 30.691601 -26.061424 
L 30.040682 -25.918847 
L 29.389764 -25.777634 
L 28.738845 -25.636936 
L 28.087927 -25.49738 
L 27.437008 -25.35886 
L 26.786089 -25.221004 
L 26.135171 -25.08482 
L 25.484252 -24.949532 
L 24.833333 -24.814723 
L 24.182415 -24.681382 
L 23.531496 -24.548902 
L 22.880577 -24.41721 
L 22.229659 -24.286328 
L 21.57874 -24.156747 
L 20.927822 -24.027904 
L 20.276903 -23.900062 
L 19.625984 -23.773252 
L 18.975066 -23.647377 
L 18.324147 -23.522396 
L 17.673228 -23.398413 
L 17.02231 -23.275187 
L 16.371391 -23.152883 
L 15.720472 -23.031496 
z
" id="md9fb814da7" style="stroke:#008000;stroke-opacity:0.2;"/>
    </defs>
    <g clip-path="url(#p4547cd13bc)">
     <use style="fill:#008000;fill-opacity:0.2;stroke:#008000;stroke-opacity:0.2;" x="0.0" xlink:href="#md9fb814da7" y="184.251968504"/>
    </g>
   </g>
   <g id="PolyCollection_6">
    <defs>
     <path d="M 15.720472 -23.031496 
L 15.720472 -23.031496 
L 16.371391 -23.101202 
L 17.02231 -23.171215 
L 17.673228 -23.241531 
L 18.324147 -23.312143 
L 18.975066 -23.383058 
L 19.625984 -23.454288 
L 20.276903 -23.525789 
L 20.927822 -23.597595 
L 21.57874 -23.669723 
L 22.229659 -23.742151 
L 22.880577 -23.815002 
L 23.531496 -23.888082 
L 24.182415 -23.961514 
L 24.833333 -24.035182 
L 25.484252 -24.10916 
L 26.135171 -24.1835 
L 26.786089 -24.258133 
L 27.437008 -24.333127 
L 28.087927 -24.408577 
L 28.738845 -24.484128 
L 29.389764 -24.560015 
L 30.040682 -24.636211 
L 30.691601 -24.712733 
L 31.34252 -24.789774 
L 31.993438 -24.866992 
L 32.644357 -24.944745 
L 33.295276 -25.022726 
L 33.946194 -25.100857 
L 34.597113 -25.179355 
L 35.248031 -25.258171 
L 35.89895 -25.337295 
L 36.549869 -25.416922 
L 37.200787 -25.497017 
L 37.851706 -25.577265 
L 38.502625 -25.657921 
L 39.153543 -25.738743 
L 39.804462 -25.820002 
L 40.455381 -25.904883 
L 41.106299 -25.996845 
L 41.757218 -26.094421 
L 42.408136 -26.200496 
L 43.059055 -26.31448 
L 43.709974 -26.435054 
L 44.360892 -26.562674 
L 45.011811 -26.700297 
L 45.66273 -26.844305 
L 46.313648 -27.002736 
L 46.964567 -27.173419 
L 47.615486 -27.356699 
L 48.266404 -27.549944 
L 48.917323 -27.748549 
L 49.568241 -27.948489 
L 50.21916 -28.147994 
L 50.870079 -28.352224 
L 51.520997 -28.558357 
L 52.171916 -28.766099 
L 52.822835 -28.97682 
L 53.473753 -29.189395 
L 54.124672 -29.403054 
L 54.775591 -29.619083 
L 55.426509 -29.83851 
L 56.077428 -30.059891 
L 56.728346 -30.282193 
L 57.379265 -30.509312 
L 58.030184 -30.736445 
L 58.681102 -30.966334 
L 59.332021 -31.197304 
L 59.98294 -31.432422 
L 60.633858 -31.668741 
L 61.284777 -31.909191 
L 61.935696 -32.151955 
L 62.586614 -32.39653 
L 63.237533 -32.642793 
L 63.888451 -32.892251 
L 64.53937 -33.143763 
L 65.190289 -33.396172 
L 65.841207 -33.652362 
L 66.492126 -33.912986 
L 67.143045 -34.174838 
L 67.793963 -34.438318 
L 68.444882 -34.707243 
L 69.095801 -34.979244 
L 69.746719 -35.252551 
L 70.397638 -35.527963 
L 71.048556 -35.807066 
L 71.699475 -36.089533 
L 72.350394 -36.374095 
L 73.001312 -36.663145 
L 73.652231 -36.953189 
L 74.30315 -37.245487 
L 74.954068 -37.542917 
L 75.604987 -37.842072 
L 76.255906 -38.144583 
L 76.906824 -38.450128 
L 77.557743 -38.760144 
L 78.208661 -39.071814 
L 78.85958 -39.387534 
L 79.510499 -39.705437 
L 80.161417 -40.028849 
L 80.161417 -47.665751 
L 80.161417 -47.665751 
L 79.510499 -47.172387 
L 78.85958 -46.689705 
L 78.208661 -46.21103 
L 77.557743 -45.737609 
L 76.906824 -45.270307 
L 76.255906 -44.80885 
L 75.604987 -44.35559 
L 74.954068 -43.907751 
L 74.30315 -43.466951 
L 73.652231 -43.032029 
L 73.001312 -42.6017 
L 72.350394 -42.173342 
L 71.699475 -41.755175 
L 71.048556 -41.339422 
L 70.397638 -40.931101 
L 69.746719 -40.527697 
L 69.095801 -40.131116 
L 68.444882 -39.737732 
L 67.793963 -39.35164 
L 67.143045 -38.966632 
L 66.492126 -38.588009 
L 65.841207 -38.21537 
L 65.190289 -37.848398 
L 64.53937 -37.486263 
L 63.888451 -37.127925 
L 63.237533 -36.77624 
L 62.586614 -36.426719 
L 61.935696 -36.079194 
L 61.284777 -35.739129 
L 60.633858 -35.404137 
L 59.98294 -35.075 
L 59.332021 -34.750405 
L 58.681102 -34.427506 
L 58.030184 -34.110631 
L 57.379265 -33.798082 
L 56.728346 -33.487395 
L 56.077428 -33.183043 
L 55.426509 -32.880286 
L 54.775591 -32.581645 
L 54.124672 -32.28836 
L 53.473753 -32.000705 
L 52.822835 -31.71575 
L 52.171916 -31.433504 
L 51.520997 -31.156638 
L 50.870079 -30.884058 
L 50.21916 -30.613153 
L 49.568241 -30.34598 
L 48.917323 -30.083805 
L 48.266404 -29.82532 
L 47.615486 -29.570716 
L 46.964567 -29.324377 
L 46.313648 -29.08589 
L 45.66273 -28.856532 
L 45.011811 -28.637815 
L 44.360892 -28.427727 
L 43.709974 -28.231061 
L 43.059055 -28.043794 
L 42.408136 -27.870369 
L 41.757218 -27.707767 
L 41.106299 -27.555319 
L 40.455381 -27.415032 
L 39.804462 -27.283422 
L 39.153543 -27.155598 
L 38.502625 -27.028296 
L 37.851706 -26.901845 
L 37.200787 -26.776328 
L 36.549869 -26.651391 
L 35.89895 -26.527288 
L 35.248031 -26.403949 
L 34.597113 -26.281223 
L 33.946194 -26.159446 
L 33.295276 -26.038549 
L 32.644357 -25.918028 
L 31.993438 -25.798453 
L 31.34252 -25.679602 
L 30.691601 -25.561473 
L 30.040682 -25.444054 
L 29.389764 -25.327215 
L 28.738845 -25.211247 
L 28.087927 -25.095888 
L 27.437008 -24.98139 
L 26.786089 -24.867293 
L 26.135171 -24.754061 
L 25.484252 -24.641314 
L 24.833333 -24.529509 
L 24.182415 -24.418274 
L 23.531496 -24.307673 
L 22.880577 -24.197841 
L 22.229659 -24.088619 
L 21.57874 -23.980026 
L 20.927822 -23.872143 
L 20.276903 -23.7649 
L 19.625984 -23.658202 
L 18.975066 -23.552137 
L 18.324147 -23.446747 
L 17.673228 -23.342007 
L 17.02231 -23.237883 
L 16.371391 -23.134376 
L 15.720472 -23.031496 
z
" id="m28485a3420" style="stroke:#008000;stroke-opacity:0.2;"/>
    </defs>
    <g clip-path="url(#p4547cd13bc)">
     <use style="fill:#008000;fill-opacity:0.2;stroke:#008000;stroke-opacity:0.2;" x="0.0" xlink:href="#m28485a3420" y="184.251968504"/>
    </g>
   </g>
   <g id="LineCollection_2">
    <path clip-path="url(#p4547cd13bc)" d="M 15.720472 161.220472 
L 15.720472 161.220472 
" style="fill:none;stroke:#000000;"/>
    <path clip-path="url(#p4547cd13bc)" d="M 31.830709 160.449799 
L 31.830709 160.157525 
" style="fill:none;stroke:#000000;"/>
    <path clip-path="url(#p4547cd13bc)" d="M 39.885827 158.908993 
L 39.885827 158.232763 
" style="fill:none;stroke:#000000;"/>
    <path clip-path="url(#p4547cd13bc)" d="M 47.940945 154.560085 
L 47.940945 153.220004 
" style="fill:none;stroke:#000000;"/>
    <path clip-path="url(#p4547cd13bc)" d="M 64.051181 141.395781 
L 64.051181 139.5534 
" style="fill:none;stroke:#000000;"/>
    <path clip-path="url(#p4547cd13bc)" d="M 80.161417 125.766562 
L 80.161417 123.418784 
" style="fill:none;stroke:#000000;"/>
   </g>
   <g id="line2d_24">
    <g clip-path="url(#p4547cd13bc)">
     <use style="stroke:#000000;stroke-width:0.5;" x="15.7204724409" xlink:href="#m5814606b7c" y="161.220472441"/>
     <use style="stroke:#000000;stroke-width:0.5;" x="31.8307086614" xlink:href="#m5814606b7c" y="160.449799043"/>
     <use style="stroke:#000000;stroke-width:0.5;" x="39.8858267717" xlink:href="#m5814606b7c" y="158.90899334"/>
     <use style="stroke:#000000;stroke-width:0.5;" x="47.9409448819" xlink:href="#m5814606b7c" y="154.560085423"/>
     <use style="stroke:#000000;stroke-width:0.5;" x="64.0511811024" xlink:href="#m5814606b7c" y="141.395780796"/>
     <use style="stroke:#000000;stroke-width:0.5;" x="80.1614173228" xlink:href="#m5814606b7c" y="125.766561584"/>
    </g>
   </g>
   <g id="line2d_25">
    <g clip-path="url(#p4547cd13bc)">
     <use style="stroke:#000000;stroke-width:0.5;" x="15.7204724409" xlink:href="#m5814606b7c" y="161.220472441"/>
     <use style="stroke:#000000;stroke-width:0.5;" x="31.8307086614" xlink:href="#m5814606b7c" y="160.157524686"/>
     <use style="stroke:#000000;stroke-width:0.5;" x="39.8858267717" xlink:href="#m5814606b7c" y="158.23276323"/>
     <use style="stroke:#000000;stroke-width:0.5;" x="47.9409448819" xlink:href="#m5814606b7c" y="153.220003607"/>
     <use style="stroke:#000000;stroke-width:0.5;" x="64.0511811024" xlink:href="#m5814606b7c" y="139.553400485"/>
     <use style="stroke:#000000;stroke-width:0.5;" x="80.1614173228" xlink:href="#m5814606b7c" y="123.418784246"/>
    </g>
   </g>
   <g id="line2d_26">
    <g clip-path="url(#p4547cd13bc)">
     <use style="stroke:#000000;stroke-width:0.5;" x="15.7204724409" xlink:href="#m323efecaff" y="161.220472441"/>
     <use style="stroke:#000000;stroke-width:0.5;" x="31.8307086614" xlink:href="#m323efecaff" y="160.303661865"/>
     <use style="stroke:#000000;stroke-width:0.5;" x="39.8858267717" xlink:href="#m323efecaff" y="158.570878285"/>
     <use style="stroke:#000000;stroke-width:0.5;" x="47.9409448819" xlink:href="#m323efecaff" y="153.890044515"/>
     <use style="stroke:#000000;stroke-width:0.5;" x="64.0511811024" xlink:href="#m323efecaff" y="140.474590641"/>
     <use style="stroke:#000000;stroke-width:0.5;" x="80.1614173228" xlink:href="#m323efecaff" y="124.592672915"/>
    </g>
   </g>
   <g id="patch_8">
    <path d="M 11.692913 96.313529 
L 84.188976 96.313529 
" style="fill:none;stroke:#000000;stroke-linecap:square;stroke-linejoin:miter;"/>
   </g>
   <g id="patch_9">
    <path d="M 84.188976 161.220472 
L 84.188976 96.313529 
" style="fill:none;stroke:#000000;stroke-linecap:square;stroke-linejoin:miter;"/>
   </g>
   <g id="patch_10">
    <path d="M 11.692913 161.220472 
L 84.188976 161.220472 
" style="fill:none;stroke:#000000;stroke-linecap:square;stroke-linejoin:miter;"/>
   </g>
   <g id="patch_11">
    <path d="M 11.692913 161.220472 
L 11.692913 96.313529 
" style="fill:none;stroke:#000000;stroke-linecap:square;stroke-linejoin:miter;"/>
   </g>
   <g id="matplotlib.axis_3">
    <g id="xtick_6">
     <g id="line2d_27">
      <g>
       <use style="stroke:#000000;stroke-width:0.5;" x="15.7204724409" xlink:href="#m18f6bd3c8a" y="161.220472441"/>
      </g>
     </g>
     <g id="line2d_28">
      <g>
       <use style="stroke:#000000;stroke-width:0.5;" x="15.7204724409" xlink:href="#mb0478218c2" y="96.3135289907"/>
      </g>
     </g>
     <g id="text_5">
      <text style="font-family:Helvetica LT Std;font-size:8.0px;font-style:normal;font-weight:400;text-anchor:middle;" transform="rotate(-0.000000, 15.720472, 170.916722)" x="15.7204724409" y="170.916722441">0</text>
     </g>
    </g>
    <g id="xtick_7">
     <g id="line2d_29">
      <g>
       <use style="stroke:#000000;stroke-width:0.5;" x="31.8307086614" xlink:href="#m18f6bd3c8a" y="161.220472441"/>
      </g>
     </g>
     <g id="line2d_30">
      <g>
       <use style="stroke:#000000;stroke-width:0.5;" x="31.8307086614" xlink:href="#mb0478218c2" y="96.3135289907"/>
      </g>
     </g>
     <g id="text_6">
      <text style="font-family:Helvetica LT Std;font-size:8.0px;font-style:normal;font-weight:400;text-anchor:middle;" transform="rotate(-0.000000, 31.830709, 170.916722)" x="31.8307086614" y="170.916722441">2</text>
     </g>
    </g>
    <g id="xtick_8">
     <g id="line2d_31">
      <g>
       <use style="stroke:#000000;stroke-width:0.5;" x="47.9409448819" xlink:href="#m18f6bd3c8a" y="161.220472441"/>
      </g>
     </g>
     <g id="line2d_32">
      <g>
       <use style="stroke:#000000;stroke-width:0.5;" x="47.9409448819" xlink:href="#mb0478218c2" y="96.3135289907"/>
      </g>
     </g>
     <g id="text_7">
      <text style="font-family:Helvetica LT Std;font-size:8.0px;font-style:normal;font-weight:400;text-anchor:middle;" transform="rotate(-0.000000, 47.940945, 170.916722)" x="47.9409448819" y="170.916722441">4</text>
     </g>
    </g>
    <g id="xtick_9">
     <g id="line2d_33">
      <g>
       <use style="stroke:#000000;stroke-width:0.5;" x="64.0511811024" xlink:href="#m18f6bd3c8a" y="161.220472441"/>
      </g>
     </g>
     <g id="line2d_34">
      <g>
       <use style="stroke:#000000;stroke-width:0.5;" x="64.0511811024" xlink:href="#mb0478218c2" y="96.3135289907"/>
      </g>
     </g>
     <g id="text_8">
      <text style="font-family:Helvetica LT Std;font-size:8.0px;font-style:normal;font-weight:400;text-anchor:middle;" transform="rotate(-0.000000, 64.051181, 170.916722)" x="64.0511811024" y="170.916722441">6</text>
     </g>
    </g>
    <g id="xtick_10">
     <g id="line2d_35">
      <g>
       <use style="stroke:#000000;stroke-width:0.5;" x="80.1614173228" xlink:href="#m18f6bd3c8a" y="161.220472441"/>
      </g>
     </g>
     <g id="line2d_36">
      <g>
       <use style="stroke:#000000;stroke-width:0.5;" x="80.1614173228" xlink:href="#mb0478218c2" y="96.3135289907"/>
      </g>
     </g>
     <g id="text_9">
      <text style="font-family:Helvetica LT Std;font-size:8.0px;font-style:normal;font-weight:400;text-anchor:middle;" transform="rotate(-0.000000, 80.161417, 170.916722)" x="80.1614173228" y="170.916722441">8</text>
     </g>
    </g>
    <g id="text_10">
     <text style="font-family:Helvetica LT Std;font-size:8.0px;font-style:normal;font-weight:400;text-anchor:middle;" transform="rotate(-0.000000, 47.940945, 182.636722)" x="47.9409448819" y="182.636722441">Time (days)</text>
    </g>
   </g>
   <g id="matplotlib.axis_4">
    <g id="ytick_6">
     <g id="line2d_37">
      <g>
       <use style="stroke:#000000;stroke-width:0.5;" x="11.6929133858" xlink:href="#m91e4b71a47" y="161.220472441"/>
      </g>
     </g>
     <g id="line2d_38">
      <g>
       <use style="stroke:#000000;stroke-width:0.5;" x="84.188976378" xlink:href="#m34deb85e21" y="161.220472441"/>
      </g>
     </g>
     <g id="text_11">
      <text style="font-family:Helvetica LT Std;font-size:8.0px;font-style:normal;font-weight:400;text-anchor:end;" transform="rotate(-0.000000, 7.692913, 163.556722)" x="7.69291338583" y="163.556722441">0</text>
     </g>
    </g>
    <g id="ytick_7">
     <g id="line2d_39">
      <g>
       <use style="stroke:#000000;stroke-width:0.5;" x="11.6929133858" xlink:href="#m91e4b71a47" y="144.993736578"/>
      </g>
     </g>
     <g id="line2d_40">
      <g>
       <use style="stroke:#000000;stroke-width:0.5;" x="84.188976378" xlink:href="#m34deb85e21" y="144.993736578"/>
      </g>
     </g>
     <g id="text_12">
      <text style="font-family:Helvetica LT Std;font-size:8.0px;font-style:normal;font-weight:400;text-anchor:end;" transform="rotate(-0.000000, 7.692913, 147.329987)" x="7.69291338583" y="147.329986578">1</text>
     </g>
    </g>
    <g id="ytick_8">
     <g id="line2d_41">
      <g>
       <use style="stroke:#000000;stroke-width:0.5;" x="11.6929133858" xlink:href="#m91e4b71a47" y="128.767000716"/>
      </g>
     </g>
     <g id="line2d_42">
      <g>
       <use style="stroke:#000000;stroke-width:0.5;" x="84.188976378" xlink:href="#m34deb85e21" y="128.767000716"/>
      </g>
     </g>
     <g id="text_13">
      <text style="font-family:Helvetica LT Std;font-size:8.0px;font-style:normal;font-weight:400;text-anchor:end;" transform="rotate(-0.000000, 7.692913, 131.103251)" x="7.69291338583" y="131.103250716">2</text>
     </g>
    </g>
    <g id="ytick_9">
     <g id="line2d_43">
      <g>
       <use style="stroke:#000000;stroke-width:0.5;" x="11.6929133858" xlink:href="#m91e4b71a47" y="112.540264853"/>
      </g>
     </g>
     <g id="line2d_44">
      <g>
       <use style="stroke:#000000;stroke-width:0.5;" x="84.188976378" xlink:href="#m34deb85e21" y="112.540264853"/>
      </g>
     </g>
     <g id="text_14">
      <text style="font-family:Helvetica LT Std;font-size:8.0px;font-style:normal;font-weight:400;text-anchor:end;" transform="rotate(-0.000000, 7.692913, 114.876515)" x="7.69291338583" y="114.876514853">3</text>
     </g>
    </g>
    <g id="ytick_10">
     <g id="line2d_45">
      <g>
       <use style="stroke:#000000;stroke-width:0.5;" x="11.6929133858" xlink:href="#m91e4b71a47" y="96.3135289907"/>
      </g>
     </g>
     <g id="line2d_46">
      <g>
       <use style="stroke:#000000;stroke-width:0.5;" x="84.188976378" xlink:href="#m34deb85e21" y="96.3135289907"/>
      </g>
     </g>
     <g id="text_15">
      <text style="font-family:Helvetica LT Std;font-size:8.0px;font-style:normal;font-weight:400;text-anchor:end;" transform="rotate(-0.000000, 7.692913, 98.649779)" x="7.69291338583" y="98.6497789907">4</text>
     </g>
    </g>
    <g id="text_16">
     <text style="font-family:Helvetica LT Std;font-size:8.0px;font-style:normal;font-weight:400;text-anchor:middle;" transform="rotate(-90.000000, -0.994587, 128.767001)" x="-0.994586614173" y="128.767000716">Outgrowth (mm)</text>
    </g>
   </g>
  </g>
  <g id="text_17">
   <text style="font-family:Helvetica LT Std;font-size:8.0px;font-style:normal;font-weight:400;text-anchor:middle;" transform="rotate(-0.000000, 46.771654, 9.381289)" x="46.7716535433" y="9.38128937008">No activation</text>
  </g>
 </g>
 <defs>
  <clipPath id="p4547cd13bc">
   <rect height="64.9069434503" width="72.4960629921" x="11.6929133858" y="96.3135289907"/>
  </clipPath>
  <clipPath id="p1dc24cfafd">
   <rect height="64.9069434503" width="72.4960629921" x="11.6929133858" y="18.4251968504"/>
  </clipPath>
 </defs>
</svg>
