<?xml version="1.0" encoding="utf-8" standalone="no"?>
<!DOCTYPE svg PUBLIC "-//W3C//DTD SVG 1.1//EN"
  "http://www.w3.org/Graphics/SVG/1.1/DTD/svg11.dtd">
<!-- Created with matplotlib (http://matplotlib.org/) -->
<svg height="147pt" version="1.1" viewBox="0 0 226 147" width="226pt" xmlns="http://www.w3.org/2000/svg" xmlns:xlink="http://www.w3.org/1999/xlink">
 <defs>
  <style type="text/css">
*{stroke-linecap:butt;stroke-linejoin:round;stroke-miterlimit:100000;}
  </style>
 </defs>
 <g id="figure_1">
  <g id="patch_1">
   <path d="M 0 147.401575 
L 226.771654 147.401575 
L 226.771654 0 
L 0 0 
z
" style="fill:#ffffff;"/>
  </g>
  <g id="axes_1">
   <g id="patch_2">
    <path d="M 32.85 115.001575 
L 110.010827 115.001575 
L 110.010827 13.95 
L 32.85 13.95 
z
" style="fill:#ffffff;"/>
   </g>
   <g id="PolyCollection_1">
    <defs>
     <path d="M 37.136713 -104.948691 
L 37.136713 -32.102927 
L 37.829515 -35.332161 
L 38.522317 -38.378961 
L 39.215119 -41.470275 
L 39.907921 -44.476096 
L 40.600723 -47.121705 
L 41.293525 -49.640154 
L 41.986327 -52.252812 
L 42.679129 -54.589337 
L 43.371931 -56.753308 
L 44.064733 -58.84956 
L 44.757535 -60.870611 
L 45.450337 -62.776496 
L 46.143139 -64.547966 
L 46.835941 -66.240014 
L 47.528743 -67.937947 
L 48.221545 -69.510458 
L 48.914347 -71.067019 
L 49.607149 -72.549267 
L 50.299951 -73.934178 
L 50.992753 -75.270926 
L 51.685555 -76.535881 
L 52.378357 -77.777533 
L 53.071159 -78.996505 
L 53.763961 -80.140066 
L 54.456764 -81.251691 
L 55.149566 -82.302686 
L 55.842368 -83.325917 
L 56.53517 -84.343159 
L 57.227972 -85.313126 
L 57.920774 -86.249745 
L 58.613576 -87.165053 
L 59.306378 -88.061122 
L 59.99918 -88.88965 
L 60.691982 -89.725501 
L 61.384784 -90.536511 
L 62.077586 -91.245312 
L 62.770388 -91.986923 
L 63.46319 -92.655785 
L 64.155992 -93.423684 
L 64.848794 -94.092111 
L 65.541596 -94.792961 
L 66.234398 -95.477148 
L 66.9272 -96.095397 
L 67.620002 -96.769806 
L 68.312804 -97.467372 
L 69.005606 -98.116289 
L 69.698408 -98.772449 
L 70.39121 -99.373845 
L 71.084012 -100.01195 
L 71.776814 -100.643653 
L 72.469616 -101.264043 
L 73.162418 -101.822422 
L 73.855221 -102.400823 
L 74.548023 -102.952615 
L 75.240825 -103.474682 
L 75.933627 -103.990919 
L 76.626429 -104.530588 
L 77.319231 -104.996445 
L 78.012033 -105.461437 
L 78.704835 -105.871617 
L 79.397637 -106.31093 
L 80.090439 -106.698609 
L 80.783241 -107.103344 
L 81.476043 -107.519071 
L 82.168845 -107.900334 
L 82.861647 -108.234306 
L 83.554449 -108.57947 
L 84.247251 -108.932706 
L 84.940053 -109.252016 
L 85.632855 -109.547439 
L 86.325657 -109.882767 
L 87.018459 -110.19602 
L 87.711261 -110.505576 
L 88.404063 -110.816445 
L 89.096865 -111.080349 
L 89.789667 -111.337744 
L 90.482469 -111.57409 
L 91.175271 -111.852242 
L 91.868073 -112.094273 
L 92.560875 -112.341165 
L 93.253678 -112.573027 
L 93.94648 -112.801735 
L 94.639282 -113.025187 
L 95.332084 -113.228984 
L 96.024886 -113.438557 
L 96.717688 -113.662451 
L 97.41049 -113.867919 
L 98.103292 -114.090903 
L 98.796094 -114.315579 
L 99.488896 -114.527333 
L 100.181698 -114.729795 
L 100.8745 -114.914584 
L 101.567302 -115.12057 
L 102.260104 -115.309197 
L 102.952906 -115.476448 
L 103.645708 -115.649205 
L 104.33851 -115.845553 
L 105.031312 -116.017118 
L 105.724114 -116.180496 
L 105.724114 -128.266494 
L 105.724114 -128.266494 
L 105.031312 -128.235469 
L 104.33851 -128.201728 
L 103.645708 -128.167273 
L 102.952906 -128.132775 
L 102.260104 -128.095796 
L 101.567302 -128.055031 
L 100.8745 -128.012944 
L 100.181698 -127.969558 
L 99.488896 -127.922829 
L 98.796094 -127.875036 
L 98.103292 -127.823936 
L 97.41049 -127.770349 
L 96.717688 -127.713451 
L 96.024886 -127.655766 
L 95.332084 -127.593865 
L 94.639282 -127.526679 
L 93.94648 -127.45611 
L 93.253678 -127.38031 
L 92.560875 -127.307315 
L 91.868073 -127.223085 
L 91.175271 -127.137395 
L 90.482469 -127.048294 
L 89.789667 -126.95509 
L 89.096865 -126.859653 
L 88.404063 -126.755409 
L 87.711261 -126.646945 
L 87.018459 -126.532897 
L 86.325657 -126.412035 
L 85.632855 -126.284158 
L 84.940053 -126.147827 
L 84.247251 -126.004561 
L 83.554449 -125.857911 
L 82.861647 -125.707442 
L 82.168845 -125.547161 
L 81.476043 -125.366313 
L 80.783241 -125.195084 
L 80.090439 -125.012898 
L 79.397637 -124.808963 
L 78.704835 -124.602086 
L 78.012033 -124.38593 
L 77.319231 -124.16636 
L 76.626429 -123.919472 
L 75.933627 -123.676403 
L 75.240825 -123.417802 
L 74.548023 -123.143283 
L 73.855221 -122.867097 
L 73.162418 -122.574619 
L 72.469616 -122.257098 
L 71.776814 -121.934367 
L 71.084012 -121.61072 
L 70.39121 -121.231904 
L 69.698408 -120.891167 
L 69.005606 -120.495004 
L 68.312804 -120.088969 
L 67.620002 -119.690293 
L 66.9272 -119.27032 
L 66.234398 -118.847433 
L 65.541596 -118.420625 
L 64.848794 -117.964937 
L 64.155992 -117.524068 
L 63.46319 -117.099559 
L 62.770388 -116.671429 
L 62.077586 -116.205118 
L 61.384784 -115.787159 
L 60.691982 -115.334526 
L 59.99918 -114.889762 
L 59.306378 -114.395705 
L 58.613576 -113.947093 
L 57.920774 -113.526287 
L 57.227972 -113.075841 
L 56.53517 -112.642591 
L 55.842368 -112.208126 
L 55.149566 -111.707687 
L 54.456764 -111.276225 
L 53.763961 -110.904243 
L 53.071159 -110.537311 
L 52.378357 -110.185722 
L 51.685555 -109.882198 
L 50.992753 -109.530155 
L 50.299951 -109.215007 
L 49.607149 -108.915449 
L 48.914347 -108.669787 
L 48.221545 -108.365188 
L 47.528743 -108.12 
L 46.835941 -107.860109 
L 46.143139 -107.563888 
L 45.450337 -107.305262 
L 44.757535 -107.138632 
L 44.064733 -106.896109 
L 43.371931 -106.698173 
L 42.679129 -106.527045 
L 41.986327 -106.306058 
L 41.293525 -106.090516 
L 40.600723 -105.909927 
L 39.907921 -105.769342 
L 39.215119 -105.561121 
L 38.522317 -105.350569 
L 37.829515 -105.137477 
L 37.136713 -104.948691 
z
" id="mc7d7c8c73e" style="stroke:#000000;stroke-opacity:0.2;"/>
    </defs>
    <g clip-path="url(#p03a59e6f6d)">
     <use style="fill-opacity:0.2;stroke:#000000;stroke-opacity:0.2;" x="0.0" xlink:href="#mc7d7c8c73e" y="147.401574803"/>
    </g>
   </g>
   <g id="PolyCollection_2">
    <defs>
     <path d="M 37.136713 -96.921319 
L 37.136713 -46.128585 
L 37.829515 -48.721773 
L 38.522317 -51.194776 
L 39.215119 -53.567498 
L 39.907921 -55.916563 
L 40.600723 -58.133592 
L 41.293525 -60.215725 
L 41.986327 -62.220285 
L 42.679129 -64.186256 
L 43.371931 -66.026924 
L 44.064733 -67.820251 
L 44.757535 -69.502105 
L 45.450337 -71.147506 
L 46.143139 -72.73485 
L 46.835941 -74.224493 
L 47.528743 -75.671123 
L 48.221545 -77.0802 
L 48.914347 -78.4156 
L 49.607149 -79.716067 
L 50.299951 -80.956806 
L 50.992753 -82.118877 
L 51.685555 -83.297653 
L 52.378357 -84.382195 
L 53.071159 -85.442249 
L 53.763961 -86.458838 
L 54.456764 -87.455697 
L 55.149566 -88.393725 
L 55.842368 -89.292798 
L 56.53517 -90.168391 
L 57.227972 -91.006465 
L 57.920774 -91.80629 
L 58.613576 -92.587951 
L 59.306378 -93.368268 
L 59.99918 -94.087935 
L 60.691982 -94.773804 
L 61.384784 -95.435196 
L 62.077586 -96.097884 
L 62.770388 -96.714542 
L 63.46319 -97.347112 
L 64.155992 -97.97285 
L 64.848794 -98.587312 
L 65.541596 -99.194815 
L 66.234398 -99.793964 
L 66.9272 -100.393575 
L 67.620002 -100.984443 
L 68.312804 -101.571729 
L 69.005606 -102.148804 
L 69.698408 -102.717936 
L 70.39121 -103.293471 
L 71.084012 -103.845762 
L 71.776814 -104.412297 
L 72.469616 -104.97098 
L 73.162418 -105.518148 
L 73.855221 -106.03466 
L 74.548023 -106.524545 
L 75.240825 -107.007709 
L 75.933627 -107.48156 
L 76.626429 -107.947898 
L 77.319231 -108.392235 
L 78.012033 -108.817662 
L 78.704835 -109.249303 
L 79.397637 -109.65788 
L 80.090439 -110.059717 
L 80.783241 -110.447334 
L 81.476043 -110.819561 
L 82.168845 -111.181684 
L 82.861647 -111.539159 
L 83.554449 -111.881958 
L 84.247251 -112.215094 
L 84.940053 -112.546096 
L 85.632855 -112.866142 
L 86.325657 -113.18662 
L 87.018459 -113.489296 
L 87.711261 -113.795224 
L 88.404063 -114.096993 
L 89.096865 -114.381609 
L 89.789667 -114.655569 
L 90.482469 -114.929845 
L 91.175271 -115.202845 
L 91.868073 -115.470373 
L 92.560875 -115.732439 
L 93.253678 -115.985357 
L 93.94648 -116.228046 
L 94.639282 -116.466317 
L 95.332084 -116.698684 
L 96.024886 -116.923854 
L 96.717688 -117.151306 
L 97.41049 -117.372271 
L 98.103292 -117.585479 
L 98.796094 -117.797499 
L 99.488896 -118.006454 
L 100.181698 -118.207035 
L 100.8745 -118.405938 
L 101.567302 -118.597835 
L 102.260104 -118.784099 
L 102.952906 -118.966516 
L 103.645708 -119.150192 
L 104.33851 -119.333102 
L 105.031312 -119.50914 
L 105.724114 -119.678562 
L 105.724114 -127.751724 
L 105.724114 -127.751724 
L 105.031312 -127.701619 
L 104.33851 -127.650439 
L 103.645708 -127.596351 
L 102.952906 -127.53966 
L 102.260104 -127.480924 
L 101.567302 -127.419982 
L 100.8745 -127.355368 
L 100.181698 -127.28767 
L 99.488896 -127.216292 
L 98.796094 -127.1438 
L 98.103292 -127.066882 
L 97.41049 -126.986528 
L 96.717688 -126.903073 
L 96.024886 -126.815277 
L 95.332084 -126.723031 
L 94.639282 -126.626748 
L 93.94648 -126.526134 
L 93.253678 -126.422901 
L 92.560875 -126.311455 
L 91.868073 -126.196463 
L 91.175271 -126.076466 
L 90.482469 -125.951396 
L 89.789667 -125.823859 
L 89.096865 -125.687164 
L 88.404063 -125.546685 
L 87.711261 -125.400239 
L 87.018459 -125.244616 
L 86.325657 -125.084489 
L 85.632855 -124.917662 
L 84.940053 -124.745048 
L 84.247251 -124.558882 
L 83.554449 -124.37006 
L 82.861647 -124.170418 
L 82.168845 -123.962178 
L 81.476043 -123.744486 
L 80.783241 -123.524362 
L 80.090439 -123.294861 
L 79.397637 -123.052269 
L 78.704835 -122.801943 
L 78.012033 -122.539004 
L 77.319231 -122.262913 
L 76.626429 -121.979885 
L 75.933627 -121.684376 
L 75.240825 -121.37241 
L 74.548023 -121.048304 
L 73.855221 -120.712707 
L 73.162418 -120.363701 
L 72.469616 -120.001524 
L 71.776814 -119.623607 
L 71.084012 -119.237458 
L 70.39121 -118.827386 
L 69.698408 -118.413794 
L 69.005606 -117.991245 
L 68.312804 -117.562651 
L 67.620002 -117.124166 
L 66.9272 -116.681431 
L 66.234398 -116.230018 
L 65.541596 -115.775794 
L 64.848794 -115.327149 
L 64.155992 -114.846471 
L 63.46319 -114.368947 
L 62.770388 -113.895886 
L 62.077586 -113.422051 
L 61.384784 -112.925809 
L 60.691982 -112.440739 
L 59.99918 -111.950116 
L 59.306378 -111.466794 
L 58.613576 -110.970684 
L 57.920774 -110.47227 
L 57.227972 -109.961987 
L 56.53517 -109.457337 
L 55.842368 -108.949088 
L 55.149566 -108.439998 
L 54.456764 -107.956824 
L 53.763961 -107.462142 
L 53.071159 -106.977234 
L 52.378357 -106.512268 
L 51.685555 -106.030403 
L 50.992753 -105.56884 
L 50.299951 -105.112156 
L 49.607149 -104.655933 
L 48.914347 -104.193534 
L 48.221545 -103.766814 
L 47.528743 -103.30835 
L 46.835941 -102.849403 
L 46.143139 -102.423506 
L 45.450337 -101.967562 
L 44.757535 -101.530264 
L 44.064733 -101.113385 
L 43.371931 -100.687559 
L 42.679129 -100.266486 
L 41.986327 -99.831893 
L 41.293525 -99.403584 
L 40.600723 -98.984966 
L 39.907921 -98.583724 
L 39.215119 -98.164175 
L 38.522317 -97.744126 
L 37.829515 -97.329686 
L 37.136713 -96.921319 
z
" id="m80e6ac0ac2" style="stroke:#000000;stroke-opacity:0.2;"/>
    </defs>
    <g clip-path="url(#p03a59e6f6d)">
     <use style="fill-opacity:0.2;stroke:#000000;stroke-opacity:0.2;" x="0.0" xlink:href="#m80e6ac0ac2" y="147.401574803"/>
    </g>
   </g>
   <g id="PolyCollection_3">
    <defs>
     <path d="M 37.136713 -87.224478 
L 37.136713 -60.244275 
L 37.829515 -62.141482 
L 38.522317 -63.968415 
L 39.215119 -65.741638 
L 39.907921 -67.475128 
L 40.600723 -69.181105 
L 41.293525 -70.824713 
L 41.986327 -72.388811 
L 42.679129 -73.899567 
L 43.371931 -75.384627 
L 44.064733 -76.822102 
L 44.757535 -78.201503 
L 45.450337 -79.518961 
L 46.143139 -80.814486 
L 46.835941 -82.044523 
L 47.528743 -83.247799 
L 48.221545 -84.401759 
L 48.914347 -85.520277 
L 49.607149 -86.596076 
L 50.299951 -87.628081 
L 50.992753 -88.628023 
L 51.685555 -89.599088 
L 52.378357 -90.534565 
L 53.071159 -91.436782 
L 53.763961 -92.300104 
L 54.456764 -93.14309 
L 55.149566 -93.953643 
L 55.842368 -94.75205 
L 56.53517 -95.515348 
L 57.227972 -96.248737 
L 57.920774 -96.963864 
L 58.613576 -97.658581 
L 59.306378 -98.320867 
L 59.99918 -98.970028 
L 60.691982 -99.595772 
L 61.384784 -100.195481 
L 62.077586 -100.785947 
L 62.770388 -101.358608 
L 63.46319 -101.916612 
L 64.155992 -102.47916 
L 64.848794 -103.040364 
L 65.541596 -103.58759 
L 66.234398 -104.138073 
L 66.9272 -104.684183 
L 67.620002 -105.224143 
L 68.312804 -105.757376 
L 69.005606 -106.294424 
L 69.698408 -106.826783 
L 70.39121 -107.348903 
L 71.084012 -107.874866 
L 71.776814 -108.390774 
L 72.469616 -108.893433 
L 73.162418 -109.385439 
L 73.855221 -109.858723 
L 74.548023 -110.327518 
L 75.240825 -110.780896 
L 75.933627 -111.226562 
L 76.626429 -111.652157 
L 77.319231 -112.069796 
L 78.012033 -112.477449 
L 78.704835 -112.878537 
L 79.397637 -113.261074 
L 80.090439 -113.635061 
L 80.783241 -114.000854 
L 81.476043 -114.357974 
L 82.168845 -114.703795 
L 82.861647 -115.04795 
L 83.554449 -115.379368 
L 84.247251 -115.702039 
L 84.940053 -116.017525 
L 85.632855 -116.32385 
L 86.325657 -116.621025 
L 87.018459 -116.913143 
L 87.711261 -117.196161 
L 88.404063 -117.476417 
L 89.096865 -117.749097 
L 89.789667 -118.015133 
L 90.482469 -118.273479 
L 91.175271 -118.525807 
L 91.868073 -118.768741 
L 92.560875 -119.008618 
L 93.253678 -119.24063 
L 93.94648 -119.468871 
L 94.639282 -119.691363 
L 95.332084 -119.907319 
L 96.024886 -120.119285 
L 96.717688 -120.327994 
L 97.41049 -120.531009 
L 98.103292 -120.725947 
L 98.796094 -120.918794 
L 99.488896 -121.106525 
L 100.181698 -121.289437 
L 100.8745 -121.46779 
L 101.567302 -121.641935 
L 102.260104 -121.812139 
L 102.952906 -121.978069 
L 103.645708 -122.140611 
L 104.33851 -122.29743 
L 105.031312 -122.453651 
L 105.724114 -122.605481 
L 105.724114 -126.77965 
L 105.724114 -126.77965 
L 105.031312 -126.701882 
L 104.33851 -126.620353 
L 103.645708 -126.535956 
L 102.952906 -126.449494 
L 102.260104 -126.358711 
L 101.567302 -126.264314 
L 100.8745 -126.167596 
L 100.181698 -126.066735 
L 99.488896 -125.962644 
L 98.796094 -125.854619 
L 98.103292 -125.742987 
L 97.41049 -125.627336 
L 96.717688 -125.507719 
L 96.024886 -125.383416 
L 95.332084 -125.253788 
L 94.639282 -125.120779 
L 93.94648 -124.981682 
L 93.253678 -124.837188 
L 92.560875 -124.687415 
L 91.868073 -124.534488 
L 91.175271 -124.374994 
L 90.482469 -124.208529 
L 89.789667 -124.036913 
L 89.096865 -123.85796 
L 88.404063 -123.67336 
L 87.711261 -123.480072 
L 87.018459 -123.280912 
L 86.325657 -123.075594 
L 85.632855 -122.862406 
L 84.940053 -122.641184 
L 84.247251 -122.413522 
L 83.554449 -122.178229 
L 82.861647 -121.932181 
L 82.168845 -121.676601 
L 81.476043 -121.414186 
L 80.783241 -121.143084 
L 80.090439 -120.861742 
L 79.397637 -120.569231 
L 78.704835 -120.266043 
L 78.012033 -119.9522 
L 77.319231 -119.63133 
L 76.626429 -119.296562 
L 75.933627 -118.94777 
L 75.240825 -118.593186 
L 74.548023 -118.228735 
L 73.855221 -117.845757 
L 73.162418 -117.449756 
L 72.469616 -117.041483 
L 71.776814 -116.623719 
L 71.084012 -116.186141 
L 70.39121 -115.745527 
L 69.698408 -115.295694 
L 69.005606 -114.84022 
L 68.312804 -114.375358 
L 67.620002 -113.909445 
L 66.9272 -113.43436 
L 66.234398 -112.953754 
L 65.541596 -112.466535 
L 64.848794 -111.977748 
L 64.155992 -111.481048 
L 63.46319 -110.988106 
L 62.770388 -110.495069 
L 62.077586 -109.990532 
L 61.384784 -109.470474 
L 60.691982 -108.944809 
L 59.99918 -108.407268 
L 59.306378 -107.86525 
L 58.613576 -107.317231 
L 57.920774 -106.759396 
L 57.227972 -106.198894 
L 56.53517 -105.623818 
L 55.842368 -105.038347 
L 55.149566 -104.447353 
L 54.456764 -103.85694 
L 53.763961 -103.260003 
L 53.071159 -102.663284 
L 52.378357 -102.048862 
L 51.685555 -101.441644 
L 50.992753 -100.822263 
L 50.299951 -100.20166 
L 49.607149 -99.583087 
L 48.914347 -98.946844 
L 48.221545 -98.303671 
L 47.528743 -97.653389 
L 46.835941 -97.004673 
L 46.143139 -96.36167 
L 45.450337 -95.71501 
L 44.757535 -95.047556 
L 44.064733 -94.367582 
L 43.371931 -93.700595 
L 42.679129 -93.014437 
L 41.986327 -92.320206 
L 41.293525 -91.616868 
L 40.600723 -90.91136 
L 39.907921 -90.188389 
L 39.215119 -89.450637 
L 38.522317 -88.713369 
L 37.829515 -87.985622 
L 37.136713 -87.224478 
z
" id="med7f49c047" style="stroke:#000000;stroke-opacity:0.2;"/>
    </defs>
    <g clip-path="url(#p03a59e6f6d)">
     <use style="fill-opacity:0.2;stroke:#000000;stroke-opacity:0.2;" x="0.0" xlink:href="#med7f49c047" y="147.401574803"/>
    </g>
   </g>
   <g id="LineCollection_1">
    <path clip-path="url(#p03a59e6f6d)" d="M 37.136713 86.667503 
L 37.136713 60.656048 
" style="fill:none;stroke:#000000;"/>
    <path clip-path="url(#p03a59e6f6d)" d="M 62.856988 60.474382 
L 62.856988 38.043568 
" style="fill:none;stroke:#000000;"/>
    <path clip-path="url(#p03a59e6f6d)" d="M 71.430413 33.938962 
L 71.430413 27.274376 
" style="fill:none;stroke:#000000;"/>
    <path clip-path="url(#p03a59e6f6d)" d="M 88.577264 23.380226 
L 88.577264 22.261811 
" style="fill:none;stroke:#000000;"/>
    <path clip-path="url(#p03a59e6f6d)" d="M 105.724114 32.539521 
L 105.724114 27.309626 
" style="fill:none;stroke:#000000;"/>
   </g>
   <g id="line2d_1">
    <defs>
     <path d="M 3 0 
L -3 -0 
" id="m7bbc38ee54" style="stroke:#000000;stroke-width:0.5;"/>
    </defs>
    <g clip-path="url(#p03a59e6f6d)">
     <use style="stroke:#000000;stroke-width:0.5;" x="37.1367125984" xlink:href="#m7bbc38ee54" y="86.6675030815"/>
     <use style="stroke:#000000;stroke-width:0.5;" x="62.856988189" xlink:href="#m7bbc38ee54" y="60.474381674"/>
     <use style="stroke:#000000;stroke-width:0.5;" x="71.4304133858" xlink:href="#m7bbc38ee54" y="33.9389622977"/>
     <use style="stroke:#000000;stroke-width:0.5;" x="88.5772637795" xlink:href="#m7bbc38ee54" y="23.3802263942"/>
     <use style="stroke:#000000;stroke-width:0.5;" x="105.724114173" xlink:href="#m7bbc38ee54" y="32.5395213849"/>
    </g>
   </g>
   <g id="line2d_2">
    <g clip-path="url(#p03a59e6f6d)">
     <use style="stroke:#000000;stroke-width:0.5;" x="37.1367125984" xlink:href="#m7bbc38ee54" y="60.6560479068"/>
     <use style="stroke:#000000;stroke-width:0.5;" x="62.856988189" xlink:href="#m7bbc38ee54" y="38.0435678942"/>
     <use style="stroke:#000000;stroke-width:0.5;" x="71.4304133858" xlink:href="#m7bbc38ee54" y="27.274376021"/>
     <use style="stroke:#000000;stroke-width:0.5;" x="88.5772637795" xlink:href="#m7bbc38ee54" y="22.2618112866"/>
     <use style="stroke:#000000;stroke-width:0.5;" x="105.724114173" xlink:href="#m7bbc38ee54" y="27.3096259827"/>
    </g>
   </g>
   <g id="line2d_3">
    <defs>
     <path d="M 0 2 
C 0.530406 2 1.03916 1.789267 1.414214 1.414214 
C 1.789267 1.03916 2 0.530406 2 0 
C 2 -0.530406 1.789267 -1.03916 1.414214 -1.414214 
C 1.03916 -1.789267 0.530406 -2 0 -2 
C -0.530406 -2 -1.03916 -1.789267 -1.414214 -1.414214 
C -1.789267 -1.03916 -2 -0.530406 -2 0 
C -2 0.530406 -1.789267 1.03916 -1.414214 1.414214 
C -1.03916 1.789267 -0.530406 2 0 2 
z
" id="m3d12d4e453" style="stroke:#000000;stroke-width:0.5;"/>
    </defs>
    <g clip-path="url(#p03a59e6f6d)">
     <use style="stroke:#000000;stroke-width:0.5;" x="37.1367125984" xlink:href="#m3d12d4e453" y="73.6617754941"/>
     <use style="stroke:#000000;stroke-width:0.5;" x="62.856988189" xlink:href="#m3d12d4e453" y="49.2589747841"/>
     <use style="stroke:#000000;stroke-width:0.5;" x="71.4304133858" xlink:href="#m3d12d4e453" y="30.6066691593"/>
     <use style="stroke:#000000;stroke-width:0.5;" x="88.5772637795" xlink:href="#m3d12d4e453" y="22.8210188404"/>
     <use style="stroke:#000000;stroke-width:0.5;" x="105.724114173" xlink:href="#m3d12d4e453" y="29.9245736838"/>
    </g>
   </g>
   <g id="patch_3">
    <path d="M 32.85 13.95 
L 110.010827 13.95 
" style="fill:none;stroke:#000000;stroke-linecap:square;stroke-linejoin:miter;"/>
   </g>
   <g id="patch_4">
    <path d="M 110.010827 115.001575 
L 110.010827 13.95 
" style="fill:none;stroke:#000000;stroke-linecap:square;stroke-linejoin:miter;"/>
   </g>
   <g id="patch_5">
    <path d="M 32.85 115.001575 
L 110.010827 115.001575 
" style="fill:none;stroke:#000000;stroke-linecap:square;stroke-linejoin:miter;"/>
   </g>
   <g id="patch_6">
    <path d="M 32.85 115.001575 
L 32.85 13.95 
" style="fill:none;stroke:#000000;stroke-linecap:square;stroke-linejoin:miter;"/>
   </g>
   <g id="matplotlib.axis_1">
    <g id="xtick_1">
     <g id="line2d_4">
      <defs>
       <path d="M 0 0 
L 0 -4 
" id="md1282ca6db" style="stroke:#000000;stroke-width:0.5;"/>
      </defs>
      <g>
       <use style="stroke:#000000;stroke-width:0.5;" x="37.1367125984" xlink:href="#md1282ca6db" y="115.001574803"/>
      </g>
     </g>
     <g id="line2d_5">
      <defs>
       <path d="M 0 0 
L 0 4 
" id="m705aa3d171" style="stroke:#000000;stroke-width:0.5;"/>
      </defs>
      <g>
       <use style="stroke:#000000;stroke-width:0.5;" x="37.1367125984" xlink:href="#m705aa3d171" y="13.95"/>
      </g>
     </g>
     <g id="text_1">
      <text style="font-family:Helvetica LT Std;font-size:8.0px;font-style:normal;font-weight:400;text-anchor:middle;" transform="rotate(-0.000000, 37.136713, 124.697825)" x="37.1367125984" y="124.697824803">0</text>
     </g>
    </g>
    <g id="xtick_2">
     <g id="line2d_6">
      <g>
       <use style="stroke:#000000;stroke-width:0.5;" x="54.2835629921" xlink:href="#md1282ca6db" y="115.001574803"/>
      </g>
     </g>
     <g id="line2d_7">
      <g>
       <use style="stroke:#000000;stroke-width:0.5;" x="54.2835629921" xlink:href="#m705aa3d171" y="13.95"/>
      </g>
     </g>
     <g id="text_2">
      <text style="font-family:Helvetica LT Std;font-size:8.0px;font-style:normal;font-weight:400;text-anchor:middle;" transform="rotate(-0.000000, 54.283563, 124.697825)" x="54.2835629921" y="124.697824803">2</text>
     </g>
    </g>
    <g id="xtick_3">
     <g id="line2d_8">
      <g>
       <use style="stroke:#000000;stroke-width:0.5;" x="71.4304133858" xlink:href="#md1282ca6db" y="115.001574803"/>
      </g>
     </g>
     <g id="line2d_9">
      <g>
       <use style="stroke:#000000;stroke-width:0.5;" x="71.4304133858" xlink:href="#m705aa3d171" y="13.95"/>
      </g>
     </g>
     <g id="text_3">
      <text style="font-family:Helvetica LT Std;font-size:8.0px;font-style:normal;font-weight:400;text-anchor:middle;" transform="rotate(-0.000000, 71.430413, 124.697825)" x="71.4304133858" y="124.697824803">4</text>
     </g>
    </g>
    <g id="xtick_4">
     <g id="line2d_10">
      <g>
       <use style="stroke:#000000;stroke-width:0.5;" x="88.5772637795" xlink:href="#md1282ca6db" y="115.001574803"/>
      </g>
     </g>
     <g id="line2d_11">
      <g>
       <use style="stroke:#000000;stroke-width:0.5;" x="88.5772637795" xlink:href="#m705aa3d171" y="13.95"/>
      </g>
     </g>
     <g id="text_4">
      <text style="font-family:Helvetica LT Std;font-size:8.0px;font-style:normal;font-weight:400;text-anchor:middle;" transform="rotate(-0.000000, 88.577264, 124.697825)" x="88.5772637795" y="124.697824803">6</text>
     </g>
    </g>
    <g id="xtick_5">
     <g id="line2d_12">
      <g>
       <use style="stroke:#000000;stroke-width:0.5;" x="105.724114173" xlink:href="#md1282ca6db" y="115.001574803"/>
      </g>
     </g>
     <g id="line2d_13">
      <g>
       <use style="stroke:#000000;stroke-width:0.5;" x="105.724114173" xlink:href="#m705aa3d171" y="13.95"/>
      </g>
     </g>
     <g id="text_5">
      <text style="font-family:Helvetica LT Std;font-size:8.0px;font-style:normal;font-weight:400;text-anchor:middle;" transform="rotate(-0.000000, 105.724114, 124.697825)" x="105.724114173" y="124.697824803">8</text>
     </g>
    </g>
    <g id="text_6">
     <text style="font-family:Helvetica LT Std;font-size:8.0px;font-style:normal;font-weight:400;text-anchor:middle;" transform="rotate(-0.000000, 71.430413, 136.417825)" x="71.4304133858" y="136.417824803">Time (days)</text>
    </g>
   </g>
   <g id="matplotlib.axis_2">
    <g id="ytick_1">
     <g id="line2d_14">
      <defs>
       <path d="M 0 0 
L 4 0 
" id="mf6e287e7a0" style="stroke:#000000;stroke-width:0.5;"/>
      </defs>
      <g>
       <use style="stroke:#000000;stroke-width:0.5;" x="32.85" xlink:href="#mf6e287e7a0" y="110.408321403"/>
      </g>
     </g>
     <g id="line2d_15">
      <defs>
       <path d="M 0 0 
L -4 0 
" id="m3c0aa8b546" style="stroke:#000000;stroke-width:0.5;"/>
      </defs>
      <g>
       <use style="stroke:#000000;stroke-width:0.5;" x="110.010826772" xlink:href="#m3c0aa8b546" y="110.408321403"/>
      </g>
     </g>
     <g id="text_7">
      <text style="font-family:Helvetica LT Std;font-size:8.0px;font-style:normal;font-weight:400;text-anchor:end;" transform="rotate(-0.000000, 28.850000, 112.744571)" x="28.85" y="112.744571403">0.8</text>
     </g>
    </g>
    <g id="ytick_2">
     <g id="line2d_16">
      <g>
       <use style="stroke:#000000;stroke-width:0.5;" x="32.85" xlink:href="#mf6e287e7a0" y="64.4757874016"/>
      </g>
     </g>
     <g id="line2d_17">
      <g>
       <use style="stroke:#000000;stroke-width:0.5;" x="110.010826772" xlink:href="#m3c0aa8b546" y="64.4757874016"/>
      </g>
     </g>
     <g id="text_8">
      <text style="font-family:Helvetica LT Std;font-size:8.0px;font-style:normal;font-weight:400;text-anchor:end;" transform="rotate(-0.000000, 28.850000, 66.812037)" x="28.85" y="66.8120374016">0.9</text>
     </g>
    </g>
    <g id="ytick_3">
     <g id="line2d_18">
      <g>
       <use style="stroke:#000000;stroke-width:0.5;" x="32.85" xlink:href="#mf6e287e7a0" y="18.5432534001"/>
      </g>
     </g>
     <g id="line2d_19">
      <g>
       <use style="stroke:#000000;stroke-width:0.5;" x="110.010826772" xlink:href="#m3c0aa8b546" y="18.5432534001"/>
      </g>
     </g>
     <g id="text_9">
      <text style="font-family:Helvetica LT Std;font-size:8.0px;font-style:normal;font-weight:400;text-anchor:end;" transform="rotate(-0.000000, 28.850000, 20.879503)" x="28.85" y="20.8795034001">1.0</text>
     </g>
    </g>
    <g id="ytick_4">
     <g id="line2d_20">
      <defs>
       <path d="M 0 0 
L 2 0 
" id="me7ca93c413" style="stroke:#000000;stroke-width:0.5;"/>
      </defs>
      <g>
       <use style="stroke:#000000;stroke-width:0.5;" x="32.85" xlink:href="#me7ca93c413" y="87.4420544023"/>
      </g>
     </g>
     <g id="line2d_21">
      <defs>
       <path d="M 0 0 
L -2 0 
" id="m1d8208bb18" style="stroke:#000000;stroke-width:0.5;"/>
      </defs>
      <g>
       <use style="stroke:#000000;stroke-width:0.5;" x="110.010826772" xlink:href="#m1d8208bb18" y="87.4420544023"/>
      </g>
     </g>
    </g>
    <g id="ytick_5">
     <g id="line2d_22">
      <g>
       <use style="stroke:#000000;stroke-width:0.5;" x="32.85" xlink:href="#me7ca93c413" y="41.5095204009"/>
      </g>
     </g>
     <g id="line2d_23">
      <g>
       <use style="stroke:#000000;stroke-width:0.5;" x="110.010826772" xlink:href="#m1d8208bb18" y="41.5095204009"/>
      </g>
     </g>
    </g>
    <g id="text_10">
     <text style="font-family:Helvetica LT Std;font-size:8.0px;font-style:normal;font-weight:400;text-anchor:middle;" transform="rotate(-90.000000, 16.171250, 64.475787)" x="16.17125" y="64.4757874016">Growth fraction</text>
    </g>
   </g>
   <g id="legend_1">
    <g id="patch_7">
     <path d="M 66.914331 95.005246 
L 82.914331 95.005246 
L 82.914331 89.405246 
L 66.914331 89.405246 
z
" style="opacity:0.2;stroke:#000000;stroke-linejoin:miter;"/>
    </g>
    <g id="text_11">
     <text style="font-family:Helvetica LT Std;font-size:8.0px;font-style:normal;font-weight:400;text-anchor:start;" transform="rotate(-0.000000, 89.314331, 95.005246)" x="89.3143307087" y="95.005246063">Fit</text>
    </g>
    <g id="LineCollection_2">
     <path d="M 74.914331 106.925246 
L 74.914331 98.925246 
" style="fill:none;stroke:#000000;"/>
    </g>
    <g id="line2d_24">
     <g>
      <use style="stroke:#000000;stroke-width:0.5;" x="74.9143307087" xlink:href="#m7bbc38ee54" y="106.925246063"/>
     </g>
    </g>
    <g id="line2d_25">
     <g>
      <use style="stroke:#000000;stroke-width:0.5;" x="74.9143307087" xlink:href="#m7bbc38ee54" y="98.925246063"/>
     </g>
    </g>
    <g id="line2d_26"/>
    <g id="line2d_27">
     <g>
      <use style="stroke:#000000;stroke-width:0.5;" x="74.9143307087" xlink:href="#m3d12d4e453" y="102.925246063"/>
     </g>
    </g>
    <g id="text_12">
     <text style="font-family:Helvetica LT Std;font-size:8.0px;font-style:normal;font-weight:400;text-anchor:start;" transform="rotate(-0.000000, 89.314331, 105.725246)" x="89.3143307087" y="105.725246063">Exp.</text>
    </g>
   </g>
  </g>
  <g id="axes_2">
   <g id="patch_8">
    <path d="M 138.810827 115.001575 
L 215.971654 115.001575 
L 215.971654 13.95 
L 138.810827 13.95 
z
" style="fill:#ffffff;"/>
   </g>
   <g id="PolyCollection_4">
    <defs>
     <path d="M 143.097539 -32.4 
L 143.097539 -32.4 
L 143.790341 -32.461397 
L 144.483143 -32.523063 
L 145.175945 -32.585025 
L 145.868748 -32.647348 
L 146.56155 -32.709672 
L 147.254352 -32.772361 
L 147.947154 -32.835098 
L 148.639956 -32.898379 
L 149.332758 -32.961795 
L 150.02556 -33.025419 
L 150.718362 -33.089147 
L 151.411164 -33.153091 
L 152.103966 -33.217844 
L 152.796768 -33.282452 
L 153.48957 -33.347051 
L 154.182372 -33.412869 
L 154.875174 -33.478306 
L 155.567976 -33.544808 
L 156.260778 -33.610775 
L 156.95358 -33.677025 
L 157.646382 -33.744147 
L 158.339184 -33.810657 
L 159.031986 -33.877618 
L 159.724788 -33.94434 
L 160.41759 -34.011554 
L 161.110392 -34.079168 
L 161.803194 -34.147013 
L 162.495996 -34.215872 
L 163.188798 -34.285265 
L 163.8816 -34.354951 
L 164.574402 -34.424932 
L 165.267205 -34.495205 
L 165.960007 -34.56577 
L 166.652809 -34.635285 
L 167.345611 -34.704704 
L 168.038413 -34.775472 
L 168.731215 -34.84731 
L 169.424017 -34.922912 
L 170.116819 -35.023136 
L 170.809621 -35.104397 
L 171.502423 -35.207528 
L 172.195225 -35.289579 
L 172.888027 -35.404365 
L 173.580829 -35.514771 
L 174.273631 -35.645064 
L 174.966433 -35.788439 
L 175.659235 -35.961797 
L 176.352037 -36.163626 
L 177.044839 -36.377166 
L 177.737641 -36.626728 
L 178.430443 -36.880504 
L 179.123245 -37.135067 
L 179.816047 -37.396571 
L 180.508849 -37.672727 
L 181.201651 -37.93682 
L 181.894453 -38.206927 
L 182.587255 -38.475435 
L 183.280057 -38.743732 
L 183.97286 -39.013867 
L 184.665662 -39.285565 
L 185.358464 -39.551097 
L 186.051266 -39.827325 
L 186.744068 -40.099591 
L 187.43687 -40.370799 
L 188.129672 -40.665652 
L 188.822474 -40.959455 
L 189.515276 -41.233787 
L 190.208078 -41.533872 
L 190.90088 -41.815372 
L 191.593682 -42.110714 
L 192.286484 -42.407277 
L 192.979286 -42.701877 
L 193.672088 -43.027031 
L 194.36489 -43.340917 
L 195.057692 -43.640664 
L 195.750494 -43.94601 
L 196.443296 -44.248704 
L 197.136098 -44.556053 
L 197.8289 -44.87567 
L 198.521702 -45.196511 
L 199.214504 -45.502465 
L 199.907306 -45.827949 
L 200.600108 -46.15117 
L 201.29291 -46.481441 
L 201.985712 -46.823566 
L 202.678514 -47.153208 
L 203.371317 -47.497137 
L 204.064119 -47.834731 
L 204.756921 -48.172144 
L 205.449723 -48.520128 
L 206.142525 -48.861571 
L 206.835327 -49.223003 
L 207.528129 -49.578681 
L 208.220931 -49.937833 
L 208.913733 -50.300544 
L 209.606535 -50.646236 
L 210.299337 -51.02173 
L 210.992139 -51.408844 
L 211.684941 -51.787316 
L 211.684941 -125.031878 
L 211.684941 -125.031878 
L 210.992139 -122.656241 
L 210.299337 -120.33499 
L 209.606535 -118.062159 
L 208.913733 -115.813734 
L 208.220931 -113.557873 
L 207.528129 -111.374418 
L 206.835327 -109.23306 
L 206.142525 -107.235739 
L 205.449723 -105.111382 
L 204.756921 -102.9642 
L 204.064119 -100.814685 
L 203.371317 -98.856121 
L 202.678514 -96.91176 
L 201.985712 -94.784338 
L 201.29291 -92.710429 
L 200.600108 -90.789265 
L 199.907306 -88.938689 
L 199.214504 -87.275319 
L 198.521702 -85.728322 
L 197.8289 -84.213319 
L 197.136098 -82.525802 
L 196.443296 -80.953498 
L 195.750494 -79.459946 
L 195.057692 -78.064283 
L 194.36489 -76.703321 
L 193.672088 -75.374957 
L 192.979286 -73.954092 
L 192.286484 -72.469693 
L 191.593682 -71.206503 
L 190.90088 -69.884019 
L 190.208078 -68.647209 
L 189.515276 -67.41034 
L 188.822474 -66.214231 
L 188.129672 -65.062168 
L 187.43687 -63.900634 
L 186.744068 -62.781771 
L 186.051266 -61.671159 
L 185.358464 -60.523965 
L 184.665662 -59.510317 
L 183.97286 -58.511212 
L 183.280057 -57.421937 
L 182.587255 -56.483505 
L 181.894453 -55.586332 
L 181.201651 -54.662476 
L 180.508849 -53.843824 
L 179.816047 -52.945332 
L 179.123245 -52.065349 
L 178.430443 -51.249448 
L 177.737641 -50.438785 
L 177.044839 -49.660424 
L 176.352037 -48.901263 
L 175.659235 -48.205386 
L 174.966433 -47.492749 
L 174.273631 -46.950066 
L 173.580829 -46.354777 
L 172.888027 -45.776987 
L 172.195225 -45.255578 
L 171.502423 -44.744918 
L 170.809621 -44.316479 
L 170.116819 -43.881172 
L 169.424017 -43.453504 
L 168.731215 -43.075939 
L 168.038413 -42.730283 
L 167.345611 -42.385623 
L 166.652809 -42.041239 
L 165.960007 -41.700351 
L 165.267205 -41.369072 
L 164.574402 -41.042016 
L 163.8816 -40.718104 
L 163.188798 -40.394705 
L 162.495996 -40.073895 
L 161.803194 -39.758159 
L 161.110392 -39.44518 
L 160.41759 -39.134525 
L 159.724788 -38.830194 
L 159.031986 -38.522812 
L 158.339184 -38.224955 
L 157.646382 -37.928586 
L 156.95358 -37.635047 
L 156.260778 -37.343095 
L 155.567976 -37.050644 
L 154.875174 -36.769921 
L 154.182372 -36.49194 
L 153.48957 -36.21389 
L 152.796768 -35.938141 
L 152.103966 -35.667938 
L 151.411164 -35.399153 
L 150.718362 -35.133348 
L 150.02556 -34.8705 
L 149.332758 -34.609288 
L 148.639956 -34.353307 
L 147.947154 -34.099511 
L 147.254352 -33.848285 
L 146.56155 -33.599908 
L 145.868748 -33.354565 
L 145.175945 -33.112614 
L 144.483143 -32.872181 
L 143.790341 -32.63446 
L 143.097539 -32.4 
z
" id="m0122f2b626" style="stroke:#008000;stroke-opacity:0.2;"/>
    </defs>
    <g clip-path="url(#pc9e54d9a57)">
     <use style="fill:#008000;fill-opacity:0.2;stroke:#008000;stroke-opacity:0.2;" x="0.0" xlink:href="#m0122f2b626" y="147.401574803"/>
    </g>
   </g>
   <g id="PolyCollection_5">
    <defs>
     <path d="M 143.097539 -32.4 
L 143.097539 -32.4 
L 143.790341 -32.484934 
L 144.483143 -32.570249 
L 145.175945 -32.655995 
L 145.868748 -32.742124 
L 146.56155 -32.828672 
L 147.254352 -32.915587 
L 147.947154 -33.002887 
L 148.639956 -33.090673 
L 149.332758 -33.178921 
L 150.02556 -33.267576 
L 150.718362 -33.3566 
L 151.411164 -33.446678 
L 152.103966 -33.536802 
L 152.796768 -33.627394 
L 153.48957 -33.717951 
L 154.182372 -33.809261 
L 154.875174 -33.901336 
L 155.567976 -33.993852 
L 156.260778 -34.086508 
L 156.95358 -34.179664 
L 157.646382 -34.272994 
L 158.339184 -34.367027 
L 159.031986 -34.461061 
L 159.724788 -34.555914 
L 160.41759 -34.651884 
L 161.110392 -34.746968 
L 161.803194 -34.84336 
L 162.495996 -34.939452 
L 163.188798 -35.035401 
L 163.8816 -35.13245 
L 164.574402 -35.230462 
L 165.267205 -35.327557 
L 165.960007 -35.426167 
L 166.652809 -35.525611 
L 167.345611 -35.62608 
L 168.038413 -35.724504 
L 168.731215 -35.824296 
L 169.424017 -35.931544 
L 170.116819 -36.048651 
L 170.809621 -36.175638 
L 171.502423 -36.31207 
L 172.195225 -36.462213 
L 172.888027 -36.617878 
L 173.580829 -36.781703 
L 174.273631 -36.955759 
L 174.966433 -37.140298 
L 175.659235 -37.343734 
L 176.352037 -37.578138 
L 177.044839 -37.832485 
L 177.737641 -38.11819 
L 178.430443 -38.414752 
L 179.123245 -38.708584 
L 179.816047 -39.006311 
L 180.508849 -39.304762 
L 181.201651 -39.609972 
L 181.894453 -39.916332 
L 182.587255 -40.224089 
L 183.280057 -40.532483 
L 183.97286 -40.847315 
L 184.665662 -41.158111 
L 185.358464 -41.471976 
L 186.051266 -41.793225 
L 186.744068 -42.114288 
L 187.43687 -42.44018 
L 188.129672 -42.77313 
L 188.822474 -43.109729 
L 189.515276 -43.44651 
L 190.208078 -43.786316 
L 190.90088 -44.127887 
L 191.593682 -44.474665 
L 192.286484 -44.819815 
L 192.979286 -45.170561 
L 193.672088 -45.529106 
L 194.36489 -45.893716 
L 195.057692 -46.257263 
L 195.750494 -46.623432 
L 196.443296 -46.986395 
L 197.136098 -47.36012 
L 197.8289 -47.734615 
L 198.521702 -48.107868 
L 199.214504 -48.489733 
L 199.907306 -48.871175 
L 200.600108 -49.256899 
L 201.29291 -49.64836 
L 201.985712 -50.044541 
L 202.678514 -50.448371 
L 203.371317 -50.850965 
L 204.064119 -51.256612 
L 204.756921 -51.672007 
L 205.449723 -52.085682 
L 206.142525 -52.500744 
L 206.835327 -52.924473 
L 207.528129 -53.346449 
L 208.220931 -53.783366 
L 208.913733 -54.220683 
L 209.606535 -54.660669 
L 210.299337 -55.100444 
L 210.992139 -55.546898 
L 211.684941 -55.99909 
L 211.684941 -83.700909 
L 211.684941 -83.700909 
L 210.992139 -82.598374 
L 210.299337 -81.527783 
L 209.606535 -80.456318 
L 208.913733 -79.406255 
L 208.220931 -78.384584 
L 207.528129 -77.365728 
L 206.835327 -76.367433 
L 206.142525 -75.388887 
L 205.449723 -74.427684 
L 204.756921 -73.47717 
L 204.064119 -72.539615 
L 203.371317 -71.611571 
L 202.678514 -70.700725 
L 201.985712 -69.808932 
L 201.29291 -68.918332 
L 200.600108 -68.042584 
L 199.907306 -67.171234 
L 199.214504 -66.328583 
L 198.521702 -65.487501 
L 197.8289 -64.66483 
L 197.136098 -63.853548 
L 196.443296 -63.059792 
L 195.750494 -62.282291 
L 195.057692 -61.49803 
L 194.36489 -60.744701 
L 193.672088 -59.997777 
L 192.979286 -59.257411 
L 192.286484 -58.536075 
L 191.593682 -57.826448 
L 190.90088 -57.12412 
L 190.208078 -56.432124 
L 189.515276 -55.751785 
L 188.822474 -55.093432 
L 188.129672 -54.43246 
L 187.43687 -53.786524 
L 186.744068 -53.157795 
L 186.051266 -52.531758 
L 185.358464 -51.917801 
L 184.665662 -51.309106 
L 183.97286 -50.710066 
L 183.280057 -50.126863 
L 182.587255 -49.556491 
L 181.894453 -48.992461 
L 181.201651 -48.436915 
L 180.508849 -47.883851 
L 179.816047 -47.345226 
L 179.123245 -46.80813 
L 178.430443 -46.293457 
L 177.737641 -45.782768 
L 177.044839 -45.284601 
L 176.352037 -44.787403 
L 175.659235 -44.31038 
L 174.966433 -43.854547 
L 174.273631 -43.412748 
L 173.580829 -42.991548 
L 172.888027 -42.585375 
L 172.195225 -42.209299 
L 171.502423 -41.855946 
L 170.809621 -41.518152 
L 170.116819 -41.214353 
L 169.424017 -40.928198 
L 168.731215 -40.661941 
L 168.038413 -40.401096 
L 167.345611 -40.142718 
L 166.652809 -39.887243 
L 165.960007 -39.636366 
L 165.267205 -39.384504 
L 164.574402 -39.134626 
L 163.8816 -38.88664 
L 163.188798 -38.64288 
L 162.495996 -38.399721 
L 161.803194 -38.159817 
L 161.110392 -37.921198 
L 160.41759 -37.68485 
L 159.724788 -37.450704 
L 159.031986 -37.219272 
L 158.339184 -36.989089 
L 157.646382 -36.759525 
L 156.95358 -36.532249 
L 156.260778 -36.307808 
L 155.567976 -36.084452 
L 154.875174 -35.86382 
L 154.182372 -35.644949 
L 153.48957 -35.428574 
L 152.796768 -35.213662 
L 152.103966 -34.999854 
L 151.411164 -34.789043 
L 150.718362 -34.579872 
L 150.02556 -34.372992 
L 149.332758 -34.167192 
L 148.639956 -33.963361 
L 147.947154 -33.76172 
L 147.254352 -33.561862 
L 146.56155 -33.363862 
L 145.868748 -33.167459 
L 145.175945 -32.972868 
L 144.483143 -32.780165 
L 143.790341 -32.589205 
L 143.097539 -32.4 
z
" id="m297f750949" style="stroke:#008000;stroke-opacity:0.2;"/>
    </defs>
    <g clip-path="url(#pc9e54d9a57)">
     <use style="fill:#008000;fill-opacity:0.2;stroke:#008000;stroke-opacity:0.2;" x="0.0" xlink:href="#m297f750949" y="147.401574803"/>
    </g>
   </g>
   <g id="PolyCollection_6">
    <defs>
     <path d="M 143.097539 -32.4 
L 143.097539 -32.4 
L 143.790341 -32.508632 
L 144.483143 -32.617936 
L 145.175945 -32.727895 
L 145.868748 -32.838535 
L 146.56155 -32.949729 
L 147.254352 -33.061547 
L 147.947154 -33.174109 
L 148.639956 -33.28724 
L 149.332758 -33.40107 
L 150.02556 -33.515536 
L 150.718362 -33.63064 
L 151.411164 -33.746515 
L 152.103966 -33.862914 
L 152.796768 -33.979961 
L 153.48957 -34.097797 
L 154.182372 -34.216069 
L 154.875174 -34.33483 
L 155.567976 -34.454409 
L 156.260778 -34.574801 
L 156.95358 -34.695788 
L 157.646382 -34.817175 
L 158.339184 -34.939168 
L 159.031986 -35.062142 
L 159.724788 -35.185632 
L 160.41759 -35.309371 
L 161.110392 -35.434316 
L 161.803194 -35.559786 
L 162.495996 -35.6857 
L 163.188798 -35.812152 
L 163.8816 -35.938865 
L 164.574402 -36.066587 
L 165.267205 -36.195214 
L 165.960007 -36.324775 
L 166.652809 -36.455078 
L 167.345611 -36.586057 
L 168.038413 -36.716853 
L 168.731215 -36.849 
L 169.424017 -36.987041 
L 170.116819 -37.13756 
L 170.809621 -37.300043 
L 171.502423 -37.470629 
L 172.195225 -37.658847 
L 172.888027 -37.853839 
L 173.580829 -38.064578 
L 174.273631 -38.285796 
L 174.966433 -38.527067 
L 175.659235 -38.787917 
L 176.352037 -39.068171 
L 177.044839 -39.371271 
L 177.737641 -39.693572 
L 178.430443 -40.02224 
L 179.123245 -40.350935 
L 179.816047 -40.688325 
L 180.508849 -41.02792 
L 181.201651 -41.369866 
L 181.894453 -41.715331 
L 182.587255 -42.064908 
L 183.280057 -42.418483 
L 183.97286 -42.774588 
L 184.665662 -43.138414 
L 185.358464 -43.502674 
L 186.051266 -43.871917 
L 186.744068 -44.244498 
L 187.43687 -44.618694 
L 188.129672 -45.001039 
L 188.822474 -45.385236 
L 189.515276 -45.771977 
L 190.208078 -46.165081 
L 190.90088 -46.561102 
L 191.593682 -46.962489 
L 192.286484 -47.367065 
L 192.979286 -47.780498 
L 193.672088 -48.19558 
L 194.36489 -48.614284 
L 195.057692 -49.03861 
L 195.750494 -49.466633 
L 196.443296 -49.901076 
L 197.136098 -50.337766 
L 197.8289 -50.779874 
L 198.521702 -51.225602 
L 199.214504 -51.677421 
L 199.907306 -52.134131 
L 200.600108 -52.592617 
L 201.29291 -53.057665 
L 201.985712 -53.527426 
L 202.678514 -53.99986 
L 203.371317 -54.481321 
L 204.064119 -54.970056 
L 204.756921 -55.458493 
L 205.449723 -55.956815 
L 206.142525 -56.457783 
L 206.835327 -56.963769 
L 207.528129 -57.477183 
L 208.220931 -57.990519 
L 208.913733 -58.51212 
L 209.606535 -59.040339 
L 210.299337 -59.57255 
L 210.992139 -60.108626 
L 211.684941 -60.654979 
L 211.684941 -73.282716 
L 211.684941 -73.282716 
L 210.992139 -72.453508 
L 210.299337 -71.634539 
L 209.606535 -70.82653 
L 208.913733 -70.025086 
L 208.220931 -69.240487 
L 207.528129 -68.467773 
L 206.835327 -67.70188 
L 206.142525 -66.951172 
L 205.449723 -66.204349 
L 204.756921 -65.471828 
L 204.064119 -64.750914 
L 203.371317 -64.034808 
L 202.678514 -63.32745 
L 201.985712 -62.630445 
L 201.29291 -61.941262 
L 200.600108 -61.268742 
L 199.907306 -60.603084 
L 199.214504 -59.944624 
L 198.521702 -59.299502 
L 197.8289 -58.662903 
L 197.136098 -58.033044 
L 196.443296 -57.414889 
L 195.750494 -56.79687 
L 195.057692 -56.18984 
L 194.36489 -55.591062 
L 193.672088 -54.998379 
L 192.979286 -54.412625 
L 192.286484 -53.836342 
L 191.593682 -53.270127 
L 190.90088 -52.708736 
L 190.208078 -52.155732 
L 189.515276 -51.610194 
L 188.822474 -51.073856 
L 188.129672 -50.541647 
L 187.43687 -50.022185 
L 186.744068 -49.507781 
L 186.051266 -49.001605 
L 185.358464 -48.501107 
L 184.665662 -48.007415 
L 183.97286 -47.521529 
L 183.280057 -47.03973 
L 182.587255 -46.566481 
L 181.894453 -46.098018 
L 181.201651 -45.635179 
L 180.508849 -45.180076 
L 179.816047 -44.731015 
L 179.123245 -44.291456 
L 178.430443 -43.855265 
L 177.737641 -43.425544 
L 177.044839 -43.00137 
L 176.352037 -42.594519 
L 175.659235 -42.19782 
L 174.966433 -41.813965 
L 174.273631 -41.451436 
L 173.580829 -41.10421 
L 172.888027 -40.780834 
L 172.195225 -40.473536 
L 171.502423 -40.189131 
L 170.809621 -39.920906 
L 170.116819 -39.671899 
L 169.424017 -39.441712 
L 168.731215 -39.22501 
L 168.038413 -39.014923 
L 167.345611 -38.806899 
L 166.652809 -38.59958 
L 165.960007 -38.393986 
L 165.267205 -38.190291 
L 164.574402 -37.987842 
L 163.8816 -37.786939 
L 163.188798 -37.587105 
L 162.495996 -37.38924 
L 161.803194 -37.193104 
L 161.110392 -36.997767 
L 160.41759 -36.804268 
L 159.724788 -36.611861 
L 159.031986 -36.420989 
L 158.339184 -36.231267 
L 157.646382 -36.043191 
L 156.95358 -35.856363 
L 156.260778 -35.671103 
L 155.567976 -35.486686 
L 154.875174 -35.30379 
L 154.182372 -35.122168 
L 153.48957 -34.942076 
L 152.796768 -34.763133 
L 152.103966 -34.585786 
L 151.411164 -34.409517 
L 150.718362 -34.235123 
L 150.02556 -34.06168 
L 149.332758 -33.889607 
L 148.639956 -33.718813 
L 147.947154 -33.549366 
L 147.254352 -33.381318 
L 146.56155 -33.214561 
L 145.868748 -33.049069 
L 145.175945 -32.88495 
L 144.483143 -32.721989 
L 143.790341 -32.560343 
L 143.097539 -32.4 
z
" id="mec3be88609" style="stroke:#008000;stroke-opacity:0.2;"/>
    </defs>
    <g clip-path="url(#pc9e54d9a57)">
     <use style="fill:#008000;fill-opacity:0.2;stroke:#008000;stroke-opacity:0.2;" x="0.0" xlink:href="#mec3be88609" y="147.401574803"/>
    </g>
   </g>
   <g id="LineCollection_3">
    <path clip-path="url(#pc9e54d9a57)" d="M 143.097539 115.001575 
L 143.097539 115.001575 
" style="fill:none;stroke:#000000;"/>
    <path clip-path="url(#pc9e54d9a57)" d="M 160.24439 113.801738 
L 160.24439 113.346705 
" style="fill:none;stroke:#000000;"/>
    <path clip-path="url(#pc9e54d9a57)" d="M 168.817815 111.402906 
L 168.817815 110.350104 
" style="fill:none;stroke:#000000;"/>
    <path clip-path="url(#pc9e54d9a57)" d="M 177.39124 104.632228 
L 177.39124 102.545897 
" style="fill:none;stroke:#000000;"/>
    <path clip-path="url(#pc9e54d9a57)" d="M 194.538091 84.137137 
L 194.538091 81.268793 
" style="fill:none;stroke:#000000;"/>
    <path clip-path="url(#pc9e54d9a57)" d="M 211.684941 59.804498 
L 211.684941 56.149318 
" style="fill:none;stroke:#000000;"/>
   </g>
   <g id="line2d_28">
    <g clip-path="url(#pc9e54d9a57)">
     <use style="stroke:#000000;stroke-width:0.5;" x="143.09753937" xlink:href="#m7bbc38ee54" y="115.001574803"/>
     <use style="stroke:#000000;stroke-width:0.5;" x="160.244389764" xlink:href="#m7bbc38ee54" y="113.801737677"/>
     <use style="stroke:#000000;stroke-width:0.5;" x="168.817814961" xlink:href="#m7bbc38ee54" y="111.402905834"/>
     <use style="stroke:#000000;stroke-width:0.5;" x="177.391240157" xlink:href="#m7bbc38ee54" y="104.632228148"/>
     <use style="stroke:#000000;stroke-width:0.5;" x="194.538090551" xlink:href="#m7bbc38ee54" y="84.1371371297"/>
     <use style="stroke:#000000;stroke-width:0.5;" x="211.684940945" xlink:href="#m7bbc38ee54" y="59.8044982723"/>
    </g>
   </g>
   <g id="line2d_29">
    <g clip-path="url(#pc9e54d9a57)">
     <use style="stroke:#000000;stroke-width:0.5;" x="143.09753937" xlink:href="#m7bbc38ee54" y="115.001574803"/>
     <use style="stroke:#000000;stroke-width:0.5;" x="160.244389764" xlink:href="#m7bbc38ee54" y="113.346704941"/>
     <use style="stroke:#000000;stroke-width:0.5;" x="168.817814961" xlink:href="#m7bbc38ee54" y="110.350104486"/>
     <use style="stroke:#000000;stroke-width:0.5;" x="177.391240157" xlink:href="#m7bbc38ee54" y="102.545897"/>
     <use style="stroke:#000000;stroke-width:0.5;" x="194.538090551" xlink:href="#m7bbc38ee54" y="81.2687932837"/>
     <use style="stroke:#000000;stroke-width:0.5;" x="211.684940945" xlink:href="#m7bbc38ee54" y="56.1493177218"/>
    </g>
   </g>
   <g id="line2d_30">
    <g clip-path="url(#pc9e54d9a57)">
     <use style="stroke:#000000;stroke-width:0.5;" x="143.09753937" xlink:href="#m3d12d4e453" y="115.001574803"/>
     <use style="stroke:#000000;stroke-width:0.5;" x="160.244389764" xlink:href="#m3d12d4e453" y="113.574221309"/>
     <use style="stroke:#000000;stroke-width:0.5;" x="168.817814961" xlink:href="#m3d12d4e453" y="110.87650516"/>
     <use style="stroke:#000000;stroke-width:0.5;" x="177.391240157" xlink:href="#m3d12d4e453" y="103.589062574"/>
     <use style="stroke:#000000;stroke-width:0.5;" x="194.538090551" xlink:href="#m3d12d4e453" y="82.7029652067"/>
     <use style="stroke:#000000;stroke-width:0.5;" x="211.684940945" xlink:href="#m3d12d4e453" y="57.976907997"/>
    </g>
   </g>
   <g id="patch_9">
    <path d="M 138.810827 13.95 
L 215.971654 13.95 
" style="fill:none;stroke:#000000;stroke-linecap:square;stroke-linejoin:miter;"/>
   </g>
   <g id="patch_10">
    <path d="M 215.971654 115.001575 
L 215.971654 13.95 
" style="fill:none;stroke:#000000;stroke-linecap:square;stroke-linejoin:miter;"/>
   </g>
   <g id="patch_11">
    <path d="M 138.810827 115.001575 
L 215.971654 115.001575 
" style="fill:none;stroke:#000000;stroke-linecap:square;stroke-linejoin:miter;"/>
   </g>
   <g id="patch_12">
    <path d="M 138.810827 115.001575 
L 138.810827 13.95 
" style="fill:none;stroke:#000000;stroke-linecap:square;stroke-linejoin:miter;"/>
   </g>
   <g id="matplotlib.axis_3">
    <g id="xtick_6">
     <g id="line2d_31">
      <g>
       <use style="stroke:#000000;stroke-width:0.5;" x="143.09753937" xlink:href="#md1282ca6db" y="115.001574803"/>
      </g>
     </g>
     <g id="line2d_32">
      <g>
       <use style="stroke:#000000;stroke-width:0.5;" x="143.09753937" xlink:href="#m705aa3d171" y="13.95"/>
      </g>
     </g>
     <g id="text_13">
      <text style="font-family:Helvetica LT Std;font-size:8.0px;font-style:normal;font-weight:400;text-anchor:middle;" transform="rotate(-0.000000, 143.097539, 124.697825)" x="143.09753937" y="124.697824803">0</text>
     </g>
    </g>
    <g id="xtick_7">
     <g id="line2d_33">
      <g>
       <use style="stroke:#000000;stroke-width:0.5;" x="160.244389764" xlink:href="#md1282ca6db" y="115.001574803"/>
      </g>
     </g>
     <g id="line2d_34">
      <g>
       <use style="stroke:#000000;stroke-width:0.5;" x="160.244389764" xlink:href="#m705aa3d171" y="13.95"/>
      </g>
     </g>
     <g id="text_14">
      <text style="font-family:Helvetica LT Std;font-size:8.0px;font-style:normal;font-weight:400;text-anchor:middle;" transform="rotate(-0.000000, 160.244390, 124.697825)" x="160.244389764" y="124.697824803">2</text>
     </g>
    </g>
    <g id="xtick_8">
     <g id="line2d_35">
      <g>
       <use style="stroke:#000000;stroke-width:0.5;" x="177.391240157" xlink:href="#md1282ca6db" y="115.001574803"/>
      </g>
     </g>
     <g id="line2d_36">
      <g>
       <use style="stroke:#000000;stroke-width:0.5;" x="177.391240157" xlink:href="#m705aa3d171" y="13.95"/>
      </g>
     </g>
     <g id="text_15">
      <text style="font-family:Helvetica LT Std;font-size:8.0px;font-style:normal;font-weight:400;text-anchor:middle;" transform="rotate(-0.000000, 177.391240, 124.697825)" x="177.391240157" y="124.697824803">4</text>
     </g>
    </g>
    <g id="xtick_9">
     <g id="line2d_37">
      <g>
       <use style="stroke:#000000;stroke-width:0.5;" x="194.538090551" xlink:href="#md1282ca6db" y="115.001574803"/>
      </g>
     </g>
     <g id="line2d_38">
      <g>
       <use style="stroke:#000000;stroke-width:0.5;" x="194.538090551" xlink:href="#m705aa3d171" y="13.95"/>
      </g>
     </g>
     <g id="text_16">
      <text style="font-family:Helvetica LT Std;font-size:8.0px;font-style:normal;font-weight:400;text-anchor:middle;" transform="rotate(-0.000000, 194.538091, 124.697825)" x="194.538090551" y="124.697824803">6</text>
     </g>
    </g>
    <g id="xtick_10">
     <g id="line2d_39">
      <g>
       <use style="stroke:#000000;stroke-width:0.5;" x="211.684940945" xlink:href="#md1282ca6db" y="115.001574803"/>
      </g>
     </g>
     <g id="line2d_40">
      <g>
       <use style="stroke:#000000;stroke-width:0.5;" x="211.684940945" xlink:href="#m705aa3d171" y="13.95"/>
      </g>
     </g>
     <g id="text_17">
      <text style="font-family:Helvetica LT Std;font-size:8.0px;font-style:normal;font-weight:400;text-anchor:middle;" transform="rotate(-0.000000, 211.684941, 124.697825)" x="211.684940945" y="124.697824803">8</text>
     </g>
    </g>
    <g id="text_18">
     <text style="font-family:Helvetica LT Std;font-size:8.0px;font-style:normal;font-weight:400;text-anchor:middle;" transform="rotate(-0.000000, 177.391240, 136.417825)" x="177.391240157" y="136.417824803">Time (days)</text>
    </g>
   </g>
   <g id="matplotlib.axis_4">
    <g id="ytick_6">
     <g id="line2d_41">
      <g>
       <use style="stroke:#000000;stroke-width:0.5;" x="138.810826772" xlink:href="#mf6e287e7a0" y="115.001574803"/>
      </g>
     </g>
     <g id="line2d_42">
      <g>
       <use style="stroke:#000000;stroke-width:0.5;" x="215.971653543" xlink:href="#m3c0aa8b546" y="115.001574803"/>
      </g>
     </g>
     <g id="text_19">
      <text style="font-family:Helvetica LT Std;font-size:8.0px;font-style:normal;font-weight:400;text-anchor:end;" transform="rotate(-0.000000, 134.810827, 117.337825)" x="134.810826772" y="117.337824803">0</text>
     </g>
    </g>
    <g id="ytick_7">
     <g id="line2d_43">
      <g>
       <use style="stroke:#000000;stroke-width:0.5;" x="138.810826772" xlink:href="#mf6e287e7a0" y="89.7386811024"/>
      </g>
     </g>
     <g id="line2d_44">
      <g>
       <use style="stroke:#000000;stroke-width:0.5;" x="215.971653543" xlink:href="#m3c0aa8b546" y="89.7386811024"/>
      </g>
     </g>
     <g id="text_20">
      <text style="font-family:Helvetica LT Std;font-size:8.0px;font-style:normal;font-weight:400;text-anchor:end;" transform="rotate(-0.000000, 134.810827, 92.074931)" x="134.810826772" y="92.0749311024">1</text>
     </g>
    </g>
    <g id="ytick_8">
     <g id="line2d_45">
      <g>
       <use style="stroke:#000000;stroke-width:0.5;" x="138.810826772" xlink:href="#mf6e287e7a0" y="64.4757874016"/>
      </g>
     </g>
     <g id="line2d_46">
      <g>
       <use style="stroke:#000000;stroke-width:0.5;" x="215.971653543" xlink:href="#m3c0aa8b546" y="64.4757874016"/>
      </g>
     </g>
     <g id="text_21">
      <text style="font-family:Helvetica LT Std;font-size:8.0px;font-style:normal;font-weight:400;text-anchor:end;" transform="rotate(-0.000000, 134.810827, 66.812037)" x="134.810826772" y="66.8120374016">2</text>
     </g>
    </g>
    <g id="ytick_9">
     <g id="line2d_47">
      <g>
       <use style="stroke:#000000;stroke-width:0.5;" x="138.810826772" xlink:href="#mf6e287e7a0" y="39.2128937008"/>
      </g>
     </g>
     <g id="line2d_48">
      <g>
       <use style="stroke:#000000;stroke-width:0.5;" x="215.971653543" xlink:href="#m3c0aa8b546" y="39.2128937008"/>
      </g>
     </g>
     <g id="text_22">
      <text style="font-family:Helvetica LT Std;font-size:8.0px;font-style:normal;font-weight:400;text-anchor:end;" transform="rotate(-0.000000, 134.810827, 41.549144)" x="134.810826772" y="41.5491437008">3</text>
     </g>
    </g>
    <g id="ytick_10">
     <g id="line2d_49">
      <g>
       <use style="stroke:#000000;stroke-width:0.5;" x="138.810826772" xlink:href="#mf6e287e7a0" y="13.95"/>
      </g>
     </g>
     <g id="line2d_50">
      <g>
       <use style="stroke:#000000;stroke-width:0.5;" x="215.971653543" xlink:href="#m3c0aa8b546" y="13.95"/>
      </g>
     </g>
     <g id="text_23">
      <text style="font-family:Helvetica LT Std;font-size:8.0px;font-style:normal;font-weight:400;text-anchor:end;" transform="rotate(-0.000000, 134.810827, 16.286250)" x="134.810826772" y="16.28625">4</text>
     </g>
    </g>
    <g id="text_24">
     <text style="font-family:Helvetica LT Std;font-size:8.0px;font-style:normal;font-weight:400;text-anchor:middle;" transform="rotate(-90.000000, 126.123327, 64.475787)" x="126.123326772" y="64.4757874016">Outgrowth (mm)</text>
    </g>
   </g>
   <g id="legend_2">
    <g id="patch_13">
     <path d="M 146.010827 26.84625 
L 162.010827 26.84625 
L 162.010827 21.24625 
L 146.010827 21.24625 
z
" style="fill:#008000;opacity:0.2;stroke:#008000;stroke-linejoin:miter;"/>
    </g>
    <g id="text_25">
     <text style="font-family:Helvetica LT Std;font-size:8.0px;font-style:normal;font-weight:400;text-anchor:start;" transform="rotate(-0.000000, 168.410827, 26.846250)" x="168.410826772" y="26.84625">Prediction</text>
    </g>
    <g id="LineCollection_4">
     <path d="M 154.010827 38.76625 
L 154.010827 30.76625 
" style="fill:none;stroke:#000000;"/>
    </g>
    <g id="line2d_51">
     <g>
      <use style="stroke:#000000;stroke-width:0.5;" x="154.010826772" xlink:href="#m7bbc38ee54" y="38.76625"/>
     </g>
    </g>
    <g id="line2d_52">
     <g>
      <use style="stroke:#000000;stroke-width:0.5;" x="154.010826772" xlink:href="#m7bbc38ee54" y="30.76625"/>
     </g>
    </g>
    <g id="line2d_53"/>
    <g id="line2d_54">
     <g>
      <use style="stroke:#000000;stroke-width:0.5;" x="154.010826772" xlink:href="#m3d12d4e453" y="34.76625"/>
     </g>
    </g>
    <g id="text_26">
     <text style="font-family:Helvetica LT Std;font-size:8.0px;font-style:normal;font-weight:400;text-anchor:start;" transform="rotate(-0.000000, 168.410827, 37.566250)" x="168.410826772" y="37.56625">Exp.</text>
    </g>
   </g>
  </g>
 </g>
 <defs>
  <clipPath id="pc9e54d9a57">
   <rect height="101.051574803" width="77.1608267717" x="138.810826772" y="13.95"/>
  </clipPath>
  <clipPath id="p03a59e6f6d">
   <rect height="101.051574803" width="77.1608267717" x="32.85" y="13.95"/>
  </clipPath>
 </defs>
</svg>
