<?xml version="1.0" encoding="utf-8" standalone="no"?>
<!DOCTYPE svg PUBLIC "-//W3C//DTD SVG 1.1//EN"
  "http://www.w3.org/Graphics/SVG/1.1/DTD/svg11.dtd">
<!-- Created with matplotlib (http://matplotlib.org/) -->
<svg height="113pt" version="1.1" viewBox="0 0 226 113" width="226pt" xmlns="http://www.w3.org/2000/svg" xmlns:xlink="http://www.w3.org/1999/xlink">
 <defs>
  <style type="text/css">
*{stroke-linecap:butt;stroke-linejoin:round;stroke-miterlimit:100000;}
  </style>
 </defs>
 <g id="figure_1">
  <g id="patch_1">
   <path d="M 0 113.385827 
L 226.771654 113.385827 
L 226.771654 0 
L 0 0 
z
" style="fill:#ffffff;"/>
  </g>
  <g id="axes_1">
   <g id="patch_2">
    <path d="M 32.85 80.985827 
L 110.010827 80.985827 
L 110.010827 13.95 
L 32.85 13.95 
z
" style="fill:#ffffff;"/>
   </g>
   <g id="PolyCollection_1">
    <defs>
     <path d="M 37.136713 -80.527518 
L 37.136713 -32.202927 
L 37.829515 -34.345143 
L 38.522317 -36.366337 
L 39.215119 -38.41706 
L 39.907921 -40.411068 
L 40.600723 -42.166118 
L 41.293525 -43.836813 
L 41.986327 -45.570004 
L 42.679129 -47.120014 
L 43.371931 -48.555553 
L 44.064733 -49.94617 
L 44.757535 -51.2869 
L 45.450337 -52.55123 
L 46.143139 -53.726392 
L 46.835941 -54.848866 
L 47.528743 -55.975246 
L 48.221545 -57.018422 
L 48.914347 -58.051016 
L 49.607149 -59.034313 
L 50.299951 -59.953039 
L 50.992753 -60.839814 
L 51.685555 -61.678962 
L 52.378357 -62.502653 
L 53.071159 -63.311297 
L 53.763961 -64.069915 
L 54.456764 -64.807347 
L 55.149566 -65.504559 
L 55.842368 -66.183352 
L 56.53517 -66.858172 
L 57.227972 -67.501632 
L 57.920774 -68.122968 
L 58.613576 -68.730167 
L 59.306378 -69.324604 
L 59.99918 -69.874234 
L 60.691982 -70.428723 
L 61.384784 -70.966733 
L 62.077586 -71.436939 
L 62.770388 -71.92891 
L 63.46319 -72.372622 
L 64.155992 -72.882032 
L 64.848794 -73.325455 
L 65.541596 -73.790387 
L 66.234398 -74.244264 
L 66.9272 -74.654399 
L 67.620002 -75.10179 
L 68.312804 -75.564543 
L 69.005606 -75.995024 
L 69.698408 -76.430308 
L 70.39121 -76.829264 
L 71.084012 -77.252572 
L 71.776814 -77.671632 
L 72.469616 -78.083187 
L 73.162418 -78.453607 
L 73.855221 -78.837307 
L 74.548023 -79.203357 
L 75.240825 -79.549687 
L 75.933627 -79.892149 
L 76.626429 -80.250156 
L 77.319231 -80.559197 
L 78.012033 -80.867664 
L 78.704835 -81.139771 
L 79.397637 -81.431203 
L 80.090439 -81.688383 
L 80.783241 -81.956876 
L 81.476043 -82.232662 
L 82.168845 -82.485586 
L 82.861647 -82.707137 
L 83.554449 -82.936113 
L 84.247251 -83.170443 
L 84.940053 -83.382268 
L 85.632855 -83.578246 
L 86.325657 -83.800697 
L 87.018459 -84.008503 
L 87.711261 -84.213857 
L 88.404063 -84.420082 
L 89.096865 -84.595151 
L 89.789667 -84.765902 
L 90.482469 -84.922691 
L 91.175271 -85.107212 
L 91.868073 -85.267771 
L 92.560875 -85.431554 
L 93.253678 -85.585368 
L 93.94648 -85.737089 
L 94.639282 -85.885323 
L 95.332084 -86.020518 
L 96.024886 -86.159545 
L 96.717688 -86.308072 
L 97.41049 -86.444376 
L 98.103292 -86.5923 
L 98.796094 -86.741345 
L 99.488896 -86.881819 
L 100.181698 -87.016129 
L 100.8745 -87.138715 
L 101.567302 -87.275362 
L 102.260104 -87.400494 
L 102.952906 -87.511446 
L 103.645708 -87.626049 
L 104.33851 -87.756303 
L 105.031312 -87.870117 
L 105.724114 -87.978499 
L 105.724114 -95.996136 
L 105.724114 -95.996136 
L 105.031312 -95.975554 
L 104.33851 -95.953171 
L 103.645708 -95.930314 
L 102.952906 -95.907429 
L 102.260104 -95.882898 
L 101.567302 -95.855855 
L 100.8745 -95.827935 
L 100.181698 -95.799154 
L 99.488896 -95.768155 
L 98.796094 -95.73645 
L 98.103292 -95.702551 
L 97.41049 -95.667002 
L 96.717688 -95.629257 
L 96.024886 -95.59099 
L 95.332084 -95.549926 
L 94.639282 -95.505356 
L 93.94648 -95.458542 
L 93.253678 -95.408257 
L 92.560875 -95.359834 
L 91.868073 -95.303957 
L 91.175271 -95.247112 
L 90.482469 -95.188004 
L 89.789667 -95.126174 
L 89.096865 -95.062863 
L 88.404063 -94.993709 
L 87.711261 -94.921756 
L 87.018459 -94.846098 
L 86.325657 -94.76592 
L 85.632855 -94.681089 
L 84.940053 -94.59065 
L 84.247251 -94.49561 
L 83.554449 -94.398325 
L 82.861647 -94.298506 
L 82.168845 -94.192179 
L 81.476043 -94.072207 
L 80.783241 -93.958617 
L 80.090439 -93.837758 
L 79.397637 -93.702471 
L 78.704835 -93.565233 
L 78.012033 -93.421838 
L 77.319231 -93.27618 
L 76.626429 -93.112398 
L 75.933627 -92.95115 
L 75.240825 -92.779599 
L 74.548023 -92.597488 
L 73.855221 -92.414271 
L 73.162418 -92.220247 
L 72.469616 -92.009609 
L 71.776814 -91.795515 
L 71.084012 -91.580813 
L 70.39121 -91.329513 
L 69.698408 -91.103474 
L 69.005606 -90.840667 
L 68.312804 -90.571311 
L 67.620002 -90.306836 
L 66.9272 -90.028233 
L 66.234398 -89.747698 
L 65.541596 -89.464561 
L 64.848794 -89.162266 
L 64.155992 -88.869801 
L 63.46319 -88.588189 
L 62.770388 -88.304175 
L 62.077586 -87.994832 
L 61.384784 -87.717566 
L 60.691982 -87.417297 
L 59.99918 -87.122249 
L 59.306378 -86.7945 
L 58.613576 -86.496899 
L 57.920774 -86.217743 
L 57.227972 -85.918926 
L 56.53517 -85.631515 
L 55.842368 -85.343299 
L 55.149566 -85.011317 
L 54.456764 -84.725092 
L 53.763961 -84.478325 
L 53.071159 -84.23491 
L 52.378357 -84.001672 
L 51.685555 -83.800319 
L 50.992753 -83.56678 
L 50.299951 -83.357717 
L 49.607149 -83.158995 
L 48.914347 -82.996027 
L 48.221545 -82.793961 
L 47.528743 -82.631308 
L 46.835941 -82.458901 
L 46.143139 -82.262393 
L 45.450337 -82.090825 
L 44.757535 -81.980286 
L 44.064733 -81.819401 
L 43.371931 -81.688093 
L 42.679129 -81.57457 
L 41.986327 -81.427971 
L 41.293525 -81.284984 
L 40.600723 -81.165185 
L 39.907921 -81.071923 
L 39.215119 -80.933793 
L 38.522317 -80.794117 
L 37.829515 -80.652755 
L 37.136713 -80.527518 
z
" id="m558b698d6d" style="stroke:#000000;stroke-opacity:0.2;"/>
    </defs>
    <g clip-path="url(#p0eeeebe579)">
     <use style="fill-opacity:0.2;stroke:#000000;stroke-opacity:0.2;" x="0.0" xlink:href="#m558b698d6d" y="113.385826772"/>
    </g>
   </g>
   <g id="PolyCollection_2">
    <defs>
     <path d="M 37.136713 -75.202302 
L 37.136713 -41.507301 
L 37.829515 -43.227575 
L 38.522317 -44.868122 
L 39.215119 -46.442144 
L 39.907921 -48.000472 
L 40.600723 -49.47121 
L 41.293525 -50.85246 
L 41.986327 -52.18225 
L 42.679129 -53.48644 
L 43.371931 -54.707506 
L 44.064733 -55.897168 
L 44.757535 -57.01288 
L 45.450337 -58.10441 
L 46.143139 -59.157426 
L 46.835941 -60.145628 
L 47.528743 -61.105298 
L 48.221545 -62.040054 
L 48.914347 -62.925935 
L 49.607149 -63.788642 
L 50.299951 -64.611726 
L 50.992753 -65.382623 
L 51.685555 -66.164602 
L 52.378357 -66.884068 
L 53.071159 -67.587289 
L 53.763961 -68.261677 
L 54.456764 -68.922975 
L 55.149566 -69.545246 
L 55.842368 -70.141675 
L 56.53517 -70.722528 
L 57.227972 -71.278492 
L 57.920774 -71.809082 
L 58.613576 -72.327622 
L 59.306378 -72.84527 
L 59.99918 -73.322684 
L 60.691982 -73.777678 
L 61.384784 -74.216434 
L 62.077586 -74.656049 
L 62.770388 -75.065129 
L 63.46319 -75.484765 
L 64.155992 -75.899868 
L 64.848794 -76.307492 
L 65.541596 -76.710498 
L 66.234398 -77.107963 
L 66.9272 -77.505735 
L 67.620002 -77.897706 
L 68.312804 -78.287301 
L 69.005606 -78.670123 
L 69.698408 -79.047675 
L 70.39121 -79.429474 
L 71.084012 -79.795854 
L 71.776814 -80.171683 
L 72.469616 -80.542304 
L 73.162418 -80.905286 
L 73.855221 -81.247931 
L 74.548023 -81.572912 
L 75.240825 -81.893434 
L 75.933627 -82.207778 
L 76.626429 -82.517139 
L 77.319231 -82.811904 
L 78.012033 -83.094125 
L 78.704835 -83.380468 
L 79.397637 -83.65151 
L 80.090439 -83.918082 
L 80.783241 -84.17522 
L 81.476043 -84.422149 
L 82.168845 -84.662375 
L 82.861647 -84.899518 
L 83.554449 -85.126925 
L 84.247251 -85.347921 
L 84.940053 -85.567502 
L 85.632855 -85.779815 
L 86.325657 -85.992414 
L 87.018459 -86.193204 
L 87.711261 -86.396151 
L 88.404063 -86.596339 
L 89.096865 -86.785149 
L 89.789667 -86.966889 
L 90.482469 -87.148839 
L 91.175271 -87.329942 
L 91.868073 -87.507416 
L 92.560875 -87.681265 
L 93.253678 -87.849047 
L 93.94648 -88.010043 
L 94.639282 -88.168107 
L 95.332084 -88.322256 
L 96.024886 -88.471629 
L 96.717688 -88.622517 
L 97.41049 -88.769101 
L 98.103292 -88.91054 
L 98.796094 -89.05119 
L 99.488896 -89.189807 
L 100.181698 -89.322869 
L 100.8745 -89.454817 
L 101.567302 -89.582118 
L 102.260104 -89.705683 
L 102.952906 -89.826695 
L 103.645708 -89.948542 
L 104.33851 -90.069882 
L 105.031312 -90.186662 
L 105.724114 -90.299054 
L 105.724114 -95.654646 
L 105.724114 -95.654646 
L 105.031312 -95.621408 
L 104.33851 -95.587456 
L 103.645708 -95.551575 
L 102.952906 -95.513967 
L 102.260104 -95.475002 
L 101.567302 -95.434575 
L 100.8745 -95.391711 
L 100.181698 -95.346802 
L 99.488896 -95.29945 
L 98.796094 -95.251361 
L 98.103292 -95.200335 
L 97.41049 -95.147029 
L 96.717688 -95.091667 
L 96.024886 -95.033425 
L 95.332084 -94.97223 
L 94.639282 -94.908358 
L 93.94648 -94.841612 
L 93.253678 -94.773129 
L 92.560875 -94.699198 
L 91.868073 -94.622914 
L 91.175271 -94.54331 
L 90.482469 -94.460341 
L 89.789667 -94.375735 
L 89.096865 -94.285054 
L 88.404063 -94.191863 
L 87.711261 -94.094713 
L 87.018459 -93.991476 
L 86.325657 -93.88525 
L 85.632855 -93.77458 
L 84.940053 -93.660071 
L 84.247251 -93.536572 
L 83.554449 -93.41131 
L 82.861647 -93.278872 
L 82.168845 -93.140729 
L 81.476043 -92.996316 
L 80.783241 -92.850289 
L 80.090439 -92.698043 
L 79.397637 -92.537112 
L 78.704835 -92.37105 
L 78.012033 -92.19662 
L 77.319231 -92.013466 
L 76.626429 -91.825711 
L 75.933627 -91.629676 
L 75.240825 -91.422722 
L 74.548023 -91.207716 
L 73.855221 -90.985087 
L 73.162418 -90.753563 
L 72.469616 -90.513301 
L 71.776814 -90.262597 
L 71.084012 -90.006433 
L 70.39121 -89.734399 
L 69.698408 -89.460029 
L 69.005606 -89.179718 
L 68.312804 -88.895396 
L 67.620002 -88.604513 
L 66.9272 -88.31081 
L 66.234398 -88.011351 
L 65.541596 -87.710026 
L 64.848794 -87.412403 
L 64.155992 -87.09353 
L 63.46319 -86.776749 
L 62.770388 -86.462929 
L 62.077586 -86.148595 
L 61.384784 -85.819397 
L 60.691982 -85.49761 
L 59.99918 -85.17214 
L 59.306378 -84.851512 
L 58.613576 -84.522401 
L 57.920774 -84.191763 
L 57.227972 -83.85325 
L 56.53517 -83.518474 
L 55.842368 -83.18131 
L 55.149566 -82.843589 
L 54.456764 -82.52306 
L 53.763961 -82.194897 
L 53.071159 -81.873217 
L 52.378357 -81.564767 
L 51.685555 -81.245107 
L 50.992753 -80.938914 
L 50.299951 -80.635958 
L 49.607149 -80.333307 
L 48.914347 -80.02656 
L 48.221545 -79.743482 
L 47.528743 -79.439345 
L 46.835941 -79.134887 
L 46.143139 -78.852355 
L 45.450337 -78.54989 
L 44.757535 -78.259794 
L 44.064733 -77.983244 
L 43.371931 -77.700758 
L 42.679129 -77.421426 
L 41.986327 -77.133125 
L 41.293525 -76.848992 
L 40.600723 -76.571289 
L 39.907921 -76.305112 
L 39.215119 -76.02679 
L 38.522317 -75.748137 
L 37.829515 -75.473205 
L 37.136713 -75.202302 
z
" id="me55d6bcb03" style="stroke:#000000;stroke-opacity:0.2;"/>
    </defs>
    <g clip-path="url(#p0eeeebe579)">
     <use style="fill-opacity:0.2;stroke:#000000;stroke-opacity:0.2;" x="0.0" xlink:href="#me55d6bcb03" y="113.385826772"/>
    </g>
   </g>
   <g id="PolyCollection_3">
    <defs>
     <path d="M 37.136713 -68.769589 
L 37.136713 -50.871399 
L 37.829515 -52.129973 
L 38.522317 -53.341928 
L 39.215119 -54.518253 
L 39.907921 -55.668219 
L 40.600723 -56.799935 
L 41.293525 -57.890275 
L 41.986327 -58.92787 
L 42.679129 -59.930078 
L 43.371931 -60.915241 
L 44.064733 -61.868837 
L 44.757535 -62.783907 
L 45.450337 -63.657885 
L 46.143139 -64.517314 
L 46.835941 -65.333298 
L 47.528743 -66.13153 
L 48.221545 -66.897047 
L 48.914347 -67.639052 
L 49.607149 -68.352718 
L 50.299951 -69.037332 
L 50.992753 -69.700676 
L 51.685555 -70.344863 
L 52.378357 -70.965442 
L 53.071159 -71.563957 
L 53.763961 -72.136669 
L 54.456764 -72.695891 
L 55.149566 -73.233598 
L 55.842368 -73.763246 
L 56.53517 -74.269605 
L 57.227972 -74.756122 
L 57.920774 -75.230525 
L 58.613576 -75.691388 
L 59.306378 -76.130737 
L 59.99918 -76.561379 
L 60.691982 -76.976486 
L 61.384784 -77.374322 
L 62.077586 -77.766028 
L 62.770388 -78.14592 
L 63.46319 -78.51609 
L 64.155992 -78.889275 
L 64.848794 -79.261568 
L 65.541596 -79.624588 
L 66.234398 -79.989768 
L 66.9272 -80.352048 
L 67.620002 -80.710248 
L 68.312804 -81.063985 
L 69.005606 -81.420254 
L 69.698408 -81.773411 
L 70.39121 -82.119776 
L 71.084012 -82.468691 
L 71.776814 -82.810935 
L 72.469616 -83.14439 
L 73.162418 -83.470778 
L 73.855221 -83.784746 
L 74.548023 -84.095737 
L 75.240825 -84.396499 
L 75.933627 -84.692146 
L 76.626429 -84.974479 
L 77.319231 -85.251533 
L 78.012033 -85.521963 
L 78.704835 -85.788038 
L 79.397637 -86.041806 
L 80.090439 -86.289902 
L 80.783241 -86.532562 
L 81.476043 -86.76947 
L 82.168845 -86.998881 
L 82.861647 -87.227188 
L 83.554449 -87.447045 
L 84.247251 -87.661099 
L 84.940053 -87.870387 
L 85.632855 -88.073597 
L 86.325657 -88.270738 
L 87.018459 -88.464524 
L 87.711261 -88.652273 
L 88.404063 -88.83819 
L 89.096865 -89.019081 
L 89.789667 -89.195564 
L 90.482469 -89.366946 
L 91.175271 -89.534336 
L 91.868073 -89.695494 
L 92.560875 -89.854625 
L 93.253678 -90.008538 
L 93.94648 -90.159949 
L 94.639282 -90.307546 
L 95.332084 -90.450807 
L 96.024886 -90.591422 
L 96.717688 -90.729875 
L 97.41049 -90.864552 
L 98.103292 -90.993871 
L 98.796094 -91.121802 
L 99.488896 -91.246339 
L 100.181698 -91.36768 
L 100.8745 -91.485996 
L 101.567302 -91.601521 
L 102.260104 -91.714431 
L 102.952906 -91.824506 
L 103.645708 -91.932334 
L 104.33851 -92.036365 
L 105.031312 -92.139999 
L 105.724114 -92.24072 
L 105.724114 -95.00979 
L 105.724114 -95.00979 
L 105.031312 -94.9582 
L 104.33851 -94.904115 
L 103.645708 -94.848128 
L 102.952906 -94.79077 
L 102.260104 -94.730546 
L 101.567302 -94.667925 
L 100.8745 -94.603764 
L 100.181698 -94.536855 
L 99.488896 -94.467803 
L 98.796094 -94.39614 
L 98.103292 -94.322086 
L 97.41049 -94.245365 
L 96.717688 -94.166013 
L 96.024886 -94.083553 
L 95.332084 -93.99756 
L 94.639282 -93.909324 
L 93.94648 -93.81705 
L 93.253678 -93.721195 
L 92.560875 -93.621838 
L 91.868073 -93.520389 
L 91.175271 -93.414583 
L 90.482469 -93.304154 
L 89.789667 -93.190307 
L 89.096865 -93.071592 
L 88.404063 -92.949132 
L 87.711261 -92.820908 
L 87.018459 -92.688789 
L 86.325657 -92.552584 
L 85.632855 -92.41116 
L 84.940053 -92.264405 
L 84.247251 -92.113378 
L 83.554449 -91.957288 
L 82.861647 -91.794065 
L 82.168845 -91.624518 
L 81.476043 -91.450436 
L 80.783241 -91.270592 
L 80.090439 -91.083954 
L 79.397637 -90.889908 
L 78.704835 -90.688778 
L 78.012033 -90.48058 
L 77.319231 -90.267721 
L 76.626429 -90.045641 
L 75.933627 -89.814259 
L 75.240825 -89.579034 
L 74.548023 -89.337264 
L 73.855221 -89.083204 
L 73.162418 -88.820503 
L 72.469616 -88.549662 
L 71.776814 -88.272525 
L 71.084012 -87.982244 
L 70.39121 -87.689948 
L 69.698408 -87.391537 
L 69.005606 -87.089383 
L 68.312804 -86.781002 
L 67.620002 -86.471923 
L 66.9272 -86.156761 
L 66.234398 -85.837935 
L 65.541596 -85.514722 
L 64.848794 -85.19047 
L 64.155992 -84.860968 
L 63.46319 -84.533959 
L 62.770388 -84.206887 
L 62.077586 -83.872186 
L 61.384784 -83.527189 
L 60.691982 -83.178472 
L 59.99918 -82.821877 
L 59.306378 -82.462311 
L 58.613576 -82.098766 
L 57.920774 -81.728708 
L 57.227972 -81.35688 
L 56.53517 -80.975385 
L 55.842368 -80.586994 
L 55.149566 -80.194939 
L 54.456764 -79.80327 
L 53.763961 -79.407272 
L 53.071159 -79.011419 
L 52.378357 -78.603823 
L 51.685555 -78.201005 
L 50.992753 -77.790119 
L 50.299951 -77.378421 
L 49.607149 -76.968071 
L 48.914347 -76.545999 
L 48.221545 -76.119329 
L 47.528743 -75.687944 
L 46.835941 -75.257597 
L 46.143139 -74.83104 
L 45.450337 -74.402057 
L 44.757535 -73.95928 
L 44.064733 -73.508197 
L 43.371931 -73.06573 
L 42.679129 -72.610545 
L 41.986327 -72.150004 
L 41.293525 -71.683422 
L 40.600723 -71.215401 
L 39.907921 -70.735795 
L 39.215119 -70.246383 
L 38.522317 -69.757292 
L 37.829515 -69.274518 
L 37.136713 -68.769589 
z
" id="m656e0e4e95" style="stroke:#000000;stroke-opacity:0.2;"/>
    </defs>
    <g clip-path="url(#p0eeeebe579)">
     <use style="fill-opacity:0.2;stroke:#000000;stroke-opacity:0.2;" x="0.0" xlink:href="#m656e0e4e95" y="113.385826772"/>
    </g>
   </g>
   <g id="patch_3">
    <path d="M 32.85 13.95 
L 110.010827 13.95 
" style="fill:none;stroke:#000000;stroke-linecap:square;stroke-linejoin:miter;"/>
   </g>
   <g id="patch_4">
    <path d="M 110.010827 80.985827 
L 110.010827 13.95 
" style="fill:none;stroke:#000000;stroke-linecap:square;stroke-linejoin:miter;"/>
   </g>
   <g id="patch_5">
    <path d="M 32.85 80.985827 
L 110.010827 80.985827 
" style="fill:none;stroke:#000000;stroke-linecap:square;stroke-linejoin:miter;"/>
   </g>
   <g id="patch_6">
    <path d="M 32.85 80.985827 
L 32.85 13.95 
" style="fill:none;stroke:#000000;stroke-linecap:square;stroke-linejoin:miter;"/>
   </g>
   <g id="matplotlib.axis_1">
    <g id="xtick_1">
     <g id="line2d_1">
      <defs>
       <path d="M 0 0 
L 0 -4 
" id="m3c281771eb" style="stroke:#000000;stroke-width:0.5;"/>
      </defs>
      <g>
       <use style="stroke:#000000;stroke-width:0.5;" x="37.1367125984" xlink:href="#m3c281771eb" y="80.9858267717"/>
      </g>
     </g>
     <g id="line2d_2">
      <defs>
       <path d="M 0 0 
L 0 4 
" id="md77772733f" style="stroke:#000000;stroke-width:0.5;"/>
      </defs>
      <g>
       <use style="stroke:#000000;stroke-width:0.5;" x="37.1367125984" xlink:href="#md77772733f" y="13.95"/>
      </g>
     </g>
     <g id="text_1">
      <text style="font-family:Helvetica LT Std;font-size:8.0px;font-style:normal;font-weight:400;text-anchor:middle;" transform="rotate(-0.000000, 37.136713, 90.682077)" x="37.1367125984" y="90.6820767717">0</text>
     </g>
    </g>
    <g id="xtick_2">
     <g id="line2d_3">
      <g>
       <use style="stroke:#000000;stroke-width:0.5;" x="54.2835629921" xlink:href="#m3c281771eb" y="80.9858267717"/>
      </g>
     </g>
     <g id="line2d_4">
      <g>
       <use style="stroke:#000000;stroke-width:0.5;" x="54.2835629921" xlink:href="#md77772733f" y="13.95"/>
      </g>
     </g>
     <g id="text_2">
      <text style="font-family:Helvetica LT Std;font-size:8.0px;font-style:normal;font-weight:400;text-anchor:middle;" transform="rotate(-0.000000, 54.283563, 90.682077)" x="54.2835629921" y="90.6820767717">2</text>
     </g>
    </g>
    <g id="xtick_3">
     <g id="line2d_5">
      <g>
       <use style="stroke:#000000;stroke-width:0.5;" x="71.4304133858" xlink:href="#m3c281771eb" y="80.9858267717"/>
      </g>
     </g>
     <g id="line2d_6">
      <g>
       <use style="stroke:#000000;stroke-width:0.5;" x="71.4304133858" xlink:href="#md77772733f" y="13.95"/>
      </g>
     </g>
     <g id="text_3">
      <text style="font-family:Helvetica LT Std;font-size:8.0px;font-style:normal;font-weight:400;text-anchor:middle;" transform="rotate(-0.000000, 71.430413, 90.682077)" x="71.4304133858" y="90.6820767717">4</text>
     </g>
    </g>
    <g id="xtick_4">
     <g id="line2d_7">
      <g>
       <use style="stroke:#000000;stroke-width:0.5;" x="88.5772637795" xlink:href="#m3c281771eb" y="80.9858267717"/>
      </g>
     </g>
     <g id="line2d_8">
      <g>
       <use style="stroke:#000000;stroke-width:0.5;" x="88.5772637795" xlink:href="#md77772733f" y="13.95"/>
      </g>
     </g>
     <g id="text_4">
      <text style="font-family:Helvetica LT Std;font-size:8.0px;font-style:normal;font-weight:400;text-anchor:middle;" transform="rotate(-0.000000, 88.577264, 90.682077)" x="88.5772637795" y="90.6820767717">6</text>
     </g>
    </g>
    <g id="xtick_5">
     <g id="line2d_9">
      <g>
       <use style="stroke:#000000;stroke-width:0.5;" x="105.724114173" xlink:href="#m3c281771eb" y="80.9858267717"/>
      </g>
     </g>
     <g id="line2d_10">
      <g>
       <use style="stroke:#000000;stroke-width:0.5;" x="105.724114173" xlink:href="#md77772733f" y="13.95"/>
      </g>
     </g>
     <g id="text_5">
      <text style="font-family:Helvetica LT Std;font-size:8.0px;font-style:normal;font-weight:400;text-anchor:middle;" transform="rotate(-0.000000, 105.724114, 90.682077)" x="105.724114173" y="90.6820767717">8</text>
     </g>
    </g>
    <g id="text_6">
     <text style="font-family:Helvetica LT Std;font-size:8.0px;font-style:normal;font-weight:400;text-anchor:middle;" transform="rotate(-0.000000, 71.430413, 102.402077)" x="71.4304133858" y="102.402076772">time (days)</text>
    </g>
   </g>
   <g id="matplotlib.axis_2">
    <g id="ytick_1">
     <g id="line2d_11">
      <defs>
       <path d="M 0 0 
L 4 0 
" id="m00ca0cca9d" style="stroke:#000000;stroke-width:0.5;"/>
      </defs>
      <g>
       <use style="stroke:#000000;stroke-width:0.5;" x="32.85" xlink:href="#m00ca0cca9d" y="77.9387437366"/>
      </g>
     </g>
     <g id="line2d_12">
      <defs>
       <path d="M 0 0 
L -4 0 
" id="m3f6809c7d5" style="stroke:#000000;stroke-width:0.5;"/>
      </defs>
      <g>
       <use style="stroke:#000000;stroke-width:0.5;" x="110.010826772" xlink:href="#m3f6809c7d5" y="77.9387437366"/>
      </g>
     </g>
     <g id="text_7">
      <text style="font-family:Helvetica LT Std;font-size:8.0px;font-style:normal;font-weight:400;text-anchor:end;" transform="rotate(-0.000000, 28.850000, 80.274994)" x="28.85" y="80.2749937366">0.8</text>
     </g>
    </g>
    <g id="ytick_2">
     <g id="line2d_13">
      <g>
       <use style="stroke:#000000;stroke-width:0.5;" x="32.85" xlink:href="#m00ca0cca9d" y="47.4679133858"/>
      </g>
     </g>
     <g id="line2d_14">
      <g>
       <use style="stroke:#000000;stroke-width:0.5;" x="110.010826772" xlink:href="#m3f6809c7d5" y="47.4679133858"/>
      </g>
     </g>
     <g id="text_8">
      <text style="font-family:Helvetica LT Std;font-size:8.0px;font-style:normal;font-weight:400;text-anchor:end;" transform="rotate(-0.000000, 28.850000, 49.804163)" x="28.85" y="49.8041633858">0.9</text>
     </g>
    </g>
    <g id="ytick_3">
     <g id="line2d_15">
      <g>
       <use style="stroke:#000000;stroke-width:0.5;" x="32.85" xlink:href="#m00ca0cca9d" y="16.9970830351"/>
      </g>
     </g>
     <g id="line2d_16">
      <g>
       <use style="stroke:#000000;stroke-width:0.5;" x="110.010826772" xlink:href="#m3f6809c7d5" y="16.9970830351"/>
      </g>
     </g>
     <g id="text_9">
      <text style="font-family:Helvetica LT Std;font-size:8.0px;font-style:normal;font-weight:400;text-anchor:end;" transform="rotate(-0.000000, 28.850000, 19.333333)" x="28.85" y="19.3333330351">1.0</text>
     </g>
    </g>
    <g id="ytick_4">
     <g id="line2d_17">
      <defs>
       <path d="M 0 0 
L 2 0 
" id="mfc1ca12e68" style="stroke:#000000;stroke-width:0.5;"/>
      </defs>
      <g>
       <use style="stroke:#000000;stroke-width:0.5;" x="32.85" xlink:href="#mfc1ca12e68" y="62.7033285612"/>
      </g>
     </g>
     <g id="line2d_18">
      <defs>
       <path d="M 0 0 
L -2 0 
" id="m3e1f067877" style="stroke:#000000;stroke-width:0.5;"/>
      </defs>
      <g>
       <use style="stroke:#000000;stroke-width:0.5;" x="110.010826772" xlink:href="#m3e1f067877" y="62.7033285612"/>
      </g>
     </g>
    </g>
    <g id="ytick_5">
     <g id="line2d_19">
      <g>
       <use style="stroke:#000000;stroke-width:0.5;" x="32.85" xlink:href="#mfc1ca12e68" y="32.2324982105"/>
      </g>
     </g>
     <g id="line2d_20">
      <g>
       <use style="stroke:#000000;stroke-width:0.5;" x="110.010826772" xlink:href="#m3e1f067877" y="32.2324982105"/>
      </g>
     </g>
    </g>
    <g id="text_10">
     <text style="font-family:Helvetica LT Std;font-size:8.0px;font-style:normal;font-weight:400;text-anchor:middle;" transform="rotate(-90.000000, 16.171250, 47.467913)" x="16.17125" y="47.4679133858">growth fraction</text>
    </g>
   </g>
   <g id="legend_1">
    <g id="patch_7">
     <path d="M 66.914331 73.410285 
L 82.914331 73.410285 
L 82.914331 67.810285 
L 66.914331 67.810285 
z
" style="opacity:0.2;stroke:#000000;stroke-linejoin:miter;"/>
    </g>
    <g id="text_11">
     <text style="font-family:Helvetica LT Std;font-size:8.0px;font-style:normal;font-weight:400;text-anchor:start;" transform="rotate(-0.000000, 89.314331, 73.410285)" x="89.3143307087" y="73.4102854331">fit</text>
    </g>
   </g>
  </g>
  <g id="axes_2">
   <g id="patch_8">
    <path d="M 138.810827 80.985827 
L 215.971654 80.985827 
L 215.971654 13.95 
L 138.810827 13.95 
z
" style="fill:#ffffff;"/>
   </g>
   <g id="PolyCollection_4">
    <defs>
     <path d="M 143.097539 -32.4 
L 143.097539 -32.4 
L 143.790341 -32.44073 
L 144.483143 -32.481638 
L 145.175945 -32.522743 
L 145.868748 -32.564086 
L 146.56155 -32.605431 
L 147.254352 -32.647018 
L 147.947154 -32.688637 
L 148.639956 -32.730616 
L 149.332758 -32.772685 
L 150.02556 -32.814892 
L 150.718362 -32.857168 
L 151.411164 -32.899587 
L 152.103966 -32.942544 
L 152.796768 -32.985403 
L 153.48957 -33.028257 
L 154.182372 -33.071919 
L 154.875174 -33.115329 
L 155.567976 -33.159446 
L 156.260778 -33.203207 
L 156.95358 -33.247156 
L 157.646382 -33.291683 
L 158.339184 -33.335805 
L 159.031986 -33.380226 
L 159.724788 -33.424488 
L 160.41759 -33.469076 
L 161.110392 -33.51393 
L 161.803194 -33.558938 
L 162.495996 -33.604618 
L 163.188798 -33.650651 
L 163.8816 -33.69688 
L 164.574402 -33.743304 
L 165.267205 -33.789922 
L 165.960007 -33.836733 
L 166.652809 -33.882849 
L 167.345611 -33.9289 
L 168.038413 -33.975846 
L 168.731215 -34.023502 
L 169.424017 -34.073655 
L 170.116819 -34.140142 
L 170.809621 -34.194049 
L 171.502423 -34.262465 
L 172.195225 -34.316896 
L 172.888027 -34.393043 
L 173.580829 -34.466284 
L 174.273631 -34.552718 
L 174.966433 -34.647831 
L 175.659235 -34.762833 
L 176.352037 -34.896723 
L 177.044839 -35.038382 
L 177.737641 -35.203936 
L 178.430443 -35.372287 
L 179.123245 -35.54116 
L 179.816047 -35.714637 
L 180.508849 -35.897834 
L 181.201651 -36.073028 
L 181.894453 -36.252213 
L 182.587255 -36.430336 
L 183.280057 -36.60832 
L 183.97286 -36.787522 
L 184.665662 -36.967762 
L 185.358464 -37.143911 
L 186.051266 -37.327156 
L 186.744068 -37.507772 
L 187.43687 -37.687687 
L 188.129672 -37.883287 
L 188.822474 -38.078191 
L 189.515276 -38.260178 
L 190.208078 -38.459249 
L 190.90088 -38.645991 
L 191.593682 -38.841916 
L 192.286484 -39.038651 
L 192.979286 -39.234083 
L 193.672088 -39.449785 
L 194.36489 -39.658011 
L 195.057692 -39.856858 
L 195.750494 -40.059418 
L 196.443296 -40.26022 
L 197.136098 -40.46411 
L 197.8289 -40.676139 
L 198.521702 -40.888979 
L 199.214504 -41.091943 
L 199.907306 -41.307864 
L 200.600108 -41.522283 
L 201.29291 -41.741379 
L 201.985712 -41.968338 
L 202.678514 -42.187017 
L 203.371317 -42.415173 
L 204.064119 -42.639128 
L 204.756921 -42.862961 
L 205.449723 -43.093807 
L 206.142525 -43.320315 
L 206.835327 -43.560082 
L 207.528129 -43.796033 
L 208.220931 -44.034288 
L 208.913733 -44.274904 
L 209.606535 -44.50423 
L 210.299337 -44.753326 
L 210.992139 -45.010131 
L 211.684941 -45.261203 
L 211.684941 -93.850349 
L 211.684941 -93.850349 
L 210.992139 -92.274393 
L 210.299337 -90.734517 
L 209.606535 -89.22676 
L 208.913733 -87.735195 
L 208.220931 -86.238697 
L 207.528129 -84.790231 
L 206.835327 -83.369693 
L 206.142525 -82.044705 
L 205.449723 -80.635444 
L 204.756921 -79.211041 
L 204.064119 -77.785092 
L 203.371317 -76.485815 
L 202.678514 -75.19596 
L 201.985712 -73.784666 
L 201.29291 -72.408871 
L 200.600108 -71.134406 
L 199.907306 -69.906766 
L 199.214504 -68.803316 
L 198.521702 -67.777065 
L 197.8289 -66.772039 
L 197.136098 -65.65257 
L 196.443296 -64.609531 
L 195.750494 -63.618735 
L 195.057692 -62.692878 
L 194.36489 -61.790039 
L 193.672088 -60.908826 
L 192.979286 -59.96625 
L 192.286484 -58.981525 
L 191.593682 -58.143547 
L 190.90088 -57.266235 
L 190.208078 -56.445757 
L 189.515276 -55.62524 
L 188.822474 -54.831763 
L 188.129672 -54.067504 
L 187.43687 -53.296963 
L 186.744068 -52.554729 
L 186.051266 -51.817969 
L 185.358464 -51.056941 
L 184.665662 -50.384505 
L 183.97286 -49.721716 
L 183.280057 -48.99911 
L 182.587255 -48.376571 
L 181.894453 -47.781403 
L 181.201651 -47.168533 
L 180.508849 -46.625454 
L 179.816047 -46.029409 
L 179.123245 -45.445645 
L 178.430443 -44.90439 
L 177.737641 -44.366611 
L 177.044839 -43.85026 
L 176.352037 -43.346646 
L 175.659235 -42.885013 
L 174.966433 -42.412263 
L 174.273631 -42.052256 
L 173.580829 -41.657352 
L 172.888027 -41.274057 
L 172.195225 -40.928163 
L 171.502423 -40.5894 
L 170.809621 -40.305181 
L 170.116819 -40.016407 
L 169.424017 -39.732699 
L 168.731215 -39.482229 
L 168.038413 -39.252927 
L 167.345611 -39.024286 
L 166.652809 -38.795827 
L 165.960007 -38.569689 
L 165.267205 -38.349924 
L 164.574402 -38.13296 
L 163.8816 -37.918083 
L 163.188798 -37.703546 
L 162.495996 -37.490726 
L 161.803194 -37.281272 
L 161.110392 -37.073648 
L 160.41759 -36.867565 
L 159.724788 -36.665677 
L 159.031986 -36.461765 
L 158.339184 -36.264172 
L 157.646382 -36.067566 
L 156.95358 -35.872838 
L 156.260778 -35.679162 
L 155.567976 -35.485155 
L 154.875174 -35.298929 
L 154.182372 -35.114521 
L 153.48957 -34.930067 
L 152.796768 -34.74714 
L 152.103966 -34.567892 
L 151.411164 -34.389585 
L 150.718362 -34.213254 
L 150.02556 -34.038886 
L 149.332758 -33.865602 
L 148.639956 -33.695789 
L 147.947154 -33.527426 
L 147.254352 -33.360767 
L 146.56155 -33.195998 
L 145.868748 -33.033242 
L 145.175945 -32.872735 
L 144.483143 -32.713236 
L 143.790341 -32.555537 
L 143.097539 -32.4 
z
" id="m1940a45d6e" style="stroke:#008000;stroke-opacity:0.2;"/>
    </defs>
    <g clip-path="url(#pc9901c7071)">
     <use style="fill:#008000;fill-opacity:0.2;stroke:#008000;stroke-opacity:0.2;" x="0.0" xlink:href="#m1940a45d6e" y="113.385826772"/>
    </g>
   </g>
   <g id="PolyCollection_5">
    <defs>
     <path d="M 143.097539 -32.4 
L 143.097539 -32.4 
L 143.790341 -32.456344 
L 144.483143 -32.51294 
L 145.175945 -32.569822 
L 145.868748 -32.626959 
L 146.56155 -32.684373 
L 147.254352 -32.742032 
L 147.947154 -32.799945 
L 148.639956 -32.85818 
L 149.332758 -32.916722 
L 150.02556 -32.975534 
L 150.718362 -33.034592 
L 151.411164 -33.094348 
L 152.103966 -33.154134 
L 152.796768 -33.214231 
L 153.48957 -33.274305 
L 154.182372 -33.334879 
L 154.875174 -33.39596 
L 155.567976 -33.457333 
L 156.260778 -33.5188 
L 156.95358 -33.580598 
L 157.646382 -33.642511 
L 158.339184 -33.704891 
L 159.031986 -33.767272 
L 159.724788 -33.830195 
L 160.41759 -33.89386 
L 161.110392 -33.956937 
L 161.803194 -34.020882 
L 162.495996 -34.084627 
L 163.188798 -34.148278 
L 163.8816 -34.212659 
L 164.574402 -34.277679 
L 165.267205 -34.34209 
L 165.960007 -34.407506 
L 166.652809 -34.473475 
L 167.345611 -34.540125 
L 168.038413 -34.605417 
L 168.731215 -34.671618 
L 169.424017 -34.742764 
L 170.116819 -34.820451 
L 170.809621 -34.904691 
L 171.502423 -34.995198 
L 172.195225 -35.0948 
L 172.888027 -35.198066 
L 173.580829 -35.306744 
L 174.273631 -35.42221 
L 174.966433 -35.54463 
L 175.659235 -35.679585 
L 176.352037 -35.835085 
L 177.044839 -36.003814 
L 177.737641 -36.193346 
L 178.430443 -36.39008 
L 179.123245 -36.585003 
L 179.816047 -36.78251 
L 180.508849 -36.980497 
L 181.201651 -37.182968 
L 181.894453 -37.386202 
L 182.587255 -37.590362 
L 183.280057 -37.794945 
L 183.97286 -38.003799 
L 184.665662 -38.209976 
L 185.358464 -38.418188 
L 186.051266 -38.631299 
L 186.744068 -38.844287 
L 187.43687 -39.060478 
L 188.129672 -39.281351 
L 188.822474 -39.504644 
L 189.515276 -39.728059 
L 190.208078 -39.95348 
L 190.90088 -40.180073 
L 191.593682 -40.410119 
L 192.286484 -40.639086 
L 192.979286 -40.871764 
L 193.672088 -41.109617 
L 194.36489 -41.351492 
L 195.057692 -41.592663 
L 195.750494 -41.835573 
L 196.443296 -42.076356 
L 197.136098 -42.324279 
L 197.8289 -42.572712 
L 198.521702 -42.820322 
L 199.214504 -43.073644 
L 199.907306 -43.326686 
L 200.600108 -43.582569 
L 201.29291 -43.842257 
L 201.985712 -44.105077 
L 202.678514 -44.37297 
L 203.371317 -44.640044 
L 204.064119 -44.909143 
L 204.756921 -45.184709 
L 205.449723 -45.459133 
L 206.142525 -45.734478 
L 206.835327 -46.015572 
L 207.528129 -46.295504 
L 208.220931 -46.585346 
L 208.913733 -46.875455 
L 209.606535 -47.167334 
L 210.299337 -47.459073 
L 210.992139 -47.755243 
L 211.684941 -48.055219 
L 211.684941 -66.432115 
L 211.684941 -66.432115 
L 210.992139 -65.700713 
L 210.299337 -64.990502 
L 209.606535 -64.279711 
L 208.913733 -63.583118 
L 208.220931 -62.905359 
L 207.528129 -62.229468 
L 206.835327 -61.567217 
L 206.142525 -60.918067 
L 205.449723 -60.280422 
L 204.756921 -59.649868 
L 204.064119 -59.027911 
L 203.371317 -58.412262 
L 202.678514 -57.808023 
L 201.985712 -57.216424 
L 201.29291 -56.625615 
L 200.600108 -56.04466 
L 199.907306 -55.466622 
L 199.214504 -54.907622 
L 198.521702 -54.349663 
L 197.8289 -53.803917 
L 197.136098 -53.265727 
L 196.443296 -52.739163 
L 195.750494 -52.223383 
L 195.057692 -51.703119 
L 194.36489 -51.203373 
L 193.672088 -50.707877 
L 192.979286 -50.216731 
L 192.286484 -49.738209 
L 191.593682 -49.267456 
L 190.90088 -48.801544 
L 190.208078 -48.342486 
L 189.515276 -47.891161 
L 188.822474 -47.454421 
L 188.129672 -47.015944 
L 187.43687 -46.587442 
L 186.744068 -46.170354 
L 186.051266 -45.755052 
L 185.358464 -45.347764 
L 184.665662 -44.943966 
L 183.97286 -44.546574 
L 183.280057 -44.159687 
L 182.587255 -43.781313 
L 181.894453 -43.407145 
L 181.201651 -43.038606 
L 180.508849 -42.671713 
L 179.816047 -42.314399 
L 179.123245 -41.958099 
L 178.430443 -41.616674 
L 177.737641 -41.277892 
L 177.044839 -40.947417 
L 176.352037 -40.617584 
L 175.659235 -40.301135 
L 174.966433 -39.998743 
L 174.273631 -39.705662 
L 173.580829 -39.426246 
L 172.888027 -39.156798 
L 172.195225 -38.907316 
L 171.502423 -38.672907 
L 170.809621 -38.44882 
L 170.116819 -38.247286 
L 169.424017 -38.057456 
L 168.731215 -37.880825 
L 168.038413 -37.707786 
L 167.345611 -37.536382 
L 166.652809 -37.366904 
L 165.960007 -37.200477 
L 165.267205 -37.033396 
L 164.574402 -36.867631 
L 163.8816 -36.703122 
L 163.188798 -36.541416 
L 162.495996 -36.380109 
L 161.803194 -36.220961 
L 161.110392 -36.062665 
L 160.41759 -35.905876 
L 159.724788 -35.750548 
L 159.031986 -35.59702 
L 158.339184 -35.444321 
L 157.646382 -35.292031 
L 156.95358 -35.141261 
L 156.260778 -34.992371 
L 155.567976 -34.844201 
L 154.875174 -34.697837 
L 154.182372 -34.552642 
L 153.48957 -34.409103 
L 152.796768 -34.266534 
L 152.103966 -34.124697 
L 151.411164 -33.984849 
L 150.718362 -33.846089 
L 150.02556 -33.708848 
L 149.332758 -33.572324 
L 148.639956 -33.437106 
L 147.947154 -33.303341 
L 147.254352 -33.170759 
L 146.56155 -33.039409 
L 145.868748 -32.909119 
L 145.175945 -32.78003 
L 144.483143 -32.652195 
L 143.790341 -32.525515 
L 143.097539 -32.4 
z
" id="m60f1562ead" style="stroke:#008000;stroke-opacity:0.2;"/>
    </defs>
    <g clip-path="url(#pc9901c7071)">
     <use style="fill:#008000;fill-opacity:0.2;stroke:#008000;stroke-opacity:0.2;" x="0.0" xlink:href="#m60f1562ead" y="113.385826772"/>
    </g>
   </g>
   <g id="PolyCollection_6">
    <defs>
     <path d="M 143.097539 -32.4 
L 143.097539 -32.4 
L 143.790341 -32.472065 
L 144.483143 -32.544575 
L 145.175945 -32.61752 
L 145.868748 -32.690917 
L 146.56155 -32.76468 
L 147.254352 -32.838858 
L 147.947154 -32.91353 
L 148.639956 -32.988579 
L 149.332758 -33.064092 
L 150.02556 -33.140027 
L 150.718362 -33.216385 
L 151.411164 -33.293254 
L 152.103966 -33.370471 
L 152.796768 -33.448118 
L 153.48957 -33.526288 
L 154.182372 -33.604748 
L 154.875174 -33.683532 
L 155.567976 -33.762858 
L 156.260778 -33.842725 
L 156.95358 -33.922985 
L 157.646382 -34.003511 
L 158.339184 -34.084439 
L 159.031986 -34.166018 
L 159.724788 -34.247939 
L 160.41759 -34.330025 
L 161.110392 -34.412911 
L 161.803194 -34.496146 
L 162.495996 -34.579675 
L 163.188798 -34.663561 
L 163.8816 -34.747621 
L 164.574402 -34.832349 
L 165.267205 -34.917678 
L 165.960007 -35.003627 
L 166.652809 -35.090067 
L 167.345611 -35.176956 
L 168.038413 -35.263724 
L 168.731215 -35.351388 
L 169.424017 -35.442962 
L 170.116819 -35.542813 
L 170.809621 -35.650602 
L 171.502423 -35.763766 
L 172.195225 -35.888626 
L 172.888027 -36.017981 
L 173.580829 -36.157781 
L 174.273631 -36.304533 
L 174.966433 -36.464588 
L 175.659235 -36.637631 
L 176.352037 -36.823547 
L 177.044839 -37.024618 
L 177.737641 -37.238427 
L 178.430443 -37.456459 
L 179.123245 -37.674509 
L 179.816047 -37.898328 
L 180.508849 -38.12361 
L 181.201651 -38.350451 
L 181.894453 -38.579626 
L 182.587255 -38.811529 
L 183.280057 -39.046084 
L 183.97286 -39.282318 
L 184.665662 -39.523674 
L 185.358464 -39.765317 
L 186.051266 -40.010267 
L 186.744068 -40.25743 
L 187.43687 -40.505666 
L 188.129672 -40.759306 
L 188.822474 -41.014176 
L 189.515276 -41.270733 
L 190.208078 -41.531511 
L 190.90088 -41.794224 
L 191.593682 -42.060498 
L 192.286484 -42.328886 
L 192.979286 -42.60315 
L 193.672088 -42.878508 
L 194.36489 -43.156269 
L 195.057692 -43.437759 
L 195.750494 -43.721702 
L 196.443296 -44.009904 
L 197.136098 -44.299597 
L 197.8289 -44.592883 
L 198.521702 -44.888571 
L 199.214504 -45.1883 
L 199.907306 -45.491274 
L 200.600108 -45.795425 
L 201.29291 -46.103929 
L 201.985712 -46.415561 
L 202.678514 -46.728965 
L 203.371317 -47.048358 
L 204.064119 -47.372576 
L 204.756921 -47.696596 
L 205.449723 -48.027174 
L 206.142525 -48.359507 
L 206.835327 -48.69517 
L 207.528129 -49.035759 
L 208.220931 -49.376298 
L 208.913733 -49.722319 
L 209.606535 -50.07273 
L 210.299337 -50.425789 
L 210.992139 -50.781412 
L 211.684941 -51.143853 
L 211.684941 -59.52087 
L 211.684941 -59.52087 
L 210.992139 -58.970789 
L 210.299337 -58.427499 
L 209.606535 -57.89148 
L 208.913733 -57.359816 
L 208.220931 -56.839327 
L 207.528129 -56.326723 
L 206.835327 -55.818642 
L 206.142525 -55.320636 
L 205.449723 -54.825207 
L 204.756921 -54.339265 
L 204.064119 -53.861024 
L 203.371317 -53.385972 
L 202.678514 -52.916723 
L 201.985712 -52.454342 
L 201.29291 -51.997151 
L 200.600108 -51.551013 
L 199.907306 -51.109427 
L 199.214504 -50.672616 
L 198.521702 -50.244654 
L 197.8289 -49.822345 
L 197.136098 -49.404508 
L 196.443296 -48.994435 
L 195.750494 -48.584452 
L 195.057692 -48.181759 
L 194.36489 -47.78454 
L 193.672088 -47.391365 
L 192.979286 -47.002786 
L 192.286484 -46.62049 
L 191.593682 -46.244873 
L 190.90088 -45.872456 
L 190.208078 -45.505603 
L 189.515276 -45.143703 
L 188.822474 -44.787906 
L 188.129672 -44.434848 
L 187.43687 -44.090246 
L 186.744068 -43.749 
L 186.051266 -43.413211 
L 185.358464 -43.081189 
L 184.665662 -42.753683 
L 183.97286 -42.431355 
L 183.280057 -42.111738 
L 182.587255 -41.797793 
L 181.894453 -41.487023 
L 181.201651 -41.179984 
L 180.508849 -40.878077 
L 179.816047 -40.580177 
L 179.123245 -40.288581 
L 178.430443 -39.99922 
L 177.737641 -39.71415 
L 177.044839 -39.432761 
L 176.352037 -39.162863 
L 175.659235 -38.8997 
L 174.966433 -38.645058 
L 174.273631 -38.404563 
L 173.580829 -38.174219 
L 172.888027 -37.959697 
L 172.195225 -37.755841 
L 171.502423 -37.567172 
L 170.809621 -37.389236 
L 170.116819 -37.224049 
L 169.424017 -37.071347 
L 168.731215 -36.927591 
L 168.038413 -36.788223 
L 167.345611 -36.650223 
L 166.652809 -36.512692 
L 165.960007 -36.376304 
L 165.267205 -36.241176 
L 164.574402 -36.106875 
L 163.8816 -35.9736 
L 163.188798 -35.841033 
L 162.495996 -35.709774 
L 161.803194 -35.57966 
L 161.110392 -35.450077 
L 160.41759 -35.321713 
L 159.724788 -35.194074 
L 159.031986 -35.067453 
L 158.339184 -34.941595 
L 157.646382 -34.816829 
L 156.95358 -34.69289 
L 156.260778 -34.569992 
L 155.567976 -34.447653 
L 154.875174 -34.326323 
L 154.182372 -34.205838 
L 153.48957 -34.086368 
L 152.796768 -33.967661 
L 152.103966 -33.850011 
L 151.411164 -33.733078 
L 150.718362 -33.617388 
L 150.02556 -33.502329 
L 149.332758 -33.388179 
L 148.639956 -33.274877 
L 147.947154 -33.162469 
L 147.254352 -33.050989 
L 146.56155 -32.940365 
L 145.868748 -32.830581 
L 145.175945 -32.721708 
L 144.483143 -32.613602 
L 143.790341 -32.506369 
L 143.097539 -32.4 
z
" id="m32af6b9afc" style="stroke:#008000;stroke-opacity:0.2;"/>
    </defs>
    <g clip-path="url(#pc9901c7071)">
     <use style="fill:#008000;fill-opacity:0.2;stroke:#008000;stroke-opacity:0.2;" x="0.0" xlink:href="#m32af6b9afc" y="113.385826772"/>
    </g>
   </g>
   <g id="patch_9">
    <path d="M 138.810827 13.95 
L 215.971654 13.95 
" style="fill:none;stroke:#000000;stroke-linecap:square;stroke-linejoin:miter;"/>
   </g>
   <g id="patch_10">
    <path d="M 215.971654 80.985827 
L 215.971654 13.95 
" style="fill:none;stroke:#000000;stroke-linecap:square;stroke-linejoin:miter;"/>
   </g>
   <g id="patch_11">
    <path d="M 138.810827 80.985827 
L 215.971654 80.985827 
" style="fill:none;stroke:#000000;stroke-linecap:square;stroke-linejoin:miter;"/>
   </g>
   <g id="patch_12">
    <path d="M 138.810827 80.985827 
L 138.810827 13.95 
" style="fill:none;stroke:#000000;stroke-linecap:square;stroke-linejoin:miter;"/>
   </g>
   <g id="matplotlib.axis_3">
    <g id="xtick_6">
     <g id="line2d_21">
      <g>
       <use style="stroke:#000000;stroke-width:0.5;" x="143.09753937" xlink:href="#m3c281771eb" y="80.9858267717"/>
      </g>
     </g>
     <g id="line2d_22">
      <g>
       <use style="stroke:#000000;stroke-width:0.5;" x="143.09753937" xlink:href="#md77772733f" y="13.95"/>
      </g>
     </g>
     <g id="text_12">
      <text style="font-family:Helvetica LT Std;font-size:8.0px;font-style:normal;font-weight:400;text-anchor:middle;" transform="rotate(-0.000000, 143.097539, 90.682077)" x="143.09753937" y="90.6820767717">0</text>
     </g>
    </g>
    <g id="xtick_7">
     <g id="line2d_23">
      <g>
       <use style="stroke:#000000;stroke-width:0.5;" x="160.244389764" xlink:href="#m3c281771eb" y="80.9858267717"/>
      </g>
     </g>
     <g id="line2d_24">
      <g>
       <use style="stroke:#000000;stroke-width:0.5;" x="160.244389764" xlink:href="#md77772733f" y="13.95"/>
      </g>
     </g>
     <g id="text_13">
      <text style="font-family:Helvetica LT Std;font-size:8.0px;font-style:normal;font-weight:400;text-anchor:middle;" transform="rotate(-0.000000, 160.244390, 90.682077)" x="160.244389764" y="90.6820767717">2</text>
     </g>
    </g>
    <g id="xtick_8">
     <g id="line2d_25">
      <g>
       <use style="stroke:#000000;stroke-width:0.5;" x="177.391240157" xlink:href="#m3c281771eb" y="80.9858267717"/>
      </g>
     </g>
     <g id="line2d_26">
      <g>
       <use style="stroke:#000000;stroke-width:0.5;" x="177.391240157" xlink:href="#md77772733f" y="13.95"/>
      </g>
     </g>
     <g id="text_14">
      <text style="font-family:Helvetica LT Std;font-size:8.0px;font-style:normal;font-weight:400;text-anchor:middle;" transform="rotate(-0.000000, 177.391240, 90.682077)" x="177.391240157" y="90.6820767717">4</text>
     </g>
    </g>
    <g id="xtick_9">
     <g id="line2d_27">
      <g>
       <use style="stroke:#000000;stroke-width:0.5;" x="194.538090551" xlink:href="#m3c281771eb" y="80.9858267717"/>
      </g>
     </g>
     <g id="line2d_28">
      <g>
       <use style="stroke:#000000;stroke-width:0.5;" x="194.538090551" xlink:href="#md77772733f" y="13.95"/>
      </g>
     </g>
     <g id="text_15">
      <text style="font-family:Helvetica LT Std;font-size:8.0px;font-style:normal;font-weight:400;text-anchor:middle;" transform="rotate(-0.000000, 194.538091, 90.682077)" x="194.538090551" y="90.6820767717">6</text>
     </g>
    </g>
    <g id="xtick_10">
     <g id="line2d_29">
      <g>
       <use style="stroke:#000000;stroke-width:0.5;" x="211.684940945" xlink:href="#m3c281771eb" y="80.9858267717"/>
      </g>
     </g>
     <g id="line2d_30">
      <g>
       <use style="stroke:#000000;stroke-width:0.5;" x="211.684940945" xlink:href="#md77772733f" y="13.95"/>
      </g>
     </g>
     <g id="text_16">
      <text style="font-family:Helvetica LT Std;font-size:8.0px;font-style:normal;font-weight:400;text-anchor:middle;" transform="rotate(-0.000000, 211.684941, 90.682077)" x="211.684940945" y="90.6820767717">8</text>
     </g>
    </g>
    <g id="text_17">
     <text style="font-family:Helvetica LT Std;font-size:8.0px;font-style:normal;font-weight:400;text-anchor:middle;" transform="rotate(-0.000000, 177.391240, 102.402077)" x="177.391240157" y="102.402076772">time (days)</text>
    </g>
   </g>
   <g id="matplotlib.axis_4">
    <g id="ytick_6">
     <g id="line2d_31">
      <g>
       <use style="stroke:#000000;stroke-width:0.5;" x="138.810826772" xlink:href="#m00ca0cca9d" y="80.9858267717"/>
      </g>
     </g>
     <g id="line2d_32">
      <g>
       <use style="stroke:#000000;stroke-width:0.5;" x="215.971653543" xlink:href="#m3f6809c7d5" y="80.9858267717"/>
      </g>
     </g>
     <g id="text_18">
      <text style="font-family:Helvetica LT Std;font-size:8.0px;font-style:normal;font-weight:400;text-anchor:end;" transform="rotate(-0.000000, 134.810827, 83.322077)" x="134.810826772" y="83.3220767717">0</text>
     </g>
    </g>
    <g id="ytick_7">
     <g id="line2d_33">
      <g>
       <use style="stroke:#000000;stroke-width:0.5;" x="138.810826772" xlink:href="#m00ca0cca9d" y="64.2268700787"/>
      </g>
     </g>
     <g id="line2d_34">
      <g>
       <use style="stroke:#000000;stroke-width:0.5;" x="215.971653543" xlink:href="#m3f6809c7d5" y="64.2268700787"/>
      </g>
     </g>
     <g id="text_19">
      <text style="font-family:Helvetica LT Std;font-size:8.0px;font-style:normal;font-weight:400;text-anchor:end;" transform="rotate(-0.000000, 134.810827, 66.563120)" x="134.810826772" y="66.5631200787">1</text>
     </g>
    </g>
    <g id="ytick_8">
     <g id="line2d_35">
      <g>
       <use style="stroke:#000000;stroke-width:0.5;" x="138.810826772" xlink:href="#m00ca0cca9d" y="47.4679133858"/>
      </g>
     </g>
     <g id="line2d_36">
      <g>
       <use style="stroke:#000000;stroke-width:0.5;" x="215.971653543" xlink:href="#m3f6809c7d5" y="47.4679133858"/>
      </g>
     </g>
     <g id="text_20">
      <text style="font-family:Helvetica LT Std;font-size:8.0px;font-style:normal;font-weight:400;text-anchor:end;" transform="rotate(-0.000000, 134.810827, 49.804163)" x="134.810826772" y="49.8041633858">2</text>
     </g>
    </g>
    <g id="ytick_9">
     <g id="line2d_37">
      <g>
       <use style="stroke:#000000;stroke-width:0.5;" x="138.810826772" xlink:href="#m00ca0cca9d" y="30.7089566929"/>
      </g>
     </g>
     <g id="line2d_38">
      <g>
       <use style="stroke:#000000;stroke-width:0.5;" x="215.971653543" xlink:href="#m3f6809c7d5" y="30.7089566929"/>
      </g>
     </g>
     <g id="text_21">
      <text style="font-family:Helvetica LT Std;font-size:8.0px;font-style:normal;font-weight:400;text-anchor:end;" transform="rotate(-0.000000, 134.810827, 33.045207)" x="134.810826772" y="33.0452066929">3</text>
     </g>
    </g>
    <g id="ytick_10">
     <g id="line2d_39">
      <g>
       <use style="stroke:#000000;stroke-width:0.5;" x="138.810826772" xlink:href="#m00ca0cca9d" y="13.95"/>
      </g>
     </g>
     <g id="line2d_40">
      <g>
       <use style="stroke:#000000;stroke-width:0.5;" x="215.971653543" xlink:href="#m3f6809c7d5" y="13.95"/>
      </g>
     </g>
     <g id="text_22">
      <text style="font-family:Helvetica LT Std;font-size:8.0px;font-style:normal;font-weight:400;text-anchor:end;" transform="rotate(-0.000000, 134.810827, 16.286250)" x="134.810826772" y="16.28625">4</text>
     </g>
    </g>
    <g id="text_23">
     <text style="font-family:Helvetica LT Std;font-size:8.0px;font-style:normal;font-weight:400;text-anchor:middle;" transform="rotate(-90.000000, 126.123327, 47.467913)" x="126.123326772" y="47.4679133858">outgrowth (mm)</text>
    </g>
   </g>
   <g id="legend_2">
    <g id="patch_13">
     <path d="M 146.010827 26.84625 
L 162.010827 26.84625 
L 162.010827 21.24625 
L 146.010827 21.24625 
z
" style="fill:#008000;opacity:0.2;stroke:#008000;stroke-linejoin:miter;"/>
    </g>
    <g id="text_24">
     <text style="font-family:Helvetica LT Std;font-size:8.0px;font-style:normal;font-weight:400;text-anchor:start;" transform="rotate(-0.000000, 168.410827, 26.846250)" x="168.410826772" y="26.84625">prediction</text>
    </g>
   </g>
  </g>
 </g>
 <defs>
  <clipPath id="pc9901c7071">
   <rect height="67.0358267717" width="77.1608267717" x="138.810826772" y="13.95"/>
  </clipPath>
  <clipPath id="p0eeeebe579">
   <rect height="67.0358267717" width="77.1608267717" x="32.85" y="13.95"/>
  </clipPath>
 </defs>
</svg>
