<?xml version="1.0" encoding="utf-8" standalone="no"?>
<!DOCTYPE svg PUBLIC "-//W3C//DTD SVG 1.1//EN"
  "http://www.w3.org/Graphics/SVG/1.1/DTD/svg11.dtd">
<!-- Created with matplotlib (http://matplotlib.org/) -->
<svg height="184pt" version="1.1" viewBox="0 0 93 184" width="93pt" xmlns="http://www.w3.org/2000/svg" xmlns:xlink="http://www.w3.org/1999/xlink">
 <defs>
  <style type="text/css">
*{stroke-linecap:butt;stroke-linejoin:round;stroke-miterlimit:100000;}
  </style>
 </defs>
 <g id="figure_1">
  <g id="patch_1">
   <path d="M 0 184.251969 
L 93.543307 184.251969 
L 93.543307 0 
L 0 0 
z
" style="fill:#ffffff;"/>
  </g>
  <g id="axes_1">
   <g id="patch_2">
    <path d="M 11.692913 83.33214 
L 84.188976 83.33214 
L 84.188976 18.425197 
L 11.692913 18.425197 
z
" style="fill:#ffffff;"/>
   </g>
   <g id="PolyCollection_1">
    <defs>
     <path d="M 15.720472 -147.518942 
L 15.720472 -100.729014 
L 16.371391 -102.803199 
L 17.02231 -104.760205 
L 17.673228 -106.745802 
L 18.324147 -108.676486 
L 18.975066 -110.375801 
L 19.625984 -111.993438 
L 20.276903 -113.671587 
L 20.927822 -115.172373 
L 21.57874 -116.562323 
L 22.229659 -117.908778 
L 22.880577 -119.206929 
L 23.531496 -120.431102 
L 24.182415 -121.568949 
L 24.833333 -122.655777 
L 25.484252 -123.746385 
L 26.135171 -124.756433 
L 26.786089 -125.756235 
L 27.437008 -126.708305 
L 28.087927 -127.597854 
L 28.738845 -128.456467 
L 29.389764 -129.268967 
L 30.040682 -130.066499 
L 30.691601 -130.849463 
L 31.34252 -131.583989 
L 31.993438 -132.298002 
L 32.644357 -132.973072 
L 33.295276 -133.630309 
L 33.946194 -134.283699 
L 34.597113 -134.906718 
L 35.248031 -135.508319 
L 35.89895 -136.096244 
L 36.549869 -136.671802 
L 37.200787 -137.203974 
L 37.851706 -137.740858 
L 38.502625 -138.261781 
L 39.153543 -138.717057 
L 39.804462 -139.193403 
L 40.455381 -139.623023 
L 41.106299 -140.116256 
L 41.757218 -140.545596 
L 42.408136 -140.995764 
L 43.059055 -141.435226 
L 43.709974 -141.832326 
L 44.360892 -142.265521 
L 45.011811 -142.713578 
L 45.66273 -143.130388 
L 46.313648 -143.551848 
L 46.964567 -143.938124 
L 47.615486 -144.347999 
L 48.266404 -144.753757 
L 48.917323 -145.152236 
L 49.568241 -145.51089 
L 50.21916 -145.882408 
L 50.870079 -146.23683 
L 51.520997 -146.572164 
L 52.171916 -146.90375 
L 52.822835 -147.250386 
L 53.473753 -147.549615 
L 54.124672 -147.848286 
L 54.775591 -148.11175 
L 55.426509 -148.393931 
L 56.077428 -148.64294 
L 56.728346 -148.902907 
L 57.379265 -149.169935 
L 58.030184 -149.414826 
L 58.681102 -149.629341 
L 59.332021 -149.851046 
L 59.98294 -150.077934 
L 60.633858 -150.283032 
L 61.284777 -150.472787 
L 61.935696 -150.688174 
L 62.586614 -150.88938 
L 63.237533 -151.088212 
L 63.888451 -151.287888 
L 64.53937 -151.457398 
L 65.190289 -151.622726 
L 65.841207 -151.774535 
L 66.492126 -151.953196 
L 67.143045 -152.108656 
L 67.793963 -152.267238 
L 68.444882 -152.416167 
L 69.095801 -152.56307 
L 69.746719 -152.706597 
L 70.397638 -152.837498 
L 71.048556 -152.97211 
L 71.699475 -153.11592 
L 72.350394 -153.247896 
L 73.001312 -153.391122 
L 73.652231 -153.535434 
L 74.30315 -153.671447 
L 74.954068 -153.801492 
L 75.604987 -153.920184 
L 76.255906 -154.052492 
L 76.906824 -154.17365 
L 77.557743 -154.281078 
L 78.208661 -154.392042 
L 78.85958 -154.518159 
L 79.510499 -154.628359 
L 80.161417 -154.733299 
L 80.161417 -162.496316 
L 80.161417 -162.496316 
L 79.510499 -162.476384 
L 78.85958 -162.454712 
L 78.208661 -162.432586 
L 77.557743 -162.410428 
L 76.906824 -162.386671 
L 76.255906 -162.360492 
L 75.604987 -162.333459 
L 74.954068 -162.305592 
L 74.30315 -162.275576 
L 73.652231 -162.244877 
L 73.001312 -162.212054 
L 72.350394 -162.177636 
L 71.699475 -162.141089 
L 71.048556 -162.104038 
L 70.397638 -162.064275 
L 69.746719 -162.021125 
L 69.095801 -161.97579 
L 68.444882 -161.927105 
L 67.793963 -161.880217 
L 67.143045 -161.826116 
L 66.492126 -161.771089 
L 65.841207 -161.713843 
L 65.190289 -161.653977 
L 64.53937 -161.592683 
L 63.888451 -161.525723 
L 63.237533 -161.456055 
L 62.586614 -161.3828 
L 61.935696 -161.305165 
L 61.284777 -161.223033 
L 60.633858 -161.135469 
L 59.98294 -161.043443 
L 59.332021 -160.949249 
L 58.681102 -160.852598 
L 58.030184 -160.749649 
L 57.379265 -160.633491 
L 56.728346 -160.523507 
L 56.077428 -160.406488 
L 55.426509 -160.275494 
L 54.775591 -160.142613 
L 54.124672 -160.003772 
L 53.473753 -159.86274 
L 52.822835 -159.704162 
L 52.171916 -159.548034 
L 51.520997 -159.381927 
L 50.870079 -159.205601 
L 50.21916 -159.028199 
L 49.568241 -158.840339 
L 48.917323 -158.636392 
L 48.266404 -158.429097 
L 47.615486 -158.221214 
L 46.964567 -157.977894 
L 46.313648 -157.759034 
L 45.66273 -157.504572 
L 45.011811 -157.243774 
L 44.360892 -156.987696 
L 43.709974 -156.717939 
L 43.059055 -156.446313 
L 42.408136 -156.172165 
L 41.757218 -155.87947 
L 41.106299 -155.59628 
L 40.455381 -155.323632 
L 39.804462 -155.048629 
L 39.153543 -154.749113 
L 38.502625 -154.480652 
L 37.851706 -154.18992 
L 37.200787 -153.904241 
L 36.549869 -153.586904 
L 35.89895 -153.298749 
L 35.248031 -153.02846 
L 34.597113 -152.739133 
L 33.946194 -152.460849 
L 33.295276 -152.181785 
L 32.644357 -151.860346 
L 31.993438 -151.583204 
L 31.34252 -151.344286 
L 30.691601 -151.108596 
L 30.040682 -150.882765 
L 29.389764 -150.687803 
L 28.738845 -150.461682 
L 28.087927 -150.259259 
L 27.437008 -150.06685 
L 26.786089 -149.909057 
L 26.135171 -149.713409 
L 25.484252 -149.555921 
L 24.833333 -149.388989 
L 24.182415 -149.198722 
L 23.531496 -149.032602 
L 22.880577 -148.925573 
L 22.229659 -148.769797 
L 21.57874 -148.64266 
L 20.927822 -148.532742 
L 20.276903 -148.390798 
L 19.625984 -148.252353 
L 18.975066 -148.136358 
L 18.324147 -148.046058 
L 17.673228 -147.912314 
L 17.02231 -147.777074 
L 16.371391 -147.640202 
L 15.720472 -147.518942 
z
" id="meaabc5d4d6" style="stroke:#008000;stroke-opacity:0.2;"/>
    </defs>
    <g clip-path="url(#pc56b4c764b)">
     <use style="fill:#008000;fill-opacity:0.2;stroke:#008000;stroke-opacity:0.2;" x="0.0" xlink:href="#meaabc5d4d6" y="184.251968504"/>
    </g>
   </g>
   <g id="PolyCollection_2">
    <defs>
     <path d="M 15.720472 -142.36284 
L 15.720472 -109.737905 
L 16.371391 -111.403548 
L 17.02231 -112.991995 
L 17.673228 -114.51603 
L 18.324147 -116.02487 
L 18.975066 -117.448901 
L 19.625984 -118.786274 
L 20.276903 -120.073846 
L 20.927822 -121.336618 
L 21.57874 -122.518906 
L 22.229659 -123.670794 
L 22.880577 -124.751066 
L 23.531496 -125.807932 
L 24.182415 -126.827508 
L 24.833333 -127.784327 
L 25.484252 -128.71352 
L 26.135171 -129.618591 
L 26.786089 -130.476339 
L 27.437008 -131.311648 
L 28.087927 -132.108592 
L 28.738845 -132.855009 
L 29.389764 -133.612154 
L 30.040682 -134.308772 
L 30.691601 -134.989661 
L 31.34252 -135.642624 
L 31.993438 -136.282928 
L 32.644357 -136.885438 
L 33.295276 -137.462918 
L 33.946194 -138.025332 
L 34.597113 -138.56364 
L 35.248031 -139.077379 
L 35.89895 -139.579457 
L 36.549869 -140.080663 
L 37.200787 -140.542916 
L 37.851706 -140.983459 
L 38.502625 -141.40828 
L 39.153543 -141.833936 
L 39.804462 -142.230021 
L 40.455381 -142.636332 
L 41.106299 -143.038255 
L 41.757218 -143.432932 
L 42.408136 -143.823139 
L 43.059055 -144.207975 
L 43.709974 -144.593126 
L 44.360892 -144.972646 
L 45.011811 -145.349869 
L 45.66273 -145.720535 
L 46.313648 -146.086091 
L 46.964567 -146.455769 
L 47.615486 -146.810515 
L 48.266404 -147.174408 
L 48.917323 -147.533252 
L 49.568241 -147.884713 
L 50.21916 -148.216476 
L 50.870079 -148.531131 
L 51.520997 -148.841482 
L 52.171916 -149.145841 
L 52.822835 -149.445376 
L 53.473753 -149.730784 
L 54.124672 -150.004036 
L 54.775591 -150.281282 
L 55.426509 -150.543723 
L 56.077428 -150.80183 
L 56.728346 -151.050802 
L 57.379265 -151.289888 
L 58.030184 -151.522487 
L 58.681102 -151.752098 
L 59.332021 -151.972285 
L 59.98294 -152.186262 
L 60.633858 -152.398869 
L 61.284777 -152.604441 
L 61.935696 -152.810286 
L 62.586614 -153.004701 
L 63.237533 -153.201201 
L 63.888451 -153.395033 
L 64.53937 -153.577844 
L 65.190289 -153.753812 
L 65.841207 -153.929986 
L 66.492126 -154.105339 
L 67.143045 -154.277175 
L 67.793963 -154.445505 
L 68.444882 -154.607958 
L 69.095801 -154.763841 
L 69.746719 -154.916887 
L 70.397638 -155.066138 
L 71.048556 -155.210768 
L 71.699475 -155.356865 
L 72.350394 -155.498793 
L 73.001312 -155.63574 
L 73.652231 -155.771922 
L 74.30315 -155.906139 
L 74.954068 -156.034975 
L 75.604987 -156.162733 
L 76.255906 -156.285992 
L 76.906824 -156.405632 
L 77.557743 -156.522801 
L 78.208661 -156.640779 
L 78.85958 -156.758265 
L 79.510499 -156.871337 
L 80.161417 -156.980157 
L 80.161417 -162.165672 
L 80.161417 -162.165672 
L 79.510499 -162.133488 
L 78.85958 -162.100611 
L 78.208661 -162.065879 
L 77.557743 -162.029461 
L 76.906824 -161.991734 
L 76.255906 -161.952589 
L 75.604987 -161.911087 
L 74.954068 -161.867606 
L 74.30315 -161.821757 
L 73.652231 -161.775199 
L 73.001312 -161.725788 
L 72.350394 -161.674178 
L 71.699475 -161.620573 
L 71.048556 -161.56418 
L 70.397638 -161.504929 
L 69.746719 -161.443085 
L 69.095801 -161.378459 
L 68.444882 -161.312152 
L 67.793963 -161.240566 
L 67.143045 -161.166706 
L 66.492126 -161.089626 
L 65.841207 -161.009296 
L 65.190289 -160.927378 
L 64.53937 -160.839577 
L 63.888451 -160.749344 
L 63.237533 -160.655279 
L 62.586614 -160.555322 
L 61.935696 -160.452467 
L 61.284777 -160.345314 
L 60.633858 -160.234443 
L 59.98294 -160.114863 
L 59.332021 -159.993582 
L 58.681102 -159.865347 
L 58.030184 -159.731591 
L 57.379265 -159.591766 
L 56.728346 -159.450372 
L 56.077428 -159.302966 
L 55.426509 -159.14714 
L 54.775591 -158.986354 
L 54.124672 -158.81747 
L 53.473753 -158.640131 
L 52.822835 -158.458337 
L 52.171916 -158.268528 
L 51.520997 -158.068148 
L 50.870079 -157.859965 
L 50.21916 -157.644414 
L 49.568241 -157.420235 
L 48.917323 -157.187599 
L 48.266404 -156.94486 
L 47.615486 -156.696831 
L 46.964567 -156.433435 
L 46.313648 -156.167784 
L 45.66273 -155.896373 
L 45.011811 -155.62108 
L 44.360892 -155.339433 
L 43.709974 -155.055058 
L 43.059055 -154.765113 
L 42.408136 -154.473354 
L 41.757218 -154.185168 
L 41.106299 -153.876422 
L 40.455381 -153.569713 
L 39.804462 -153.265856 
L 39.153543 -152.961508 
L 38.502625 -152.642769 
L 37.851706 -152.331197 
L 37.200787 -152.016062 
L 36.549869 -151.70561 
L 35.89895 -151.386961 
L 35.248031 -151.066816 
L 34.597113 -150.739056 
L 33.946194 -150.414912 
L 33.295276 -150.088456 
L 32.644357 -149.761463 
L 31.993438 -149.451113 
L 31.34252 -149.133368 
L 30.691601 -148.821903 
L 30.040682 -148.52325 
L 29.389764 -148.21374 
L 28.738845 -147.917273 
L 28.087927 -147.623935 
L 27.437008 -147.330898 
L 26.786089 -147.033892 
L 26.135171 -146.759802 
L 25.484252 -146.465326 
L 24.833333 -146.170537 
L 24.182415 -145.896977 
L 23.531496 -145.604117 
L 22.880577 -145.323235 
L 22.229659 -145.055467 
L 21.57874 -144.781952 
L 20.927822 -144.511491 
L 20.276903 -144.232345 
L 19.625984 -143.957236 
L 18.975066 -143.688352 
L 18.324147 -143.430628 
L 17.673228 -143.161145 
L 17.02231 -142.891341 
L 16.371391 -142.62514 
L 15.720472 -142.36284 
z
" id="mbd94a7963a" style="stroke:#008000;stroke-opacity:0.2;"/>
    </defs>
    <g clip-path="url(#pc56b4c764b)">
     <use style="fill:#008000;fill-opacity:0.2;stroke:#008000;stroke-opacity:0.2;" x="0.0" xlink:href="#mbd94a7963a" y="184.251968504"/>
    </g>
   </g>
   <g id="PolyCollection_3">
    <defs>
     <path d="M 15.720472 -136.134414 
L 15.720472 -118.804624 
L 16.371391 -120.023229 
L 17.02231 -121.196696 
L 17.673228 -122.335663 
L 18.324147 -123.44911 
L 18.975066 -124.544884 
L 19.625984 -125.600599 
L 20.276903 -126.605242 
L 20.927822 -127.575625 
L 21.57874 -128.5295 
L 22.229659 -129.452812 
L 22.880577 -130.338821 
L 23.531496 -131.185044 
L 24.182415 -132.01718 
L 24.833333 -132.80725 
L 25.484252 -133.580132 
L 26.135171 -134.321338 
L 26.786089 -135.039779 
L 27.437008 -135.73078 
L 28.087927 -136.393654 
L 28.738845 -137.035931 
L 29.389764 -137.659662 
L 30.040682 -138.260532 
L 30.691601 -138.840039 
L 31.34252 -139.394559 
L 31.993438 -139.93602 
L 32.644357 -140.456657 
L 33.295276 -140.969486 
L 33.946194 -141.459763 
L 34.597113 -141.93083 
L 35.248031 -142.390166 
L 35.89895 -142.836392 
L 36.549869 -143.261795 
L 37.200787 -143.678759 
L 37.851706 -144.080681 
L 38.502625 -144.465883 
L 39.153543 -144.845147 
L 39.804462 -145.212977 
L 40.455381 -145.571389 
L 41.106299 -145.932725 
L 41.757218 -146.293194 
L 42.408136 -146.644683 
L 43.059055 -146.998267 
L 43.709974 -147.349042 
L 44.360892 -147.695867 
L 45.011811 -148.038372 
L 45.66273 -148.383327 
L 46.313648 -148.725272 
L 46.964567 -149.060633 
L 47.615486 -149.398468 
L 48.266404 -149.729842 
L 48.917323 -150.052708 
L 49.568241 -150.368733 
L 50.21916 -150.672729 
L 50.870079 -150.973843 
L 51.520997 -151.265051 
L 52.171916 -151.551311 
L 52.822835 -151.82468 
L 53.473753 -152.092933 
L 54.124672 -152.354776 
L 54.775591 -152.612403 
L 55.426509 -152.85811 
L 56.077428 -153.098328 
L 56.728346 -153.33328 
L 57.379265 -153.562663 
L 58.030184 -153.784791 
L 58.681102 -154.005846 
L 59.332021 -154.21872 
L 59.98294 -154.42598 
L 60.633858 -154.62862 
L 61.284777 -154.825377 
L 61.935696 -155.016258 
L 62.586614 -155.203884 
L 63.237533 -155.385673 
L 63.888451 -155.565687 
L 64.53937 -155.740834 
L 65.190289 -155.911711 
L 65.841207 -156.077654 
L 66.492126 -156.239723 
L 67.143045 -156.395762 
L 67.793963 -156.549845 
L 68.444882 -156.698869 
L 69.095801 -156.84547 
L 69.746719 -156.988381 
L 70.397638 -157.127092 
L 71.048556 -157.263241 
L 71.699475 -157.397299 
L 72.350394 -157.527698 
L 73.001312 -157.65291 
L 73.652231 -157.776778 
L 74.30315 -157.897361 
L 74.954068 -158.014849 
L 75.604987 -158.129412 
L 76.255906 -158.241262 
L 76.906824 -158.350588 
L 77.557743 -158.457167 
L 78.208661 -158.561569 
L 78.85958 -158.662298 
L 79.510499 -158.76264 
L 80.161417 -158.860163 
L 80.161417 -161.541295 
L 80.161417 -161.541295 
L 79.510499 -161.491348 
L 78.85958 -161.438975 
L 78.208661 -161.384769 
L 77.557743 -161.329227 
L 76.906824 -161.27092 
L 76.255906 -161.210288 
L 75.604987 -161.148163 
L 74.954068 -161.083381 
L 74.30315 -161.016523 
L 73.652231 -160.947135 
L 73.001312 -160.875429 
L 72.350394 -160.80115 
L 71.699475 -160.724314 
L 71.048556 -160.644473 
L 70.397638 -160.561212 
L 69.746719 -160.475774 
L 69.095801 -160.386436 
L 68.444882 -160.293625 
L 67.793963 -160.197422 
L 67.143045 -160.099195 
L 66.492126 -159.996746 
L 65.841207 -159.889829 
L 65.190289 -159.779592 
L 64.53937 -159.66466 
L 63.888451 -159.546081 
L 63.237533 -159.421932 
L 62.586614 -159.294002 
L 61.935696 -159.16212 
L 61.284777 -159.025193 
L 60.633858 -158.883096 
L 59.98294 -158.736863 
L 59.332021 -158.585728 
L 58.681102 -158.427689 
L 58.030184 -158.263528 
L 57.379265 -158.094979 
L 56.728346 -157.920846 
L 56.077428 -157.740133 
L 55.426509 -157.552245 
L 54.775591 -157.357508 
L 54.124672 -157.155919 
L 53.473753 -156.949815 
L 52.822835 -156.734796 
L 52.171916 -156.510757 
L 51.520997 -156.283015 
L 50.870079 -156.048911 
L 50.21916 -155.802923 
L 49.568241 -155.548552 
L 48.917323 -155.286325 
L 48.266404 -155.017989 
L 47.615486 -154.736919 
L 46.964567 -154.453914 
L 46.313648 -154.16498 
L 45.66273 -153.872419 
L 45.011811 -153.573833 
L 44.360892 -153.274572 
L 43.709974 -152.969415 
L 43.059055 -152.660715 
L 42.408136 -152.347765 
L 41.757218 -152.03381 
L 41.106299 -151.714762 
L 40.455381 -151.398138 
L 39.804462 -151.081464 
L 39.153543 -150.757393 
L 38.502625 -150.423338 
L 37.851706 -150.085711 
L 37.200787 -149.740436 
L 36.549869 -149.392291 
L 35.89895 -149.040291 
L 35.248031 -148.681984 
L 34.597113 -148.321965 
L 33.946194 -147.952586 
L 33.295276 -147.576529 
L 32.644357 -147.196921 
L 31.993438 -146.817693 
L 31.34252 -146.434273 
L 30.691601 -146.05099 
L 30.040682 -145.656338 
L 29.389764 -145.266312 
L 28.738845 -144.868475 
L 28.087927 -144.469852 
L 27.437008 -144.072533 
L 26.786089 -143.663858 
L 26.135171 -143.250744 
L 25.484252 -142.83306 
L 24.833333 -142.41638 
L 24.182415 -142.003369 
L 23.531496 -141.588009 
L 22.880577 -141.159294 
L 22.229659 -140.722536 
L 21.57874 -140.294121 
L 20.927822 -139.853391 
L 20.276903 -139.407476 
L 19.625984 -138.955711 
L 18.975066 -138.502553 
L 18.324147 -138.038178 
L 17.673228 -137.564301 
L 17.02231 -137.09075 
L 16.371391 -136.623308 
L 15.720472 -136.134414 
z
" id="mfd5a47376e" style="stroke:#008000;stroke-opacity:0.2;"/>
    </defs>
    <g clip-path="url(#pc56b4c764b)">
     <use style="fill:#008000;fill-opacity:0.2;stroke:#008000;stroke-opacity:0.2;" x="0.0" xlink:href="#mfd5a47376e" y="184.251968504"/>
    </g>
   </g>
   <g id="LineCollection_1">
    <path clip-path="url(#pc56b4c764b)" d="M 15.720472 65.132741 
L 15.720472 48.425193 
" style="fill:none;stroke:#000000;"/>
    <path clip-path="url(#pc56b4c764b)" d="M 39.885827 48.308506 
L 39.885827 33.900857 
" style="fill:none;stroke:#000000;"/>
    <path clip-path="url(#pc56b4c764b)" d="M 47.940945 31.264407 
L 47.940945 26.983644 
" style="fill:none;stroke:#000000;"/>
    <path clip-path="url(#pc56b4c764b)" d="M 64.051181 24.482373 
L 64.051181 23.763998 
" style="fill:none;stroke:#000000;"/>
    <path clip-path="url(#pc56b4c764b)" d="M 80.161417 30.365525 
L 80.161417 27.006285 
" style="fill:none;stroke:#000000;"/>
   </g>
   <g id="line2d_1">
    <defs>
     <path d="M 3 0 
L -3 -0 
" id="m7ce0ad6ab4" style="stroke:#000000;stroke-width:0.5;"/>
    </defs>
    <g clip-path="url(#pc56b4c764b)">
     <use style="stroke:#000000;stroke-width:0.5;" x="15.7204724409" xlink:href="#m7ce0ad6ab4" y="65.1327406917"/>
     <use style="stroke:#000000;stroke-width:0.5;" x="39.8858267717" xlink:href="#m7ce0ad6ab4" y="48.3085056088"/>
     <use style="stroke:#000000;stroke-width:0.5;" x="47.9409448819" xlink:href="#m7ce0ad6ab4" y="31.2644074022"/>
     <use style="stroke:#000000;stroke-width:0.5;" x="64.0511811024" xlink:href="#m7ce0ad6ab4" y="24.4823728269"/>
     <use style="stroke:#000000;stroke-width:0.5;" x="80.1614173228" xlink:href="#m7ce0ad6ab4" y="30.3655254959"/>
    </g>
   </g>
   <g id="line2d_2">
    <g clip-path="url(#pc56b4c764b)">
     <use style="stroke:#000000;stroke-width:0.5;" x="15.7204724409" xlink:href="#m7ce0ad6ab4" y="48.4251925573"/>
     <use style="stroke:#000000;stroke-width:0.5;" x="39.8858267717" xlink:href="#m7ce0ad6ab4" y="33.9008571939"/>
     <use style="stroke:#000000;stroke-width:0.5;" x="47.9409448819" xlink:href="#m7ce0ad6ab4" y="26.98364359"/>
     <use style="stroke:#000000;stroke-width:0.5;" x="64.0511811024" xlink:href="#m7ce0ad6ab4" y="23.763998014"/>
     <use style="stroke:#000000;stroke-width:0.5;" x="80.1614173228" xlink:href="#m7ce0ad6ab4" y="27.0062851696"/>
    </g>
   </g>
   <g id="line2d_3">
    <defs>
     <path d="M 0 2 
C 0.530406 2 1.03916 1.789267 1.414214 1.414214 
C 1.789267 1.03916 2 0.530406 2 0 
C 2 -0.530406 1.789267 -1.03916 1.414214 -1.414214 
C 1.03916 -1.789267 0.530406 -2 0 -2 
C -0.530406 -2 -1.03916 -1.789267 -1.414214 -1.414214 
C -1.789267 -1.03916 -2 -0.530406 -2 0 
C -2 0.530406 -1.789267 1.03916 -1.414214 1.414214 
C -1.03916 1.789267 -0.530406 2 0 2 
z
" id="m70f2804e15" style="stroke:#000000;stroke-width:0.5;"/>
    </defs>
    <g clip-path="url(#pc56b4c764b)">
     <use style="stroke:#000000;stroke-width:0.5;" x="15.7204724409" xlink:href="#m70f2804e15" y="56.7789666245"/>
     <use style="stroke:#000000;stroke-width:0.5;" x="39.8858267717" xlink:href="#m70f2804e15" y="41.1046814014"/>
     <use style="stroke:#000000;stroke-width:0.5;" x="47.9409448819" xlink:href="#m70f2804e15" y="29.1240254961"/>
     <use style="stroke:#000000;stroke-width:0.5;" x="64.0511811024" xlink:href="#m70f2804e15" y="24.1231854205"/>
     <use style="stroke:#000000;stroke-width:0.5;" x="80.1614173228" xlink:href="#m70f2804e15" y="28.6859053327"/>
    </g>
   </g>
   <g id="patch_3">
    <path d="M 11.692913 18.425197 
L 84.188976 18.425197 
" style="fill:none;stroke:#000000;stroke-linecap:square;stroke-linejoin:miter;"/>
   </g>
   <g id="patch_4">
    <path d="M 84.188976 83.33214 
L 84.188976 18.425197 
" style="fill:none;stroke:#000000;stroke-linecap:square;stroke-linejoin:miter;"/>
   </g>
   <g id="patch_5">
    <path d="M 11.692913 83.33214 
L 84.188976 83.33214 
" style="fill:none;stroke:#000000;stroke-linecap:square;stroke-linejoin:miter;"/>
   </g>
   <g id="patch_6">
    <path d="M 11.692913 83.33214 
L 11.692913 18.425197 
" style="fill:none;stroke:#000000;stroke-linecap:square;stroke-linejoin:miter;"/>
   </g>
   <g id="matplotlib.axis_1">
    <g id="xtick_1">
     <g id="line2d_4">
      <defs>
       <path d="M 0 0 
L 0 -4 
" id="m420a91265a" style="stroke:#000000;stroke-width:0.5;"/>
      </defs>
      <g>
       <use style="stroke:#000000;stroke-width:0.5;" x="15.7204724409" xlink:href="#m420a91265a" y="83.3321403006"/>
      </g>
     </g>
     <g id="line2d_5">
      <defs>
       <path d="M 0 0 
L 0 4 
" id="mcaae42441c" style="stroke:#000000;stroke-width:0.5;"/>
      </defs>
      <g>
       <use style="stroke:#000000;stroke-width:0.5;" x="15.7204724409" xlink:href="#mcaae42441c" y="18.4251968504"/>
      </g>
     </g>
    </g>
    <g id="xtick_2">
     <g id="line2d_6">
      <g>
       <use style="stroke:#000000;stroke-width:0.5;" x="31.8307086614" xlink:href="#m420a91265a" y="83.3321403006"/>
      </g>
     </g>
     <g id="line2d_7">
      <g>
       <use style="stroke:#000000;stroke-width:0.5;" x="31.8307086614" xlink:href="#mcaae42441c" y="18.4251968504"/>
      </g>
     </g>
    </g>
    <g id="xtick_3">
     <g id="line2d_8">
      <g>
       <use style="stroke:#000000;stroke-width:0.5;" x="47.9409448819" xlink:href="#m420a91265a" y="83.3321403006"/>
      </g>
     </g>
     <g id="line2d_9">
      <g>
       <use style="stroke:#000000;stroke-width:0.5;" x="47.9409448819" xlink:href="#mcaae42441c" y="18.4251968504"/>
      </g>
     </g>
    </g>
    <g id="xtick_4">
     <g id="line2d_10">
      <g>
       <use style="stroke:#000000;stroke-width:0.5;" x="64.0511811024" xlink:href="#m420a91265a" y="83.3321403006"/>
      </g>
     </g>
     <g id="line2d_11">
      <g>
       <use style="stroke:#000000;stroke-width:0.5;" x="64.0511811024" xlink:href="#mcaae42441c" y="18.4251968504"/>
      </g>
     </g>
    </g>
    <g id="xtick_5">
     <g id="line2d_12">
      <g>
       <use style="stroke:#000000;stroke-width:0.5;" x="80.1614173228" xlink:href="#m420a91265a" y="83.3321403006"/>
      </g>
     </g>
     <g id="line2d_13">
      <g>
       <use style="stroke:#000000;stroke-width:0.5;" x="80.1614173228" xlink:href="#mcaae42441c" y="18.4251968504"/>
      </g>
     </g>
    </g>
   </g>
   <g id="matplotlib.axis_2">
    <g id="ytick_1">
     <g id="line2d_14">
      <defs>
       <path d="M 0 0 
L 4 0 
" id="m8990428561" style="stroke:#000000;stroke-width:0.5;"/>
      </defs>
      <g>
       <use style="stroke:#000000;stroke-width:0.5;" x="11.6929133858" xlink:href="#m8990428561" y="80.3818246893"/>
      </g>
     </g>
     <g id="line2d_15">
      <defs>
       <path d="M 0 0 
L -4 0 
" id="mb370afbd4a" style="stroke:#000000;stroke-width:0.5;"/>
      </defs>
      <g>
       <use style="stroke:#000000;stroke-width:0.5;" x="84.188976378" xlink:href="#mb370afbd4a" y="80.3818246893"/>
      </g>
     </g>
     <g id="text_1">
      <text style="font-family:Helvetica LT Std;font-size:8.0px;font-style:normal;font-weight:400;text-anchor:end;" transform="rotate(-0.000000, 7.692913, 82.718075)" x="7.69291338583" y="82.7180746893">0.8</text>
     </g>
    </g>
    <g id="ytick_2">
     <g id="line2d_16">
      <g>
       <use style="stroke:#000000;stroke-width:0.5;" x="11.6929133858" xlink:href="#m8990428561" y="50.8786685755"/>
      </g>
     </g>
     <g id="line2d_17">
      <g>
       <use style="stroke:#000000;stroke-width:0.5;" x="84.188976378" xlink:href="#mb370afbd4a" y="50.8786685755"/>
      </g>
     </g>
     <g id="text_2">
      <text style="font-family:Helvetica LT Std;font-size:8.0px;font-style:normal;font-weight:400;text-anchor:end;" transform="rotate(-0.000000, 7.692913, 53.214919)" x="7.69291338583" y="53.2149185755">0.9</text>
     </g>
    </g>
    <g id="ytick_3">
     <g id="line2d_18">
      <g>
       <use style="stroke:#000000;stroke-width:0.5;" x="11.6929133858" xlink:href="#m8990428561" y="21.3755124618"/>
      </g>
     </g>
     <g id="line2d_19">
      <g>
       <use style="stroke:#000000;stroke-width:0.5;" x="84.188976378" xlink:href="#mb370afbd4a" y="21.3755124618"/>
      </g>
     </g>
     <g id="text_3">
      <text style="font-family:Helvetica LT Std;font-size:8.0px;font-style:normal;font-weight:400;text-anchor:end;" transform="rotate(-0.000000, 7.692913, 23.711762)" x="7.69291338583" y="23.7117624618">1.0</text>
     </g>
    </g>
    <g id="ytick_4">
     <g id="line2d_20">
      <defs>
       <path d="M 0 0 
L 2 0 
" id="m7867040eb7" style="stroke:#000000;stroke-width:0.5;"/>
      </defs>
      <g>
       <use style="stroke:#000000;stroke-width:0.5;" x="11.6929133858" xlink:href="#m7867040eb7" y="65.6302466324"/>
      </g>
     </g>
     <g id="line2d_21">
      <defs>
       <path d="M 0 0 
L -2 0 
" id="m3369896bbe" style="stroke:#000000;stroke-width:0.5;"/>
      </defs>
      <g>
       <use style="stroke:#000000;stroke-width:0.5;" x="84.188976378" xlink:href="#m3369896bbe" y="65.6302466324"/>
      </g>
     </g>
    </g>
    <g id="ytick_5">
     <g id="line2d_22">
      <g>
       <use style="stroke:#000000;stroke-width:0.5;" x="11.6929133858" xlink:href="#m7867040eb7" y="36.1270905186"/>
      </g>
     </g>
     <g id="line2d_23">
      <g>
       <use style="stroke:#000000;stroke-width:0.5;" x="84.188976378" xlink:href="#m3369896bbe" y="36.1270905186"/>
      </g>
     </g>
    </g>
    <g id="text_4">
     <text style="font-family:Helvetica LT Std;font-size:8.0px;font-style:normal;font-weight:400;text-anchor:middle;" transform="rotate(-90.000000, -4.985837, 50.878669)" x="-4.98583661417" y="50.8786685755">Growth fraction</text>
    </g>
   </g>
  </g>
  <g id="axes_2">
   <g id="patch_7">
    <path d="M 11.692913 161.220472 
L 84.188976 161.220472 
L 84.188976 96.313529 
L 11.692913 96.313529 
z
" style="fill:#ffffff;"/>
   </g>
   <g id="PolyCollection_4">
    <defs>
     <path d="M 15.720472 -23.031496 
L 15.720472 -23.031496 
L 16.371391 -23.057814 
L 17.02231 -23.084235 
L 17.673228 -23.110758 
L 18.324147 -23.137383 
L 18.975066 -23.16411 
L 19.625984 -23.190937 
L 20.276903 -23.217958 
L 20.927822 -23.244982 
L 21.57874 -23.272184 
L 22.229659 -23.299561 
L 22.880577 -23.326887 
L 23.531496 -23.3543 
L 24.182415 -23.381806 
L 24.833333 -23.409404 
L 25.484252 -23.437094 
L 26.135171 -23.464876 
L 26.786089 -23.49275 
L 27.437008 -23.520716 
L 28.087927 -23.548853 
L 28.738845 -23.577359 
L 29.389764 -23.605396 
L 30.040682 -23.633752 
L 30.691601 -23.662264 
L 31.34252 -23.690873 
L 31.993438 -23.71958 
L 32.644357 -23.748383 
L 33.295276 -23.777412 
L 33.946194 -23.806468 
L 34.597113 -23.835512 
L 35.248031 -23.865033 
L 35.89895 -23.893877 
L 36.549869 -23.923227 
L 37.200787 -23.952703 
L 37.851706 -23.982275 
L 38.502625 -24.011942 
L 39.153543 -24.041704 
L 39.804462 -24.071562 
L 40.455381 -24.103944 
L 41.106299 -24.147078 
L 41.757218 -24.181591 
L 42.408136 -24.232847 
L 43.059055 -24.282061 
L 43.709974 -24.325302 
L 44.360892 -24.368019 
L 45.011811 -24.415603 
L 45.66273 -24.475149 
L 46.313648 -24.55434 
L 46.964567 -24.645705 
L 47.615486 -24.763413 
L 48.266404 -24.899467 
L 48.917323 -25.050869 
L 49.568241 -25.201268 
L 50.21916 -25.3502 
L 50.870079 -25.504233 
L 51.520997 -25.655544 
L 52.171916 -25.799233 
L 52.822835 -25.946865 
L 53.473753 -26.098678 
L 54.124672 -26.247297 
L 54.775591 -26.403966 
L 55.426509 -26.568466 
L 56.077428 -26.725232 
L 56.728346 -26.87833 
L 57.379265 -27.034964 
L 58.030184 -27.199298 
L 58.681102 -27.361162 
L 59.332021 -27.524001 
L 59.98294 -27.68177 
L 60.633858 -27.852864 
L 61.284777 -28.028594 
L 61.935696 -28.197514 
L 62.586614 -28.361314 
L 63.237533 -28.52343 
L 63.888451 -28.688746 
L 64.53937 -28.858707 
L 65.190289 -29.027423 
L 65.841207 -29.192618 
L 66.492126 -29.356266 
L 67.143045 -29.522606 
L 67.793963 -29.694384 
L 68.444882 -29.860947 
L 69.095801 -30.03825 
L 69.746719 -30.203022 
L 70.397638 -30.370765 
L 71.048556 -30.543034 
L 71.699475 -30.717113 
L 72.350394 -30.895797 
L 73.001312 -31.074525 
L 73.652231 -31.248665 
L 74.30315 -31.42962 
L 74.954068 -31.614375 
L 75.604987 -31.794922 
L 76.255906 -31.991776 
L 76.906824 -32.180396 
L 77.557743 -32.363654 
L 78.208661 -32.542991 
L 78.85958 -32.730696 
L 79.510499 -32.924771 
L 80.161417 -33.12078 
L 80.161417 -75.559609 
L 80.161417 -75.559609 
L 79.510499 -73.963871 
L 78.85958 -72.514992 
L 78.208661 -71.225655 
L 77.557743 -69.824568 
L 76.906824 -68.526777 
L 76.255906 -67.258442 
L 75.604987 -66.017938 
L 74.954068 -64.820856 
L 74.30315 -63.672254 
L 73.652231 -62.548067 
L 73.001312 -61.447759 
L 72.350394 -60.267817 
L 71.699475 -59.190878 
L 71.048556 -58.181933 
L 70.397638 -57.089827 
L 69.746719 -56.023008 
L 69.095801 -55.023061 
L 68.444882 -54.120785 
L 67.793963 -53.161225 
L 67.143045 -52.167253 
L 66.492126 -51.258723 
L 65.841207 -50.370222 
L 65.190289 -49.501275 
L 64.53937 -48.651554 
L 63.888451 -47.820592 
L 63.237533 -47.003195 
L 62.586614 -46.199329 
L 61.935696 -45.340874 
L 61.284777 -44.503317 
L 60.633858 -43.686174 
L 59.98294 -42.915516 
L 59.332021 -42.278135 
L 58.681102 -41.653558 
L 58.030184 -40.964044 
L 57.379265 -40.24959 
L 56.728346 -39.552123 
L 56.077428 -38.889306 
L 55.426509 -38.336471 
L 54.775591 -37.713548 
L 54.124672 -37.112309 
L 53.473753 -36.51018 
L 52.822835 -35.967194 
L 52.171916 -35.448356 
L 51.520997 -34.926664 
L 50.870079 -34.427924 
L 50.21916 -33.938077 
L 49.568241 -33.442706 
L 48.917323 -33.009502 
L 48.266404 -32.566679 
L 47.615486 -32.149308 
L 46.964567 -31.764585 
L 46.313648 -31.371761 
L 45.66273 -31.022883 
L 45.011811 -30.685064 
L 44.360892 -30.357159 
L 43.709974 -30.033777 
L 43.059055 -29.721581 
L 42.408136 -29.436488 
L 41.757218 -29.147413 
L 41.106299 -28.941392 
L 40.455381 -28.751285 
L 39.804462 -28.566057 
L 39.153543 -28.38483 
L 38.502625 -28.203975 
L 37.851706 -28.023128 
L 37.200787 -27.844413 
L 36.549869 -27.667811 
L 35.89895 -27.493306 
L 35.248031 -27.320877 
L 34.597113 -27.150508 
L 33.946194 -26.982179 
L 33.295276 -26.818464 
L 32.644357 -26.655967 
L 31.993438 -26.496123 
L 31.34252 -26.335141 
L 30.691601 -26.177544 
L 30.040682 -26.021143 
L 29.389764 -25.867551 
L 28.738845 -25.715832 
L 28.087927 -25.566271 
L 27.437008 -25.420049 
L 26.786089 -25.274923 
L 26.135171 -25.128535 
L 25.484252 -24.983762 
L 24.833333 -24.84161 
L 24.182415 -24.701809 
L 23.531496 -24.563665 
L 22.880577 -24.427165 
L 22.229659 -24.292772 
L 21.57874 -24.159594 
L 20.927822 -24.028462 
L 20.276903 -23.898318 
L 19.625984 -23.770337 
L 18.975066 -23.642887 
L 18.324147 -23.516913 
L 17.673228 -23.393225 
L 17.02231 -23.271079 
L 16.371391 -23.150525 
L 15.720472 -23.031496 
z
" id="m06df6d13d5" style="stroke:#008000;stroke-opacity:0.2;"/>
    </defs>
    <g clip-path="url(#pc794b4a979)">
     <use style="fill:#008000;fill-opacity:0.2;stroke:#008000;stroke-opacity:0.2;" x="0.0" xlink:href="#m06df6d13d5" y="184.251968504"/>
    </g>
   </g>
   <g id="PolyCollection_5">
    <defs>
     <path d="M 15.720472 -23.031496 
L 15.720472 -23.031496 
L 16.371391 -23.067504 
L 17.02231 -23.103697 
L 17.673228 -23.14005 
L 18.324147 -23.176588 
L 18.975066 -23.213337 
L 19.625984 -23.25026 
L 20.276903 -23.287383 
L 20.927822 -23.324616 
L 21.57874 -23.362129 
L 22.229659 -23.399781 
L 22.880577 -23.437535 
L 23.531496 -23.475536 
L 24.182415 -23.513713 
L 24.833333 -23.551976 
L 25.484252 -23.590436 
L 26.135171 -23.629115 
L 26.786089 -23.667897 
L 27.437008 -23.706822 
L 28.087927 -23.746013 
L 28.738845 -23.785466 
L 29.389764 -23.824827 
L 30.040682 -23.864382 
L 30.691601 -23.904211 
L 31.34252 -23.944234 
L 31.993438 -23.984397 
L 32.644357 -24.0247 
L 33.295276 -24.065342 
L 33.946194 -24.10586 
L 34.597113 -24.146731 
L 35.248031 -24.187892 
L 35.89895 -24.229022 
L 36.549869 -24.270479 
L 37.200787 -24.311967 
L 37.851706 -24.353501 
L 38.502625 -24.395314 
L 39.153543 -24.437159 
L 39.804462 -24.479067 
L 40.455381 -24.52378 
L 41.106299 -24.577542 
L 41.757218 -24.638123 
L 42.408136 -24.700772 
L 43.059055 -24.768492 
L 43.709974 -24.841965 
L 44.360892 -24.920965 
L 45.011811 -25.002877 
L 45.66273 -25.09562 
L 46.313648 -25.19661 
L 46.964567 -25.323767 
L 47.615486 -25.46045 
L 48.266404 -25.615361 
L 48.917323 -25.773876 
L 49.568241 -25.933647 
L 50.21916 -26.096872 
L 50.870079 -26.260498 
L 51.520997 -26.423342 
L 52.171916 -26.588225 
L 52.822835 -26.755276 
L 53.473753 -26.921748 
L 54.124672 -27.090089 
L 54.775591 -27.262351 
L 55.426509 -27.436399 
L 56.077428 -27.610892 
L 56.728346 -27.786427 
L 57.379265 -27.964167 
L 58.030184 -28.142301 
L 58.681102 -28.323237 
L 59.332021 -28.504415 
L 59.98294 -28.689428 
L 60.633858 -28.873235 
L 61.284777 -29.061179 
L 61.935696 -29.249333 
L 62.586614 -29.437751 
L 63.237533 -29.629001 
L 63.888451 -29.818243 
L 64.53937 -30.012497 
L 65.190289 -30.205749 
L 65.841207 -30.401895 
L 66.492126 -30.597688 
L 67.143045 -30.799737 
L 67.793963 -31.001786 
L 68.444882 -31.203764 
L 69.095801 -31.407225 
L 69.746719 -31.614423 
L 70.397638 -31.823079 
L 71.048556 -32.03453 
L 71.699475 -32.248114 
L 72.350394 -32.462456 
L 73.001312 -32.681878 
L 73.652231 -32.898975 
L 74.30315 -33.120514 
L 74.954068 -33.343027 
L 75.604987 -33.564412 
L 76.255906 -33.788098 
L 76.906824 -34.01922 
L 77.557743 -34.250686 
L 78.208661 -34.488628 
L 78.85958 -34.719304 
L 79.510499 -34.956652 
L 80.161417 -35.199709 
L 80.161417 -50.232661 
L 80.161417 -50.232661 
L 79.510499 -49.637845 
L 78.85958 -49.055859 
L 78.208661 -48.477935 
L 77.557743 -47.901927 
L 76.906824 -47.345323 
L 76.255906 -46.781459 
L 75.604987 -46.228838 
L 74.954068 -45.692986 
L 74.30315 -45.163552 
L 73.652231 -44.643596 
L 73.001312 -44.13345 
L 72.350394 -43.626402 
L 71.699475 -43.131674 
L 71.048556 -42.637009 
L 70.397638 -42.156402 
L 69.746719 -41.687201 
L 69.095801 -41.225119 
L 68.444882 -40.768541 
L 67.793963 -40.313667 
L 67.143045 -39.866487 
L 66.492126 -39.435377 
L 65.841207 -39.014935 
L 65.190289 -38.594214 
L 64.53937 -38.183627 
L 63.888451 -37.776413 
L 63.237533 -37.370762 
L 62.586614 -36.981411 
L 61.935696 -36.586927 
L 61.284777 -36.195696 
L 60.633858 -35.818303 
L 59.98294 -35.44939 
L 59.332021 -35.082405 
L 58.681102 -34.72744 
L 58.030184 -34.370793 
L 57.379265 -34.021095 
L 56.728346 -33.679937 
L 56.077428 -33.338186 
L 55.426509 -33.011807 
L 54.775591 -32.688059 
L 54.124672 -32.370798 
L 53.473753 -32.061779 
L 52.822835 -31.752807 
L 52.171916 -31.449139 
L 51.520997 -31.15085 
L 50.870079 -30.85388 
L 50.21916 -30.568552 
L 49.568241 -30.282821 
L 48.917323 -30.000601 
L 48.266404 -29.723817 
L 47.615486 -29.453179 
L 46.964567 -29.194245 
L 46.313648 -28.934366 
L 45.66273 -28.688043 
L 45.011811 -28.45568 
L 44.360892 -28.233652 
L 43.709974 -28.021604 
L 43.059055 -27.826678 
L 42.408136 -27.646451 
L 41.757218 -27.479498 
L 41.106299 -27.324991 
L 40.455381 -27.184416 
L 39.804462 -27.053326 
L 39.153543 -26.924638 
L 38.502625 -26.797303 
L 37.851706 -26.670366 
L 37.200787 -26.545548 
L 36.549869 -26.421937 
L 35.89895 -26.298651 
L 35.248031 -26.176881 
L 34.597113 -26.056115 
L 33.946194 -25.936186 
L 33.295276 -25.817675 
L 32.644357 -25.700936 
L 31.993438 -25.585334 
L 31.34252 -25.470754 
L 30.691601 -25.357048 
L 30.040682 -25.244299 
L 29.389764 -25.133003 
L 28.738845 -25.022517 
L 28.087927 -24.913322 
L 27.437008 -24.804998 
L 26.786089 -24.697925 
L 26.135171 -24.591902 
L 25.484252 -24.486738 
L 24.833333 -24.382834 
L 24.182415 -24.280101 
L 23.531496 -24.177847 
L 22.880577 -24.076668 
L 22.229659 -23.976521 
L 21.57874 -23.877583 
L 20.927822 -23.7796 
L 20.276903 -23.682515 
L 19.625984 -23.586417 
L 18.975066 -23.491444 
L 18.324147 -23.397359 
L 17.673228 -23.304463 
L 17.02231 -23.212454 
L 16.371391 -23.121468 
L 15.720472 -23.031496 
z
" id="m137e3e60a7" style="stroke:#008000;stroke-opacity:0.2;"/>
    </defs>
    <g clip-path="url(#pc794b4a979)">
     <use style="fill:#008000;fill-opacity:0.2;stroke:#008000;stroke-opacity:0.2;" x="0.0" xlink:href="#m137e3e60a7" y="184.251968504"/>
    </g>
   </g>
   <g id="PolyCollection_6">
    <defs>
     <path d="M 15.720472 -23.031496 
L 15.720472 -23.031496 
L 16.371391 -23.079106 
L 17.02231 -23.127019 
L 17.673228 -23.17525 
L 18.324147 -23.223781 
L 18.975066 -23.272605 
L 19.625984 -23.321777 
L 20.276903 -23.371221 
L 20.927822 -23.420961 
L 21.57874 -23.470988 
L 22.229659 -23.521344 
L 22.880577 -23.571965 
L 23.531496 -23.622941 
L 24.182415 -23.674125 
L 24.833333 -23.725626 
L 25.484252 -23.777498 
L 26.135171 -23.829534 
L 26.786089 -23.881906 
L 27.437008 -23.934713 
L 28.087927 -23.987584 
L 28.738845 -24.04077 
L 29.389764 -24.094348 
L 30.040682 -24.148313 
L 30.691601 -24.202514 
L 31.34252 -24.257095 
L 31.993438 -24.311846 
L 32.644357 -24.366893 
L 33.295276 -24.422209 
L 33.946194 -24.477824 
L 34.597113 -24.533791 
L 35.248031 -24.590073 
L 35.89895 -24.646669 
L 36.549869 -24.703538 
L 37.200787 -24.760757 
L 37.851706 -24.817999 
L 38.502625 -24.875639 
L 39.153543 -24.933568 
L 39.804462 -24.991991 
L 40.455381 -25.05287 
L 41.106299 -25.121403 
L 41.757218 -25.197525 
L 42.408136 -25.280392 
L 43.059055 -25.36985 
L 43.709974 -25.465583 
L 44.360892 -25.569018 
L 45.011811 -25.681913 
L 45.66273 -25.802819 
L 46.313648 -25.934852 
L 46.964567 -26.079929 
L 47.615486 -26.238361 
L 48.266404 -26.410325 
L 48.917323 -26.585498 
L 49.568241 -26.761329 
L 50.21916 -26.938554 
L 50.870079 -27.120012 
L 51.520997 -27.301331 
L 52.171916 -27.484865 
L 52.822835 -27.669234 
L 53.473753 -27.857615 
L 54.124672 -28.045819 
L 54.775591 -28.236463 
L 55.426509 -28.430605 
L 56.077428 -28.627352 
L 56.728346 -28.822964 
L 57.379265 -29.022302 
L 58.030184 -29.223501 
L 58.681102 -29.427176 
L 59.332021 -29.633124 
L 59.98294 -29.841336 
L 60.633858 -30.053112 
L 61.284777 -30.265211 
L 61.935696 -30.480061 
L 62.586614 -30.695964 
L 63.237533 -30.912813 
L 63.888451 -31.133585 
L 64.53937 -31.357081 
L 65.190289 -31.582034 
L 65.841207 -31.808294 
L 66.492126 -32.038812 
L 67.143045 -32.269929 
L 67.793963 -32.504508 
L 68.444882 -32.74204 
L 69.095801 -32.982573 
L 69.746719 -33.223752 
L 70.397638 -33.467727 
L 71.048556 -33.714376 
L 71.699475 -33.964316 
L 72.350394 -34.216921 
L 73.001312 -34.473942 
L 73.652231 -34.730371 
L 74.30315 -34.990731 
L 74.954068 -35.255242 
L 75.604987 -35.522493 
L 76.255906 -35.791721 
L 76.906824 -36.064876 
L 77.557743 -36.338894 
L 78.208661 -36.614988 
L 78.85958 -36.896349 
L 79.510499 -37.179357 
L 80.161417 -37.466284 
L 80.161417 -44.191356 
L 80.161417 -44.191356 
L 79.510499 -43.752841 
L 78.85958 -43.316066 
L 78.208661 -42.887555 
L 77.557743 -42.463504 
L 76.906824 -42.045997 
L 76.255906 -41.634315 
L 75.604987 -41.227162 
L 74.954068 -40.827169 
L 74.30315 -40.431874 
L 73.652231 -40.042882 
L 73.001312 -39.660417 
L 72.350394 -39.28098 
L 71.699475 -38.908621 
L 71.048556 -38.538186 
L 70.397638 -38.175338 
L 69.746719 -37.815159 
L 69.095801 -37.458627 
L 68.444882 -37.108313 
L 67.793963 -36.763431 
L 67.143045 -36.42369 
L 66.492126 -36.088075 
L 65.841207 -35.758382 
L 65.190289 -35.433813 
L 64.53937 -35.113484 
L 63.888451 -34.796562 
L 63.237533 -34.483562 
L 62.586614 -34.17463 
L 61.935696 -33.869634 
L 61.284777 -33.569415 
L 60.633858 -33.274957 
L 59.98294 -32.984599 
L 59.332021 -32.696424 
L 58.681102 -32.412401 
L 58.030184 -32.131852 
L 57.379265 -31.854243 
L 56.728346 -31.581675 
L 56.077428 -31.313638 
L 55.426509 -31.049602 
L 54.775591 -30.787796 
L 54.124672 -30.530336 
L 53.473753 -30.27747 
L 52.822835 -30.027153 
L 52.171916 -29.779884 
L 51.520997 -29.538946 
L 50.870079 -29.299864 
L 50.21916 -29.064774 
L 49.568241 -28.830265 
L 48.917323 -28.601999 
L 48.266404 -28.378288 
L 47.615486 -28.155621 
L 46.964567 -27.94012 
L 46.313648 -27.732022 
L 45.66273 -27.533714 
L 45.011811 -27.344634 
L 44.360892 -27.164904 
L 43.709974 -26.995935 
L 43.059055 -26.839872 
L 42.408136 -26.693519 
L 41.757218 -26.559324 
L 41.106299 -26.435893 
L 40.455381 -26.325049 
L 39.804462 -26.221728 
L 39.153543 -26.122621 
L 38.502625 -26.024272 
L 37.851706 -25.926605 
L 37.200787 -25.829766 
L 36.549869 -25.7336 
L 35.89895 -25.6381 
L 35.248031 -25.542979 
L 34.597113 -25.44897 
L 33.946194 -25.355625 
L 33.295276 -25.263046 
L 32.644357 -25.171278 
L 31.993438 -25.080055 
L 31.34252 -24.989666 
L 30.691601 -24.899979 
L 30.040682 -24.811014 
L 29.389764 -24.722846 
L 28.738845 -24.635316 
L 28.087927 -24.548524 
L 27.437008 -24.462205 
L 26.786089 -24.376723 
L 26.135171 -24.292031 
L 25.484252 -24.208 
L 24.833333 -24.124597 
L 24.182415 -24.041827 
L 23.531496 -23.959873 
L 22.880577 -23.878757 
L 22.229659 -23.798219 
L 21.57874 -23.71835 
L 20.927822 -23.639205 
L 20.276903 -23.560852 
L 19.625984 -23.483134 
L 18.975066 -23.406159 
L 18.324147 -23.329863 
L 17.673228 -23.254262 
L 17.02231 -23.179293 
L 16.371391 -23.105043 
L 15.720472 -23.031496 
z
" id="m055facee6b" style="stroke:#008000;stroke-opacity:0.2;"/>
    </defs>
    <g clip-path="url(#pc794b4a979)">
     <use style="fill:#008000;fill-opacity:0.2;stroke:#008000;stroke-opacity:0.2;" x="0.0" xlink:href="#m055facee6b" y="184.251968504"/>
    </g>
   </g>
   <g id="LineCollection_2">
    <path clip-path="url(#pc794b4a979)" d="M 15.720472 161.220472 
L 15.720472 161.220472 
" style="fill:none;stroke:#000000;"/>
    <path clip-path="url(#pc794b4a979)" d="M 31.830709 160.449799 
L 31.830709 160.157525 
" style="fill:none;stroke:#000000;"/>
    <path clip-path="url(#pc794b4a979)" d="M 39.885827 158.908993 
L 39.885827 158.232763 
" style="fill:none;stroke:#000000;"/>
    <path clip-path="url(#pc794b4a979)" d="M 47.940945 154.560085 
L 47.940945 153.220004 
" style="fill:none;stroke:#000000;"/>
    <path clip-path="url(#pc794b4a979)" d="M 64.051181 141.395781 
L 64.051181 139.5534 
" style="fill:none;stroke:#000000;"/>
    <path clip-path="url(#pc794b4a979)" d="M 80.161417 125.766562 
L 80.161417 123.418784 
" style="fill:none;stroke:#000000;"/>
   </g>
   <g id="line2d_24">
    <g clip-path="url(#pc794b4a979)">
     <use style="stroke:#000000;stroke-width:0.5;" x="15.7204724409" xlink:href="#m7ce0ad6ab4" y="161.220472441"/>
     <use style="stroke:#000000;stroke-width:0.5;" x="31.8307086614" xlink:href="#m7ce0ad6ab4" y="160.449799043"/>
     <use style="stroke:#000000;stroke-width:0.5;" x="39.8858267717" xlink:href="#m7ce0ad6ab4" y="158.90899334"/>
     <use style="stroke:#000000;stroke-width:0.5;" x="47.9409448819" xlink:href="#m7ce0ad6ab4" y="154.560085423"/>
     <use style="stroke:#000000;stroke-width:0.5;" x="64.0511811024" xlink:href="#m7ce0ad6ab4" y="141.395780796"/>
     <use style="stroke:#000000;stroke-width:0.5;" x="80.1614173228" xlink:href="#m7ce0ad6ab4" y="125.766561584"/>
    </g>
   </g>
   <g id="line2d_25">
    <g clip-path="url(#pc794b4a979)">
     <use style="stroke:#000000;stroke-width:0.5;" x="15.7204724409" xlink:href="#m7ce0ad6ab4" y="161.220472441"/>
     <use style="stroke:#000000;stroke-width:0.5;" x="31.8307086614" xlink:href="#m7ce0ad6ab4" y="160.157524686"/>
     <use style="stroke:#000000;stroke-width:0.5;" x="39.8858267717" xlink:href="#m7ce0ad6ab4" y="158.23276323"/>
     <use style="stroke:#000000;stroke-width:0.5;" x="47.9409448819" xlink:href="#m7ce0ad6ab4" y="153.220003607"/>
     <use style="stroke:#000000;stroke-width:0.5;" x="64.0511811024" xlink:href="#m7ce0ad6ab4" y="139.553400485"/>
     <use style="stroke:#000000;stroke-width:0.5;" x="80.1614173228" xlink:href="#m7ce0ad6ab4" y="123.418784246"/>
    </g>
   </g>
   <g id="line2d_26">
    <g clip-path="url(#pc794b4a979)">
     <use style="stroke:#000000;stroke-width:0.5;" x="15.7204724409" xlink:href="#m70f2804e15" y="161.220472441"/>
     <use style="stroke:#000000;stroke-width:0.5;" x="31.8307086614" xlink:href="#m70f2804e15" y="160.303661865"/>
     <use style="stroke:#000000;stroke-width:0.5;" x="39.8858267717" xlink:href="#m70f2804e15" y="158.570878285"/>
     <use style="stroke:#000000;stroke-width:0.5;" x="47.9409448819" xlink:href="#m70f2804e15" y="153.890044515"/>
     <use style="stroke:#000000;stroke-width:0.5;" x="64.0511811024" xlink:href="#m70f2804e15" y="140.474590641"/>
     <use style="stroke:#000000;stroke-width:0.5;" x="80.1614173228" xlink:href="#m70f2804e15" y="124.592672915"/>
    </g>
   </g>
   <g id="patch_8">
    <path d="M 11.692913 96.313529 
L 84.188976 96.313529 
" style="fill:none;stroke:#000000;stroke-linecap:square;stroke-linejoin:miter;"/>
   </g>
   <g id="patch_9">
    <path d="M 84.188976 161.220472 
L 84.188976 96.313529 
" style="fill:none;stroke:#000000;stroke-linecap:square;stroke-linejoin:miter;"/>
   </g>
   <g id="patch_10">
    <path d="M 11.692913 161.220472 
L 84.188976 161.220472 
" style="fill:none;stroke:#000000;stroke-linecap:square;stroke-linejoin:miter;"/>
   </g>
   <g id="patch_11">
    <path d="M 11.692913 161.220472 
L 11.692913 96.313529 
" style="fill:none;stroke:#000000;stroke-linecap:square;stroke-linejoin:miter;"/>
   </g>
   <g id="matplotlib.axis_3">
    <g id="xtick_6">
     <g id="line2d_27">
      <g>
       <use style="stroke:#000000;stroke-width:0.5;" x="15.7204724409" xlink:href="#m420a91265a" y="161.220472441"/>
      </g>
     </g>
     <g id="line2d_28">
      <g>
       <use style="stroke:#000000;stroke-width:0.5;" x="15.7204724409" xlink:href="#mcaae42441c" y="96.3135289907"/>
      </g>
     </g>
     <g id="text_5">
      <text style="font-family:Helvetica LT Std;font-size:8.0px;font-style:normal;font-weight:400;text-anchor:middle;" transform="rotate(-0.000000, 15.720472, 170.916722)" x="15.7204724409" y="170.916722441">0</text>
     </g>
    </g>
    <g id="xtick_7">
     <g id="line2d_29">
      <g>
       <use style="stroke:#000000;stroke-width:0.5;" x="31.8307086614" xlink:href="#m420a91265a" y="161.220472441"/>
      </g>
     </g>
     <g id="line2d_30">
      <g>
       <use style="stroke:#000000;stroke-width:0.5;" x="31.8307086614" xlink:href="#mcaae42441c" y="96.3135289907"/>
      </g>
     </g>
     <g id="text_6">
      <text style="font-family:Helvetica LT Std;font-size:8.0px;font-style:normal;font-weight:400;text-anchor:middle;" transform="rotate(-0.000000, 31.830709, 170.916722)" x="31.8307086614" y="170.916722441">2</text>
     </g>
    </g>
    <g id="xtick_8">
     <g id="line2d_31">
      <g>
       <use style="stroke:#000000;stroke-width:0.5;" x="47.9409448819" xlink:href="#m420a91265a" y="161.220472441"/>
      </g>
     </g>
     <g id="line2d_32">
      <g>
       <use style="stroke:#000000;stroke-width:0.5;" x="47.9409448819" xlink:href="#mcaae42441c" y="96.3135289907"/>
      </g>
     </g>
     <g id="text_7">
      <text style="font-family:Helvetica LT Std;font-size:8.0px;font-style:normal;font-weight:400;text-anchor:middle;" transform="rotate(-0.000000, 47.940945, 170.916722)" x="47.9409448819" y="170.916722441">4</text>
     </g>
    </g>
    <g id="xtick_9">
     <g id="line2d_33">
      <g>
       <use style="stroke:#000000;stroke-width:0.5;" x="64.0511811024" xlink:href="#m420a91265a" y="161.220472441"/>
      </g>
     </g>
     <g id="line2d_34">
      <g>
       <use style="stroke:#000000;stroke-width:0.5;" x="64.0511811024" xlink:href="#mcaae42441c" y="96.3135289907"/>
      </g>
     </g>
     <g id="text_8">
      <text style="font-family:Helvetica LT Std;font-size:8.0px;font-style:normal;font-weight:400;text-anchor:middle;" transform="rotate(-0.000000, 64.051181, 170.916722)" x="64.0511811024" y="170.916722441">6</text>
     </g>
    </g>
    <g id="xtick_10">
     <g id="line2d_35">
      <g>
       <use style="stroke:#000000;stroke-width:0.5;" x="80.1614173228" xlink:href="#m420a91265a" y="161.220472441"/>
      </g>
     </g>
     <g id="line2d_36">
      <g>
       <use style="stroke:#000000;stroke-width:0.5;" x="80.1614173228" xlink:href="#mcaae42441c" y="96.3135289907"/>
      </g>
     </g>
     <g id="text_9">
      <text style="font-family:Helvetica LT Std;font-size:8.0px;font-style:normal;font-weight:400;text-anchor:middle;" transform="rotate(-0.000000, 80.161417, 170.916722)" x="80.1614173228" y="170.916722441">8</text>
     </g>
    </g>
    <g id="text_10">
     <text style="font-family:Helvetica LT Std;font-size:8.0px;font-style:normal;font-weight:400;text-anchor:middle;" transform="rotate(-0.000000, 47.940945, 182.636722)" x="47.9409448819" y="182.636722441">Time (days)</text>
    </g>
   </g>
   <g id="matplotlib.axis_4">
    <g id="ytick_6">
     <g id="line2d_37">
      <g>
       <use style="stroke:#000000;stroke-width:0.5;" x="11.6929133858" xlink:href="#m8990428561" y="161.220472441"/>
      </g>
     </g>
     <g id="line2d_38">
      <g>
       <use style="stroke:#000000;stroke-width:0.5;" x="84.188976378" xlink:href="#mb370afbd4a" y="161.220472441"/>
      </g>
     </g>
     <g id="text_11">
      <text style="font-family:Helvetica LT Std;font-size:8.0px;font-style:normal;font-weight:400;text-anchor:end;" transform="rotate(-0.000000, 7.692913, 163.556722)" x="7.69291338583" y="163.556722441">0</text>
     </g>
    </g>
    <g id="ytick_7">
     <g id="line2d_39">
      <g>
       <use style="stroke:#000000;stroke-width:0.5;" x="11.6929133858" xlink:href="#m8990428561" y="144.993736578"/>
      </g>
     </g>
     <g id="line2d_40">
      <g>
       <use style="stroke:#000000;stroke-width:0.5;" x="84.188976378" xlink:href="#mb370afbd4a" y="144.993736578"/>
      </g>
     </g>
     <g id="text_12">
      <text style="font-family:Helvetica LT Std;font-size:8.0px;font-style:normal;font-weight:400;text-anchor:end;" transform="rotate(-0.000000, 7.692913, 147.329987)" x="7.69291338583" y="147.329986578">1</text>
     </g>
    </g>
    <g id="ytick_8">
     <g id="line2d_41">
      <g>
       <use style="stroke:#000000;stroke-width:0.5;" x="11.6929133858" xlink:href="#m8990428561" y="128.767000716"/>
      </g>
     </g>
     <g id="line2d_42">
      <g>
       <use style="stroke:#000000;stroke-width:0.5;" x="84.188976378" xlink:href="#mb370afbd4a" y="128.767000716"/>
      </g>
     </g>
     <g id="text_13">
      <text style="font-family:Helvetica LT Std;font-size:8.0px;font-style:normal;font-weight:400;text-anchor:end;" transform="rotate(-0.000000, 7.692913, 131.103251)" x="7.69291338583" y="131.103250716">2</text>
     </g>
    </g>
    <g id="ytick_9">
     <g id="line2d_43">
      <g>
       <use style="stroke:#000000;stroke-width:0.5;" x="11.6929133858" xlink:href="#m8990428561" y="112.540264853"/>
      </g>
     </g>
     <g id="line2d_44">
      <g>
       <use style="stroke:#000000;stroke-width:0.5;" x="84.188976378" xlink:href="#mb370afbd4a" y="112.540264853"/>
      </g>
     </g>
     <g id="text_14">
      <text style="font-family:Helvetica LT Std;font-size:8.0px;font-style:normal;font-weight:400;text-anchor:end;" transform="rotate(-0.000000, 7.692913, 114.876515)" x="7.69291338583" y="114.876514853">3</text>
     </g>
    </g>
    <g id="ytick_10">
     <g id="line2d_45">
      <g>
       <use style="stroke:#000000;stroke-width:0.5;" x="11.6929133858" xlink:href="#m8990428561" y="96.3135289907"/>
      </g>
     </g>
     <g id="line2d_46">
      <g>
       <use style="stroke:#000000;stroke-width:0.5;" x="84.188976378" xlink:href="#mb370afbd4a" y="96.3135289907"/>
      </g>
     </g>
     <g id="text_15">
      <text style="font-family:Helvetica LT Std;font-size:8.0px;font-style:normal;font-weight:400;text-anchor:end;" transform="rotate(-0.000000, 7.692913, 98.649779)" x="7.69291338583" y="98.6497789907">4</text>
     </g>
    </g>
    <g id="text_16">
     <text style="font-family:Helvetica LT Std;font-size:8.0px;font-style:normal;font-weight:400;text-anchor:middle;" transform="rotate(-90.000000, -0.994587, 128.767001)" x="-0.994586614173" y="128.767000716">Outgrowth (mm)</text>
    </g>
   </g>
  </g>
  <g id="text_17">
   <text style="font-family:Helvetica LT Std;font-size:8.0px;font-style:normal;font-weight:400;text-anchor:middle;" transform="rotate(-0.000000, 46.771654, 9.381289)" x="46.7716535433" y="9.38128937008">No influx</text>
  </g>
 </g>
 <defs>
  <clipPath id="pc794b4a979">
   <rect height="64.9069434503" width="72.4960629921" x="11.6929133858" y="96.3135289907"/>
  </clipPath>
  <clipPath id="pc56b4c764b">
   <rect height="64.9069434503" width="72.4960629921" x="11.6929133858" y="18.4251968504"/>
  </clipPath>
 </defs>
</svg>
